<?xml version="1.0" encoding="UTF-8" standalone="no"?>
<svg width="60px" height="60px" viewBox="0 0 60 60" version="1.1" xmlns="http://www.w3.org/2000/svg" xmlns:xlink="http://www.w3.org/1999/xlink" xmlns:sketch="http://www.bohemiancoding.com/sketch/ns">
    <!-- Generator: Sketch 3.3.3 (12081) - http://www.bohemiancoding.com/sketch -->
    <title>4Grid</title>
    <desc>Created with Sketch.</desc>
    <defs></defs>
    <g id="outlined" stroke="none" stroke-width="1" fill="none" fill-rule="evenodd" sketch:type="MSPage">
        <g id="Interface_sliced" sketch:type="MSLayerGroup" transform="translate(-360.000000, -240.000000)">
            <g id="Imported-Layers" transform="translate(2.000000, 4.000000)" sketch:type="MSShapeGroup">
                <path d="M363,266 L388,266 L388,291 L363,291 L363,266 Z" id="Fill-231" fill="#EBEBEB"></path>
                <path d="M388,292 L363,292 C362.448,292 362,291.552 362,291 L362,266 C362,265.448 362.448,265 363,265 L388,265 C388.552,265 389,265.448 389,266 L389,291 C389,291.552 388.552,292 388,292 L388,292 Z M364,290 L387,290 L387,267 L364,267 L364,290 Z" id="Fill-233" fill="#314E55"></path>
                <path d="M363,241 L388,241 L388,266 L363,266 L363,241 Z" id="Fill-234" fill="#D8D8D8"></path>
                <path d="M388,267 L363,267 C362.448,267 362,266.552 362,266 L362,241 C362,240.448 362.448,240 363,240 L388,240 C388.552,240 389,240.448 389,241 L389,266 C389,266.552 388.552,267 388,267 L388,267 Z M364,265 L387,265 L387,242 L364,242 L364,265 Z" id="Fill-236" fill="#314E55"></path>
                <path d="M388,266 L413,266 L413,291 L388,291 L388,266 Z" id="Fill-237" fill="#D8D8D8"></path>
                <path d="M413,292 L388,292 C387.448,292 387,291.552 387,291 L387,266 C387,265.448 387.448,265 388,265 L413,265 C413.552,265 414,265.448 414,266 L414,291 C414,291.552 413.552,292 413,292 L413,292 Z M389,290 L412,290 L412,267 L389,267 L389,290 Z" id="Fill-239" fill="#314E55"></path>
                <path d="M388,241 L413,241 L413,266 L388,266 L388,241 Z" id="Fill-240" fill="#EBEBEB"></path>
                <path d="M413,267 L388,267 C387.448,267 387,266.552 387,266 L387,241 C387,240.448 387.448,240 388,240 L413,240 C413.552,240 414,240.448 414,241 L414,266 C414,266.552 413.552,267 413,267 L413,267 Z M389,265 L412,265 L412,242 L389,242 L389,265 Z" id="Fill-242" fill="#314E55"></path>
            </g>
        </g>
    </g>
</svg>