<?xml version="1.0" encoding="UTF-8" standalone="no"?>
<svg width="60px" height="60px" viewBox="0 0 60 60" version="1.1" xmlns="http://www.w3.org/2000/svg" xmlns:xlink="http://www.w3.org/1999/xlink" xmlns:sketch="http://www.bohemiancoding.com/sketch/ns">
    <!-- Generator: Sketch 3.3.3 (12081) - http://www.bohemiancoding.com/sketch -->
    <title>Add</title>
    <desc>Created with Sketch.</desc>
    <defs>
        <path id="path-1" d="M26,52 C40.359,52 52,40.359 52,26 C52,11.641 40.359,0 26,0 C11.641,0 0,11.641 0,26 C0,40.359 11.641,52 26,52 L26,52 Z"></path>
    </defs>
    <g id="outlined" stroke="none" stroke-width="1" fill="none" fill-rule="evenodd" sketch:type="MSPage">
        <g id="Interface_sliced" sketch:type="MSLayerGroup" transform="translate(0.000000, -1080.000000)">
            <g id="Imported-Layers" transform="translate(2.000000, 4.000000)">
                <g id="Group-937" transform="translate(2.000000, 1080.000000)">
                    <mask id="mask-2" sketch:name="Clip 936" fill="white">
                        <use xlink:href="#path-1"></use>
                    </mask>
                    <g id="Clip-936"></g>
                    <path d="M0,0 L52,0 L52,52 L0,52 L0,0 Z" id="Fill-935" fill="#5ECB66" sketch:type="MSShapeGroup" mask="url(#mask-2)"></path>
                </g>
                <path d="M28,1133 C13.112,1133 1,1120.888 1,1106 C1,1091.112 13.112,1079 28,1079 C42.888,1079 55,1091.112 55,1106 C55,1120.888 42.888,1133 28,1133 L28,1133 Z M28,1081 C14.215,1081 3,1092.215 3,1106 C3,1119.785 14.215,1131 28,1131 C41.785,1131 53,1119.785 53,1106 C53,1092.215 41.785,1081 28,1081 L28,1081 Z" id="Fill-938" fill="#314E55" sketch:type="MSShapeGroup"></path>
                <path d="M28,1120 C27.448,1120 27,1119.552 27,1119 L27,1093 C27,1092.448 27.448,1092 28,1092 C28.552,1092 29,1092.448 29,1093 L29,1119 C29,1119.552 28.552,1120 28,1120" id="Fill-939" fill="#314E55" sketch:type="MSShapeGroup"></path>
                <path d="M41,1107 L15,1107 C14.448,1107 14,1106.552 14,1106 C14,1105.448 14.448,1105 15,1105 L41,1105 C41.552,1105 42,1105.448 42,1106 C42,1106.552 41.552,1107 41,1107" id="Fill-940" fill="#314E55" sketch:type="MSShapeGroup"></path>
            </g>
        </g>
    </g>
</svg>