<?xml version="1.0" encoding="UTF-8" standalone="no"?>
<svg width="60px" height="60px" viewBox="0 0 60 60" version="1.1" xmlns="http://www.w3.org/2000/svg" xmlns:xlink="http://www.w3.org/1999/xlink" xmlns:sketch="http://www.bohemiancoding.com/sketch/ns">
    <!-- Generator: Sketch 3.3.3 (12081) - http://www.bohemiancoding.com/sketch -->
    <title>Addpoint</title>
    <desc>Created with Sketch.</desc>
    <defs>
        <path id="path-1" d="M0.797,31.703 L10.697,0.59 L31.91,21.803 L0.797,31.703"></path>
        <path id="path-3" d="M14.374,23.268 L0.232,9.126 L11.546,0.64 L22.86,11.954 L14.374,23.268"></path>
        <path id="path-5" d="M7.475,2.025 C5.913,0.463 3.38,0.463 1.818,2.025 C0.256,3.587 0.256,6.12 1.818,7.682 C3.38,9.244 5.913,9.244 7.475,7.682 C9.037,6.12 9.037,3.587 7.475,2.025"></path>
    </defs>
    <g id="outlined" stroke="none" stroke-width="1" fill="none" fill-rule="evenodd" sketch:type="MSPage">
        <g id="Interface_sliced" sketch:type="MSLayerGroup" transform="translate(-600.000000, -1200.000000)">
            <g id="Imported-Layers" transform="translate(2.000000, 4.000000)">
                <g id="Group-1048" transform="translate(617.000000, 1205.000000)">
                    <mask id="mask-2" sketch:name="Clip 1047" fill="white">
                        <use xlink:href="#path-1"></use>
                    </mask>
                    <g id="Clip-1047"></g>
                    <path d="M11.404,49.38 L-16.881,21.096 L10.697,-6.481 L38.981,21.803 L11.404,49.38" id="Fill-1046" fill="#5ECB66" sketch:type="MSShapeGroup" mask="url(#mask-2)"></path>
                </g>
                <path d="M617.797,1237.702 C617.536,1237.702 617.28,1237.6 617.09,1237.409 C616.825,1237.144 616.73,1236.755 616.844,1236.399 L626.743,1205.286 C626.85,1204.954 627.121,1204.7 627.46,1204.618 C627.796,1204.534 628.156,1204.634 628.403,1204.882 L649.617,1226.096 C649.864,1226.343 649.964,1226.7 649.882,1227.039 C649.799,1227.378 649.546,1227.649 649.213,1227.756 L618.1,1237.655 C618.001,1237.686 617.898,1237.702 617.797,1237.702 L617.797,1237.702 Z M628.151,1207.458 L619.336,1235.163 L647.041,1226.348 L628.151,1207.458 L628.151,1207.458 Z" id="Fill-1049" fill="#314E55" sketch:type="MSShapeGroup"></path>
                <g id="Group-1052" transform="translate(631.000000, 1200.000000)">
                    <mask id="mask-4" sketch:name="Clip 1051" fill="white">
                        <use xlink:href="#path-3"></use>
                    </mask>
                    <g id="Clip-1051"></g>
                    <path d="M14.374,30.339 L-6.839,9.126 L10.132,-7.845 L31.345,13.368 L14.374,30.339" id="Fill-1050" fill="#EBEBEB" sketch:type="MSShapeGroup" mask="url(#mask-4)"></path>
                </g>
                <path d="M645.374,1224.268 C645.109,1224.268 644.855,1224.164 644.667,1223.975 L630.525,1209.833 C630.32,1209.628 630.215,1209.344 630.235,1209.055 C630.256,1208.766 630.4,1208.5 630.633,1208.326 L641.946,1199.841 C642.344,1199.542 642.902,1199.582 643.253,1199.934 L654.566,1211.247 C654.918,1211.599 654.958,1212.156 654.659,1212.554 L646.174,1223.868 C646,1224.1 645.734,1224.245 645.445,1224.266 C645.421,1224.267 645.397,1224.268 645.374,1224.268 L645.374,1224.268 Z M632.755,1209.234 L645.266,1221.746 L652.539,1212.048 L642.452,1201.961 L632.755,1209.234 L632.755,1209.234 Z" id="Fill-1053" fill="#314E55" sketch:type="MSShapeGroup"></path>
                <path d="M618.504,1237.41 L617.09,1235.996 L629.111,1223.975 L630.525,1225.389 L618.504,1237.41" id="Fill-1054" fill="#314E55" sketch:type="MSShapeGroup"></path>
                <g id="Group-1057" transform="translate(628.000000, 1217.000000)">
                    <mask id="mask-6" sketch:name="Clip 1056" fill="white">
                        <use xlink:href="#path-5"></use>
                    </mask>
                    <g id="Clip-1056"></g>
                    <path d="M4.646,17.581 L-8.081,4.854 L4.646,-7.874 L17.374,4.854 L4.646,17.581" id="Fill-1055" fill="#D8D8D8" sketch:type="MSShapeGroup" mask="url(#mask-6)"></path>
                </g>
                <path d="M632.646,1226.854 C631.31,1226.854 630.055,1226.333 629.111,1225.389 C628.167,1224.444 627.646,1223.189 627.646,1221.854 C627.646,1220.518 628.167,1219.262 629.111,1218.318 C630.055,1217.374 631.31,1216.853 632.646,1216.853 C633.982,1216.853 635.238,1217.374 636.182,1218.318 C637.126,1219.262 637.646,1220.518 637.646,1221.854 C637.646,1223.189 637.126,1224.444 636.182,1225.389 C635.238,1226.333 633.982,1226.854 632.646,1226.854 L632.646,1226.854 Z M632.646,1218.853 C631.845,1218.853 631.092,1219.165 630.525,1219.732 C629.959,1220.299 629.646,1221.052 629.646,1221.854 C629.646,1222.655 629.959,1223.408 630.525,1223.975 C631.658,1225.108 633.635,1225.108 634.768,1223.975 C635.334,1223.408 635.646,1222.655 635.646,1221.854 C635.646,1221.052 635.334,1220.299 634.768,1219.732 C634.201,1219.165 633.448,1218.853 632.646,1218.853 L632.646,1218.853 Z" id="Fill-1058" fill="#314E55" sketch:type="MSShapeGroup"></path>
                <path d="M647,1250.038 C646.447,1250.038 646,1249.591 646,1249.038 L646,1237 C646,1236.447 646.447,1236 647,1236 C647.553,1236 648,1236.447 648,1237 L648,1249.038 C648,1249.591 647.553,1250.038 647,1250.038" id="Fill-1059" fill="#314E55" sketch:type="MSShapeGroup"></path>
                <path d="M653.038,1244 L641,1244 C640.447,1244 640,1243.553 640,1243 C640,1242.447 640.447,1242 641,1242 L653.038,1242 C653.591,1242 654.038,1242.447 654.038,1243 C654.038,1243.553 653.591,1244 653.038,1244" id="Fill-1060" fill="#314E55" sketch:type="MSShapeGroup"></path>
                <path d="M604,1241 L612,1241 L612,1249 L604,1249 L604,1241 Z" id="Fill-1061" fill="#F28544" sketch:type="MSShapeGroup"></path>
                <path d="M612,1250 L604,1250 C603.447,1250 603,1249.553 603,1249 L603,1241 C603,1240.447 603.447,1240 604,1240 L612,1240 C612.553,1240 613,1240.447 613,1241 L613,1249 C613,1249.553 612.553,1250 612,1250 L612,1250 Z M605,1248 L611,1248 L611,1242 L605,1242 L605,1248 Z" id="Fill-1063" fill="#314E55" sketch:type="MSShapeGroup"></path>
                <path d="M607,1234 L609,1234 L609,1241 L607,1241 L607,1234 Z" id="Fill-1064" fill="#314E55" sketch:type="MSShapeGroup"></path>
                <path d="M612,1244 L619,1244 L619,1246 L612,1246 L612,1244 Z" id="Fill-1065" fill="#314E55" sketch:type="MSShapeGroup"></path>
            </g>
        </g>
    </g>
</svg>