<?xml version="1.0" encoding="UTF-8" standalone="no"?>
<svg width="60px" height="60px" viewBox="0 0 60 60" version="1.1" xmlns="http://www.w3.org/2000/svg" xmlns:xlink="http://www.w3.org/1999/xlink" xmlns:sketch="http://www.bohemiancoding.com/sketch/ns">
    <!-- Generator: Sketch 3.3.3 (12081) - http://www.bohemiancoding.com/sketch -->
    <title>Alert</title>
    <desc>Created with Sketch.</desc>
    <defs>
        <path id="path-1" d="M6.123,39.937 C2.316,35.698 0,30.096 0,23.955 C0,10.725 10.745,0 24,0 C37.255,0 48,10.725 48,23.955 C48,37.184 37.255,47.909 24,47.909 C20.435,47.909 17.052,47.133 14.011,45.742 L4.645,51 L6.123,39.937 L6.123,39.937 Z"></path>
        <path id="path-3" d="M0,2.001 C0,0.897 0.898,0 2,0 C3.105,0 4,0.895 4,2.001 L4,17.999 C4,19.103 3.102,20 2,20 C0.895,20 0,19.104 0,17.999 L0,2.001"></path>
        <path id="path-5" d="M0,3.001 C0,1.344 1.346,0 3,0 C4.657,0 6,1.343 6,3.001 L6,18.999 C6,20.656 4.653,22 3,22 C1.343,22 0,20.657 0,18.999 L0,3.001 L0,3.001 Z"></path>
        <path id="path-7" d="M2,4 C3.105,4 4,3.104 4,2 C4,0.895 3.105,0 2,0 C0.895,0 0,0.895 0,2 C0,3.104 0.895,4 2,4 L2,4 Z"></path>
    </defs>
    <g id="outlined" stroke="none" stroke-width="1" fill="none" fill-rule="evenodd" sketch:type="MSPage">
        <g id="Interface_sliced" sketch:type="MSLayerGroup" transform="translate(0.000000, -2400.000000)">
            <g id="Imported-Layers" transform="translate(2.000000, 4.000000)">
                <g id="Group-2155" transform="translate(6.000000, 2400.000000)">
                    <mask id="mask-2" sketch:name="Clip 2154" fill="white">
                        <use xlink:href="#path-1"></use>
                    </mask>
                    <g id="Clip-2154"></g>
                    <path d="M0,0 L48,0 L48,51 L0,51 L0,0 Z" id="Fill-2153" fill="#EBEBEB" sketch:type="MSShapeGroup" mask="url(#mask-2)"></path>
                </g>
                <path d="M10.645,2452 C10.449,2452 10.252,2451.942 10.083,2451.827 C9.77,2451.615 9.603,2451.243 9.654,2450.867 L11.071,2440.257 C7.153,2435.727 5,2429.957 5,2423.954 C5,2410.194 16.215,2399 30,2399 C43.785,2399 55,2410.194 55,2423.954 C55,2437.715 43.785,2448.909 30,2448.909 C26.542,2448.909 23.202,2448.22 20.062,2446.86 L11.135,2451.872 C10.982,2451.958 10.813,2452 10.645,2452 L10.645,2452 Z M30,2401 C17.318,2401 7,2411.297 7,2423.954 C7,2429.618 9.083,2435.057 12.867,2439.269 C13.062,2439.487 13.153,2439.779 13.114,2440.07 L11.901,2449.147 L19.521,2444.87 C19.8,2444.713 20.137,2444.7 20.427,2444.833 C23.438,2446.211 26.659,2446.909 30,2446.909 C42.682,2446.909 53,2436.611 53,2423.954 C53,2411.297 42.682,2401 30,2401 L30,2401 Z" id="Fill-2156" fill="#314E55" sketch:type="MSShapeGroup"></path>
                <g id="Group-2159" transform="translate(28.000000, 2410.000000)">
                    <mask id="mask-4" sketch:name="Clip 2158" fill="white">
                        <use xlink:href="#path-3"></use>
                    </mask>
                    <g id="Clip-2158"></g>
                    <path d="M-1,2.001 C-1,0.344 0.346,-1 2,-1 C3.657,-1 5,0.343 5,2.001 L5,17.999 C5,19.656 3.653,21 2,21 C0.343,21 -1,19.657 -1,17.999 L-1,2.001" id="Fill-2157" fill="#F28544" sketch:type="MSShapeGroup" mask="url(#mask-4)"></path>
                </g>
                <g id="Group-2162" transform="translate(27.000000, 2409.000000)">
                    <mask id="mask-6" sketch:name="Clip 2161" fill="white">
                        <use xlink:href="#path-5"></use>
                    </mask>
                    <g id="Clip-2161"></g>
                    <path d="M3,24 C0.243,24 -2,21.757 -2,18.999 L-2,3.001 C-2,0.243 0.243,-2 3,-2 C5.757,-2 8,0.243 8,3.001 L8,18.999 C8,21.757 5.757,24 3,24 L3,24 Z M3,2 C2.449,2 2,2.449 2,3.001 L2,18.999 C2,19.551 2.449,20 3,20 C3.551,20 4,19.551 4,18.999 L4,3.001 C4,2.449 3.551,2 3,2 L3,2 Z" id="Fill-2160" fill="#314E55" sketch:type="MSShapeGroup" mask="url(#mask-6)"></path>
                </g>
                <g id="Group-2165" transform="translate(28.000000, 2434.000000)">
                    <mask id="mask-8" sketch:name="Clip 2164" fill="white">
                        <use xlink:href="#path-7"></use>
                    </mask>
                    <g id="Clip-2164"></g>
                    <path d="M0,0 L4,0 L4,4 L0,4 L0,0 Z" id="Fill-2163" fill="#F28544" sketch:type="MSShapeGroup" mask="url(#mask-8)"></path>
                </g>
                <path d="M30,2439 C28.346,2439 27,2437.654 27,2436 C27,2434.346 28.346,2433 30,2433 C31.654,2433 33,2434.346 33,2436 C33,2437.654 31.654,2439 30,2439 L30,2439 Z M30,2435 C29.449,2435 29,2435.448 29,2436 C29,2436.552 29.449,2437 30,2437 C30.551,2437 31,2436.552 31,2436 C31,2435.448 30.551,2435 30,2435 L30,2435 Z" id="Fill-2166" fill="#314E55" sketch:type="MSShapeGroup"></path>
            </g>
        </g>
    </g>
</svg>