<?xml version="1.0" encoding="UTF-8" standalone="no"?>
<svg width="60px" height="60px" viewBox="0 0 60 60" version="1.1" xmlns="http://www.w3.org/2000/svg" xmlns:xlink="http://www.w3.org/1999/xlink" xmlns:sketch="http://www.bohemiancoding.com/sketch/ns">
    <!-- Generator: Sketch 3.3.3 (12081) - http://www.bohemiancoding.com/sketch -->
    <title>Align</title>
    <desc>Created with Sketch.</desc>
    <defs></defs>
    <g id="outlined" stroke="none" stroke-width="1" fill="none" fill-rule="evenodd" sketch:type="MSPage">
        <g id="Interface_sliced" sketch:type="MSLayerGroup" transform="translate(-240.000000, -840.000000)">
            <g id="Imported-Layers" transform="translate(2.000000, 4.000000)" sketch:type="MSShapeGroup">
                <path d="M244,847 L292,847 L292,852 L244,852 L244,847 Z" id="Fill-763" fill="#E4AD40"></path>
                <path d="M292,853 L244,853 C243.448,853 243,852.552 243,852 L243,847 C243,846.448 243.448,846 244,846 L292,846 C292.552,846 293,846.448 293,847 L293,852 C293,852.552 292.552,853 292,853 L292,853 Z M245,851 L291,851 L291,848 L245,848 L245,851 Z" id="Fill-765" fill="#314E55"></path>
                <path d="M244,859 L292,859 L292,867 L244,867 L244,859 Z" id="Fill-766" fill="#F28544"></path>
                <path d="M292,868 L244,868 C243.448,868 243,867.552 243,867 L243,859 C243,858.448 243.448,858 244,858 L292,858 C292.552,858 293,858.448 293,859 L293,867 C293,867.552 292.552,868 292,868 L292,868 Z M245,866 L291,866 L291,860 L245,860 L245,866 Z" id="Fill-768" fill="#314E55"></path>
                <path d="M244,874 L292,874 L292,886 L244,886 L244,874 Z" id="Fill-769" fill="#E65F58"></path>
                <path d="M292,887 L244,887 C243.448,887 243,886.552 243,886 L243,874 C243,873.448 243.448,873 244,873 L292,873 C292.552,873 293,873.448 293,874 L293,886 C293,886.552 292.552,887 292,887 L292,887 Z M245,885 L291,885 L291,875 L245,875 L245,885 Z" id="Fill-771" fill="#314E55"></path>
            </g>
        </g>
    </g>
</svg>