<?xml version="1.0" encoding="UTF-8" standalone="no"?>
<svg width="60px" height="60px" viewBox="0 0 60 60" version="1.1" xmlns="http://www.w3.org/2000/svg" xmlns:xlink="http://www.w3.org/1999/xlink" xmlns:sketch="http://www.bohemiancoding.com/sketch/ns">
    <!-- Generator: Sketch 3.3.3 (12081) - http://www.bohemiancoding.com/sketch -->
    <title>Alignleft</title>
    <desc>Created with Sketch.</desc>
    <defs></defs>
    <g id="outlined" stroke="none" stroke-width="1" fill="none" fill-rule="evenodd" sketch:type="MSPage">
        <g id="Interface_sliced" sketch:type="MSLayerGroup" transform="translate(-240.000000, -720.000000)">
            <g id="Imported-Layers" transform="translate(2.000000, 4.000000)" sketch:type="MSShapeGroup">
                <path d="M250,731 L284,731 L284,741 L250,741 L250,731 Z" id="Fill-700" fill="#81A4E3"></path>
                <path d="M284,742 L250,742 C249.448,742 249,741.552 249,741 L249,731 C249,730.448 249.448,730 250,730 L284,730 C284.552,730 285,730.448 285,731 L285,741 C285,741.552 284.552,742 284,742 L284,742 Z M251,740 L283,740 L283,732 L251,732 L251,740 Z" id="Fill-702" fill="#314E55"></path>
                <path d="M250,751 L272,751 L272,761 L250,761 L250,751 Z" id="Fill-703" fill="#81A4E3"></path>
                <path d="M272,762 L250,762 C249.448,762 249,761.552 249,761 L249,751 C249,750.448 249.448,750 250,750 L272,750 C272.552,750 273,750.448 273,751 L273,761 C273,761.552 272.552,762 272,762 L272,762 Z M251,760 L271,760 L271,752 L251,752 L251,760 Z" id="Fill-705" fill="#314E55"></path>
                <path d="M243,720 L245,720 L245,770 L243,770 L243,720 Z" id="Fill-706" fill="#314E55"></path>
            </g>
        </g>
    </g>
</svg>