<?xml version="1.0" encoding="UTF-8" standalone="no"?>
<svg width="60px" height="60px" viewBox="0 0 60 60" version="1.1" xmlns="http://www.w3.org/2000/svg" xmlns:xlink="http://www.w3.org/1999/xlink" xmlns:sketch="http://www.bohemiancoding.com/sketch/ns">
    <!-- Generator: Sketch 3.3.3 (12081) - http://www.bohemiancoding.com/sketch -->
    <title>Alignright</title>
    <desc>Created with Sketch.</desc>
    <defs></defs>
    <g id="outlined" stroke="none" stroke-width="1" fill="none" fill-rule="evenodd" sketch:type="MSPage">
        <g id="Interface_sliced" sketch:type="MSLayerGroup" transform="translate(-360.000000, -720.000000)">
            <g id="Imported-Layers" transform="translate(2.000000, 4.000000)" sketch:type="MSShapeGroup">
                <path d="M369,730 L403,730 L403,740 L369,740 L369,730 Z" id="Fill-707" fill="#81A4E3"></path>
                <path d="M403,741 L369,741 C368.448,741 368,740.552 368,740 L368,730 C368,729.448 368.448,729 369,729 L403,729 C403.552,729 404,729.448 404,730 L404,740 C404,740.552 403.552,741 403,741 L403,741 Z M370,739 L402,739 L402,731 L370,731 L370,739 Z" id="Fill-709" fill="#314E55"></path>
                <path d="M381,750 L403,750 L403,760 L381,760 L381,750 Z" id="Fill-710" fill="#81A4E3"></path>
                <path d="M403,761 L381,761 C380.448,761 380,760.552 380,760 L380,750 C380,749.448 380.448,749 381,749 L403,749 C403.552,749 404,749.448 404,750 L404,760 C404,760.552 403.552,761 403,761 L403,761 Z M382,759 L402,759 L402,751 L382,751 L382,759 Z" id="Fill-712" fill="#314E55"></path>
                <path d="M408,719 L410,719 L410,769 L408,769 L408,719 Z" id="Fill-713" fill="#314E55"></path>
            </g>
        </g>
    </g>
</svg>