<?xml version="1.0" encoding="UTF-8" standalone="no"?>
<svg width="60px" height="60px" viewBox="0 0 60 60" version="1.1" xmlns="http://www.w3.org/2000/svg" xmlns:xlink="http://www.w3.org/1999/xlink" xmlns:sketch="http://www.bohemiancoding.com/sketch/ns">
    <!-- Generator: Sketch 3.3.3 (12081) - http://www.bohemiancoding.com/sketch -->
    <title>Alightop</title>
    <desc>Created with Sketch.</desc>
    <defs></defs>
    <g id="outlined" stroke="none" stroke-width="1" fill="none" fill-rule="evenodd" sketch:type="MSPage">
        <g id="Interface_sliced" sketch:type="MSLayerGroup" transform="translate(-600.000000, -720.000000)">
            <g id="Imported-Layers" transform="translate(2.000000, 4.000000)" sketch:type="MSShapeGroup">
                <path d="M613.108,734.012 L623.108,734.012 L623.108,768.012 L613.108,768.012 L613.108,734.012 Z" id="Fill-723" fill="#81A4E3"></path>
                <path d="M623.108,769.012 L613.108,769.012 C612.556,769.012 612.108,768.564 612.108,768.012 L612.108,734.012 C612.108,733.459 612.556,733.012 613.108,733.012 L623.108,733.012 C623.661,733.012 624.108,733.459 624.108,734.012 L624.108,768.012 C624.108,768.564 623.661,769.012 623.108,769.012 L623.108,769.012 Z M614.108,767.012 L622.108,767.012 L622.108,735.012 L614.108,735.012 L614.108,767.012 Z" id="Fill-725" fill="#314E55"></path>
                <path d="M633.108,734.012 L643.108,734.012 L643.108,755.012 L633.108,755.012 L633.108,734.012 Z" id="Fill-726" fill="#81A4E3"></path>
                <path d="M643.108,756.012 L633.108,756.012 C632.556,756.012 632.108,755.564 632.108,755.012 L632.108,734.012 C632.108,733.459 632.556,733.012 633.108,733.012 L643.108,733.012 C643.661,733.012 644.108,733.459 644.108,734.012 L644.108,755.012 C644.108,755.564 643.661,756.012 643.108,756.012 L643.108,756.012 Z M634.108,754.012 L642.108,754.012 L642.108,735.012 L634.108,735.012 L634.108,754.012 Z" id="Fill-728" fill="#314E55"></path>
                <path d="M602.108,727.012 L652.108,727.012 L652.108,729.012 L602.108,729.012 L602.108,727.012 Z" id="Fill-729" fill="#314E55"></path>
            </g>
        </g>
    </g>
</svg>