<?xml version="1.0" encoding="UTF-8" standalone="no"?>
<svg width="60px" height="60px" viewBox="0 0 60 60" version="1.1" xmlns="http://www.w3.org/2000/svg" xmlns:xlink="http://www.w3.org/1999/xlink" xmlns:sketch="http://www.bohemiancoding.com/sketch/ns">
    <!-- Generator: Sketch 3.3.3 (12081) - http://www.bohemiancoding.com/sketch -->
    <title>Anchorpoints</title>
    <desc>Created with Sketch.</desc>
    <defs>
        <path id="path-1" d="M3,6 C4.657,6 6,4.657 6,3 C6,1.343 4.657,0 3,0 C1.343,0 0,1.343 0,3 C0,4.657 1.343,6 3,6 L3,6 Z"></path>
        <path id="path-3" d="M3,6 C4.657,6 6,4.657 6,3 C6,1.343 4.657,0 3,0 C1.343,0 0,1.343 0,3 C0,4.657 1.343,6 3,6 L3,6 Z"></path>
        <path id="path-5" d="M3,6 C4.657,6 6,4.657 6,3 C6,1.343 4.657,0 3,0 C1.343,0 0,1.343 0,3 C0,4.657 1.343,6 3,6 L3,6 Z"></path>
    </defs>
    <g id="outlined" stroke="none" stroke-width="1" fill="none" fill-rule="evenodd" sketch:type="MSPage">
        <g id="Interface_sliced" sketch:type="MSLayerGroup" transform="translate(-360.000000, -600.000000)">
            <g id="Imported-Layers" transform="translate(2.000000, 4.000000)">
                <g id="Group-602" transform="translate(386.000000, 624.000000)">
                    <mask id="mask-2" sketch:name="Clip 601" fill="white">
                        <use xlink:href="#path-1"></use>
                    </mask>
                    <g id="Clip-601"></g>
                    <path d="M0,0 L6,0 L6,6 L0,6 L0,0 Z" id="Fill-600" fill="#E65F58" sketch:type="MSShapeGroup" mask="url(#mask-2)"></path>
                </g>
                <path d="M389,631 C386.794,631 385,629.206 385,627 C385,624.794 386.794,623 389,623 C391.206,623 393,624.794 393,627 C393,629.206 391.206,631 389,631 L389,631 Z M389,625 C387.897,625 387,625.897 387,627 C387,628.103 387.897,629 389,629 C390.103,629 391,628.103 391,627 C391,625.897 390.103,625 389,625 L389,625 Z" id="Fill-603" fill="#314E55" sketch:type="MSShapeGroup"></path>
                <g id="Group-606" transform="translate(398.000000, 611.000000)">
                    <mask id="mask-4" sketch:name="Clip 605" fill="white">
                        <use xlink:href="#path-3"></use>
                    </mask>
                    <g id="Clip-605"></g>
                    <path d="M0,0 L6,0 L6,6 L0,6 L0,0 Z" id="Fill-604" fill="#E65F58" sketch:type="MSShapeGroup" mask="url(#mask-4)"></path>
                </g>
                <path d="M401,618 C398.794,618 397,616.206 397,614 C397,611.794 398.794,610 401,610 C403.206,610 405,611.794 405,614 C405,616.206 403.206,618 401,618 L401,618 Z M401,612 C399.897,612 399,612.897 399,614 C399,615.103 399.897,616 401,616 C402.103,616 403,615.103 403,614 C403,612.897 402.103,612 401,612 L401,612 Z" id="Fill-607" fill="#314E55" sketch:type="MSShapeGroup"></path>
                <g id="Group-610" transform="translate(373.000000, 636.000000)">
                    <mask id="mask-6" sketch:name="Clip 609" fill="white">
                        <use xlink:href="#path-5"></use>
                    </mask>
                    <g id="Clip-609"></g>
                    <path d="M0,0 L6,0 L6,6 L0,6 L0,0 Z" id="Fill-608" fill="#E65F58" sketch:type="MSShapeGroup" mask="url(#mask-6)"></path>
                </g>
                <path d="M376,643 C373.794,643 372,641.206 372,639 C372,636.794 373.794,635 376,635 C378.206,635 380,636.794 380,639 C380,641.206 378.206,643 376,643 L376,643 Z M376,637 C374.897,637 374,637.897 374,639 C374,640.103 374.897,641 376,641 C377.103,641 378,640.103 378,639 C378,637.897 377.103,637 376,637 L376,637 Z" id="Fill-611" fill="#314E55" sketch:type="MSShapeGroup"></path>
                <path d="M392,628 C391.448,628 391,627.552 391,627 C391,626.448 391.448,626 392,626 C396.411,626 400,622.411 400,618 C400,617.448 400.448,617 401,617 C401.552,617 402,617.448 402,618 C402,623.514 397.514,628 392,628" id="Fill-612" fill="#314E55" sketch:type="MSShapeGroup"></path>
                <path d="M376,637 C375.448,637 375,636.552 375,636 C375,630.486 379.486,626 385,626 C385.552,626 386,626.448 386,627 C386,627.552 385.552,628 385,628 C380.589,628 377,631.589 377,636 C377,636.552 376.552,637 376,637" id="Fill-613" fill="#314E55" sketch:type="MSShapeGroup"></path>
                <path d="M408,624 L414,624 L414,630 L408,630 L408,624 Z" id="Fill-614" fill="#D8D8D8" sketch:type="MSShapeGroup"></path>
                <path d="M414,631 L408,631 C407.448,631 407,630.552 407,630 L407,624 C407,623.448 407.448,623 408,623 L414,623 C414.552,623 415,623.448 415,624 L415,630 C415,630.552 414.552,631 414,631 L414,631 Z M409,629 L413,629 L413,625 L409,625 L409,629 Z" id="Fill-616" fill="#314E55" sketch:type="MSShapeGroup"></path>
                <path d="M363,624 L369,624 L369,630 L363,630 L363,624 Z" id="Fill-617" fill="#D8D8D8" sketch:type="MSShapeGroup"></path>
                <path d="M369,631 L363,631 C362.448,631 362,630.552 362,630 L362,624 C362,623.448 362.448,623 363,623 L369,623 C369.552,623 370,623.448 370,624 L370,630 C370,630.552 369.552,631 369,631 L369,631 Z M364,629 L368,629 L368,625 L364,625 L364,629 Z" id="Fill-619" fill="#314E55" sketch:type="MSShapeGroup"></path>
                <path d="M392,626 L409,626 L409,628 L392,628 L392,626 Z" id="Fill-620" fill="#314E55" sketch:type="MSShapeGroup"></path>
                <path d="M369,626 L386,626 L386,628 L369,628 L369,626 Z" id="Fill-621" fill="#314E55" sketch:type="MSShapeGroup"></path>
            </g>
        </g>
    </g>
</svg>