<?xml version="1.0" encoding="UTF-8" standalone="no"?>
<svg width="60px" height="60px" viewBox="0 0 60 60" version="1.1" xmlns="http://www.w3.org/2000/svg" xmlns:xlink="http://www.w3.org/1999/xlink" xmlns:sketch="http://www.bohemiancoding.com/sketch/ns">
    <!-- Generator: Sketch 3.3.3 (12081) - http://www.bohemiancoding.com/sketch -->
    <title>Balduser</title>
    <desc>Created with Sketch.</desc>
    <defs>
        <path id="path-1" d="M4.979,30.026 L4.979,24.406 C3.88,23.226 2.979,21.728 2.353,20.016 C2.246,20.06 2.132,20.092 2.012,20.109 C1.249,20.216 0.544,19.685 0.437,18.92 L0.014,15.913 C-0.093,15.149 0.433,14.444 1.201,14.336 C1.258,14.328 1.316,14.323 1.372,14.322 C1.373,12.761 1.581,11.265 1.96,9.881 C1.881,9.432 1.84,8.97 1.84,8.5 C1.84,3.806 5.924,0 10.963,0 C16.001,0 20.085,3.806 20.085,8.5 C20.085,8.97 20.044,9.432 19.966,9.881 C20.343,11.258 20.55,12.745 20.553,14.297 C20.611,14.298 20.67,14.302 20.729,14.311 C21.503,14.419 22.034,15.131 21.925,15.901 L21.499,18.935 C21.391,19.706 20.679,20.242 19.91,20.134 C19.788,20.117 19.672,20.085 19.564,20.04 C18.938,21.742 18.04,23.232 16.947,24.406 L16.947,30.026 L4.979,30.026 Z"></path>
        <path d="M36,6.993 L36,7.077 M0,7 C0,3.134 3.226,0 7.199,0 C7.199,0 14.374,1 17.975,1 C21.575,1 28.801,0 28.801,0 C32.486,0 35.524,2.694 35.949,6.159" id="path-3"></path>
    </defs>
    <g id="outlined" stroke="none" stroke-width="1" fill="none" fill-rule="evenodd" sketch:type="MSPage">
        <g id="Interface_sliced" sketch:type="MSLayerGroup" transform="translate(-720.000000, -2280.000000)">
            <g id="Imported-Layers" transform="translate(2.000000, 4.000000)">
                <g id="Group-2120" transform="translate(737.000000, 2290.000000)">
                    <mask id="mask-2" sketch:name="Clip 2119" fill="white">
                        <use xlink:href="#path-1"></use>
                    </mask>
                    <g id="Clip-2119"></g>
                    <path d="M-0.093,0 L22.034,0 L22.034,30.026 L-0.093,30.026 L-0.093,0 Z" id="Fill-2118" fill="#D8D8D8" sketch:type="MSShapeGroup" mask="url(#mask-2)"></path>
                </g>
                <path d="M753.946,2321.026 C753.394,2321.026 752.946,2320.579 752.946,2320.026 L752.946,2314.406 C752.946,2314.153 753.042,2313.91 753.215,2313.725 C754.218,2312.646 755.052,2311.253 755.626,2309.694 C755.72,2309.439 755.914,2309.233 756.163,2309.124 C756.413,2309.016 756.695,2309.013 756.947,2309.116 C756.979,2309.13 757.012,2309.139 757.045,2309.143 C757.196,2309.165 757.301,2309.104 757.351,2309.065 C757.4,2309.028 757.488,2308.942 757.509,2308.796 L757.935,2305.762 C757.968,2305.535 757.815,2305.333 757.589,2305.301 C757.044,2305.292 756.554,2304.844 756.553,2304.299 C756.55,2302.869 756.364,2301.472 756.001,2300.144 C755.963,2300.003 755.955,2299.854 755.981,2299.71 C756.05,2299.312 756.085,2298.904 756.085,2298.5 C756.085,2294.364 752.441,2291 747.963,2291 C743.483,2291 739.84,2294.364 739.84,2298.5 C739.84,2298.905 739.875,2299.312 739.944,2299.707 C739.971,2299.852 739.964,2300.002 739.925,2300.144 C739.559,2301.481 739.373,2302.887 739.372,2304.323 C739.372,2304.868 738.935,2305.312 738.39,2305.322 C738.204,2305.345 738.123,2305.42 738.079,2305.479 C738.042,2305.527 737.983,2305.631 738.004,2305.773 L738.427,2308.78 C738.446,2308.923 738.531,2309.006 738.58,2309.043 C738.629,2309.079 738.729,2309.141 738.872,2309.118 C739.124,2309.015 739.458,2309.005 739.705,2309.114 C739.955,2309.224 740.198,2309.417 740.292,2309.673 C740.865,2311.239 741.702,2312.641 742.711,2313.725 C742.883,2313.91 742.978,2314.153 742.978,2314.406 L742.978,2320.026 C742.978,2320.579 742.531,2321.026 741.979,2321.026 C741.426,2321.026 740.979,2320.579 740.979,2320.026 L740.979,2314.789 C740.074,2313.749 739.303,2312.497 738.715,2311.121 C738.233,2311.102 737.769,2310.937 737.376,2310.64 C736.865,2310.255 736.535,2309.693 736.446,2309.059 L736.023,2306.053 C735.935,2305.419 736.096,2304.789 736.479,2304.278 C736.721,2303.956 737.032,2303.706 737.389,2303.542 C737.443,2302.273 737.627,2301.029 737.938,2299.83 C737.873,2299.391 737.84,2298.945 737.84,2298.5 C737.84,2293.262 742.381,2289 747.963,2289 C753.544,2289 758.085,2293.262 758.085,2298.5 C758.085,2298.943 758.052,2299.39 757.987,2299.829 C758.296,2301.02 758.479,2302.256 758.535,2303.516 C759.478,2303.951 760.067,2304.965 759.916,2306.041 L759.489,2309.074 C759.399,2309.711 759.068,2310.275 758.555,2310.662 C758.157,2310.963 757.688,2311.129 757.2,2311.146 C756.612,2312.514 755.845,2313.756 754.946,2314.79 L754.946,2320.026 C754.946,2320.579 754.499,2321.026 753.946,2321.026" id="Fill-2121" fill="#314E55" sketch:type="MSShapeGroup"></path>
                <path d="M748,2333 C733.663,2333 722,2321.337 722,2307 C722,2292.663 733.663,2281 748,2281 C762.337,2281 774,2292.663 774,2307 C774,2321.337 762.337,2333 748,2333 L748,2333 Z M748,2283 C734.767,2283 724,2293.766 724,2307 C724,2320.233 734.767,2331 748,2331 C761.233,2331 772,2320.233 772,2307 C772,2293.766 761.233,2283 748,2283 L748,2283 Z" id="Fill-2122" fill="#314E55" sketch:type="MSShapeGroup"></path>
                <g id="Group-2125" transform="translate(730.000000, 2319.000000)">
                    <mask id="mask-4" sketch:name="Clip 2124" fill="white">
                        <use xlink:href="#path-3"></use>
                    </mask>
                    <g id="Clip-2124"></g>
                    <path d="M36,9.077 C34.895,9.077 34,8.182 34,7.077 C34,6.958 34.011,6.84 34.03,6.726 C34,6.621 33.977,6.514 33.964,6.402 C33.661,3.933 31.507,2.06 28.928,2.001 C27.841,2.149 21.424,3 17.975,3 C14.527,3 8.157,2.149 7.071,2.001 C4.264,2.066 2,4.284 2,7 C2,8.104 1.104,9 0,9 C-1.105,9 -2,8.104 -2,7 C-2,2.037 2.126,-2 7.198,-2 C7.291,-2 7.383,-1.993 7.475,-1.981 C7.545,-1.971 14.555,-1 17.975,-1 C21.395,-1 28.457,-1.972 28.527,-1.981 C28.618,-1.994 28.71,-2 28.802,-2 C33.455,-2 37.381,1.403 37.935,5.916 C37.957,6.101 37.954,6.283 37.927,6.459 C37.975,6.628 38,6.808 38,6.993 L38,7.077 C38,8.182 37.104,9.077 36,9.077" id="Fill-2123" fill="#314E55" sketch:type="MSShapeGroup" mask="url(#mask-4)"></path>
                </g>
                <path d="M747.499,2333 C747.027,2333 746.607,2332.665 746.518,2332.185 L745.018,2324.185 C744.977,2323.97 745.008,2323.748 745.106,2323.553 L746.606,2320.553 C746.854,2320.059 747.452,2319.859 747.947,2320.105 C748.441,2320.353 748.642,2320.953 748.394,2321.447 L747.045,2324.146 L748.482,2331.815 C748.585,2332.358 748.227,2332.881 747.685,2332.982 C747.622,2332.994 747.56,2333 747.499,2333" id="Fill-2126" fill="#314E55" sketch:type="MSShapeGroup"></path>
                <path d="M749.001,2333 C748.94,2333 748.878,2332.994 748.815,2332.982 C748.273,2332.881 747.915,2332.358 748.018,2331.815 L749.455,2324.146 L748.106,2321.447 C747.858,2320.953 748.059,2320.353 748.553,2320.105 C749.047,2319.859 749.646,2320.059 749.894,2320.553 L751.394,2323.553 C751.492,2323.748 751.523,2323.97 751.482,2324.185 L749.982,2332.185 C749.893,2332.665 749.473,2333 749.001,2333" id="Fill-2127" fill="#314E55" sketch:type="MSShapeGroup"></path>
            </g>
        </g>
    </g>
</svg>