<?xml version="1.0" encoding="UTF-8" standalone="no"?>
<svg width="60px" height="60px" viewBox="0 0 60 60" version="1.1" xmlns="http://www.w3.org/2000/svg" xmlns:xlink="http://www.w3.org/1999/xlink" xmlns:sketch="http://www.bohemiancoding.com/sketch/ns">
    <!-- Generator: Sketch 3.3.3 (12081) - http://www.bohemiancoding.com/sketch -->
    <title>Benright</title>
    <desc>Created with Sketch.</desc>
    <defs>
        <path id="path-1" d="M10,0 L44,0 L34,34 L0,34 L10,0 L10,0 Z"></path>
        <path id="path-3" d="M0,0 L15,0 L5,34 L0,34 L0,0 L0,0 Z"></path>
    </defs>
    <g id="outlined" stroke="none" stroke-width="1" fill="none" fill-rule="evenodd" sketch:type="MSPage">
        <g id="Interface_sliced" sketch:type="MSLayerGroup" transform="translate(0.000000, -960.000000)">
            <g id="Imported-Layers" transform="translate(2.000000, 4.000000)">
                <g id="Group-856" transform="translate(11.000000, 979.000000)">
                    <mask id="mask-2" sketch:name="Clip 855" fill="white">
                        <use xlink:href="#path-1"></use>
                    </mask>
                    <g id="Clip-855"></g>
                    <path d="M0,0 L44,0 L44,34 L0,34 L0,0 Z" id="Fill-854" fill="#73C9C9" sketch:type="MSShapeGroup" mask="url(#mask-2)"></path>
                </g>
                <path d="M45,1014 L11,1014 C10.685,1014 10.388,1013.852 10.199,1013.599 C10.011,1013.347 9.952,1013.02 10.04,1012.718 L20.04,978.718 C20.166,978.292 20.556,978 21,978 L55,978 C55.315,978 55.612,978.148 55.801,978.401 C55.989,978.653 56.048,978.98 55.959,979.282 L45.96,1013.282 C45.834,1013.708 45.444,1014 45,1014 L45,1014 Z M12.336,1012 L44.252,1012 L53.664,980 L21.748,980 L12.336,1012 L12.336,1012 Z" id="Fill-857" fill="#314E55" sketch:type="MSShapeGroup"></path>
                <g id="Group-860" transform="translate(3.000000, 979.000000)">
                    <mask id="mask-4" sketch:name="Clip 859" fill="white">
                        <use xlink:href="#path-3"></use>
                    </mask>
                    <g id="Clip-859"></g>
                    <path d="M0,0 L15,0 L15,34 L0,34 L0,0 Z" id="Fill-858" fill="#73C9C9" sketch:type="MSShapeGroup" mask="url(#mask-4)"></path>
                </g>
                <path d="M8,1014 L3,1014 C2.448,1014 2,1013.552 2,1013 L2,979 C2,978.448 2.448,978 3,978 L18,978 C18.315,978 18.612,978.148 18.801,978.401 C18.989,978.653 19.048,978.98 18.96,979.282 L8.959,1013.282 C8.834,1013.708 8.444,1014 8,1014 L8,1014 Z M4,1012 L7.252,1012 L16.664,980 L4,980 L4,1012 L4,1012 Z" id="Fill-861" fill="#314E55" sketch:type="MSShapeGroup"></path>
                <path d="M43,973.657 C42.744,973.657 42.488,973.559 42.293,973.364 C41.902,972.973 41.902,972.34 42.293,971.95 L47.243,967 L42.293,962.05 C41.902,961.66 41.902,961.027 42.293,960.636 C42.684,960.246 43.316,960.246 43.707,960.636 L49.364,966.293 C49.754,966.684 49.754,967.316 49.364,967.707 L43.707,973.364 C43.512,973.559 43.256,973.657 43,973.657" id="Fill-862" fill="#314E55" sketch:type="MSShapeGroup"></path>
                <path d="M28.971,966 L48,966 L48,968 L28.971,968 L28.971,966 Z" id="Fill-863" fill="#314E55" sketch:type="MSShapeGroup"></path>
            </g>
        </g>
    </g>
</svg>