<?xml version="1.0" encoding="UTF-8" standalone="no"?>
<svg width="60px" height="60px" viewBox="0 0 60 60" version="1.1" xmlns="http://www.w3.org/2000/svg" xmlns:xlink="http://www.w3.org/1999/xlink" xmlns:sketch="http://www.bohemiancoding.com/sketch/ns">
    <!-- Generator: Sketch 3.3.3 (12081) - http://www.bohemiancoding.com/sketch -->
    <title>Businesswoman</title>
    <desc>Created with Sketch.</desc>
    <defs>
        <path id="path-1" d="M3,14 C3,19.667 0,31 0,31 C0,31 7,33 16,33 C25,33 32,31 32,31 C32,31 29,19.667 29,14 L29,13.187 C29,5.904 23.1,0 15.81,0 L16.19,0 C8.906,0 3,5.897 3,13.187 C3,13.187 3,12.667 3,14 L3,14 Z"></path>
        <path id="path-3" d="M0.818,0.318 L8.596,5.268 L4.768,9.096 L0.818,0.318"></path>
        <path id="path-5" d="M8.182,0.318 L0.404,5.268 L4.232,9.096 L8.182,0.318"></path>
    </defs>
    <g id="outlined" stroke="none" stroke-width="1" fill="none" fill-rule="evenodd" sketch:type="MSPage">
        <g id="Interface_sliced" sketch:type="MSLayerGroup" transform="translate(-120.000000, -1560.000000)">
            <g id="Imported-Layers" transform="translate(2.000000, 4.000000)">
                <g id="Group-1296" transform="translate(132.000000, 1560.000000)">
                    <mask id="mask-2" sketch:name="Clip 1295" fill="white">
                        <use xlink:href="#path-1"></use>
                    </mask>
                    <g id="Clip-1295"></g>
                    <path d="M0,0 L32,0 L32,33 L0,33 L0,0 Z" id="Fill-1294" fill="#F28544" sketch:type="MSShapeGroup" mask="url(#mask-2)"></path>
                </g>
                <path d="M148,1594 C138.964,1594 132.017,1592.045 131.725,1591.962 C131.202,1591.812 130.894,1591.271 131.033,1590.744 C131.063,1590.632 134,1579.471 134,1574 L134,1573.087 L134,1573.051 C134.073,1565.504 140.15,1559.282 147.672,1559.01 C147.717,1559.003 147.763,1559 147.81,1559 L148.19,1559 C148.24,1559 148.29,1559.004 148.337,1559.011 C155.915,1559.304 162,1565.592 162,1573.188 L162,1574 C162,1579.474 164.937,1590.632 164.967,1590.744 C165.106,1591.271 164.798,1591.812 164.275,1591.962 C163.983,1592.045 157.036,1594 148,1594 L148,1594 Z M133.218,1590.279 C135.4,1590.803 141.138,1592 148,1592 C154.862,1592 160.6,1590.803 162.782,1590.279 C162.051,1587.378 160,1578.812 160,1574 L160,1573.188 C160,1566.562 154.61,1561.095 147.986,1561.001 C141.39,1561.095 136,1566.562 136,1573.188 L136,1574 C136,1578.812 133.949,1587.378 133.218,1590.279 L133.218,1590.279 Z" id="Fill-1297" fill="#314E55" sketch:type="MSShapeGroup"></path>
                <path d="M169,1613 C168.448,1613 168,1612.553 168,1612 L168,1605.522 C168,1602.503 165.535,1600.046 162.505,1600.046 L155.635,1600.046 C155.252,1600.046 154.903,1599.827 154.736,1599.483 L151.793,1593.438 C151.552,1592.941 151.758,1592.343 152.255,1592.101 C152.75,1591.86 153.35,1592.066 153.591,1592.562 L156.26,1598.046 L162.505,1598.046 C166.638,1598.046 170,1601.399 170,1605.522 L170,1612 C170,1612.553 169.552,1613 169,1613 L169,1613 Z M128,1613 C127.448,1613 127,1612.553 127,1612 L127,1605.522 C127,1601.399 130.362,1598.046 134.495,1598.046 L139.874,1598.046 L142.543,1592.562 C142.785,1592.066 143.383,1591.858 143.88,1592.101 C144.376,1592.343 144.583,1592.941 144.341,1593.438 L141.399,1599.483 C141.232,1599.827 140.883,1600.046 140.5,1600.046 L134.495,1600.046 C131.465,1600.046 129,1602.503 129,1605.522 L129,1612 C129,1612.553 128.552,1613 128,1613 L128,1613 Z" id="Fill-1298" fill="#314E55" sketch:type="MSShapeGroup"></path>
                <g id="Group-1301" transform="translate(139.000000, 1599.000000)">
                    <mask id="mask-4" sketch:name="Clip 1300" fill="white">
                        <use xlink:href="#path-3"></use>
                    </mask>
                    <g id="Clip-1300"></g>
                    <path d="M-8.667,2.732 L2.232,-8.167 L15.667,5.268 L4.768,16.167 L-8.667,2.732" id="Fill-1299" fill="#EB86A5" sketch:type="MSShapeGroup" mask="url(#mask-4)"></path>
                </g>
                <path d="M143.768,1609.096 C143.707,1609.096 143.647,1609.09 143.587,1609.079 C143.264,1609.021 142.991,1608.806 142.855,1608.506 L138.906,1599.729 C138.725,1599.326 138.829,1598.852 139.164,1598.563 C139.498,1598.271 139.982,1598.238 140.354,1598.475 L148.133,1603.424 C148.389,1603.587 148.557,1603.857 148.59,1604.158 C148.623,1604.46 148.518,1604.76 148.303,1604.975 L144.475,1608.803 C144.286,1608.992 144.03,1609.096 143.768,1609.096 L143.768,1609.096 Z M142.102,1601.957 L144.085,1606.364 L146.007,1604.442 L142.102,1601.957 L142.102,1601.957 Z" id="Fill-1302" fill="#314E55" sketch:type="MSShapeGroup"></path>
                <g id="Group-1305" transform="translate(148.000000, 1599.000000)">
                    <mask id="mask-6" sketch:name="Clip 1304" fill="white">
                        <use xlink:href="#path-5"></use>
                    </mask>
                    <g id="Clip-1304"></g>
                    <path d="M17.667,2.732 L6.768,-8.167 L-6.667,5.268 L4.232,16.167 L17.667,2.732" id="Fill-1303" fill="#EB86A5" sketch:type="MSShapeGroup" mask="url(#mask-6)"></path>
                </g>
                <path d="M152.232,1609.096 C151.97,1609.096 151.714,1608.992 151.525,1608.803 L147.697,1604.975 C147.482,1604.76 147.376,1604.46 147.41,1604.158 C147.443,1603.857 147.611,1603.587 147.867,1603.424 L155.645,1598.475 C156.019,1598.239 156.502,1598.273 156.836,1598.563 C157.171,1598.852 157.275,1599.326 157.094,1599.729 L153.144,1608.506 C153.009,1608.806 152.736,1609.021 152.413,1609.079 C152.352,1609.09 152.292,1609.096 152.232,1609.096 L152.232,1609.096 Z M149.993,1604.442 L151.915,1606.364 L153.898,1601.957 L149.993,1604.442 L149.993,1604.442 Z" id="Fill-1306" fill="#314E55" sketch:type="MSShapeGroup"></path>
            </g>
        </g>
    </g>
</svg>