<?xml version="1.0" encoding="UTF-8" standalone="no"?>
<svg width="60px" height="60px" viewBox="0 0 60 60" version="1.1" xmlns="http://www.w3.org/2000/svg" xmlns:xlink="http://www.w3.org/1999/xlink" xmlns:sketch="http://www.bohemiancoding.com/sketch/ns">
    <!-- Generator: Sketch 3.3.3 (12081) - http://www.bohemiancoding.com/sketch -->
    <title>Businessmen</title>
    <desc>Created with Sketch.</desc>
    <defs>
        <path id="path-1" d="M3,13.036 L3,6.555 C3,2.935 5.944,0 9.547,0 L31,0 L31,13.035 C32.696,13.277 34,14.732 34,16.509 L34,17.491 C34,19.27 32.676,20.74 30.967,20.969 C30.469,28.249 24.408,34 17,34 C9.594,34 3.532,28.243 3.033,20.969 C1.321,20.742 0,19.279 0,17.491 L0,16.509 C0,14.741 1.307,13.279 3,13.036 L3,13.036 Z"></path>
        <path id="path-3" d="M0.818,0.318 L8.596,5.268 L4.768,9.096 L0.818,0.318"></path>
        <path id="path-5" d="M8.182,0.318 L0.404,5.268 L4.232,9.096 L8.182,0.318"></path>
    </defs>
    <g id="outlined" stroke="none" stroke-width="1" fill="none" fill-rule="evenodd" sketch:type="MSPage">
        <g id="Interface_sliced" sketch:type="MSLayerGroup" transform="translate(0.000000, -1560.000000)">
            <g id="Imported-Layers" transform="translate(2.000000, 4.000000)">
                <g id="Group-1283" transform="translate(11.000000, 1560.000000)">
                    <mask id="mask-2" sketch:name="Clip 1282" fill="white">
                        <use xlink:href="#path-1"></use>
                    </mask>
                    <g id="Clip-1282"></g>
                    <path d="M0,0 L34,0 L34,34 L0,34 L0,0 Z" id="Fill-1281" fill="#81A4E3" sketch:type="MSShapeGroup" mask="url(#mask-2)"></path>
                </g>
                <path d="M28,1595 C20.395,1595 13.992,1589.251 13.105,1581.779 C11.289,1581.187 10,1579.466 10,1577.491 L10,1576.509 C10,1574.581 11.241,1572.886 13,1572.259 L13,1566.556 C13,1562.39 16.386,1559 20.547,1559 L42,1559 C42.552,1559 43,1559.447 43,1560 L43,1572.257 C44.759,1572.883 46,1574.579 46,1576.509 L46,1577.491 C46,1579.464 44.711,1581.184 42.895,1581.778 C42.01,1589.25 35.606,1595 28,1595 L28,1595 Z M20.547,1561 C17.488,1561 15,1563.492 15,1566.556 L15,1573.036 C15,1573.533 14.634,1573.955 14.142,1574.026 C12.921,1574.201 12,1575.269 12,1576.509 L12,1577.491 C12,1578.745 12.931,1579.814 14.165,1579.977 C14.636,1580.04 14.998,1580.426 15.031,1580.9 C15.496,1587.685 21.192,1593 28,1593 C34.809,1593 40.505,1587.685 40.969,1580.9 C41.001,1580.427 41.363,1580.041 41.835,1579.977 C43.069,1579.813 44,1578.743 44,1577.491 L44,1576.509 C44,1575.268 43.08,1574.199 41.859,1574.025 C41.366,1573.955 41,1573.533 41,1573.035 L41,1561 L20.547,1561 L20.547,1561 Z" id="Fill-1284" fill="#314E55" sketch:type="MSShapeGroup"></path>
                <path d="M51,1613 C50.448,1613 50,1612.553 50,1612 L50,1605.522 C50,1602.503 47.535,1600.046 44.505,1600.046 L36.635,1600.046 C36.252,1600.046 35.903,1599.827 35.736,1599.483 L32.793,1593.438 C32.552,1592.941 32.758,1592.343 33.255,1592.101 C33.75,1591.86 34.35,1592.066 34.591,1592.562 L37.26,1598.046 L44.505,1598.046 C48.638,1598.046 52,1601.399 52,1605.522 L52,1612 C52,1612.553 51.552,1613 51,1613 L51,1613 Z M6,1613 C5.448,1613 5,1612.553 5,1612 L5,1605.522 C5,1601.399 8.362,1598.046 12.495,1598.046 L18.874,1598.046 L21.543,1592.562 C21.785,1592.066 22.383,1591.858 22.88,1592.101 C23.376,1592.343 23.583,1592.941 23.341,1593.438 L20.399,1599.483 C20.232,1599.827 19.883,1600.046 19.5,1600.046 L12.495,1600.046 C9.465,1600.046 7,1602.503 7,1605.522 L7,1612 C7,1612.553 6.552,1613 6,1613 L6,1613 Z" id="Fill-1285" fill="#314E55" sketch:type="MSShapeGroup"></path>
                <g id="Group-1288" transform="translate(19.000000, 1598.000000)">
                    <mask id="mask-4" sketch:name="Clip 1287" fill="white">
                        <use xlink:href="#path-3"></use>
                    </mask>
                    <g id="Clip-1287"></g>
                    <path d="M-8.667,2.732 L2.232,-8.167 L15.667,5.268 L4.768,16.167 L-8.667,2.732" id="Fill-1286" fill="#81A4E3" sketch:type="MSShapeGroup" mask="url(#mask-4)"></path>
                </g>
                <path d="M23.768,1608.096 C23.707,1608.096 23.647,1608.09 23.587,1608.079 C23.264,1608.021 22.991,1607.806 22.855,1607.506 L18.906,1598.729 C18.725,1598.326 18.829,1597.852 19.164,1597.563 C19.498,1597.271 19.982,1597.238 20.354,1597.475 L28.133,1602.424 C28.389,1602.587 28.557,1602.857 28.59,1603.158 C28.623,1603.46 28.518,1603.76 28.303,1603.975 L24.475,1607.803 C24.286,1607.992 24.03,1608.096 23.768,1608.096 L23.768,1608.096 Z M22.102,1600.957 L24.085,1605.364 L26.007,1603.442 L22.102,1600.957 L22.102,1600.957 Z" id="Fill-1289" fill="#314E55" sketch:type="MSShapeGroup"></path>
                <g id="Group-1292" transform="translate(28.000000, 1598.000000)">
                    <mask id="mask-6" sketch:name="Clip 1291" fill="white">
                        <use xlink:href="#path-5"></use>
                    </mask>
                    <g id="Clip-1291"></g>
                    <path d="M17.667,2.732 L6.768,-8.167 L-6.667,5.268 L4.232,16.167 L17.667,2.732" id="Fill-1290" fill="#81A4E3" sketch:type="MSShapeGroup" mask="url(#mask-6)"></path>
                </g>
                <path d="M32.232,1608.096 C31.97,1608.096 31.714,1607.992 31.525,1607.803 L27.697,1603.975 C27.482,1603.76 27.376,1603.46 27.41,1603.158 C27.443,1602.857 27.611,1602.587 27.867,1602.424 L35.645,1597.475 C36.019,1597.239 36.503,1597.273 36.836,1597.563 C37.171,1597.852 37.275,1598.326 37.094,1598.729 L33.145,1607.506 C33.009,1607.806 32.736,1608.021 32.413,1608.079 C32.352,1608.09 32.292,1608.096 32.232,1608.096 L32.232,1608.096 Z M29.993,1603.442 L31.915,1605.364 L33.898,1600.957 L29.993,1603.442 L29.993,1603.442 Z" id="Fill-1293" fill="#314E55" sketch:type="MSShapeGroup"></path>
            </g>
        </g>
    </g>
</svg>