<?xml version="1.0" encoding="UTF-8" standalone="no"?>
<svg width="60px" height="60px" viewBox="0 0 60 60" version="1.1" xmlns="http://www.w3.org/2000/svg" xmlns:xlink="http://www.w3.org/1999/xlink" xmlns:sketch="http://www.bohemiancoding.com/sketch/ns">
    <!-- Generator: Sketch 3.3.3 (12081) - http://www.bohemiancoding.com/sketch -->
    <title>Center</title>
    <desc>Created with Sketch.</desc>
    <defs></defs>
    <g id="outlined" stroke="none" stroke-width="1" fill="none" fill-rule="evenodd" sketch:type="MSPage">
        <g id="Interface_sliced" sketch:type="MSLayerGroup" transform="translate(-120.000000, -120.000000)">
            <g id="Imported-Layers" transform="translate(2.000000, 4.000000)" sketch:type="MSShapeGroup">
                <path d="M123,121 L173,121 L173,171 L123,171 L123,121 Z" id="Fill-129" fill="#E9E7D1"></path>
                <path d="M173,172 L123,172 C122.448,172 122,171.552 122,171 L122,121 C122,120.448 122.448,120 123,120 L173,120 C173.552,120 174,120.448 174,121 L174,171 C174,171.552 173.552,172 173,172 L173,172 Z M124,170 L172,170 L172,122 L124,122 L124,170 Z" id="Fill-131" fill="#314E55"></path>
                <path d="M129,145 L167,145 L167,147 L129,147 L129,145 Z" id="Fill-132" fill="#314E55"></path>
                <path d="M129,127 L167,127 L167,129 L129,129 L129,127 Z" id="Fill-133" fill="#314E55"></path>
                <path d="M129,163 L167,163 L167,165 L129,165 L129,163 Z" id="Fill-134" fill="#314E55"></path>
                <path d="M137,136 L159,136 L159,138 L137,138 L137,136 Z" id="Fill-135" fill="#314E55"></path>
                <path d="M137,154 L159,154 L159,156 L137,156 L137,154 Z" id="Fill-136" fill="#314E55"></path>
            </g>
        </g>
    </g>
</svg>