<?xml version="1.0" encoding="UTF-8" standalone="no"?>
<svg width="60px" height="60px" viewBox="0 0 60 60" version="1.1" xmlns="http://www.w3.org/2000/svg" xmlns:xlink="http://www.w3.org/1999/xlink" xmlns:sketch="http://www.bohemiancoding.com/sketch/ns">
    <!-- Generator: Sketch 3.3.3 (12081) - http://www.bohemiancoding.com/sketch -->
    <title>Chat</title>
    <desc>Created with Sketch.</desc>
    <defs>
        <path id="path-1" d="M40.636,8 L41.998,8 C44.211,8 46,6.209 46,4 C46,1.795 44.208,0 41.998,0 L4.002,0 C1.789,0 0,1.791 0,4 C0,6.205 1.792,8 4.002,8 L37,8 L37,12 L40.636,8 L40.636,8 Z"></path>
        <path id="path-3" d="M5.364,8 L4.002,8 C1.789,8 0,6.209 0,4 C0,1.795 1.792,0 4.002,0 L41.998,0 C44.211,0 46,1.791 46,4 C46,6.205 44.208,8 41.998,8 L9,8 L9,12 L5.364,8 L5.364,8 Z"></path>
    </defs>
    <g id="outlined" stroke="none" stroke-width="1" fill="none" fill-rule="evenodd" sketch:type="MSPage">
        <g id="Interface_sliced" sketch:type="MSLayerGroup" transform="translate(-360.000000, -2160.000000)">
            <g id="Imported-Layers" transform="translate(2.000000, 4.000000)">
                <path d="M361,2166 L415,2166 L415,2206 L361,2206 L361,2166 Z" id="Fill-1948" fill="#EBEBEB" sketch:type="MSShapeGroup"></path>
                <path d="M415,2207 L361,2207 C360.448,2207 360,2206.553 360,2206 L360,2166 C360,2165.447 360.448,2165 361,2165 L415,2165 C415.552,2165 416,2165.447 416,2166 L416,2206 C416,2206.553 415.552,2207 415,2207 L415,2207 Z M362,2205 L414,2205 L414,2167 L362,2167 L362,2205 Z" id="Fill-1950" fill="#314E55" sketch:type="MSShapeGroup"></path>
                <g id="Group-1953" transform="translate(365.000000, 2171.000000)">
                    <mask id="mask-2" sketch:name="Clip 1952" fill="white">
                        <use xlink:href="#path-1"></use>
                    </mask>
                    <g id="Clip-1952"></g>
                    <path d="M0,0 L46,0 L46,12 L0,12 L0,0 Z" id="Fill-1951" fill="#5ECB66" sketch:type="MSShapeGroup" mask="url(#mask-2)"></path>
                </g>
                <path d="M402,2184 C401.879,2184 401.757,2183.978 401.64,2183.933 C401.254,2183.784 401,2183.413 401,2183 L401,2180 L369.002,2180 C366.244,2180 364,2177.757 364,2175 C364,2172.243 366.244,2170 369.002,2170 L406.998,2170 C409.756,2170 412,2172.243 412,2175 C412,2177.757 409.756,2180 406.998,2180 L406.079,2180 L402.74,2183.673 C402.547,2183.886 402.276,2184 402,2184 L402,2184 Z M369.002,2172 C367.347,2172 366,2173.346 366,2175 C366,2176.654 367.347,2178 369.002,2178 L402,2178 C402.552,2178 403,2178.447 403,2179 L403,2180.413 L404.897,2178.327 C405.086,2178.119 405.354,2178 405.636,2178 L406.998,2178 C408.653,2178 410,2176.654 410,2175 C410,2173.346 408.653,2172 406.998,2172 L369.002,2172 L369.002,2172 Z" id="Fill-1954" fill="#314E55" sketch:type="MSShapeGroup"></path>
                <g id="Group-1957" transform="translate(365.000000, 2189.000000)">
                    <mask id="mask-4" sketch:name="Clip 1956" fill="white">
                        <use xlink:href="#path-3"></use>
                    </mask>
                    <g id="Clip-1956"></g>
                    <path d="M0,0 L46,0 L46,12 L0,12 L0,0 Z" id="Fill-1955" fill="#5ECB66" sketch:type="MSShapeGroup" mask="url(#mask-4)"></path>
                </g>
                <path d="M374,2202 C373.724,2202 373.453,2201.886 373.26,2201.673 L369.921,2198 L369.002,2198 C366.244,2198 364,2195.757 364,2193 C364,2190.243 366.244,2188 369.002,2188 L406.998,2188 C409.756,2188 412,2190.243 412,2193 C412,2195.757 409.756,2198 406.998,2198 L375,2198 L375,2201 C375,2201.413 374.746,2201.784 374.36,2201.933 C374.243,2201.978 374.121,2202 374,2202 L374,2202 Z M369.002,2190 C367.347,2190 366,2191.346 366,2193 C366,2194.654 367.347,2196 369.002,2196 L370.364,2196 C370.646,2196 370.914,2196.119 371.103,2196.327 L373,2198.413 L373,2197 C373,2196.447 373.448,2196 374,2196 L406.998,2196 C408.653,2196 410,2194.654 410,2193 C410,2191.346 408.653,2190 406.998,2190 L369.002,2190 L369.002,2190 Z" id="Fill-1958" fill="#314E55" sketch:type="MSShapeGroup"></path>
                <path d="M370,2177 C368.897,2177 368,2176.102 368,2175 C368,2173.897 368.897,2173 370,2173 C371.103,2173 372,2173.897 372,2175 C372,2176.102 371.103,2177 370,2177" id="Fill-1959" fill="#314E55" sketch:type="MSShapeGroup"></path>
                <path d="M376,2177 C374.897,2177 374,2176.102 374,2175 C374,2173.897 374.897,2173 376,2173 C377.103,2173 378,2173.897 378,2175 C378,2176.102 377.103,2177 376,2177" id="Fill-1960" fill="#314E55" sketch:type="MSShapeGroup"></path>
                <path d="M382,2177 C380.897,2177 380,2176.102 380,2175 C380,2173.897 380.897,2173 382,2173 C383.103,2173 384,2173.897 384,2175 C384,2176.102 383.103,2177 382,2177" id="Fill-1961" fill="#314E55" sketch:type="MSShapeGroup"></path>
                <path d="M394,2195 C392.897,2195 392,2194.102 392,2193 C392,2191.897 392.897,2191 394,2191 C395.103,2191 396,2191.897 396,2193 C396,2194.102 395.103,2195 394,2195" id="Fill-1962" fill="#314E55" sketch:type="MSShapeGroup"></path>
                <path d="M400,2195 C398.897,2195 398,2194.102 398,2193 C398,2191.897 398.897,2191 400,2191 C401.103,2191 402,2191.897 402,2193 C402,2194.102 401.103,2195 400,2195" id="Fill-1963" fill="#314E55" sketch:type="MSShapeGroup"></path>
                <path d="M406,2195 C404.897,2195 404,2194.102 404,2193 C404,2191.897 404.897,2191 406,2191 C407.103,2191 408,2191.897 408,2193 C408,2194.102 407.103,2195 406,2195" id="Fill-1964" fill="#314E55" sketch:type="MSShapeGroup"></path>
            </g>
        </g>
    </g>
</svg>