<?xml version="1.0" encoding="UTF-8" standalone="no"?>
<svg width="60px" height="60px" viewBox="0 0 60 60" version="1.1" xmlns="http://www.w3.org/2000/svg" xmlns:xlink="http://www.w3.org/1999/xlink" xmlns:sketch="http://www.bohemiancoding.com/sketch/ns">
    <!-- Generator: Sketch 3.3.3 (12081) - http://www.bohemiancoding.com/sketch -->
    <title>Checkbox</title>
    <desc>Created with Sketch.</desc>
    <defs></defs>
    <g id="outlined" stroke="none" stroke-width="1" fill="none" fill-rule="evenodd" sketch:type="MSPage">
        <g id="Interface_sliced" sketch:type="MSLayerGroup" transform="translate(-720.000000, -840.000000)">
            <g id="Imported-Layers" transform="translate(2.000000, 4.000000)" sketch:type="MSShapeGroup">
                <path d="M742,839 L755,839 L755,852 L742,852 L742,839 Z" id="Fill-828" fill="#5ECB66"></path>
                <path d="M755,853 L742,853 C741.447,853 741,852.552 741,852 L741,839 C741,838.448 741.447,838 742,838 L755,838 C755.553,838 756,838.448 756,839 L756,852 C756,852.552 755.553,853 755,853 L755,853 Z M743,851 L754,851 L754,840 L743,840 L743,851 Z" id="Fill-830" fill="#314E55"></path>
                <path d="M742,859 L755,859 L755,872 L742,872 L742,859 Z" id="Fill-831" fill="#5ECB66"></path>
                <path d="M755,873 L742,873 C741.447,873 741,872.552 741,872 L741,859 C741,858.448 741.447,858 742,858 L755,858 C755.553,858 756,858.448 756,859 L756,872 C756,872.552 755.553,873 755,873 L755,873 Z M743,871 L754,871 L754,860 L743,860 L743,871 Z" id="Fill-833" fill="#314E55"></path>
                <path d="M742,879 L755,879 L755,892 L742,892 L742,879 Z" id="Fill-834" fill="#D8D8D8"></path>
                <path d="M755,893 L742,893 C741.447,893 741,892.552 741,892 L741,879 C741,878.448 741.447,878 742,878 L755,878 C755.553,878 756,878.448 756,879 L756,892 C756,892.552 755.553,893 755,893 L755,893 Z M743,891 L754,891 L754,880 L743,880 L743,891 Z" id="Fill-836" fill="#314E55"></path>
                <path d="M748.5,850 C748.328,850 748.156,849.956 748.004,849.868 L744.504,847.868 C744.024,847.594 743.857,846.983 744.132,846.504 C744.405,846.024 745.016,845.856 745.496,846.132 L748.023,847.575 L750.581,841.606 C750.799,841.098 751.389,840.864 751.894,841.081 C752.401,841.298 752.637,841.886 752.419,842.394 L749.419,849.394 C749.307,849.656 749.088,849.857 748.817,849.948 C748.714,849.983 748.607,850 748.5,850" id="Fill-837" fill="#314E55"></path>
                <path d="M748.5,870 C748.328,870 748.156,869.956 748.004,869.868 L744.504,867.868 C744.024,867.594 743.857,866.983 744.132,866.504 C744.405,866.024 745.016,865.856 745.496,866.132 L748.023,867.575 L750.581,861.606 C750.799,861.098 751.389,860.864 751.894,861.081 C752.401,861.298 752.637,861.886 752.419,862.394 L749.419,869.394 C749.307,869.656 749.088,869.857 748.817,869.948 C748.714,869.983 748.607,870 748.5,870" id="Fill-838" fill="#314E55"></path>
            </g>
        </g>
    </g>
</svg>