<?xml version="1.0" encoding="UTF-8" standalone="no"?>
<svg width="60px" height="60px" viewBox="0 0 60 60" version="1.1" xmlns="http://www.w3.org/2000/svg" xmlns:xlink="http://www.w3.org/1999/xlink" xmlns:sketch="http://www.bohemiancoding.com/sketch/ns">
    <!-- Generator: Sketch 3.3.3 (12081) - http://www.bohemiancoding.com/sketch -->
    <title>Circular</title>
    <desc>Created with Sketch.</desc>
    <defs>
        <path id="path-1" d="M8,16 C12.418,16 16,12.418 16,8 C16,3.582 12.418,0 8,0 C3.582,0 0,3.582 0,8 C0,12.418 3.582,16 8,16 L8,16 Z"></path>
    </defs>
    <g id="outlined" stroke="none" stroke-width="1" fill="none" fill-rule="evenodd" sketch:type="MSPage">
        <g id="Interface_sliced" sketch:type="MSLayerGroup" transform="translate(-720.000000, -960.000000)">
            <g id="Imported-Layers" transform="translate(2.000000, 4.000000)">
                <path d="M748,1014 C747.447,1014 747,1013.552 747,1013 C747,1012.448 747.447,1012 748,1012 C748.963,1012 749.934,1011.947 750.884,1011.842 C751.435,1011.783 751.927,1012.177 751.987,1012.726 C752.048,1013.275 751.651,1013.77 751.102,1013.83 C750.08,1013.943 749.036,1014 748,1014 L748,1014 Z M743.313,1013.595 C743.257,1013.595 743.198,1013.59 743.14,1013.58 C742.121,1013.401 741.102,1013.164 740.112,1012.873 C739.582,1012.718 739.278,1012.162 739.434,1011.632 C739.59,1011.103 740.145,1010.798 740.675,1010.954 C741.595,1011.224 742.54,1011.444 743.485,1011.61 C744.029,1011.705 744.393,1012.223 744.298,1012.767 C744.213,1013.253 743.79,1013.595 743.313,1013.595 L743.313,1013.595 Z M756.834,1012.522 C756.419,1012.522 756.032,1012.262 755.889,1011.848 C755.708,1011.326 755.985,1010.757 756.507,1010.576 C757.412,1010.263 758.312,1009.895 759.178,1009.481 C759.675,1009.242 760.273,1009.455 760.511,1009.953 C760.749,1010.452 760.537,1011.048 760.039,1011.286 C759.106,1011.732 758.137,1012.129 757.161,1012.467 C757.053,1012.504 756.942,1012.522 756.834,1012.522 L756.834,1012.522 Z M734.871,1010.6 C734.706,1010.6 734.539,1010.559 734.385,1010.473 C733.481,1009.968 732.597,1009.409 731.759,1008.811 C731.31,1008.49 731.205,1007.866 731.525,1007.416 C731.847,1006.967 732.47,1006.863 732.921,1007.183 C733.699,1007.738 734.519,1008.258 735.359,1008.727 C735.842,1008.996 736.015,1009.604 735.745,1010.087 C735.562,1010.415 735.222,1010.6 734.871,1010.6 L734.871,1010.6 Z M764.694,1008.222 C764.398,1008.222 764.105,1008.091 763.908,1007.841 C763.566,1007.407 763.641,1006.778 764.074,1006.437 C764.828,1005.843 765.557,1005.201 766.24,1004.527 C766.636,1004.139 767.268,1004.145 767.655,1004.538 C768.042,1004.932 768.037,1005.564 767.644,1005.952 C766.908,1006.677 766.123,1007.369 765.313,1008.008 C765.129,1008.152 764.91,1008.222 764.694,1008.222 L764.694,1008.222 Z M727.879,1005.005 C727.604,1005.005 727.331,1004.893 727.134,1004.671 C726.441,1003.898 725.788,1003.082 725.191,1002.245 C724.871,1001.795 724.976,1001.17 725.426,1000.85 C725.874,1000.529 726.499,1000.634 726.82,1001.083 C727.374,1001.861 727.981,1002.619 728.624,1003.338 C728.992,1003.75 728.957,1004.382 728.546,1004.75 C728.354,1004.921 728.116,1005.005 727.879,1005.005 L727.879,1005.005 Z M770.718,1001.596 C770.532,1001.596 770.345,1001.544 770.178,1001.436 C769.713,1001.138 769.579,1000.519 769.878,1000.055 C770.397,999.246 770.877,998.402 771.302,997.546 C771.546,997.051 772.147,996.848 772.642,997.094 C773.136,997.339 773.339,997.939 773.093,998.433 C772.636,999.357 772.12,1000.266 771.56,1001.137 C771.368,1001.433 771.047,1001.596 770.718,1001.596 L770.718,1001.596 Z M723.091,997.434 C722.7,997.434 722.329,997.204 722.169,996.821 C721.768,995.865 721.418,994.879 721.127,993.89 C720.972,993.36 721.275,992.804 721.806,992.649 C722.338,992.493 722.892,992.798 723.047,993.327 C723.315,994.245 723.641,995.16 724.013,996.047 C724.227,996.557 723.987,997.143 723.477,997.356 C723.352,997.409 723.22,997.434 723.091,997.434 L723.091,997.434 Z M774.246,993.365 C774.168,993.365 774.09,993.356 774.011,993.337 C773.474,993.208 773.144,992.667 773.273,992.131 C773.499,991.194 773.674,990.239 773.793,989.292 C773.861,988.744 774.35,988.352 774.91,988.424 C775.458,988.493 775.847,988.993 775.777,989.542 C775.648,990.562 775.46,991.591 775.217,992.6 C775.106,993.057 774.697,993.365 774.246,993.365 L774.246,993.365 Z M721.052,988.713 C720.527,988.713 720.088,988.305 720.055,987.775 C720.019,987.188 720,986.596 720,986 C720.001,985.553 720.011,985.11 720.031,984.67 C720.057,984.118 720.534,983.703 721.076,983.717 C721.628,983.742 722.055,984.21 722.029,984.762 C722.011,985.173 722.001,985.587 722,986.002 C722,986.554 722.017,987.105 722.051,987.651 C722.085,988.202 721.666,988.677 721.114,988.711 C721.094,988.712 721.072,988.713 721.052,988.713 L721.052,988.713 Z M774.879,984.432 C774.369,984.432 773.934,984.044 773.885,983.526 C773.795,982.575 773.65,981.615 773.454,980.671 C773.343,980.13 773.69,979.601 774.23,979.489 C774.767,979.375 775.3,979.724 775.413,980.265 C775.623,981.28 775.779,982.314 775.875,983.338 C775.928,983.888 775.523,984.376 774.974,984.428 C774.941,984.431 774.91,984.432 774.879,984.432 L774.879,984.432 Z M721.971,979.805 C721.882,979.805 721.793,979.793 721.704,979.769 C721.172,979.622 720.858,979.071 721.006,978.539 C721.28,977.542 721.615,976.551 722,975.592 C722.205,975.079 722.786,974.83 723.3,975.036 C723.812,975.241 724.061,975.824 723.856,976.336 C723.499,977.226 723.188,978.146 722.934,979.07 C722.812,979.514 722.409,979.805 721.971,979.805 L721.971,979.805 Z M772.566,975.778 C772.187,975.778 771.824,975.562 771.656,975.195 C771.256,974.32 770.803,973.461 770.31,972.641 C770.025,972.167 770.179,971.553 770.652,971.268 C771.127,970.983 771.74,971.137 772.024,971.61 C772.556,972.495 773.043,973.42 773.475,974.362 C773.704,974.864 773.484,975.458 772.981,975.687 C772.847,975.75 772.705,975.778 772.566,975.778 L772.566,975.778 Z M725.756,971.691 C725.56,971.691 725.363,971.634 725.19,971.515 C724.735,971.202 724.62,970.579 724.934,970.124 C725.517,969.276 726.157,968.45 726.836,967.666 C727.199,967.249 727.829,967.205 728.247,967.566 C728.664,967.928 728.709,968.559 728.348,968.977 C727.716,969.704 727.122,970.472 726.58,971.258 C726.387,971.54 726.074,971.691 725.756,971.691 L725.756,971.691 Z M767.538,968.365 C767.274,968.365 767.012,968.262 766.815,968.056 C766.151,967.361 765.442,966.696 764.709,966.079 C764.286,965.724 764.231,965.093 764.587,964.67 C764.943,964.248 765.573,964.193 765.996,964.548 C766.785,965.211 767.548,965.927 768.262,966.675 C768.643,967.074 768.628,967.707 768.229,968.088 C768.035,968.273 767.786,968.365 767.538,968.365 L767.538,968.365 Z M731.99,965.258 C731.684,965.258 731.381,965.118 731.185,964.853 C730.856,964.408 730.951,963.782 731.396,963.454 C732.226,962.841 733.1,962.268 733.995,961.75 C734.475,961.472 735.084,961.635 735.361,962.114 C735.639,962.592 735.475,963.204 734.997,963.48 C734.166,963.961 733.354,964.494 732.583,965.063 C732.404,965.195 732.196,965.258 731.99,965.258 L731.99,965.258 Z M760.37,962.995 C760.216,962.995 760.059,962.959 759.912,962.884 C759.06,962.443 758.173,962.046 757.277,961.705 C756.762,961.508 756.503,960.93 756.699,960.414 C756.896,959.897 757.477,959.64 757.99,959.836 C758.955,960.205 759.911,960.632 760.83,961.106 C761.32,961.36 761.513,961.963 761.26,962.454 C761.082,962.798 760.732,962.995 760.37,962.995 L760.37,962.995 Z M739.979,961.211 C739.553,961.211 739.157,960.936 739.024,960.507 C738.86,959.979 739.155,959.419 739.683,959.255 C740.67,958.949 741.685,958.695 742.699,958.501 C743.24,958.398 743.767,958.752 743.87,959.295 C743.974,959.837 743.618,960.361 743.076,960.465 C742.134,960.646 741.191,960.881 740.276,961.166 C740.178,961.196 740.077,961.211 739.979,961.211 L739.979,961.211 Z M751.841,960.271 C751.794,960.271 751.747,960.268 751.698,960.262 C750.752,960.126 749.784,960.043 748.823,960.013 C748.271,959.996 747.838,959.535 747.854,958.983 C747.872,958.43 748.343,957.997 748.886,958.014 C749.92,958.046 750.961,958.136 751.981,958.282 C752.527,958.359 752.908,958.866 752.83,959.413 C752.759,959.912 752.331,960.271 751.841,960.271 L751.841,960.271 Z" id="Fill-920" fill="#314E55" sketch:type="MSShapeGroup"></path>
                <g id="Group-923" transform="translate(740.000000, 978.000000)">
                    <mask id="mask-2" sketch:name="Clip 922" fill="white">
                        <use xlink:href="#path-1"></use>
                    </mask>
                    <g id="Clip-922"></g>
                    <path d="M0,0 L16,0 L16,16 L0,16 L0,0 Z" id="Fill-921" fill="#D26CBA" sketch:type="MSShapeGroup" mask="url(#mask-2)"></path>
                </g>
                <path d="M748,995 C743.037,995 739,990.962 739,986 C739,981.038 743.037,977 748,977 C752.963,977 757,981.038 757,986 C757,990.962 752.963,995 748,995 L748,995 Z M748,979 C744.141,979 741,982.14 741,986 C741,989.86 744.141,993 748,993 C751.859,993 755,989.86 755,986 C755,982.14 751.859,979 748,979 L748,979 Z" id="Fill-924" fill="#314E55" sketch:type="MSShapeGroup"></path>
            </g>
        </g>
    </g>
</svg>