<?xml version="1.0" encoding="UTF-8" standalone="no"?>
<svg width="60px" height="60px" viewBox="0 0 60 60" version="1.1" xmlns="http://www.w3.org/2000/svg" xmlns:xlink="http://www.w3.org/1999/xlink" xmlns:sketch="http://www.bohemiancoding.com/sketch/ns">
    <!-- Generator: Sketch 3.3.3 (12081) - http://www.bohemiancoding.com/sketch -->
    <title>Crop</title>
    <desc>Created with Sketch.</desc>
    <defs></defs>
    <g id="outlined" stroke="none" stroke-width="1" fill="none" fill-rule="evenodd" sketch:type="MSPage">
        <g id="Interface_sliced" sketch:type="MSLayerGroup" transform="translate(-600.000000, -600.000000)">
            <g id="Imported-Layers" transform="translate(2.000000, 4.000000)" sketch:type="MSShapeGroup">
                <path d="M605,603 L625,603 L625,623 L605,623 L605,603 Z" id="Fill-638" fill="#5ECB66"></path>
                <path d="M625,624 L605,624 C604.447,624 604,623.552 604,623 L604,603 C604,602.448 604.447,602 605,602 L625,602 C625.553,602 626,602.448 626,603 L626,623 C626,623.552 625.553,624 625,624 L625,624 Z M606,622 L624,622 L624,604 L606,604 L606,622 Z" id="Fill-640" fill="#314E55"></path>
                <path d="M603,601 L607,601 L607,605 L603,605 L603,601 Z" id="Fill-641" fill="#D8D8D8"></path>
                <path d="M607,606 L603,606 C602.447,606 602,605.552 602,605 L602,601 C602,600.448 602.447,600 603,600 L607,600 C607.553,600 608,600.448 608,601 L608,605 C608,605.552 607.553,606 607,606 L607,606 Z M604,604 L606,604 L606,602 L604,602 L604,604 Z" id="Fill-643" fill="#314E55"></path>
                <path d="M603,621 L607,621 L607,625 L603,625 L603,621 Z" id="Fill-644" fill="#D8D8D8"></path>
                <path d="M607,626 L603,626 C602.447,626 602,625.552 602,625 L602,621 C602,620.448 602.447,620 603,620 L607,620 C607.553,620 608,620.448 608,621 L608,625 C608,625.552 607.553,626 607,626 L607,626 Z M604,624 L606,624 L606,622 L604,622 L604,624 Z" id="Fill-646" fill="#314E55"></path>
                <path d="M623,601 L627,601 L627,605 L623,605 L623,601 Z" id="Fill-647" fill="#D8D8D8"></path>
                <path d="M627,606 L623,606 C622.447,606 622,605.552 622,605 L622,601 C622,600.448 622.447,600 623,600 L627,600 C627.553,600 628,600.448 628,601 L628,605 C628,605.552 627.553,606 627,606 L627,606 Z M624,604 L626,604 L626,602 L624,602 L624,604 Z" id="Fill-649" fill="#314E55"></path>
                <path d="M623,621 L627,621 L627,625 L623,625 L623,621 Z" id="Fill-650" fill="#D8D8D8"></path>
                <path d="M627,626 L623,626 C622.447,626 622,625.552 622,625 L622,621 C622,620.448 622.447,620 623,620 L627,620 C627.553,620 628,620.448 628,621 L628,625 C628,625.552 627.553,626 627,626 L627,626 Z M624,624 L626,624 L626,622 L624,622 L624,624 Z" id="Fill-652" fill="#314E55"></path>
                <path d="M646,648 L651,648 L651,650 L646,650 L646,648 Z M636,648 L641,648 L641,650 L636,650 L636,648 Z M626,648 L631,648 L631,650 L626,650 L626,648 Z M616,648 L621,648 L621,650 L616,650 L616,648 Z M606,648 L611,648 L611,650 L606,650 L606,648 Z M604,640 L606,640 L606,645 L604,645 L604,640 Z M650,639 L652,639 L652,644 L650,644 L650,639 Z M604,630 L606,630 L606,635 L604,635 L604,630 Z M650,629 L652,629 L652,634 L650,634 L650,629 Z M650,619 L652,619 L652,624 L650,624 L650,619 Z M650,609 L652,609 L652,614 L650,614 L650,609 Z M647,602 L652,602 L652,604 L647,604 L647,602 Z M637,602 L642,602 L642,604 L637,604 L637,602 Z M627,602 L632,602 L632,604 L627,604 L627,602 Z" id="Fill-653" fill="#314E55"></path>
            </g>
        </g>
    </g>
</svg>