<?xml version="1.0" encoding="UTF-8" standalone="no"?>
<svg width="60px" height="60px" viewBox="0 0 60 60" version="1.1" xmlns="http://www.w3.org/2000/svg" xmlns:xlink="http://www.w3.org/1999/xlink" xmlns:sketch="http://www.bohemiancoding.com/sketch/ns">
    <!-- Generator: Sketch 3.3.3 (12081) - http://www.bohemiancoding.com/sketch -->
    <title>Cropdecrease</title>
    <desc>Created with Sketch.</desc>
    <defs></defs>
    <g id="outlined" stroke="none" stroke-width="1" fill="none" fill-rule="evenodd" sketch:type="MSPage">
        <g id="Interface_sliced" sketch:type="MSLayerGroup" transform="translate(-840.000000, -600.000000)">
            <g id="Imported-Layers" transform="translate(2.000000, 4.000000)" sketch:type="MSShapeGroup">
                <path d="M846,603 L866,603 L866,623 L846,623 L846,603 Z" id="Fill-672" fill="#73C9C9"></path>
                <path d="M866,624 L846,624 C845.447,624 845,623.552 845,623 L845,603 C845,602.448 845.447,602 846,602 L866,602 C866.553,602 867,602.448 867,603 L867,623 C867,623.552 866.553,624 866,624 L866,624 Z M847,622 L865,622 L865,604 L847,604 L847,622 Z" id="Fill-674" fill="#314E55"></path>
                <path d="M844,601 L848,601 L848,605 L844,605 L844,601 Z" id="Fill-675" fill="#D8D8D8"></path>
                <path d="M848,606 L844,606 C843.447,606 843,605.552 843,605 L843,601 C843,600.448 843.447,600 844,600 L848,600 C848.553,600 849,600.448 849,601 L849,605 C849,605.552 848.553,606 848,606 L848,606 Z M845,604 L847,604 L847,602 L845,602 L845,604 Z" id="Fill-677" fill="#314E55"></path>
                <path d="M844,621 L848,621 L848,625 L844,625 L844,621 Z" id="Fill-678" fill="#D8D8D8"></path>
                <path d="M848,626 L844,626 C843.447,626 843,625.552 843,625 L843,621 C843,620.448 843.447,620 844,620 L848,620 C848.553,620 849,620.448 849,621 L849,625 C849,625.552 848.553,626 848,626 L848,626 Z M845,624 L847,624 L847,622 L845,622 L845,624 Z" id="Fill-680" fill="#314E55"></path>
                <path d="M864,601 L868,601 L868,605 L864,605 L864,601 Z" id="Fill-681" fill="#D8D8D8"></path>
                <path d="M868,606 L864,606 C863.447,606 863,605.552 863,605 L863,601 C863,600.448 863.447,600 864,600 L868,600 C868.553,600 869,600.448 869,601 L869,605 C869,605.552 868.553,606 868,606 L868,606 Z M865,604 L867,604 L867,602 L865,602 L865,604 Z" id="Fill-683" fill="#314E55"></path>
                <path d="M864,621 L868,621 L868,625 L864,625 L864,621 Z" id="Fill-684" fill="#D8D8D8"></path>
                <path d="M868,626 L864,626 C863.447,626 863,625.552 863,625 L863,621 C863,620.448 863.447,620 864,620 L868,620 C868.553,620 869,620.448 869,621 L869,625 C869,625.552 868.553,626 868,626 L868,626 Z M865,624 L867,624 L867,622 L865,622 L865,624 Z" id="Fill-686" fill="#314E55"></path>
                <path d="M892,650 L846,650 C845.447,650 845,649.552 845,649 L845,625 L847,625 L847,648 L891,648 L891,604 L868,604 L868,602 L892,602 C892.553,602 893,602.448 893,603 L893,649 C893,649.552 892.553,650 892,650" id="Fill-687" fill="#314E55"></path>
                <path d="M884,642 C883.744,642 883.488,641.902 883.293,641.707 L872.293,630.707 C871.902,630.316 871.902,629.684 872.293,629.293 C872.684,628.902 873.316,628.902 873.707,629.293 L884.707,640.293 C885.098,640.684 885.098,641.316 884.707,641.707 C884.512,641.902 884.256,642 884,642" id="Fill-688" fill="#314E55"></path>
                <path d="M873,641 C872.447,641 872,640.552 872,640 L872,630 C872,629.448 872.447,629 873,629 L883,629 C883.553,629 884,629.448 884,630 C884,630.552 883.553,631 883,631 L874,631 L874,640 C874,640.552 873.553,641 873,641" id="Fill-689" fill="#314E55"></path>
            </g>
        </g>
    </g>
</svg>