<?xml version="1.0" encoding="UTF-8" standalone="no"?>
<svg width="60px" height="60px" viewBox="0 0 60 60" version="1.1" xmlns="http://www.w3.org/2000/svg" xmlns:xlink="http://www.w3.org/1999/xlink" xmlns:sketch="http://www.bohemiancoding.com/sketch/ns">
    <!-- Generator: Sketch 3.3.3 (12081) - http://www.bohemiancoding.com/sketch -->
    <title>Cut</title>
    <desc>Created with Sketch.</desc>
    <defs>
        <path id="path-1" d="M33,17 L33,0 L0,0 L0,33 L17,33 L17,17 L33,17 L33,17 Z"></path>
        <path id="path-3" d="M16,0 L33,0 L33,33 L0,33 L0,16 L16,16 L16,0 L16,0 Z"></path>
    </defs>
    <g id="outlined" stroke="none" stroke-width="1" fill="none" fill-rule="evenodd" sketch:type="MSPage">
        <g id="Interface_sliced" sketch:type="MSLayerGroup" transform="translate(-480.000000, -480.000000)">
            <g id="Imported-Layers" transform="translate(2.000000, 4.000000)">
                <g id="Group-452" transform="translate(483.000000, 481.000000)">
                    <mask id="mask-2" sketch:name="Clip 451" fill="white">
                        <use xlink:href="#path-1"></use>
                    </mask>
                    <g id="Clip-451"></g>
                    <path d="M0,0 L33,0 L33,33 L0,33 L0,0 Z" id="Fill-450" fill="#5ECB66" sketch:type="MSShapeGroup" mask="url(#mask-2)"></path>
                </g>
                <path d="M500,515 L483,515 C482.447,515 482,514.552 482,514 L482,481 C482,480.448 482.447,480 483,480 L516,480 C516.553,480 517,480.448 517,481 L517,498 C517,498.552 516.553,499 516,499 L501,499 L501,514 C501,514.552 500.553,515 500,515 L500,515 Z M484,513 L499,513 L499,498 C499,497.448 499.447,497 500,497 L515,497 L515,482 L484,482 L484,513 L484,513 Z" id="Fill-453" fill="#314E55" sketch:type="MSShapeGroup"></path>
                <g id="Group-456" transform="translate(500.000000, 498.000000)">
                    <mask id="mask-4" sketch:name="Clip 455" fill="white">
                        <use xlink:href="#path-3"></use>
                    </mask>
                    <g id="Clip-455"></g>
                    <path d="M0,0 L33,0 L33,33 L0,33 L0,0 Z" id="Fill-454" fill="#EBEBEB" sketch:type="MSShapeGroup" mask="url(#mask-4)"></path>
                </g>
                <path d="M533,532 L500,532 C499.447,532 499,531.552 499,531 L499,514 C499,513.448 499.447,513 500,513 L515,513 L515,498 C515,497.448 515.447,497 516,497 L533,497 C533.553,497 534,497.448 534,498 L534,531 C534,531.552 533.553,532 533,532 L533,532 Z M501,530 L532,530 L532,499 L517,499 L517,514 C517,514.552 516.553,515 516,515 L501,515 L501,530 L501,530 Z" id="Fill-457" fill="#314E55" sketch:type="MSShapeGroup"></path>
                <path d="M482.937,492.062 C482.682,492.062 482.426,491.965 482.231,491.77 C481.84,491.379 481.84,490.746 482.231,490.355 L491.806,480.78 C492.196,480.389 492.829,480.389 493.22,480.78 C493.61,481.17 493.61,481.803 493.22,482.194 L483.644,491.77 C483.449,491.965 483.193,492.062 482.937,492.062" id="Fill-458" fill="#314E55" sketch:type="MSShapeGroup"></path>
                <path d="M483.492,502.507 C483.236,502.507 482.981,502.41 482.785,502.214 C482.394,501.824 482.394,501.191 482.785,500.8 L502.799,480.787 C503.19,480.396 503.822,480.396 504.213,480.787 C504.604,481.177 504.604,481.81 504.213,482.201 L484.199,502.214 C484.004,502.41 483.748,502.507 483.492,502.507" id="Fill-459" fill="#314E55" sketch:type="MSShapeGroup"></path>
                <path d="M483.492,514.507 C483.236,514.507 482.981,514.41 482.785,514.214 C482.394,513.824 482.394,513.191 482.785,512.8 L514.797,480.789 C515.187,480.398 515.82,480.398 516.211,480.789 C516.602,481.18 516.602,481.812 516.211,482.203 L484.199,514.214 C484.004,514.41 483.748,514.507 483.492,514.507" id="Fill-460" fill="#314E55" sketch:type="MSShapeGroup"></path>
                <path d="M495,515 C494.744,515 494.488,514.902 494.293,514.707 C493.902,514.316 493.902,513.684 494.293,513.293 L499.293,508.293 C499.684,507.902 500.316,507.902 500.707,508.293 C501.098,508.683 501.098,509.316 500.707,509.707 L495.707,514.707 C495.512,514.902 495.256,515 495,515" id="Fill-461" fill="#314E55" sketch:type="MSShapeGroup"></path>
                <path d="M511,499 C510.744,499 510.488,498.902 510.293,498.707 C509.902,498.316 509.902,497.684 510.293,497.293 L515.293,492.293 C515.684,491.902 516.316,491.902 516.707,492.293 C517.098,492.684 517.098,493.316 516.707,493.707 L511.707,498.707 C511.512,498.902 511.256,499 511,499" id="Fill-462" fill="#314E55" sketch:type="MSShapeGroup"></path>
            </g>
        </g>
    </g>
</svg>