<?xml version="1.0" encoding="UTF-8" standalone="no"?>
<svg width="60px" height="60px" viewBox="0 0 60 60" version="1.1" xmlns="http://www.w3.org/2000/svg" xmlns:xlink="http://www.w3.org/1999/xlink" xmlns:sketch="http://www.bohemiancoding.com/sketch/ns">
    <!-- Generator: Sketch 3.3.3 (12081) - http://www.bohemiancoding.com/sketch -->
    <title>Dashinterface</title>
    <desc>Created with Sketch.</desc>
    <defs></defs>
    <g id="outlined" stroke="none" stroke-width="1" fill="none" fill-rule="evenodd" sketch:type="MSPage">
        <g id="Interface_sliced" sketch:type="MSLayerGroup" transform="translate(-600.000000, -1920.000000)">
            <g id="Imported-Layers" transform="translate(2.000000, 4.000000)" sketch:type="MSShapeGroup">
                <path d="M601,1926 L655,1926 L655,1966 L601,1966 L601,1926 Z" id="Fill-1600" fill="#EBEBEB"></path>
                <path d="M655,1967 L601,1967 C600.447,1967 600,1966.553 600,1966 L600,1926 C600,1925.447 600.447,1925 601,1925 L655,1925 C655.553,1925 656,1925.447 656,1926 L656,1966 C656,1966.553 655.553,1967 655,1967 L655,1967 Z M602,1965 L654,1965 L654,1927 L602,1927 L602,1965 Z" id="Fill-1602" fill="#314E55"></path>
                <path d="M601,1926 L615,1926 L615,1966 L601,1966 L601,1926 Z" id="Fill-1603" fill="#C59981"></path>
                <path d="M615,1967 L601,1967 C600.447,1967 600,1966.553 600,1966 L600,1926 C600,1925.447 600.447,1925 601,1925 L615,1925 C615.553,1925 616,1925.447 616,1926 L616,1966 C616,1966.553 615.553,1967 615,1967 L615,1967 Z M602,1965 L614,1965 L614,1927 L602,1927 L602,1965 Z" id="Fill-1605" fill="#314E55"></path>
                <path d="M603,1929 L613,1929 L613,1931 L603,1931 L603,1929 Z" id="Fill-1606" fill="#314E55"></path>
                <path d="M603,1938 L611,1938 L611,1940 L603,1940 L603,1938 Z" id="Fill-1607" fill="#314E55"></path>
                <path d="M603,1942 L611,1942 L611,1944 L603,1944 L603,1942 Z" id="Fill-1608" fill="#314E55"></path>
                <path d="M603,1946 L611,1946 L611,1948 L603,1948 L603,1946 Z" id="Fill-1609" fill="#314E55"></path>
                <path d="M603,1950 L611,1950 L611,1952 L603,1952 L603,1950 Z" id="Fill-1610" fill="#314E55"></path>
                <path d="M620,1934 L650,1934 L650,1958 L620,1958 L620,1934 Z" id="Fill-1611" fill="#D26CBA"></path>
                <path d="M650,1959 L620,1959 C619.447,1959 619,1958.553 619,1958 L619,1934 C619,1933.447 619.447,1933 620,1933 L650,1933 C650.553,1933 651,1933.447 651,1934 L651,1958 C651,1958.553 650.553,1959 650,1959 L650,1959 Z M621,1957 L649,1957 L649,1935 L621,1935 L621,1957 Z" id="Fill-1613" fill="#314E55"></path>
            </g>
        </g>
    </g>
</svg>