<?xml version="1.0" encoding="UTF-8" standalone="no"?>
<svg width="60px" height="60px" viewBox="0 0 60 60" version="1.1" xmlns="http://www.w3.org/2000/svg" xmlns:xlink="http://www.w3.org/1999/xlink" xmlns:sketch="http://www.bohemiancoding.com/sketch/ns">
    <!-- Generator: Sketch 3.3.3 (12081) - http://www.bohemiancoding.com/sketch -->
    <title>Develop</title>
    <desc>Created with Sketch.</desc>
    <defs></defs>
    <g id="outlined" stroke="none" stroke-width="1" fill="none" fill-rule="evenodd" sketch:type="MSPage">
        <g id="Interface_sliced" sketch:type="MSLayerGroup" transform="translate(-480.000000, -2040.000000)">
            <g id="Imported-Layers" transform="translate(2.000000, 4.000000)" sketch:type="MSShapeGroup">
                <path d="M482,2046 L536,2046 L536,2086 L482,2086 L482,2046 Z" id="Fill-1778" fill="#D8D8D8"></path>
                <path d="M536,2087 L482,2087 C481.447,2087 481,2086.553 481,2086 L481,2046 C481,2045.447 481.447,2045 482,2045 L536,2045 C536.553,2045 537,2045.447 537,2046 L537,2086 C537,2086.553 536.553,2087 536,2087 L536,2087 Z M483,2085 L535,2085 L535,2047 L483,2047 L483,2085 Z" id="Fill-1780" fill="#314E55"></path>
                <path d="M486,2052 L493,2052 L493,2056 L486,2056 L486,2052 Z" id="Fill-1781" fill="#5ECB66"></path>
                <path d="M493,2057 L486,2057 C485.447,2057 485,2056.553 485,2056 L485,2052 C485,2051.447 485.447,2051 486,2051 L493,2051 C493.553,2051 494,2051.447 494,2052 L494,2056 C494,2056.553 493.553,2057 493,2057 L493,2057 Z M487,2055 L492,2055 L492,2053 L487,2053 L487,2055 Z" id="Fill-1783" fill="#314E55"></path>
                <path d="M486,2060 L493,2060 L493,2064 L486,2064 L486,2060 Z" id="Fill-1784" fill="#5ECB66"></path>
                <path d="M493,2065 L486,2065 C485.447,2065 485,2064.553 485,2064 L485,2060 C485,2059.447 485.447,2059 486,2059 L493,2059 C493.553,2059 494,2059.447 494,2060 L494,2064 C494,2064.553 493.553,2065 493,2065 L493,2065 Z M487,2063 L492,2063 L492,2061 L487,2061 L487,2063 Z" id="Fill-1786" fill="#314E55"></path>
                <path d="M486,2068 L493,2068 L493,2072 L486,2072 L486,2068 Z" id="Fill-1787" fill="#5ECB66"></path>
                <path d="M493,2073 L486,2073 C485.447,2073 485,2072.553 485,2072 L485,2068 C485,2067.447 485.447,2067 486,2067 L493,2067 C493.553,2067 494,2067.447 494,2068 L494,2072 C494,2072.553 493.553,2073 493,2073 L493,2073 Z M487,2071 L492,2071 L492,2069 L487,2069 L487,2071 Z" id="Fill-1789" fill="#314E55"></path>
                <path d="M486,2076 L493,2076 L493,2080 L486,2080 L486,2076 Z" id="Fill-1790" fill="#5ECB66"></path>
                <path d="M493,2081 L486,2081 C485.447,2081 485,2080.553 485,2080 L485,2076 C485,2075.447 485.447,2075 486,2075 L493,2075 C493.553,2075 494,2075.447 494,2076 L494,2080 C494,2080.553 493.553,2081 493,2081 L493,2081 Z M487,2079 L492,2079 L492,2077 L487,2077 L487,2079 Z" id="Fill-1792" fill="#314E55"></path>
                <path d="M496,2053 L507,2053 L507,2055 L496,2055 L496,2053 Z" id="Fill-1793" fill="#314E55"></path>
                <path d="M496,2069 L519,2069 L519,2071 L496,2071 L496,2069 Z" id="Fill-1794" fill="#314E55"></path>
                <path d="M502,2077 L525,2077 L525,2079 L502,2079 L502,2077 Z" id="Fill-1795" fill="#314E55"></path>
                <path d="M502,2073 L509,2073 L509,2075 L502,2075 L502,2073 Z" id="Fill-1796" fill="#314E55"></path>
                <path d="M511,2073 L518,2073 L518,2075 L511,2075 L511,2073 Z" id="Fill-1797" fill="#314E55"></path>
                <path d="M502,2061 L513,2061 L513,2063 L502,2063 L502,2061 Z" id="Fill-1798" fill="#314E55"></path>
                <path d="M502,2057 L511,2057 L511,2059 L502,2059 L502,2057 Z" id="Fill-1799" fill="#314E55"></path>
                <path d="M515,2061 L524,2061 L524,2063 L515,2063 L515,2061 Z" id="Fill-1800" fill="#314E55"></path>
                <path d="M521,2069 L525,2069 L525,2071 L521,2071 L521,2069 Z" id="Fill-1801" fill="#314E55"></path>
                <path d="M513,2057 L531,2057 L531,2059 L513,2059 L513,2057 Z" id="Fill-1802" fill="#314E55"></path>
                <path d="M510,2065 L528,2065 L528,2067 L510,2067 L510,2065 Z" id="Fill-1803" fill="#314E55"></path>
            </g>
        </g>
    </g>
</svg>