<?xml version="1.0" encoding="UTF-8" standalone="no"?>
<svg width="60px" height="60px" viewBox="0 0 60 60" version="1.1" xmlns="http://www.w3.org/2000/svg" xmlns:xlink="http://www.w3.org/1999/xlink" xmlns:sketch="http://www.bohemiancoding.com/sketch/ns">
    <!-- Generator: Sketch 3.3.3 (12081) - http://www.bohemiancoding.com/sketch -->
    <title>Dividing</title>
    <desc>Created with Sketch.</desc>
    <defs>
        <path id="path-1" d="M26,52 C40.359,52 52,40.359 52,26 C52,11.641 40.359,0 26,0 C11.641,0 0,11.641 0,26 C0,40.359 11.641,52 26,52 L26,52 Z"></path>
    </defs>
    <g id="outlined" stroke="none" stroke-width="1" fill="none" fill-rule="evenodd" sketch:type="MSPage">
        <g id="Interface_sliced" sketch:type="MSLayerGroup" transform="translate(-840.000000, -1080.000000)">
            <g id="Imported-Layers" transform="translate(2.000000, 4.000000)">
                <g id="Group-975" transform="translate(842.000000, 1081.000000)">
                    <mask id="mask-2" sketch:name="Clip 974" fill="white">
                        <use xlink:href="#path-1"></use>
                    </mask>
                    <g id="Clip-974"></g>
                    <path d="M0,0 L52,0 L52,52 L0,52 L0,0 Z" id="Fill-973" fill="#81A4E3" sketch:type="MSShapeGroup" mask="url(#mask-2)"></path>
                </g>
                <path d="M868,1134 C853.112,1134 841,1121.888 841,1107 C841,1092.112 853.112,1080 868,1080 C882.888,1080 895,1092.112 895,1107 C895,1121.888 882.888,1134 868,1134 L868,1134 Z M868,1082 C854.215,1082 843,1093.215 843,1107 C843,1120.785 854.215,1132 868,1132 C881.785,1132 893,1120.785 893,1107 C893,1093.215 881.785,1082 868,1082 L868,1082 Z" id="Fill-976" fill="#314E55" sketch:type="MSShapeGroup"></path>
                <path d="M881,1108 L855,1108 C854.447,1108 854,1107.552 854,1107 C854,1106.448 854.447,1106 855,1106 L881,1106 C881.553,1106 882,1106.448 882,1107 C882,1107.552 881.553,1108 881,1108" id="Fill-977" fill="#314E55" sketch:type="MSShapeGroup"></path>
                <path d="M870,1102 L866,1102 C865.447,1102 865,1101.552 865,1101 C865,1100.448 865.447,1100 866,1100 L870,1100 C870.553,1100 871,1100.448 871,1101 C871,1101.552 870.553,1102 870,1102" id="Fill-978" fill="#314E55" sketch:type="MSShapeGroup"></path>
                <path d="M870,1114 L866,1114 C865.447,1114 865,1113.552 865,1113 C865,1112.448 865.447,1112 866,1112 L870,1112 C870.553,1112 871,1112.448 871,1113 C871,1113.552 870.553,1114 870,1114" id="Fill-979" fill="#314E55" sketch:type="MSShapeGroup"></path>
            </g>
        </g>
    </g>
</svg>