<?xml version="1.0" encoding="UTF-8" standalone="no"?>
<svg width="60px" height="60px" viewBox="0 0 60 60" version="1.1" xmlns="http://www.w3.org/2000/svg" xmlns:xlink="http://www.w3.org/1999/xlink" xmlns:sketch="http://www.bohemiancoding.com/sketch/ns">
    <!-- Generator: Sketch 3.3.3 (12081) - http://www.bohemiancoding.com/sketch -->
    <title>Dragndrop</title>
    <desc>Created with Sketch.</desc>
    <defs></defs>
    <g id="outlined" stroke="none" stroke-width="1" fill="none" fill-rule="evenodd" sketch:type="MSPage">
        <g id="Interface_sliced" sketch:type="MSLayerGroup" transform="translate(0.000000, -480.000000)">
            <g id="Imported-Layers" transform="translate(2.000000, 4.000000)" sketch:type="MSShapeGroup">
                <path d="M3,482 L53,482 L53,532 L3,532 L3,482 Z" id="Fill-429" fill="#E9E7D1"></path>
                <path d="M53,533 L3,533 C2.448,533 2,532.552 2,532 L2,482 C2,481.448 2.448,481 3,481 L53,481 C53.552,481 54,481.448 54,482 L54,532 C54,532.552 53.552,533 53,533 L53,533 Z M4,531 L52,531 L52,483 L4,483 L4,531 Z" id="Fill-431" fill="#314E55"></path>
                <path d="M10,489 L46,489 L46,525 L10,525 L10,489 Z" id="Fill-432" fill="#73C9C9"></path>
                <path d="M46,526 L45,526 C44.448,526 44,525.552 44,525 C44,524.448 44.448,524 45,524 L46,524 C46.552,524 47,524.448 47,525 C47,525.552 46.552,526 46,526 L46,526 Z M42,526 L41,526 C40.448,526 40,525.552 40,525 C40,524.448 40.448,524 41,524 L42,524 C42.552,524 43,524.448 43,525 C43,525.552 42.552,526 42,526 L42,526 Z M38,526 L37,526 C36.448,526 36,525.552 36,525 C36,524.448 36.448,524 37,524 L38,524 C38.552,524 39,524.448 39,525 C39,525.552 38.552,526 38,526 L38,526 Z M34,526 L33,526 C32.448,526 32,525.552 32,525 C32,524.448 32.448,524 33,524 L34,524 C34.552,524 35,524.448 35,525 C35,525.552 34.552,526 34,526 L34,526 Z M30,526 L29,526 C28.448,526 28,525.552 28,525 C28,524.448 28.448,524 29,524 L30,524 C30.552,524 31,524.448 31,525 C31,525.552 30.552,526 30,526 L30,526 Z M26,526 L25,526 C24.448,526 24,525.552 24,525 C24,524.448 24.448,524 25,524 L26,524 C26.552,524 27,524.448 27,525 C27,525.552 26.552,526 26,526 L26,526 Z M22,526 L21,526 C20.448,526 20,525.552 20,525 C20,524.448 20.448,524 21,524 L22,524 C22.552,524 23,524.448 23,525 C23,525.552 22.552,526 22,526 L22,526 Z M18,526 L17,526 C16.448,526 16,525.552 16,525 C16,524.448 16.448,524 17,524 L18,524 C18.552,524 19,524.448 19,525 C19,525.552 18.552,526 18,526 L18,526 Z M14,526 L13,526 C12.448,526 12,525.552 12,525 C12,524.448 12.448,524 13,524 L14,524 C14.552,524 15,524.448 15,525 C15,525.552 14.552,526 14,526 L14,526 Z M10,526 C9.448,526 9,525.552 9,525 L9,524 C9,523.448 9.448,523 10,523 C10.552,523 11,523.448 11,524 L11,525 C11,525.552 10.552,526 10,526 L10,526 Z M46,523 C45.448,523 45,522.552 45,522 L45,521 C45,520.448 45.448,520 46,520 C46.552,520 47,520.448 47,521 L47,522 C47,522.552 46.552,523 46,523 L46,523 Z M10,522 C9.448,522 9,521.552 9,521 L9,520 C9,519.448 9.448,519 10,519 C10.552,519 11,519.448 11,520 L11,521 C11,521.552 10.552,522 10,522 L10,522 Z M46,519 C45.448,519 45,518.552 45,518 L45,517 C45,516.448 45.448,516 46,516 C46.552,516 47,516.448 47,517 L47,518 C47,518.552 46.552,519 46,519 L46,519 Z M10,518 C9.448,518 9,517.552 9,517 L9,516 C9,515.448 9.448,515 10,515 C10.552,515 11,515.448 11,516 L11,517 C11,517.552 10.552,518 10,518 L10,518 Z M46,515 C45.448,515 45,514.552 45,514 L45,513 C45,512.448 45.448,512 46,512 C46.552,512 47,512.448 47,513 L47,514 C47,514.552 46.552,515 46,515 L46,515 Z M10,514 C9.448,514 9,513.552 9,513 L9,512 C9,511.448 9.448,511 10,511 C10.552,511 11,511.448 11,512 L11,513 C11,513.552 10.552,514 10,514 L10,514 Z M46,511 C45.448,511 45,510.552 45,510 L45,509 C45,508.448 45.448,508 46,508 C46.552,508 47,508.448 47,509 L47,510 C47,510.552 46.552,511 46,511 L46,511 Z M10,510 C9.448,510 9,509.552 9,509 L9,508 C9,507.448 9.448,507 10,507 C10.552,507 11,507.448 11,508 L11,509 C11,509.552 10.552,510 10,510 L10,510 Z M46,507 C45.448,507 45,506.552 45,506 L45,505 C45,504.448 45.448,504 46,504 C46.552,504 47,504.448 47,505 L47,506 C47,506.552 46.552,507 46,507 L46,507 Z M10,506 C9.448,506 9,505.552 9,505 L9,504 C9,503.448 9.448,503 10,503 C10.552,503 11,503.448 11,504 L11,505 C11,505.552 10.552,506 10,506 L10,506 Z M46,503 C45.448,503 45,502.552 45,502 L45,501 C45,500.448 45.448,500 46,500 C46.552,500 47,500.448 47,501 L47,502 C47,502.552 46.552,503 46,503 L46,503 Z M10,502 C9.448,502 9,501.552 9,501 L9,500 C9,499.448 9.448,499 10,499 C10.552,499 11,499.448 11,500 L11,501 C11,501.552 10.552,502 10,502 L10,502 Z M46,499 C45.448,499 45,498.552 45,498 L45,497 C45,496.448 45.448,496 46,496 C46.552,496 47,496.448 47,497 L47,498 C47,498.552 46.552,499 46,499 L46,499 Z M10,498 C9.448,498 9,497.552 9,497 L9,496 C9,495.448 9.448,495 10,495 C10.552,495 11,495.448 11,496 L11,497 C11,497.552 10.552,498 10,498 L10,498 Z M46,495 C45.448,495 45,494.552 45,494 L45,493 C45,492.448 45.448,492 46,492 C46.552,492 47,492.448 47,493 L47,494 C47,494.552 46.552,495 46,495 L46,495 Z M10,494 C9.448,494 9,493.552 9,493 L9,492 C9,491.448 9.448,491 10,491 C10.552,491 11,491.448 11,492 L11,493 C11,493.552 10.552,494 10,494 L10,494 Z M46,491 C45.448,491 45,490.552 45,490 L45,489 C45,488.448 45.448,488 46,488 C46.552,488 47,488.448 47,489 L47,490 C47,490.552 46.552,491 46,491 L46,491 Z M43,490 L42,490 C41.448,490 41,489.552 41,489 C41,488.448 41.448,488 42,488 L43,488 C43.552,488 44,488.448 44,489 C44,489.552 43.552,490 43,490 L43,490 Z M39,490 L38,490 C37.448,490 37,489.552 37,489 C37,488.448 37.448,488 38,488 L39,488 C39.552,488 40,488.448 40,489 C40,489.552 39.552,490 39,490 L39,490 Z M35,490 L34,490 C33.448,490 33,489.552 33,489 C33,488.448 33.448,488 34,488 L35,488 C35.552,488 36,488.448 36,489 C36,489.552 35.552,490 35,490 L35,490 Z M31,490 L30,490 C29.448,490 29,489.552 29,489 C29,488.448 29.448,488 30,488 L31,488 C31.552,488 32,488.448 32,489 C32,489.552 31.552,490 31,490 L31,490 Z M27,490 L26,490 C25.448,490 25,489.552 25,489 C25,488.448 25.448,488 26,488 L27,488 C27.552,488 28,488.448 28,489 C28,489.552 27.552,490 27,490 L27,490 Z M23,490 L22,490 C21.448,490 21,489.552 21,489 C21,488.448 21.448,488 22,488 L23,488 C23.552,488 24,488.448 24,489 C24,489.552 23.552,490 23,490 L23,490 Z M19,490 L18,490 C17.448,490 17,489.552 17,489 C17,488.448 17.448,488 18,488 L19,488 C19.552,488 20,488.448 20,489 C20,489.552 19.552,490 19,490 L19,490 Z M15,490 L14,490 C13.448,490 13,489.552 13,489 C13,488.448 13.448,488 14,488 L15,488 C15.552,488 16,488.448 16,489 C16,489.552 15.552,490 15,490 L15,490 Z M11,490 L10,490 C9.448,490 9,489.552 9,489 C9,488.448 9.448,488 10,488 L11,488 C11.552,488 12,488.448 12,489 C12,489.552 11.552,490 11,490 L11,490 Z" id="Fill-434" fill="#314E55"></path>
            </g>
        </g>
    </g>
</svg>