<?xml version="1.0" encoding="UTF-8" standalone="no"?>
<svg width="60px" height="60px" viewBox="0 0 60 60" version="1.1" xmlns="http://www.w3.org/2000/svg" xmlns:xlink="http://www.w3.org/1999/xlink" xmlns:sketch="http://www.bohemiancoding.com/sketch/ns">
    <!-- Generator: Sketch 3.3.3 (12081) - http://www.bohemiancoding.com/sketch -->
    <title>Droppic</title>
    <desc>Created with Sketch.</desc>
    <defs></defs>
    <g id="outlined" stroke="none" stroke-width="1" fill="none" fill-rule="evenodd" sketch:type="MSPage">
        <g id="Interface_sliced" sketch:type="MSLayerGroup" transform="translate(-120.000000, -480.000000)">
            <g id="Imported-Layers" transform="translate(2.000000, 4.000000)" sketch:type="MSShapeGroup">
                <path d="M173,533 L123,533 C122.448,533 122,532.552 122,532 L122,482 C122,481.448 122.448,481 123,481 L173,481 C173.552,481 174,481.448 174,482 L174,532 C174,532.552 173.552,533 173,533 L173,533 Z M124,531 L172,531 L172,483 L124,483 L124,531 Z" id="Fill-435" fill="#314E55"></path>
                <path d="M123,482 L153,482 L153,512 L123,512 L123,482 Z" id="Fill-436" fill="#73C9C9"></path>
                <path d="M153,513 L152,513 C151.448,513 151,512.552 151,512 C151,511.448 151.448,511 152,511 L153,511 C153.552,511 154,511.448 154,512 C154,512.552 153.552,513 153,513 L153,513 Z M149,513 L148,513 C147.448,513 147,512.552 147,512 C147,511.448 147.448,511 148,511 L149,511 C149.552,511 150,511.448 150,512 C150,512.552 149.552,513 149,513 L149,513 Z M145,513 L144,513 C143.448,513 143,512.552 143,512 C143,511.448 143.448,511 144,511 L145,511 C145.552,511 146,511.448 146,512 C146,512.552 145.552,513 145,513 L145,513 Z M141,513 L140,513 C139.448,513 139,512.552 139,512 C139,511.448 139.448,511 140,511 L141,511 C141.552,511 142,511.448 142,512 C142,512.552 141.552,513 141,513 L141,513 Z M137,513 L136,513 C135.448,513 135,512.552 135,512 C135,511.448 135.448,511 136,511 L137,511 C137.552,511 138,511.448 138,512 C138,512.552 137.552,513 137,513 L137,513 Z M133,513 L132,513 C131.448,513 131,512.552 131,512 C131,511.448 131.448,511 132,511 L133,511 C133.552,511 134,511.448 134,512 C134,512.552 133.552,513 133,513 L133,513 Z M129,513 L128,513 C127.448,513 127,512.552 127,512 C127,511.448 127.448,511 128,511 L129,511 C129.552,511 130,511.448 130,512 C130,512.552 129.552,513 129,513 L129,513 Z M125,513 L124,513 C123.448,513 123,512.552 123,512 C123,511.448 123.448,511 124,511 L125,511 C125.552,511 126,511.448 126,512 C126,512.552 125.552,513 125,513 L125,513 Z M123,511 C122.448,511 122,510.552 122,510 L122,509 C122,508.448 122.448,508 123,508 C123.552,508 124,508.448 124,509 L124,510 C124,510.552 123.552,511 123,511 L123,511 Z M153,510 C152.448,510 152,509.552 152,509 L152,508 C152,507.448 152.448,507 153,507 C153.552,507 154,507.448 154,508 L154,509 C154,509.552 153.552,510 153,510 L153,510 Z M123,507 C122.448,507 122,506.552 122,506 L122,505 C122,504.448 122.448,504 123,504 C123.552,504 124,504.448 124,505 L124,506 C124,506.552 123.552,507 123,507 L123,507 Z M153,506 C152.448,506 152,505.552 152,505 L152,504 C152,503.448 152.448,503 153,503 C153.552,503 154,503.448 154,504 L154,505 C154,505.552 153.552,506 153,506 L153,506 Z M123,503 C122.448,503 122,502.552 122,502 L122,501 C122,500.448 122.448,500 123,500 C123.552,500 124,500.448 124,501 L124,502 C124,502.552 123.552,503 123,503 L123,503 Z M153,502 C152.448,502 152,501.552 152,501 L152,500 C152,499.448 152.448,499 153,499 C153.552,499 154,499.448 154,500 L154,501 C154,501.552 153.552,502 153,502 L153,502 Z M123,499 C122.448,499 122,498.552 122,498 L122,497 C122,496.448 122.448,496 123,496 C123.552,496 124,496.448 124,497 L124,498 C124,498.552 123.552,499 123,499 L123,499 Z M153,498 C152.448,498 152,497.552 152,497 L152,496 C152,495.448 152.448,495 153,495 C153.552,495 154,495.448 154,496 L154,497 C154,497.552 153.552,498 153,498 L153,498 Z M123,495 C122.448,495 122,494.552 122,494 L122,493 C122,492.448 122.448,492 123,492 C123.552,492 124,492.448 124,493 L124,494 C124,494.552 123.552,495 123,495 L123,495 Z M153,494 C152.448,494 152,493.552 152,493 L152,492 C152,491.448 152.448,491 153,491 C153.552,491 154,491.448 154,492 L154,493 C154,493.552 153.552,494 153,494 L153,494 Z M123,491 C122.448,491 122,490.552 122,490 L122,489 C122,488.448 122.448,488 123,488 C123.552,488 124,488.448 124,489 L124,490 C124,490.552 123.552,491 123,491 L123,491 Z M153,490 C152.448,490 152,489.552 152,489 L152,488 C152,487.448 152.448,487 153,487 C153.552,487 154,487.448 154,488 L154,489 C154,489.552 153.552,490 153,490 L153,490 Z M123,487 C122.448,487 122,486.552 122,486 L122,485 C122,484.448 122.448,484 123,484 C123.552,484 124,484.448 124,485 L124,486 C124,486.552 123.552,487 123,487 L123,487 Z M153,486 C152.448,486 152,485.552 152,485 L152,484 C152,483.448 152.448,483 153,483 C153.552,483 154,483.448 154,484 L154,485 C154,485.552 153.552,486 153,486 L153,486 Z M152,483 L151,483 C150.448,483 150,482.552 150,482 C150,481.448 150.448,481 151,481 L152,481 C152.552,481 153,481.448 153,482 C153,482.552 152.552,483 152,483 L152,483 Z M148,483 L147,483 C146.448,483 146,482.552 146,482 C146,481.448 146.448,481 147,481 L148,481 C148.552,481 149,481.448 149,482 C149,482.552 148.552,483 148,483 L148,483 Z M144,483 L143,483 C142.448,483 142,482.552 142,482 C142,481.448 142.448,481 143,481 L144,481 C144.552,481 145,481.448 145,482 C145,482.552 144.552,483 144,483 L144,483 Z M140,483 L139,483 C138.448,483 138,482.552 138,482 C138,481.448 138.448,481 139,481 L140,481 C140.552,481 141,481.448 141,482 C141,482.552 140.552,483 140,483 L140,483 Z M136,483 L135,483 C134.448,483 134,482.552 134,482 C134,481.448 134.448,481 135,481 L136,481 C136.552,481 137,481.448 137,482 C137,482.552 136.552,483 136,483 L136,483 Z M132,483 L131,483 C130.448,483 130,482.552 130,482 C130,481.448 130.448,481 131,481 L132,481 C132.552,481 133,481.448 133,482 C133,482.552 132.552,483 132,483 L132,483 Z M128,483 L127,483 C126.448,483 126,482.552 126,482 C126,481.448 126.448,481 127,481 L128,481 C128.552,481 129,481.448 129,482 C129,482.552 128.552,483 128,483 L128,483 Z M124,483 L123,483 C122.448,483 122,482.552 122,482 C122,481.448 122.448,481 123,481 L124,481 C124.552,481 125,481.448 125,482 C125,482.552 124.552,483 124,483 L124,483 Z" id="Fill-438" fill="#314E55"></path>
            </g>
        </g>
    </g>
</svg>