<?xml version="1.0" encoding="UTF-8" standalone="no"?>
<svg width="60px" height="60px" viewBox="0 0 60 60" version="1.1" xmlns="http://www.w3.org/2000/svg" xmlns:xlink="http://www.w3.org/1999/xlink" xmlns:sketch="http://www.bohemiancoding.com/sketch/ns">
    <!-- Generator: Sketch 3.3.3 (12081) - http://www.bohemiancoding.com/sketch -->
    <title>Editpoint</title>
    <desc>Created with Sketch.</desc>
    <defs>
        <path id="path-1" d="M0.797,31.703 L10.697,0.59 L31.91,21.803 L0.797,31.703"></path>
        <path id="path-3" d="M14.374,23.268 L0.232,9.126 L11.546,0.64 L22.86,11.954 L14.374,23.268"></path>
        <path id="path-5" d="M7.475,2.025 C5.913,0.463 3.38,0.463 1.818,2.025 C0.256,3.587 0.256,6.12 1.818,7.682 C3.38,9.244 5.913,9.244 7.475,7.682 C9.037,6.12 9.037,3.587 7.475,2.025"></path>
    </defs>
    <g id="outlined" stroke="none" stroke-width="1" fill="none" fill-rule="evenodd" sketch:type="MSPage">
        <g id="Interface_sliced" sketch:type="MSLayerGroup" transform="translate(-840.000000, -1200.000000)">
            <g id="Imported-Layers" transform="translate(2.000000, 4.000000)">
                <g id="Group-1087" transform="translate(857.000000, 1208.000000)">
                    <mask id="mask-2" sketch:name="Clip 1086" fill="white">
                        <use xlink:href="#path-1"></use>
                    </mask>
                    <g id="Clip-1086"></g>
                    <path d="M11.404,49.38 L-16.88,21.096 L10.697,-6.481 L38.981,21.803 L11.404,49.38" id="Fill-1085" fill="#5ECB66" sketch:type="MSShapeGroup" mask="url(#mask-2)"></path>
                </g>
                <path d="M857.797,1240.702 C857.536,1240.702 857.28,1240.6 857.09,1240.409 C856.825,1240.144 856.73,1239.755 856.844,1239.399 L866.743,1208.286 C866.85,1207.954 867.121,1207.7 867.46,1207.618 C867.795,1207.534 868.156,1207.634 868.403,1207.882 L889.617,1229.096 C889.864,1229.343 889.964,1229.7 889.882,1230.039 C889.799,1230.378 889.546,1230.649 889.213,1230.756 L858.1,1240.655 C858.001,1240.686 857.898,1240.702 857.797,1240.702 L857.797,1240.702 Z M868.151,1210.458 L859.336,1238.163 L887.041,1229.348 L868.151,1210.458 L868.151,1210.458 Z" id="Fill-1088" fill="#314E55" sketch:type="MSShapeGroup"></path>
                <g id="Group-1091" transform="translate(871.000000, 1203.000000)">
                    <mask id="mask-4" sketch:name="Clip 1090" fill="white">
                        <use xlink:href="#path-3"></use>
                    </mask>
                    <g id="Clip-1090"></g>
                    <path d="M14.374,30.339 L-6.839,9.126 L10.132,-7.845 L31.345,13.368 L14.374,30.339" id="Fill-1089" fill="#EBEBEB" sketch:type="MSShapeGroup" mask="url(#mask-4)"></path>
                </g>
                <path d="M885.374,1227.268 C885.109,1227.268 884.855,1227.163 884.667,1226.975 L870.525,1212.833 C870.32,1212.628 870.215,1212.344 870.235,1212.055 C870.256,1211.766 870.4,1211.5 870.633,1211.326 L881.946,1202.841 C882.344,1202.542 882.901,1202.581 883.253,1202.934 L894.566,1214.247 C894.918,1214.599 894.958,1215.156 894.659,1215.554 L886.174,1226.867 C886,1227.1 885.734,1227.244 885.445,1227.265 C885.421,1227.267 885.397,1227.268 885.374,1227.268 L885.374,1227.268 Z M872.755,1212.234 L885.266,1224.745 L892.539,1215.048 L882.452,1204.961 L872.755,1212.234 L872.755,1212.234 Z" id="Fill-1092" fill="#314E55" sketch:type="MSShapeGroup"></path>
                <path d="M858.504,1240.41 L857.09,1238.996 L869.111,1226.975 L870.525,1228.39 L858.504,1240.41" id="Fill-1093" fill="#314E55" sketch:type="MSShapeGroup"></path>
                <g id="Group-1096" transform="translate(868.000000, 1220.000000)">
                    <mask id="mask-6" sketch:name="Clip 1095" fill="white">
                        <use xlink:href="#path-5"></use>
                    </mask>
                    <g id="Clip-1095"></g>
                    <path d="M4.646,17.581 L-8.082,4.854 L4.646,-7.874 L17.374,4.854 L4.646,17.581" id="Fill-1094" fill="#D8D8D8" sketch:type="MSShapeGroup" mask="url(#mask-6)"></path>
                </g>
                <path d="M872.646,1229.854 C871.31,1229.854 870.055,1229.333 869.111,1228.389 C868.167,1227.444 867.646,1226.188 867.646,1224.853 C867.646,1223.518 868.167,1222.262 869.111,1221.318 C870.055,1220.374 871.31,1219.853 872.646,1219.853 C873.982,1219.853 875.238,1220.374 876.182,1221.318 C877.126,1222.262 877.646,1223.518 877.646,1224.853 C877.646,1226.188 877.126,1227.444 876.182,1228.389 C875.238,1229.333 873.982,1229.854 872.646,1229.854 L872.646,1229.854 Z M872.646,1221.853 C871.845,1221.853 871.092,1222.165 870.525,1222.732 C869.959,1223.299 869.646,1224.052 869.646,1224.853 C869.646,1225.654 869.959,1226.408 870.525,1226.975 C871.658,1228.107 873.635,1228.107 874.768,1226.975 C875.334,1226.408 875.646,1225.654 875.646,1224.853 C875.646,1224.052 875.334,1223.299 874.768,1222.732 C874.201,1222.165 873.448,1221.853 872.646,1221.853 L872.646,1221.853 Z" id="Fill-1097" fill="#314E55" sketch:type="MSShapeGroup"></path>
                <path d="M844,1244 L852,1244 L852,1252 L844,1252 L844,1244 Z" id="Fill-1098" fill="#F28544" sketch:type="MSShapeGroup"></path>
                <path d="M852,1253 L844,1253 C843.447,1253 843,1252.553 843,1252 L843,1244 C843,1243.447 843.447,1243 844,1243 L852,1243 C852.553,1243 853,1243.447 853,1244 L853,1252 C853,1252.553 852.553,1253 852,1253 L852,1253 Z M845,1251 L851,1251 L851,1245 L845,1245 L845,1251 Z" id="Fill-1100" fill="#314E55" sketch:type="MSShapeGroup"></path>
                <path d="M847,1237 L849,1237 L849,1244 L847,1244 L847,1237 Z" id="Fill-1101" fill="#314E55" sketch:type="MSShapeGroup"></path>
                <path d="M852,1247 L859,1247 L859,1249 L852,1249 L852,1247 Z" id="Fill-1102" fill="#314E55" sketch:type="MSShapeGroup"></path>
            </g>
        </g>
    </g>
</svg>