<?xml version="1.0" encoding="UTF-8" standalone="no"?>
<svg width="60px" height="60px" viewBox="0 0 60 60" version="1.1" xmlns="http://www.w3.org/2000/svg" xmlns:xlink="http://www.w3.org/1999/xlink" xmlns:sketch="http://www.bohemiancoding.com/sketch/ns">
    <!-- Generator: Sketch 3.3.3 (12081) - http://www.bohemiancoding.com/sketch -->
    <title>Equal</title>
    <desc>Created with Sketch.</desc>
    <defs>
        <path id="path-1" d="M26,52 C40.359,52 52,40.359 52,26 C52,11.641 40.359,0 26,0 C11.641,0 0,11.641 0,26 C0,40.359 11.641,52 26,52 L26,52 Z"></path>
    </defs>
    <g id="outlined" stroke="none" stroke-width="1" fill="none" fill-rule="evenodd" sketch:type="MSPage">
        <g id="Interface_sliced" sketch:type="MSLayerGroup" transform="translate(-600.000000, -1080.000000)">
            <g id="Imported-Layers" transform="translate(2.000000, 4.000000)">
                <g id="Group-964" transform="translate(602.000000, 1080.000000)">
                    <mask id="mask-2" sketch:name="Clip 963" fill="white">
                        <use xlink:href="#path-1"></use>
                    </mask>
                    <g id="Clip-963"></g>
                    <path d="M0,0 L52,0 L52,52 L0,52 L0,0 Z" id="Fill-962" fill="#EB86A5" sketch:type="MSShapeGroup" mask="url(#mask-2)"></path>
                </g>
                <path d="M628,1133 C613.112,1133 601,1120.888 601,1106 C601,1091.112 613.112,1079 628,1079 C642.888,1079 655,1091.112 655,1106 C655,1120.888 642.888,1133 628,1133 L628,1133 Z M628,1081 C614.215,1081 603,1092.215 603,1106 C603,1119.785 614.215,1131 628,1131 C641.785,1131 653,1119.785 653,1106 C653,1092.215 641.785,1081 628,1081 L628,1081 Z" id="Fill-965" fill="#314E55" sketch:type="MSShapeGroup"></path>
                <path d="M641,1103 L615,1103 C614.447,1103 614,1102.552 614,1102 C614,1101.448 614.447,1101 615,1101 L641,1101 C641.553,1101 642,1101.448 642,1102 C642,1102.552 641.553,1103 641,1103" id="Fill-966" fill="#314E55" sketch:type="MSShapeGroup"></path>
                <path d="M641,1112 L615,1112 C614.447,1112 614,1111.552 614,1111 C614,1110.448 614.447,1110 615,1110 L641,1110 C641.553,1110 642,1110.448 642,1111 C642,1111.552 641.553,1112 641,1112" id="Fill-967" fill="#314E55" sketch:type="MSShapeGroup"></path>
            </g>
        </g>
    </g>
</svg>