<?xml version="1.0" encoding="UTF-8" standalone="no"?>
<svg width="60px" height="60px" viewBox="0 0 60 60" version="1.1" xmlns="http://www.w3.org/2000/svg" xmlns:xlink="http://www.w3.org/1999/xlink" xmlns:sketch="http://www.bohemiancoding.com/sketch/ns">
    <!-- Generator: Sketch 3.3.3 (12081) - http://www.bohemiancoding.com/sketch -->
    <title>FemaleOK</title>
    <desc>Created with Sketch.</desc>
    <defs>
        <path id="path-1" d="M2.156,10.182 C2.156,14.303 0,22.545 0,22.545 C0,22.545 5.031,24 11.5,24 C17.969,24 23,22.545 23,22.545 C23,22.545 20.844,14.303 20.844,10.182 L20.844,7.858 C20.844,3.518 17.329,0 12.986,0 L10.014,0 C5.674,0 2.156,3.526 2.156,7.858 L2.156,10.182 L2.156,10.182 Z"></path>
    </defs>
    <g id="outlined" stroke="none" stroke-width="1" fill="none" fill-rule="evenodd" sketch:type="MSPage">
        <g id="Interface_sliced" sketch:type="MSLayerGroup" transform="translate(-360.000000, -1680.000000)">
            <g id="Imported-Layers" transform="translate(2.000000, 4.000000)">
                <path d="M388,1735 C372.56,1735 360,1722.439 360,1707 C360,1691.56 372.56,1679 388,1679 C388.552,1679 389,1679.447 389,1680 C389,1680.553 388.552,1681 388,1681 C373.664,1681 362,1692.663 362,1707 C362,1721.337 373.664,1733 388,1733 C402.336,1733 414,1721.337 414,1707 C414,1706.447 414.448,1706 415,1706 C415.552,1706 416,1706.447 416,1707 C416,1722.439 403.439,1735 388,1735" id="Fill-1378" fill="#314E55" sketch:type="MSShapeGroup"></path>
                <path d="M404,1729.5 C403.448,1729.5 403,1729.053 403,1728.5 L403,1723.227 C403,1721.147 401.174,1719.455 398.931,1719.455 L393.568,1719.455 C393.181,1719.455 392.829,1719.231 392.664,1718.881 L390.095,1713.426 C389.86,1712.927 390.074,1712.33 390.574,1712.096 C391.071,1711.859 391.669,1712.074 391.905,1712.574 L394.203,1717.455 L398.931,1717.455 C402.277,1717.455 405,1720.045 405,1723.227 L405,1728.5 C405,1729.053 404.552,1729.5 404,1729.5 L404,1729.5 Z M372,1729.5 C371.448,1729.5 371,1729.053 371,1728.5 L371,1723.227 C371,1720.045 373.723,1717.455 377.069,1717.455 L381.086,1717.455 L383.075,1712.619 C383.285,1712.109 383.869,1711.867 384.38,1712.075 C384.891,1712.285 385.135,1712.87 384.925,1713.381 L382.681,1718.836 C382.526,1719.21 382.161,1719.455 381.756,1719.455 L377.069,1719.455 C374.826,1719.455 373,1721.147 373,1723.227 L373,1728.5 C373,1729.053 372.552,1729.5 372,1729.5 L372,1729.5 Z" id="Fill-1379" fill="#314E55" sketch:type="MSShapeGroup"></path>
                <g id="Group-1382" transform="translate(376.000000, 1689.000000)">
                    <mask id="mask-2" sketch:name="Clip 1381" fill="white">
                        <use xlink:href="#path-1"></use>
                    </mask>
                    <g id="Clip-1381"></g>
                    <path d="M0,0 L23,0 L23,24 L0,24 L0,0 Z" id="Fill-1380" fill="#EB86A5" sketch:type="MSShapeGroup" mask="url(#mask-2)"></path>
                </g>
                <path d="M387.5,1714 C380.965,1714 375.933,1712.567 375.722,1712.507 C375.201,1712.356 374.895,1711.817 375.033,1711.293 C375.054,1711.212 377.156,1703.126 377.156,1699.182 L377.156,1696.857 C377.156,1691.974 381.13,1688 386.014,1688 L388.986,1688 C393.87,1688 397.844,1691.974 397.844,1696.857 L397.844,1699.182 C397.844,1703.129 399.946,1711.212 399.967,1711.293 C400.104,1711.817 399.799,1712.356 399.278,1712.507 C399.067,1712.567 394.035,1714 387.5,1714 L387.5,1714 Z M377.214,1710.821 C378.936,1711.225 382.858,1712 387.5,1712 C392.142,1712 396.064,1711.225 397.786,1710.821 C397.211,1708.486 395.844,1702.572 395.844,1699.182 L395.844,1696.857 C395.844,1693.076 392.768,1690 388.986,1690 L386.014,1690 C382.232,1690 379.156,1693.076 379.156,1696.857 L379.156,1699.182 C379.156,1702.572 377.789,1708.486 377.214,1710.821 L377.214,1710.821 Z" id="Fill-1383" fill="#314E55" sketch:type="MSShapeGroup"></path>
                <path d="M409.5,1694 C409.32,1694 409.143,1693.951 408.985,1693.857 L403.985,1690.857 C403.512,1690.573 403.358,1689.959 403.643,1689.485 C403.926,1689.012 404.54,1688.857 405.015,1689.143 L409.088,1691.587 L413.105,1683.553 C413.352,1683.06 413.951,1682.859 414.447,1683.105 C414.941,1683.352 415.142,1683.953 414.894,1684.447 L410.394,1693.447 C410.27,1693.696 410.047,1693.882 409.78,1693.96 C409.688,1693.987 409.594,1694 409.5,1694" id="Fill-1384" fill="#314E55" sketch:type="MSShapeGroup"></path>
            </g>
        </g>
    </g>
</svg>