<?xml version="1.0" encoding="UTF-8" standalone="no"?>
<svg width="60px" height="60px" viewBox="0 0 60 60" version="1.1" xmlns="http://www.w3.org/2000/svg" xmlns:xlink="http://www.w3.org/1999/xlink" xmlns:sketch="http://www.bohemiancoding.com/sketch/ns">
    <!-- Generator: Sketch 3.3.3 (12081) - http://www.bohemiancoding.com/sketch -->
    <title>Femalelock</title>
    <desc>Created with Sketch.</desc>
    <defs>
        <path id="path-1" d="M2.156,10.182 C2.156,14.303 0,22.545 0,22.545 C0,22.545 5.031,24 11.5,24 C17.969,24 23,22.545 23,22.545 C23,22.545 20.844,14.303 20.844,10.182 L20.844,7.858 C20.844,3.518 17.329,0 12.986,0 L10.014,0 C5.674,0 2.156,3.526 2.156,7.858 L2.156,10.182 L2.156,10.182 Z"></path>
    </defs>
    <g id="outlined" stroke="none" stroke-width="1" fill="none" fill-rule="evenodd" sketch:type="MSPage">
        <g id="Interface_sliced" sketch:type="MSLayerGroup" transform="translate(-600.000000, -1680.000000)">
            <g id="Imported-Layers" transform="translate(2.000000, 4.000000)">
                <path d="M628,1735 C612.56,1735 600,1722.439 600,1707 C600,1691.56 612.56,1679 628,1679 C628.553,1679 629,1679.447 629,1680 C629,1680.553 628.553,1681 628,1681 C613.663,1681 602,1692.663 602,1707 C602,1721.337 613.663,1733 628,1733 C642.337,1733 654,1721.337 654,1707 C654,1706.447 654.447,1706 655,1706 C655.553,1706 656,1706.447 656,1707 C656,1722.439 643.44,1735 628,1735" id="Fill-1395" fill="#314E55" sketch:type="MSShapeGroup"></path>
                <path d="M644,1729.5 C643.447,1729.5 643,1729.053 643,1728.5 L643,1723.227 C643,1721.147 641.175,1719.455 638.931,1719.455 L633.568,1719.455 C633.181,1719.455 632.828,1719.231 632.664,1718.881 L630.096,1713.426 C629.86,1712.927 630.074,1712.33 630.574,1712.096 C631.074,1711.856 631.669,1712.074 631.904,1712.574 L634.203,1717.455 L638.931,1717.455 C642.277,1717.455 645,1720.045 645,1723.227 L645,1728.5 C645,1729.053 644.553,1729.5 644,1729.5 L644,1729.5 Z M612,1729.5 C611.447,1729.5 611,1729.053 611,1728.5 L611,1723.227 C611,1720.045 613.723,1717.455 617.069,1717.455 L621.086,1717.455 L623.075,1712.619 C623.286,1712.108 623.87,1711.868 624.381,1712.075 C624.892,1712.285 625.135,1712.87 624.925,1713.381 L622.681,1718.836 C622.526,1719.21 622.161,1719.455 621.756,1719.455 L617.069,1719.455 C614.825,1719.455 613,1721.147 613,1723.227 L613,1728.5 C613,1729.053 612.553,1729.5 612,1729.5 L612,1729.5 Z" id="Fill-1396" fill="#314E55" sketch:type="MSShapeGroup"></path>
                <g id="Group-1399" transform="translate(616.000000, 1689.000000)">
                    <mask id="mask-2" sketch:name="Clip 1398" fill="white">
                        <use xlink:href="#path-1"></use>
                    </mask>
                    <g id="Clip-1398"></g>
                    <path d="M0,0 L23,0 L23,24 L0,24 L0,0 Z" id="Fill-1397" fill="#EB86A5" sketch:type="MSShapeGroup" mask="url(#mask-2)"></path>
                </g>
                <path d="M627.5,1714 C620.965,1714 615.934,1712.567 615.723,1712.507 C615.201,1712.356 614.896,1711.817 615.032,1711.293 C615.054,1711.212 617.156,1703.126 617.156,1699.182 L617.156,1696.857 C617.156,1691.974 621.13,1688 626.014,1688 L628.986,1688 C633.87,1688 637.844,1691.974 637.844,1696.857 L637.844,1699.182 C637.844,1703.129 639.946,1711.212 639.968,1711.293 C640.104,1711.817 639.799,1712.356 639.277,1712.507 C639.066,1712.567 634.035,1714 627.5,1714 L627.5,1714 Z M617.214,1710.821 C618.937,1711.225 622.858,1712 627.5,1712 C632.142,1712 636.063,1711.225 637.786,1710.821 C637.211,1708.486 635.844,1702.572 635.844,1699.182 L635.844,1696.857 C635.844,1693.076 632.768,1690 628.986,1690 L626.014,1690 C622.232,1690 619.156,1693.076 619.156,1696.857 L619.156,1699.182 C619.156,1702.572 617.789,1708.486 617.214,1710.821 L617.214,1710.821 Z" id="Fill-1400" fill="#314E55" sketch:type="MSShapeGroup"></path>
                <path d="M645,1688 L655,1688 L655,1695 L645,1695 L645,1688 Z" id="Fill-1401" fill="#D8D8D8" sketch:type="MSShapeGroup"></path>
                <path d="M655,1696 L645,1696 C644.447,1696 644,1695.553 644,1695 L644,1688 C644,1687.447 644.447,1687 645,1687 L655,1687 C655.553,1687 656,1687.447 656,1688 L656,1695 C656,1695.553 655.553,1696 655,1696 L655,1696 Z M646,1694 L654,1694 L654,1689 L646,1689 L646,1694 Z" id="Fill-1403" fill="#314E55" sketch:type="MSShapeGroup"></path>
                <path d="M653,1689 L647,1689 C646.447,1689 646,1688.553 646,1688 L646,1685 C646,1682.794 647.794,1681 650,1681 C652.206,1681 654,1682.794 654,1685 L654,1688 C654,1688.553 653.553,1689 653,1689 L653,1689 Z M648,1687 L652,1687 L652,1685 C652,1683.897 651.102,1683 650,1683 C648.898,1683 648,1683.897 648,1685 L648,1687 L648,1687 Z" id="Fill-1404" fill="#314E55" sketch:type="MSShapeGroup"></path>
            </g>
        </g>
    </g>
</svg>