<?xml version="1.0" encoding="UTF-8" standalone="no"?>
<svg width="60px" height="60px" viewBox="0 0 60 60" version="1.1" xmlns="http://www.w3.org/2000/svg" xmlns:xlink="http://www.w3.org/1999/xlink" xmlns:sketch="http://www.bohemiancoding.com/sketch/ns">
    <!-- Generator: Sketch 3.3.3 (12081) - http://www.bohemiancoding.com/sketch -->
    <title>Femaleunlock</title>
    <desc>Created with Sketch.</desc>
    <defs>
        <path id="path-1" d="M2.156,10.182 C2.156,14.303 0,22.545 0,22.545 C0,22.545 5.031,24 11.5,24 C17.969,24 23,22.545 23,22.545 C23,22.545 20.844,14.303 20.844,10.182 L20.844,7.858 C20.844,3.518 17.329,0 12.986,0 L10.014,0 C5.674,0 2.156,3.526 2.156,7.858 L2.156,10.182 L2.156,10.182 Z"></path>
    </defs>
    <g id="outlined" stroke="none" stroke-width="1" fill="none" fill-rule="evenodd" sketch:type="MSPage">
        <g id="Interface_sliced" sketch:type="MSLayerGroup" transform="translate(-840.000000, -1680.000000)">
            <g id="Imported-Layers" transform="translate(2.000000, 4.000000)">
                <path d="M868,1735 C852.56,1735 840,1722.439 840,1707 C840,1691.56 852.56,1679 868,1679 C868.553,1679 869,1679.447 869,1680 C869,1680.553 868.553,1681 868,1681 C853.663,1681 842,1692.663 842,1707 C842,1721.337 853.663,1733 868,1733 C882.337,1733 894,1721.337 894,1707 C894,1706.447 894.447,1706 895,1706 C895.553,1706 896,1706.447 896,1707 C896,1722.439 883.439,1735 868,1735" id="Fill-1415" fill="#314E55" sketch:type="MSShapeGroup"></path>
                <path d="M884,1729.5 C883.447,1729.5 883,1729.053 883,1728.5 L883,1723.227 C883,1721.147 881.175,1719.455 878.931,1719.455 L873.568,1719.455 C873.181,1719.455 872.828,1719.231 872.664,1718.881 L870.096,1713.426 C869.86,1712.927 870.074,1712.33 870.574,1712.096 C871.074,1711.856 871.67,1712.074 871.904,1712.574 L874.203,1717.455 L878.931,1717.455 C882.277,1717.455 885,1720.045 885,1723.227 L885,1728.5 C885,1729.053 884.553,1729.5 884,1729.5 L884,1729.5 Z M852,1729.5 C851.447,1729.5 851,1729.053 851,1728.5 L851,1723.227 C851,1720.045 853.723,1717.455 857.069,1717.455 L861.086,1717.455 L863.075,1712.619 C863.286,1712.108 863.869,1711.868 864.381,1712.075 C864.892,1712.285 865.135,1712.87 864.925,1713.381 L862.681,1718.836 C862.526,1719.21 862.161,1719.455 861.756,1719.455 L857.069,1719.455 C854.825,1719.455 853,1721.147 853,1723.227 L853,1728.5 C853,1729.053 852.553,1729.5 852,1729.5 L852,1729.5 Z" id="Fill-1416" fill="#314E55" sketch:type="MSShapeGroup"></path>
                <g id="Group-1419" transform="translate(856.000000, 1689.000000)">
                    <mask id="mask-2" sketch:name="Clip 1418" fill="white">
                        <use xlink:href="#path-1"></use>
                    </mask>
                    <g id="Clip-1418"></g>
                    <path d="M0,0 L23,0 L23,24 L0,24 L0,0 Z" id="Fill-1417" fill="#EB86A5" sketch:type="MSShapeGroup" mask="url(#mask-2)"></path>
                </g>
                <path d="M867.5,1714 C860.965,1714 855.934,1712.567 855.723,1712.507 C855.201,1712.356 854.896,1711.817 855.032,1711.293 C855.054,1711.212 857.156,1703.126 857.156,1699.182 L857.156,1696.857 C857.156,1691.974 861.13,1688 866.014,1688 L868.986,1688 C873.87,1688 877.844,1691.974 877.844,1696.857 L877.844,1699.182 C877.844,1703.129 879.946,1711.212 879.968,1711.293 C880.104,1711.817 879.799,1712.356 879.277,1712.507 C879.066,1712.567 874.035,1714 867.5,1714 L867.5,1714 Z M857.214,1710.821 C858.937,1711.225 862.858,1712 867.5,1712 C872.142,1712 876.063,1711.225 877.786,1710.821 C877.211,1708.486 875.844,1702.572 875.844,1699.182 L875.844,1696.857 C875.844,1693.076 872.768,1690 868.986,1690 L866.014,1690 C862.232,1690 859.156,1693.076 859.156,1696.857 L859.156,1699.182 C859.156,1702.572 857.789,1708.486 857.214,1710.821 L857.214,1710.821 Z" id="Fill-1420" fill="#314E55" sketch:type="MSShapeGroup"></path>
                <path d="M885,1688 L895,1688 L895,1695 L885,1695 L885,1688 Z" id="Fill-1421" fill="#D8D8D8" sketch:type="MSShapeGroup"></path>
                <path d="M895,1696 L885,1696 C884.447,1696 884,1695.553 884,1695 L884,1688 C884,1687.447 884.447,1687 885,1687 L895,1687 C895.553,1687 896,1687.447 896,1688 L896,1695 C896,1695.553 895.553,1696 895,1696 L895,1696 Z M886,1694 L894,1694 L894,1689 L886,1689 L886,1694 Z" id="Fill-1423" fill="#314E55" sketch:type="MSShapeGroup"></path>
                <path d="M893,1689 L887,1689 C886.447,1689 886,1688.553 886,1688 L886,1685 C886,1682.794 887.794,1681 890,1681 C890.553,1681 891,1681.447 891,1682 C891,1682.553 890.553,1683 890,1683 C888.897,1683 888,1683.897 888,1685 L888,1687 L893,1687 C893.553,1687 894,1687.447 894,1688 C894,1688.553 893.553,1689 893,1689" id="Fill-1424" fill="#314E55" sketch:type="MSShapeGroup"></path>
            </g>
        </g>
    </g>
</svg>