<?xml version="1.0" encoding="UTF-8" standalone="no"?>
<svg width="60px" height="60px" viewBox="0 0 60 60" version="1.1" xmlns="http://www.w3.org/2000/svg" xmlns:xlink="http://www.w3.org/1999/xlink" xmlns:sketch="http://www.bohemiancoding.com/sketch/ns">
    <!-- Generator: Sketch 3.3.3 (12081) - http://www.bohemiancoding.com/sketch -->
    <title>Femalecircled</title>
    <desc>Created with Sketch.</desc>
    <defs>
        <path id="path-1" d="M27,54 C41.912,54 54,41.912 54,27 C54,12.088 41.912,0 27,0 C12.088,0 0,12.088 0,27 C0,41.912 12.088,54 27,54 L27,54 Z"></path>
        <path id="path-3" d="M2.156,10.182 C2.156,14.303 0,22.545 0,22.545 C0,22.545 5.031,24 11.5,24 C17.969,24 23,22.545 23,22.545 C23,22.545 20.844,14.303 20.844,10.182 L20.844,7.858 C20.844,3.518 17.329,0 12.986,0 L10.014,0 C5.674,0 2.156,3.526 2.156,7.858 L2.156,10.182 L2.156,10.182 Z"></path>
    </defs>
    <g id="outlined" stroke="none" stroke-width="1" fill="none" fill-rule="evenodd" sketch:type="MSPage">
        <g id="Interface_sliced" sketch:type="MSLayerGroup" transform="translate(-360.000000, -1560.000000)">
            <g id="Imported-Layers" transform="translate(2.000000, 4.000000)">
                <g id="Group-1318" transform="translate(361.000000, 1560.000000)">
                    <mask id="mask-2" sketch:name="Clip 1317" fill="white">
                        <use xlink:href="#path-1"></use>
                    </mask>
                    <g id="Clip-1317"></g>
                    <path d="M0,0 L54,0 L54,54 L0,54 L0,0 Z" id="Fill-1316" fill="#EBEBEB" sketch:type="MSShapeGroup" mask="url(#mask-2)"></path>
                </g>
                <path d="M388,1615 C372.56,1615 360,1602.439 360,1587 C360,1571.56 372.56,1559 388,1559 C403.439,1559 416,1571.56 416,1587 C416,1602.439 403.439,1615 388,1615 L388,1615 Z M388,1561 C373.664,1561 362,1572.663 362,1587 C362,1601.337 373.664,1613 388,1613 C402.336,1613 414,1601.337 414,1587 C414,1572.663 402.336,1561 388,1561 L388,1561 Z" id="Fill-1319" fill="#314E55" sketch:type="MSShapeGroup"></path>
                <path d="M404,1609.5 C403.448,1609.5 403,1609.053 403,1608.5 L403,1603.227 C403,1601.147 401.174,1599.455 398.931,1599.455 L393.568,1599.455 C393.181,1599.455 392.829,1599.231 392.664,1598.881 L390.095,1593.426 C389.86,1592.927 390.074,1592.33 390.574,1592.096 C391.071,1591.859 391.669,1592.074 391.905,1592.574 L394.203,1597.455 L398.931,1597.455 C402.277,1597.455 405,1600.045 405,1603.227 L405,1608.5 C405,1609.053 404.552,1609.5 404,1609.5 L404,1609.5 Z M372,1609.5 C371.448,1609.5 371,1609.053 371,1608.5 L371,1603.227 C371,1600.045 373.723,1597.455 377.069,1597.455 L381.086,1597.455 L383.075,1592.619 C383.285,1592.11 383.869,1591.867 384.38,1592.075 C384.891,1592.285 385.135,1592.87 384.925,1593.381 L382.681,1598.836 C382.526,1599.21 382.161,1599.455 381.756,1599.455 L377.069,1599.455 C374.826,1599.455 373,1601.147 373,1603.227 L373,1608.5 C373,1609.053 372.552,1609.5 372,1609.5 L372,1609.5 Z" id="Fill-1320" fill="#314E55" sketch:type="MSShapeGroup"></path>
                <g id="Group-1323" transform="translate(376.000000, 1569.000000)">
                    <mask id="mask-4" sketch:name="Clip 1322" fill="white">
                        <use xlink:href="#path-3"></use>
                    </mask>
                    <g id="Clip-1322"></g>
                    <path d="M0,0 L23,0 L23,24 L0,24 L0,0 Z" id="Fill-1321" fill="#EB86A5" sketch:type="MSShapeGroup" mask="url(#mask-4)"></path>
                </g>
                <path d="M387.5,1594 C380.965,1594 375.933,1592.567 375.722,1592.507 C375.201,1592.356 374.895,1591.817 375.033,1591.293 C375.054,1591.212 377.156,1583.126 377.156,1579.182 L377.156,1576.857 C377.156,1571.974 381.13,1568 386.014,1568 L388.986,1568 C393.87,1568 397.844,1571.974 397.844,1576.857 L397.844,1579.182 C397.844,1583.129 399.946,1591.212 399.967,1591.293 C400.104,1591.817 399.799,1592.356 399.278,1592.507 C399.067,1592.567 394.035,1594 387.5,1594 L387.5,1594 Z M377.214,1590.821 C378.936,1591.225 382.858,1592 387.5,1592 C392.142,1592 396.064,1591.225 397.786,1590.821 C397.211,1588.486 395.844,1582.572 395.844,1579.182 L395.844,1576.857 C395.844,1573.076 392.768,1570 388.986,1570 L386.014,1570 C382.232,1570 379.156,1573.076 379.156,1576.857 L379.156,1579.182 C379.156,1582.572 377.789,1588.486 377.214,1590.821 L377.214,1590.821 Z" id="Fill-1324" fill="#314E55" sketch:type="MSShapeGroup"></path>
            </g>
        </g>
    </g>
</svg>