<?xml version="1.0" encoding="UTF-8" standalone="no"?>
<svg width="60px" height="60px" viewBox="0 0 60 60" version="1.1" xmlns="http://www.w3.org/2000/svg" xmlns:xlink="http://www.w3.org/1999/xlink" xmlns:sketch="http://www.bohemiancoding.com/sketch/ns">
    <!-- Generator: Sketch 3.3.3 (12081) - http://www.bohemiancoding.com/sketch -->
    <title>Femaleadd</title>
    <desc>Created with Sketch.</desc>
    <defs>
        <path id="path-1" d="M2.156,10.182 C2.156,14.303 0,22.545 0,22.545 C0,22.545 5.031,24 11.5,24 C17.969,24 23,22.545 23,22.545 C23,22.545 20.844,14.303 20.844,10.182 L20.844,7.858 C20.844,3.518 17.329,0 12.986,0 L10.014,0 C5.674,0 2.156,3.526 2.156,7.858 L2.156,10.182 L2.156,10.182 Z"></path>
    </defs>
    <g id="outlined" stroke="none" stroke-width="1" fill="none" fill-rule="evenodd" sketch:type="MSPage">
        <g id="Interface_sliced" sketch:type="MSLayerGroup" transform="translate(-600.000000, -1560.000000)">
            <g id="Imported-Layers" transform="translate(2.000000, 4.000000)">
                <path d="M628,1615 C612.56,1615 600,1602.439 600,1587 C600,1571.56 612.56,1559 628,1559 C628.553,1559 629,1559.447 629,1560 C629,1560.553 628.553,1561 628,1561 C613.663,1561 602,1572.663 602,1587 C602,1601.337 613.663,1613 628,1613 C642.337,1613 654,1601.337 654,1587 C654,1586.447 654.447,1586 655,1586 C655.553,1586 656,1586.447 656,1587 C656,1602.439 643.44,1615 628,1615" id="Fill-1333" fill="#314E55" sketch:type="MSShapeGroup"></path>
                <path d="M644,1609.5 C643.447,1609.5 643,1609.053 643,1608.5 L643,1603.227 C643,1601.147 641.175,1599.455 638.931,1599.455 L633.568,1599.455 C633.181,1599.455 632.828,1599.231 632.664,1598.881 L630.096,1593.426 C629.86,1592.927 630.074,1592.33 630.574,1592.096 C631.074,1591.857 631.669,1592.074 631.904,1592.574 L634.203,1597.455 L638.931,1597.455 C642.277,1597.455 645,1600.045 645,1603.227 L645,1608.5 C645,1609.053 644.553,1609.5 644,1609.5 L644,1609.5 Z M612,1609.5 C611.447,1609.5 611,1609.053 611,1608.5 L611,1603.227 C611,1600.045 613.723,1597.455 617.069,1597.455 L621.086,1597.455 L623.075,1592.619 C623.286,1592.109 623.87,1591.868 624.381,1592.075 C624.892,1592.285 625.135,1592.87 624.925,1593.381 L622.681,1598.836 C622.526,1599.21 622.161,1599.455 621.756,1599.455 L617.069,1599.455 C614.825,1599.455 613,1601.147 613,1603.227 L613,1608.5 C613,1609.053 612.553,1609.5 612,1609.5 L612,1609.5 Z" id="Fill-1334" fill="#314E55" sketch:type="MSShapeGroup"></path>
                <g id="Group-1337" transform="translate(616.000000, 1569.000000)">
                    <mask id="mask-2" sketch:name="Clip 1336" fill="white">
                        <use xlink:href="#path-1"></use>
                    </mask>
                    <g id="Clip-1336"></g>
                    <path d="M0,0 L23,0 L23,24 L0,24 L0,0 Z" id="Fill-1335" fill="#EB86A5" sketch:type="MSShapeGroup" mask="url(#mask-2)"></path>
                </g>
                <path d="M627.5,1594 C620.965,1594 615.934,1592.567 615.723,1592.507 C615.201,1592.356 614.896,1591.817 615.032,1591.293 C615.054,1591.212 617.156,1583.126 617.156,1579.182 L617.156,1576.857 C617.156,1571.974 621.13,1568 626.014,1568 L628.986,1568 C633.87,1568 637.844,1571.974 637.844,1576.857 L637.844,1579.182 C637.844,1583.129 639.946,1591.212 639.968,1591.293 C640.104,1591.817 639.799,1592.356 639.277,1592.507 C639.066,1592.567 634.035,1594 627.5,1594 L627.5,1594 Z M617.214,1590.821 C618.937,1591.225 622.858,1592 627.5,1592 C632.142,1592 636.063,1591.225 637.786,1590.821 C637.211,1588.486 635.844,1582.572 635.844,1579.182 L635.844,1576.857 C635.844,1573.076 632.768,1570 628.986,1570 L626.014,1570 C622.232,1570 619.156,1573.076 619.156,1576.857 L619.156,1579.182 C619.156,1582.572 617.789,1588.486 617.214,1590.821 L617.214,1590.821 Z" id="Fill-1338" fill="#314E55" sketch:type="MSShapeGroup"></path>
                <path d="M650,1572 C649.447,1572 649,1571.553 649,1571 L649,1561 C649,1560.447 649.447,1560 650,1560 C650.553,1560 651,1560.447 651,1561 L651,1571 C651,1571.553 650.553,1572 650,1572" id="Fill-1339" fill="#314E55" sketch:type="MSShapeGroup"></path>
                <path d="M655,1567 L645,1567 C644.447,1567 644,1566.553 644,1566 C644,1565.447 644.447,1565 645,1565 L655,1565 C655.553,1565 656,1565.447 656,1566 C656,1566.553 655.553,1567 655,1567" id="Fill-1340" fill="#314E55" sketch:type="MSShapeGroup"></path>
            </g>
        </g>
    </g>
</svg>