<?xml version="1.0" encoding="UTF-8" standalone="no"?>
<svg width="60px" height="60px" viewBox="0 0 60 60" version="1.1" xmlns="http://www.w3.org/2000/svg" xmlns:xlink="http://www.w3.org/1999/xlink" xmlns:sketch="http://www.bohemiancoding.com/sketch/ns">
    <!-- Generator: Sketch 3.3.3 (12081) - http://www.bohemiancoding.com/sketch -->
    <title>Femalelike</title>
    <desc>Created with Sketch.</desc>
    <defs>
        <path id="path-1" d="M2.156,10.182 C2.156,14.303 0,22.545 0,22.545 C0,22.545 5.031,24 11.5,24 C17.969,24 23,22.545 23,22.545 C23,22.545 20.844,14.303 20.844,10.182 L20.844,7.858 C20.844,3.518 17.329,0 12.986,0 L10.014,0 C5.674,0 2.156,3.526 2.156,7.858 L2.156,10.182 L2.156,10.182 Z"></path>
        <path id="path-3" d="M6.5,1.293 C5.107,0.291 3.495,0.018 2.25,0.737 C0.337,1.841 0.017,4.869 1.536,7.5 C2.747,9.598 4.763,10.81 6.5,10.654 C8.237,10.81 10.252,9.598 11.464,7.5 C12.983,4.869 12.663,1.841 10.75,0.737 C9.505,0.018 7.893,0.291 6.5,1.293 L6.5,1.293 Z"></path>
    </defs>
    <g id="outlined" stroke="none" stroke-width="1" fill="none" fill-rule="evenodd" sketch:type="MSPage">
        <g id="Interface_sliced" sketch:type="MSLayerGroup" transform="translate(-360.000000, -1800.000000)">
            <g id="Imported-Layers" transform="translate(2.000000, 4.000000)">
                <path d="M388,1855 C372.56,1855 360,1842.439 360,1827 C360,1811.56 372.56,1799 388,1799 C388.552,1799 389,1799.447 389,1800 C389,1800.553 388.552,1801 388,1801 C373.664,1801 362,1812.663 362,1827 C362,1841.337 373.664,1853 388,1853 C402.336,1853 414,1841.337 414,1827 C414,1826.447 414.448,1826 415,1826 C415.552,1826 416,1826.447 416,1827 C416,1842.439 403.439,1855 388,1855" id="Fill-1455" fill="#314E55" sketch:type="MSShapeGroup"></path>
                <path d="M404,1849.5 C403.448,1849.5 403,1849.053 403,1848.5 L403,1843.227 C403,1841.147 401.174,1839.455 398.931,1839.455 L393.568,1839.455 C393.181,1839.455 392.829,1839.231 392.664,1838.881 L390.095,1833.426 C389.86,1832.927 390.074,1832.33 390.574,1832.096 C391.071,1831.858 391.669,1832.073 391.905,1832.574 L394.203,1837.455 L398.931,1837.455 C402.277,1837.455 405,1840.045 405,1843.227 L405,1848.5 C405,1849.053 404.552,1849.5 404,1849.5 L404,1849.5 Z M372,1849.5 C371.448,1849.5 371,1849.053 371,1848.5 L371,1843.227 C371,1840.045 373.723,1837.455 377.069,1837.455 L381.086,1837.455 L383.075,1832.619 C383.285,1832.11 383.869,1831.867 384.38,1832.075 C384.891,1832.285 385.135,1832.87 384.925,1833.381 L382.681,1838.836 C382.526,1839.21 382.161,1839.455 381.756,1839.455 L377.069,1839.455 C374.826,1839.455 373,1841.147 373,1843.227 L373,1848.5 C373,1849.053 372.552,1849.5 372,1849.5 L372,1849.5 Z" id="Fill-1456" fill="#314E55" sketch:type="MSShapeGroup"></path>
                <g id="Group-1459" transform="translate(376.000000, 1809.000000)">
                    <mask id="mask-2" sketch:name="Clip 1458" fill="white">
                        <use xlink:href="#path-1"></use>
                    </mask>
                    <g id="Clip-1458"></g>
                    <path d="M0,0 L23,0 L23,24 L0,24 L0,0 Z" id="Fill-1457" fill="#EB86A5" sketch:type="MSShapeGroup" mask="url(#mask-2)"></path>
                </g>
                <path d="M387.5,1834 C380.965,1834 375.933,1832.567 375.722,1832.507 C375.201,1832.356 374.895,1831.817 375.033,1831.293 C375.054,1831.212 377.156,1823.126 377.156,1819.182 L377.156,1816.857 C377.156,1811.974 381.13,1808 386.014,1808 L388.986,1808 C393.87,1808 397.844,1811.974 397.844,1816.857 L397.844,1819.182 C397.844,1823.129 399.946,1831.212 399.967,1831.293 C400.104,1831.817 399.799,1832.356 399.278,1832.507 C399.067,1832.567 394.035,1834 387.5,1834 L387.5,1834 Z M377.214,1830.821 C378.936,1831.225 382.858,1832 387.5,1832 C392.142,1832 396.064,1831.225 397.786,1830.821 C397.211,1828.486 395.844,1822.572 395.844,1819.182 L395.844,1816.857 C395.844,1813.076 392.768,1810 388.986,1810 L386.014,1810 C382.232,1810 379.156,1813.076 379.156,1816.857 L379.156,1819.182 C379.156,1822.572 377.789,1828.486 377.214,1830.821 L377.214,1830.821 Z" id="Fill-1460" fill="#314E55" sketch:type="MSShapeGroup"></path>
                <g id="Group-1463" transform="translate(402.000000, 1802.000000)">
                    <mask id="mask-4" sketch:name="Clip 1462" fill="white">
                        <use xlink:href="#path-3"></use>
                    </mask>
                    <g id="Clip-1462"></g>
                    <path d="M0.017,0.018 L12.983,0.018 L12.983,10.81 L0.017,10.81 L0.017,0.018 Z" id="Fill-1461" fill="#E65F58" sketch:type="MSShapeGroup" mask="url(#mask-4)"></path>
                </g>
                <path d="M408.803,1813.668 L408.803,1813.668 C408.702,1813.668 408.601,1813.664 408.5,1813.657 C406.357,1813.815 404.02,1812.338 402.67,1810 C401.831,1808.546 401.455,1806.927 401.611,1805.441 C401.781,1803.838 402.54,1802.569 403.75,1801.871 C405.116,1801.081 406.898,1801.179 408.5,1802.103 C410.101,1801.179 411.884,1801.081 413.25,1801.871 C414.459,1802.569 415.219,1803.838 415.389,1805.441 C415.545,1806.927 415.169,1808.546 414.33,1810 C413.044,1812.227 410.875,1813.668 408.803,1813.668 L408.803,1813.668 Z M408.5,1811.654 C408.53,1811.654 408.56,1811.655 408.59,1811.658 C409.976,1811.787 411.628,1810.681 412.598,1809 C413.227,1807.909 413.512,1806.72 413.399,1805.651 C413.299,1804.7 412.891,1803.974 412.25,1803.603 C411.404,1803.113 410.177,1803.319 409.084,1804.104 C408.735,1804.356 408.265,1804.356 407.916,1804.104 C406.823,1803.319 405.596,1803.112 404.75,1803.603 C404.109,1803.974 403.701,1804.7 403.601,1805.651 C403.488,1806.72 403.772,1807.909 404.402,1809 C405.372,1810.681 407.017,1811.785 408.41,1811.658 C408.44,1811.655 408.47,1811.654 408.5,1811.654 L408.5,1811.654 Z" id="Fill-1464" fill="#314E55" sketch:type="MSShapeGroup"></path>
            </g>
        </g>
    </g>
</svg>