<?xml version="1.0" encoding="UTF-8" standalone="no"?>
<svg width="60px" height="60px" viewBox="0 0 60 60" version="1.1" xmlns="http://www.w3.org/2000/svg" xmlns:xlink="http://www.w3.org/1999/xlink" xmlns:sketch="http://www.bohemiancoding.com/sketch/ns">
    <!-- Generator: Sketch 3.3.3 (12081) - http://www.bohemiancoding.com/sketch -->
    <title>Femaleremove</title>
    <desc>Created with Sketch.</desc>
    <defs>
        <path id="path-1" d="M2.156,10.182 C2.156,14.303 0,22.545 0,22.545 C0,22.545 5.031,24 11.5,24 C17.969,24 23,22.545 23,22.545 C23,22.545 20.844,14.303 20.844,10.182 L20.844,7.858 C20.844,3.518 17.329,0 12.986,0 L10.014,0 C5.674,0 2.156,3.526 2.156,7.858 L2.156,10.182 L2.156,10.182 Z"></path>
    </defs>
    <g id="outlined" stroke="none" stroke-width="1" fill="none" fill-rule="evenodd" sketch:type="MSPage">
        <g id="Interface_sliced" sketch:type="MSLayerGroup" transform="translate(-840.000000, -1560.000000)">
            <g id="Imported-Layers" transform="translate(2.000000, 4.000000)">
                <path d="M868,1615 C852.56,1615 840,1602.439 840,1587 C840,1571.56 852.56,1559 868,1559 C868.553,1559 869,1559.447 869,1560 C869,1560.553 868.553,1561 868,1561 C853.663,1561 842,1572.663 842,1587 C842,1601.337 853.663,1613 868,1613 C882.337,1613 894,1601.337 894,1587 C894,1586.447 894.447,1586 895,1586 C895.553,1586 896,1586.447 896,1587 C896,1602.439 883.439,1615 868,1615" id="Fill-1348" fill="#314E55" sketch:type="MSShapeGroup"></path>
                <path d="M884,1609.5 C883.447,1609.5 883,1609.053 883,1608.5 L883,1603.227 C883,1601.147 881.175,1599.455 878.931,1599.455 L873.568,1599.455 C873.181,1599.455 872.828,1599.231 872.664,1598.881 L870.096,1593.426 C869.86,1592.927 870.074,1592.33 870.574,1592.096 C871.074,1591.857 871.67,1592.074 871.904,1592.574 L874.203,1597.455 L878.931,1597.455 C882.277,1597.455 885,1600.045 885,1603.227 L885,1608.5 C885,1609.053 884.553,1609.5 884,1609.5 L884,1609.5 Z M852,1609.5 C851.447,1609.5 851,1609.053 851,1608.5 L851,1603.227 C851,1600.045 853.723,1597.455 857.069,1597.455 L861.086,1597.455 L863.075,1592.619 C863.286,1592.109 863.869,1591.868 864.381,1592.075 C864.892,1592.285 865.135,1592.87 864.925,1593.381 L862.681,1598.836 C862.526,1599.21 862.161,1599.455 861.756,1599.455 L857.069,1599.455 C854.825,1599.455 853,1601.147 853,1603.227 L853,1608.5 C853,1609.053 852.553,1609.5 852,1609.5 L852,1609.5 Z" id="Fill-1349" fill="#314E55" sketch:type="MSShapeGroup"></path>
                <g id="Group-1352" transform="translate(856.000000, 1569.000000)">
                    <mask id="mask-2" sketch:name="Clip 1351" fill="white">
                        <use xlink:href="#path-1"></use>
                    </mask>
                    <g id="Clip-1351"></g>
                    <path d="M0,0 L23,0 L23,24 L0,24 L0,0 Z" id="Fill-1350" fill="#EB86A5" sketch:type="MSShapeGroup" mask="url(#mask-2)"></path>
                </g>
                <path d="M867.5,1594 C860.965,1594 855.934,1592.567 855.723,1592.507 C855.201,1592.356 854.896,1591.817 855.032,1591.293 C855.054,1591.212 857.156,1583.126 857.156,1579.182 L857.156,1576.857 C857.156,1571.974 861.13,1568 866.014,1568 L868.986,1568 C873.87,1568 877.844,1571.974 877.844,1576.857 L877.844,1579.182 C877.844,1583.129 879.946,1591.212 879.968,1591.293 C880.104,1591.817 879.799,1592.356 879.277,1592.507 C879.066,1592.567 874.035,1594 867.5,1594 L867.5,1594 Z M857.214,1590.821 C858.937,1591.225 862.858,1592 867.5,1592 C872.142,1592 876.063,1591.225 877.786,1590.821 C877.211,1588.486 875.844,1582.572 875.844,1579.182 L875.844,1576.857 C875.844,1573.076 872.768,1570 868.986,1570 L866.014,1570 C862.232,1570 859.156,1573.076 859.156,1576.857 L859.156,1579.182 C859.156,1582.572 857.789,1588.486 857.214,1590.821 L857.214,1590.821 Z" id="Fill-1353" fill="#314E55" sketch:type="MSShapeGroup"></path>
                <path d="M895,1567 L885,1567 C884.447,1567 884,1566.553 884,1566 C884,1565.447 884.447,1565 885,1565 L895,1565 C895.553,1565 896,1565.447 896,1566 C896,1566.553 895.553,1567 895,1567" id="Fill-1354" fill="#314E55" sketch:type="MSShapeGroup"></path>
            </g>
        </g>
    </g>
</svg>