<?xml version="1.0" encoding="UTF-8" standalone="no"?>
<svg width="60px" height="60px" viewBox="0 0 60 60" version="1.1" xmlns="http://www.w3.org/2000/svg" xmlns:xlink="http://www.w3.org/1999/xlink" xmlns:sketch="http://www.bohemiancoding.com/sketch/ns">
    <!-- Generator: Sketch 3.3.3 (12081) - http://www.bohemiancoding.com/sketch -->
    <title>Femalesearch</title>
    <desc>Created with Sketch.</desc>
    <defs>
        <path id="path-1" d="M2.156,10.182 C2.156,14.303 0,22.545 0,22.545 C0,22.545 5.031,24 11.5,24 C17.969,24 23,22.545 23,22.545 C23,22.545 20.844,14.303 20.844,10.182 L20.844,7.858 C20.844,3.518 17.329,0 12.986,0 L10.014,0 C5.674,0 2.156,3.526 2.156,7.858 L2.156,10.182 L2.156,10.182 Z"></path>
        <path id="path-3" d="M4.5,9 C6.985,9 9,6.985 9,4.5 C9,2.015 6.985,0 4.5,0 C2.015,0 0,2.015 0,4.5 C0,6.985 2.015,9 4.5,9 L4.5,9 Z"></path>
    </defs>
    <g id="outlined" stroke="none" stroke-width="1" fill="none" fill-rule="evenodd" sketch:type="MSPage">
        <g id="Interface_sliced" sketch:type="MSLayerGroup" transform="translate(-600.000000, -1800.000000)">
            <g id="Imported-Layers" transform="translate(2.000000, 4.000000)">
                <path d="M628,1855 C612.56,1855 600,1842.439 600,1827 C600,1811.56 612.56,1799 628,1799 C628.553,1799 629,1799.447 629,1800 C629,1800.553 628.553,1801 628,1801 C613.663,1801 602,1812.663 602,1827 C602,1841.337 613.663,1853 628,1853 C642.337,1853 654,1841.337 654,1827 C654,1826.447 654.447,1826 655,1826 C655.553,1826 656,1826.447 656,1827 C656,1842.439 643.44,1855 628,1855" id="Fill-1476" fill="#314E55" sketch:type="MSShapeGroup"></path>
                <path d="M644,1849.5 C643.447,1849.5 643,1849.053 643,1848.5 L643,1843.227 C643,1841.147 641.175,1839.455 638.931,1839.455 L633.568,1839.455 C633.181,1839.455 632.828,1839.231 632.664,1838.881 L630.096,1833.426 C629.86,1832.927 630.074,1832.33 630.574,1832.096 C631.074,1831.857 631.669,1832.074 631.904,1832.574 L634.203,1837.455 L638.931,1837.455 C642.277,1837.455 645,1840.045 645,1843.227 L645,1848.5 C645,1849.053 644.553,1849.5 644,1849.5 L644,1849.5 Z M612,1849.5 C611.447,1849.5 611,1849.053 611,1848.5 L611,1843.227 C611,1840.045 613.723,1837.455 617.069,1837.455 L621.086,1837.455 L623.075,1832.619 C623.286,1832.108 623.87,1831.868 624.381,1832.075 C624.892,1832.285 625.135,1832.87 624.925,1833.381 L622.681,1838.836 C622.526,1839.21 622.161,1839.455 621.756,1839.455 L617.069,1839.455 C614.825,1839.455 613,1841.147 613,1843.227 L613,1848.5 C613,1849.053 612.553,1849.5 612,1849.5 L612,1849.5 Z" id="Fill-1477" fill="#314E55" sketch:type="MSShapeGroup"></path>
                <g id="Group-1480" transform="translate(616.000000, 1809.000000)">
                    <mask id="mask-2" sketch:name="Clip 1479" fill="white">
                        <use xlink:href="#path-1"></use>
                    </mask>
                    <g id="Clip-1479"></g>
                    <path d="M0,0 L23,0 L23,24 L0,24 L0,0 Z" id="Fill-1478" fill="#EB86A5" sketch:type="MSShapeGroup" mask="url(#mask-2)"></path>
                </g>
                <path d="M627.5,1834 C620.965,1834 615.934,1832.567 615.723,1832.507 C615.201,1832.356 614.896,1831.817 615.032,1831.293 C615.054,1831.212 617.156,1823.126 617.156,1819.182 L617.156,1816.857 C617.156,1811.974 621.13,1808 626.014,1808 L628.986,1808 C633.87,1808 637.844,1811.974 637.844,1816.857 L637.844,1819.182 C637.844,1823.129 639.946,1831.212 639.968,1831.293 C640.104,1831.817 639.799,1832.356 639.277,1832.507 C639.066,1832.567 634.035,1834 627.5,1834 L627.5,1834 Z M617.214,1830.821 C618.937,1831.225 622.858,1832 627.5,1832 C632.142,1832 636.063,1831.225 637.786,1830.821 C637.211,1828.486 635.844,1822.572 635.844,1819.182 L635.844,1816.857 C635.844,1813.076 632.768,1810 628.986,1810 L626.014,1810 C622.232,1810 619.156,1813.076 619.156,1816.857 L619.156,1819.182 C619.156,1822.572 617.789,1828.486 617.214,1830.821 L617.214,1830.821 Z" id="Fill-1481" fill="#314E55" sketch:type="MSShapeGroup"></path>
                <g id="Group-1484" transform="translate(643.000000, 1801.000000)">
                    <mask id="mask-4" sketch:name="Clip 1483" fill="white">
                        <use xlink:href="#path-3"></use>
                    </mask>
                    <g id="Clip-1483"></g>
                    <path d="M0,0 L9,0 L9,9 L0,9 L0,0 Z" id="Fill-1482" fill="#73C9C9" sketch:type="MSShapeGroup" mask="url(#mask-4)"></path>
                </g>
                <path d="M647.5,1811 C644.468,1811 642,1808.532 642,1805.5 C642,1802.468 644.468,1800 647.5,1800 C650.532,1800 653,1802.468 653,1805.5 C653,1808.532 650.532,1811 647.5,1811 L647.5,1811 Z M647.5,1802 C645.57,1802 644,1803.57 644,1805.5 C644,1807.43 645.57,1809 647.5,1809 C649.43,1809 651,1807.43 651,1805.5 C651,1803.57 649.43,1802 647.5,1802 L647.5,1802 Z" id="Fill-1485" fill="#314E55" sketch:type="MSShapeGroup"></path>
                <path d="M655.527,1814.941 L649.586,1809 L651,1807.586 L656.941,1813.527 L655.527,1814.941" id="Fill-1486" fill="#314E55" sketch:type="MSShapeGroup"></path>
            </g>
        </g>
    </g>
</svg>