<?xml version="1.0" encoding="UTF-8" standalone="no"?>
<svg width="60px" height="60px" viewBox="0 0 60 60" version="1.1" xmlns="http://www.w3.org/2000/svg" xmlns:xlink="http://www.w3.org/1999/xlink" xmlns:sketch="http://www.bohemiancoding.com/sketch/ns">
    <!-- Generator: Sketch 3.3.3 (12081) - http://www.bohemiancoding.com/sketch -->
    <title>Femaleprofile</title>
    <desc>Created with Sketch.</desc>
    <defs>
        <path id="path-1" d="M2.156,10.182 C2.156,14.303 0,22.545 0,22.545 C0,22.545 5.031,24 11.5,24 C17.969,24 23,22.545 23,22.545 C23,22.545 20.844,14.303 20.844,10.182 L20.844,7.858 C20.844,3.518 17.329,0 12.986,0 L10.014,0 C5.674,0 2.156,3.526 2.156,7.858 L2.156,10.182 L2.156,10.182 Z"></path>
    </defs>
    <g id="outlined" stroke="none" stroke-width="1" fill="none" fill-rule="evenodd" sketch:type="MSPage">
        <g id="Interface_sliced" sketch:type="MSLayerGroup" transform="translate(-840.000000, -1800.000000)">
            <g id="Imported-Layers" transform="translate(2.000000, 4.000000)">
                <path d="M896,1849 L840,1849 C839.447,1849 839,1848.553 839,1848 L839,1803 C839,1802.447 839.447,1802 840,1802 L896,1802 C896.553,1802 897,1802.447 897,1803 L897,1848 C897,1848.553 896.553,1849 896,1849 L896,1849 Z M841,1847 L895,1847 L895,1804 L841,1804 L841,1847 Z" id="Fill-1496" fill="#314E55" sketch:type="MSShapeGroup"></path>
                <path d="M876,1848.5 C875.447,1848.5 875,1848.053 875,1847.5 L875,1842.227 C875,1840.147 873.175,1838.455 870.931,1838.455 L865.568,1838.455 C865.181,1838.455 864.828,1838.231 864.664,1837.881 L862.096,1832.426 C861.86,1831.927 862.074,1831.33 862.574,1831.096 C863.073,1830.857 863.669,1831.074 863.904,1831.574 L866.203,1836.455 L870.931,1836.455 C874.277,1836.455 877,1839.045 877,1842.227 L877,1847.5 C877,1848.053 876.553,1848.5 876,1848.5 L876,1848.5 Z M844,1848.5 C843.447,1848.5 843,1848.053 843,1847.5 L843,1842.227 C843,1839.045 845.723,1836.455 849.069,1836.455 L853.086,1836.455 L855.075,1831.619 C855.286,1831.109 855.87,1830.869 856.381,1831.075 C856.892,1831.285 857.135,1831.87 856.925,1832.381 L854.681,1837.836 C854.526,1838.21 854.161,1838.455 853.756,1838.455 L849.069,1838.455 C846.825,1838.455 845,1840.147 845,1842.227 L845,1847.5 C845,1848.053 844.553,1848.5 844,1848.5 L844,1848.5 Z" id="Fill-1497" fill="#314E55" sketch:type="MSShapeGroup"></path>
                <g id="Group-1500" transform="translate(848.000000, 1808.000000)">
                    <mask id="mask-2" sketch:name="Clip 1499" fill="white">
                        <use xlink:href="#path-1"></use>
                    </mask>
                    <g id="Clip-1499"></g>
                    <path d="M0,0 L23,0 L23,24 L0,24 L0,0 Z" id="Fill-1498" fill="#73C9C9" sketch:type="MSShapeGroup" mask="url(#mask-2)"></path>
                </g>
                <path d="M859.5,1833 C852.965,1833 847.934,1831.567 847.723,1831.507 C847.201,1831.356 846.896,1830.817 847.032,1830.293 C847.054,1830.212 849.156,1822.126 849.156,1818.182 L849.156,1815.857 C849.156,1810.974 853.13,1807 858.014,1807 L860.986,1807 C865.87,1807 869.844,1810.974 869.844,1815.857 L869.844,1818.182 C869.844,1822.129 871.946,1830.212 871.968,1830.293 C872.104,1830.817 871.799,1831.356 871.277,1831.507 C871.066,1831.567 866.035,1833 859.5,1833 L859.5,1833 Z M849.214,1829.821 C850.937,1830.225 854.858,1831 859.5,1831 C864.142,1831 868.063,1830.225 869.786,1829.821 C869.211,1827.486 867.844,1821.572 867.844,1818.182 L867.844,1815.857 C867.844,1812.076 864.768,1809 860.986,1809 L858.014,1809 C854.232,1809 851.156,1812.076 851.156,1815.857 L851.156,1818.182 C851.156,1821.572 849.789,1827.486 849.214,1829.821 L849.214,1829.821 Z" id="Fill-1501" fill="#314E55" sketch:type="MSShapeGroup"></path>
                <path d="M876.358,1811 L892,1811 L892,1813 L876.358,1813 L876.358,1811 Z" id="Fill-1502" fill="#314E55" sketch:type="MSShapeGroup"></path>
                <path d="M876.358,1815 L892,1815 L892,1817 L876.358,1817 L876.358,1815 Z" id="Fill-1503" fill="#314E55" sketch:type="MSShapeGroup"></path>
                <path d="M876.358,1819 L888,1819 L888,1821 L876.358,1821 L876.358,1819 Z" id="Fill-1504" fill="#314E55" sketch:type="MSShapeGroup"></path>
            </g>
        </g>
    </g>
</svg>