<?xml version="1.0" encoding="UTF-8" standalone="no"?>
<svg width="60px" height="60px" viewBox="0 0 60 60" version="1.1" xmlns="http://www.w3.org/2000/svg" xmlns:xlink="http://www.w3.org/1999/xlink" xmlns:sketch="http://www.bohemiancoding.com/sketch/ns">
    <!-- Generator: Sketch 3.3.3 (12081) - http://www.bohemiancoding.com/sketch -->
    <title>Forceleft</title>
    <desc>Created with Sketch.</desc>
    <defs></defs>
    <g id="outlined" stroke="none" stroke-width="1" fill="none" fill-rule="evenodd" sketch:type="MSPage">
        <g id="Interface_sliced" sketch:type="MSLayerGroup" transform="translate(-720.000000, -120.000000)">
            <g id="Imported-Layers" transform="translate(2.000000, 4.000000)" sketch:type="MSShapeGroup">
                <path d="M723,123 L773,123 L773,173 L723,173 L723,123 Z" id="Fill-169" fill="#E9E7D1"></path>
                <path d="M773,174 L723,174 C722.447,174 722,173.552 722,173 L722,123 C722,122.448 722.447,122 723,122 L773,122 C773.553,122 774,122.448 774,123 L774,173 C774,173.552 773.553,174 773,174 L773,174 Z M724,172 L772,172 L772,124 L724,124 L724,172 Z" id="Fill-171" fill="#314E55"></path>
                <path d="M742.514,147 L757.03,147 L757.03,149 L742.514,149 L742.514,147 Z" id="Fill-172" fill="#314E55"></path>
                <path d="M742.514,156 L767.041,156 L767.041,158 L742.514,158 L742.514,156 Z" id="Fill-173" fill="#314E55"></path>
                <path d="M742.514,129 L767.041,129 L767.041,131 L742.514,131 L742.514,129 Z" id="Fill-174" fill="#314E55"></path>
                <path d="M737,126 L739,126 L739,170 L737,170 L737,126 Z" id="Fill-175" fill="#314E55"></path>
                <path d="M742.514,165 L757.03,165 L757.03,167 L742.514,167 L742.514,165 Z" id="Fill-176" fill="#314E55"></path>
                <path d="M742.514,138 L767.041,138 L767.041,140 L742.514,140 L742.514,138 Z" id="Fill-177" fill="#314E55"></path>
                <path d="M728,154.657 C727.744,154.657 727.488,154.559 727.293,154.364 C726.902,153.973 726.902,153.34 727.293,152.95 L732.243,148 L727.293,143.05 C726.902,142.659 726.902,142.026 727.293,141.636 C727.684,141.245 728.316,141.245 728.707,141.636 L734.364,147.292 C734.552,147.48 734.657,147.734 734.657,148 C734.657,148.265 734.552,148.519 734.364,148.707 L728.707,154.364 C728.512,154.559 728.256,154.657 728,154.657" id="Fill-178" fill="#314E55"></path>
            </g>
        </g>
    </g>
</svg>