<?xml version="1.0" encoding="UTF-8" standalone="no"?>
<svg width="60px" height="60px" viewBox="0 0 60 60" version="1.1" xmlns="http://www.w3.org/2000/svg" xmlns:xlink="http://www.w3.org/1999/xlink" xmlns:sketch="http://www.bohemiancoding.com/sketch/ns">
    <!-- Generator: Sketch 3.3.3 (12081) - http://www.bohemiancoding.com/sketch -->
    <title>Forward</title>
    <desc>Created with Sketch.</desc>
    <defs>
        <path id="path-1" d="M25,12 L25,35 L42,35 L42,45 L0,45 L0,35 L17,35 L17,12 L11,12 L21,0 L31,12 L25,12 L25,12 Z"></path>
    </defs>
    <g id="outlined" stroke="none" stroke-width="1" fill="none" fill-rule="evenodd" sketch:type="MSPage">
        <g id="Interface_sliced" sketch:type="MSLayerGroup" transform="translate(0.000000, -840.000000)">
            <g id="Imported-Layers" transform="translate(2.000000, 4.000000)">
                <g id="Group-748" transform="translate(7.000000, 843.000000)">
                    <mask id="mask-2" sketch:name="Clip 747" fill="white">
                        <use xlink:href="#path-1"></use>
                    </mask>
                    <g id="Clip-747"></g>
                    <path d="M0,0 L42,0 L42,45 L0,45 L0,0 Z" id="Fill-746" fill="#81A4E3" sketch:type="MSShapeGroup" mask="url(#mask-2)"></path>
                </g>
                <path d="M49,889 L7,889 C6.448,889 6,888.552 6,888 L6,878 C6,877.448 6.448,877 7,877 L23,877 L23,856 L18,856 C17.612,856 17.259,855.775 17.094,855.424 C16.93,855.073 16.983,854.658 17.232,854.36 L27.232,842.36 C27.612,841.904 28.388,841.904 28.768,842.36 L38.665,854.235 C38.882,854.419 39.02,854.693 39.02,855 C39.02,855.556 38.562,856.015 38.01,856 L38,856 L33,856 L33,877 L49,877 C49.552,877 50,877.448 50,878 L50,888 C50,888.552 49.552,889 49,889 L49,889 Z M8,887 L48,887 L48,879 L32,879 C31.448,879 31,878.552 31,878 L31,855 C31,854.448 31.448,854 32,854 L35.865,854 L28,844.562 L20.135,854 L24,854 C24.552,854 25,854.448 25,855 L25,878 C25,878.552 24.552,879 24,879 L8,879 L8,887 L8,887 Z" id="Fill-749" fill="#314E55" sketch:type="MSShapeGroup"></path>
                <path d="M7,863 L24,863 L24,873 L7,873 L7,863 Z" id="Fill-750" fill="#EBEBEB" sketch:type="MSShapeGroup"></path>
                <path d="M24,874 L7,874 C6.448,874 6,873.552 6,873 L6,863 C6,862.448 6.448,862 7,862 L24,862 C24.552,862 25,862.448 25,863 L25,873 C25,873.552 24.552,874 24,874 L24,874 Z M8,872 L23,872 L23,864 L8,864 L8,872 Z" id="Fill-752" fill="#314E55" sketch:type="MSShapeGroup"></path>
                <path d="M32,863 L49,863 L49,873 L32,873 L32,863 Z" id="Fill-753" fill="#EBEBEB" sketch:type="MSShapeGroup"></path>
                <path d="M49,874 L32,874 C31.448,874 31,873.552 31,873 L31,863 C31,862.448 31.448,862 32,862 L49,862 C49.552,862 50,862.448 50,863 L50,873 C50,873.552 49.552,874 49,874 L49,874 Z M33,872 L48,872 L48,864 L33,864 L33,872 Z" id="Fill-755" fill="#314E55" sketch:type="MSShapeGroup"></path>
            </g>
        </g>
    </g>
</svg>