<?xml version="1.0" encoding="UTF-8" standalone="no"?>
<svg width="60px" height="60px" viewBox="0 0 60 60" version="1.1" xmlns="http://www.w3.org/2000/svg" xmlns:xlink="http://www.w3.org/1999/xlink" xmlns:sketch="http://www.bohemiancoding.com/sketch/ns">
    <!-- Generator: Sketch 3.3.3 (12081) - http://www.bohemiancoding.com/sketch -->
    <title>Fullscreen</title>
    <desc>Created with Sketch.</desc>
    <defs></defs>
    <g id="outlined" stroke="none" stroke-width="1" fill="none" fill-rule="evenodd" sketch:type="MSPage">
        <g id="Interface_sliced" sketch:type="MSLayerGroup" transform="translate(-360.000000, -480.000000)">
            <g id="Imported-Layers" transform="translate(2.000000, 4.000000)" sketch:type="MSShapeGroup">
                <path d="M376,494 L400,494 L400,518 L376,518 L376,494 Z" id="Fill-443" fill="#73C9C9"></path>
                <path d="M400,519 L399,519 C398.448,519 398,518.552 398,518 C398,517.448 398.448,517 399,517 L400,517 C400.552,517 401,517.448 401,518 C401,518.552 400.552,519 400,519 L400,519 Z M396,519 L395,519 C394.448,519 394,518.552 394,518 C394,517.448 394.448,517 395,517 L396,517 C396.552,517 397,517.448 397,518 C397,518.552 396.552,519 396,519 L396,519 Z M392,519 L391,519 C390.448,519 390,518.552 390,518 C390,517.448 390.448,517 391,517 L392,517 C392.552,517 393,517.448 393,518 C393,518.552 392.552,519 392,519 L392,519 Z M388,519 L387,519 C386.448,519 386,518.552 386,518 C386,517.448 386.448,517 387,517 L388,517 C388.552,517 389,517.448 389,518 C389,518.552 388.552,519 388,519 L388,519 Z M384,519 L383,519 C382.448,519 382,518.552 382,518 C382,517.448 382.448,517 383,517 L384,517 C384.552,517 385,517.448 385,518 C385,518.552 384.552,519 384,519 L384,519 Z M380,519 L379,519 C378.448,519 378,518.552 378,518 C378,517.448 378.448,517 379,517 L380,517 C380.552,517 381,517.448 381,518 C381,518.552 380.552,519 380,519 L380,519 Z M376,519 C375.448,519 375,518.552 375,518 L375,517 C375,516.448 375.448,516 376,516 C376.552,516 377,516.448 377,517 L377,518 C377,518.552 376.552,519 376,519 L376,519 Z M400,516 C399.448,516 399,515.552 399,515 L399,514 C399,513.448 399.448,513 400,513 C400.552,513 401,513.448 401,514 L401,515 C401,515.552 400.552,516 400,516 L400,516 Z M376,515 C375.448,515 375,514.552 375,514 L375,513 C375,512.448 375.448,512 376,512 C376.552,512 377,512.448 377,513 L377,514 C377,514.552 376.552,515 376,515 L376,515 Z M400,512 C399.448,512 399,511.552 399,511 L399,510 C399,509.448 399.448,509 400,509 C400.552,509 401,509.448 401,510 L401,511 C401,511.552 400.552,512 400,512 L400,512 Z M376,511 C375.448,511 375,510.552 375,510 L375,509 C375,508.448 375.448,508 376,508 C376.552,508 377,508.448 377,509 L377,510 C377,510.552 376.552,511 376,511 L376,511 Z M400,508 C399.448,508 399,507.552 399,507 L399,506 C399,505.448 399.448,505 400,505 C400.552,505 401,505.448 401,506 L401,507 C401,507.552 400.552,508 400,508 L400,508 Z M376,507 C375.448,507 375,506.552 375,506 L375,505 C375,504.448 375.448,504 376,504 C376.552,504 377,504.448 377,505 L377,506 C377,506.552 376.552,507 376,507 L376,507 Z M400,504 C399.448,504 399,503.552 399,503 L399,502 C399,501.448 399.448,501 400,501 C400.552,501 401,501.448 401,502 L401,503 C401,503.552 400.552,504 400,504 L400,504 Z M376,503 C375.448,503 375,502.552 375,502 L375,501 C375,500.448 375.448,500 376,500 C376.552,500 377,500.448 377,501 L377,502 C377,502.552 376.552,503 376,503 L376,503 Z M400,500 C399.448,500 399,499.552 399,499 L399,498 C399,497.448 399.448,497 400,497 C400.552,497 401,497.448 401,498 L401,499 C401,499.552 400.552,500 400,500 L400,500 Z M376,499 C375.448,499 375,498.552 375,498 L375,497 C375,496.448 375.448,496 376,496 C376.552,496 377,496.448 377,497 L377,498 C377,498.552 376.552,499 376,499 L376,499 Z M400,496 C399.448,496 399,495.552 399,495 L399,494 C399,493.448 399.448,493 400,493 C400.552,493 401,493.448 401,494 L401,495 C401,495.552 400.552,496 400,496 L400,496 Z M397,495 L396,495 C395.448,495 395,494.552 395,494 C395,493.448 395.448,493 396,493 L397,493 C397.552,493 398,493.448 398,494 C398,494.552 397.552,495 397,495 L397,495 Z M393,495 L392,495 C391.448,495 391,494.552 391,494 C391,493.448 391.448,493 392,493 L393,493 C393.552,493 394,493.448 394,494 C394,494.552 393.552,495 393,495 L393,495 Z M389,495 L388,495 C387.448,495 387,494.552 387,494 C387,493.448 387.448,493 388,493 L389,493 C389.552,493 390,493.448 390,494 C390,494.552 389.552,495 389,495 L389,495 Z M385,495 L384,495 C383.448,495 383,494.552 383,494 C383,493.448 383.448,493 384,493 L385,493 C385.552,493 386,493.448 386,494 C386,494.552 385.552,495 385,495 L385,495 Z M381,495 L380,495 C379.448,495 379,494.552 379,494 C379,493.448 379.448,493 380,493 L381,493 C381.552,493 382,493.448 382,494 C382,494.552 381.552,495 381,495 L381,495 Z M377,495 L376,495 C375.448,495 375,494.552 375,494 C375,493.448 375.448,493 376,493 L377,493 C377.552,493 378,493.448 378,494 C378,494.552 377.552,495 377,495 L377,495 Z" id="Fill-445" fill="#314E55"></path>
                <path d="M383,501 L393,501 L393,511 L383,511 L383,501 Z" id="Fill-446" fill="#D8D8D8"></path>
                <path d="M393,512 L383,512 C382.448,512 382,511.552 382,511 L382,501 C382,500.448 382.448,500 383,500 L393,500 C393.552,500 394,500.448 394,501 L394,511 C394,511.552 393.552,512 393,512 L393,512 Z M384,510 L392,510 L392,502 L384,502 L384,510 Z" id="Fill-448" fill="#314E55"></path>
                <path d="M412,531 L411,531 C410.448,531 410,530.552 410,530 C410,529.448 410.448,529 411,529 L412,529 C412.552,529 413,529.448 413,530 C413,530.552 412.552,531 412,531 L412,531 Z M408,531 L407,531 C406.448,531 406,530.552 406,530 C406,529.448 406.448,529 407,529 L408,529 C408.552,529 409,529.448 409,530 C409,530.552 408.552,531 408,531 L408,531 Z M404,531 L403,531 C402.448,531 402,530.552 402,530 C402,529.448 402.448,529 403,529 L404,529 C404.552,529 405,529.448 405,530 C405,530.552 404.552,531 404,531 L404,531 Z M400,531 L399,531 C398.448,531 398,530.552 398,530 C398,529.448 398.448,529 399,529 L400,529 C400.552,529 401,529.448 401,530 C401,530.552 400.552,531 400,531 L400,531 Z M396,531 L395,531 C394.448,531 394,530.552 394,530 C394,529.448 394.448,529 395,529 L396,529 C396.552,529 397,529.448 397,530 C397,530.552 396.552,531 396,531 L396,531 Z M392,531 L391,531 C390.448,531 390,530.552 390,530 C390,529.448 390.448,529 391,529 L392,529 C392.552,529 393,529.448 393,530 C393,530.552 392.552,531 392,531 L392,531 Z M388,531 L387,531 C386.448,531 386,530.552 386,530 C386,529.448 386.448,529 387,529 L388,529 C388.552,529 389,529.448 389,530 C389,530.552 388.552,531 388,531 L388,531 Z M384,531 L383,531 C382.448,531 382,530.552 382,530 C382,529.448 382.448,529 383,529 L384,529 C384.552,529 385,529.448 385,530 C385,530.552 384.552,531 384,531 L384,531 Z M380,531 L379,531 C378.448,531 378,530.552 378,530 C378,529.448 378.448,529 379,529 L380,529 C380.552,529 381,529.448 381,530 C381,530.552 380.552,531 380,531 L380,531 Z M376,531 L375,531 C374.448,531 374,530.552 374,530 C374,529.448 374.448,529 375,529 L376,529 C376.552,529 377,529.448 377,530 C377,530.552 376.552,531 376,531 L376,531 Z M372,531 L371,531 C370.448,531 370,530.552 370,530 C370,529.448 370.448,529 371,529 L372,529 C372.552,529 373,529.448 373,530 C373,530.552 372.552,531 372,531 L372,531 Z M368,531 L367,531 C366.448,531 366,530.552 366,530 C366,529.448 366.448,529 367,529 L368,529 C368.552,529 369,529.448 369,530 C369,530.552 368.552,531 368,531 L368,531 Z M364,531 C363.448,531 363,530.552 363,530 L363,529 C363,528.448 363.448,528 364,528 C364.552,528 365,528.448 365,529 L365,530 C365,530.552 364.552,531 364,531 L364,531 Z M412,528 C411.448,528 411,527.552 411,527 L411,526 C411,525.448 411.448,525 412,525 C412.552,525 413,525.448 413,526 L413,527 C413,527.552 412.552,528 412,528 L412,528 Z M364,527 C363.448,527 363,526.552 363,526 L363,525 C363,524.448 363.448,524 364,524 C364.552,524 365,524.448 365,525 L365,526 C365,526.552 364.552,527 364,527 L364,527 Z M412,524 C411.448,524 411,523.552 411,523 L411,522 C411,521.448 411.448,521 412,521 C412.552,521 413,521.448 413,522 L413,523 C413,523.552 412.552,524 412,524 L412,524 Z M364,523 C363.448,523 363,522.552 363,522 L363,521 C363,520.448 363.448,520 364,520 C364.552,520 365,520.448 365,521 L365,522 C365,522.552 364.552,523 364,523 L364,523 Z M412,520 C411.448,520 411,519.552 411,519 L411,518 C411,517.448 411.448,517 412,517 C412.552,517 413,517.448 413,518 L413,519 C413,519.552 412.552,520 412,520 L412,520 Z M364,519 C363.448,519 363,518.552 363,518 L363,517 C363,516.448 363.448,516 364,516 C364.552,516 365,516.448 365,517 L365,518 C365,518.552 364.552,519 364,519 L364,519 Z M412,516 C411.448,516 411,515.552 411,515 L411,514 C411,513.448 411.448,513 412,513 C412.552,513 413,513.448 413,514 L413,515 C413,515.552 412.552,516 412,516 L412,516 Z M364,515 C363.448,515 363,514.552 363,514 L363,513 C363,512.448 363.448,512 364,512 C364.552,512 365,512.448 365,513 L365,514 C365,514.552 364.552,515 364,515 L364,515 Z M412,512 C411.448,512 411,511.552 411,511 L411,510 C411,509.448 411.448,509 412,509 C412.552,509 413,509.448 413,510 L413,511 C413,511.552 412.552,512 412,512 L412,512 Z M364,511 C363.448,511 363,510.552 363,510 L363,509 C363,508.448 363.448,508 364,508 C364.552,508 365,508.448 365,509 L365,510 C365,510.552 364.552,511 364,511 L364,511 Z M412,508 C411.448,508 411,507.552 411,507 L411,506 C411,505.448 411.448,505 412,505 C412.552,505 413,505.448 413,506 L413,507 C413,507.552 412.552,508 412,508 L412,508 Z M364,507 C363.448,507 363,506.552 363,506 L363,505 C363,504.448 363.448,504 364,504 C364.552,504 365,504.448 365,505 L365,506 C365,506.552 364.552,507 364,507 L364,507 Z M412,504 C411.448,504 411,503.552 411,503 L411,502 C411,501.448 411.448,501 412,501 C412.552,501 413,501.448 413,502 L413,503 C413,503.552 412.552,504 412,504 L412,504 Z M364,503 C363.448,503 363,502.552 363,502 L363,501 C363,500.448 363.448,500 364,500 C364.552,500 365,500.448 365,501 L365,502 C365,502.552 364.552,503 364,503 L364,503 Z M412,500 C411.448,500 411,499.552 411,499 L411,498 C411,497.448 411.448,497 412,497 C412.552,497 413,497.448 413,498 L413,499 C413,499.552 412.552,500 412,500 L412,500 Z M364,499 C363.448,499 363,498.552 363,498 L363,497 C363,496.448 363.448,496 364,496 C364.552,496 365,496.448 365,497 L365,498 C365,498.552 364.552,499 364,499 L364,499 Z M412,496 C411.448,496 411,495.552 411,495 L411,494 C411,493.448 411.448,493 412,493 C412.552,493 413,493.448 413,494 L413,495 C413,495.552 412.552,496 412,496 L412,496 Z M364,495 C363.448,495 363,494.552 363,494 L363,493 C363,492.448 363.448,492 364,492 C364.552,492 365,492.448 365,493 L365,494 C365,494.552 364.552,495 364,495 L364,495 Z M412,492 C411.448,492 411,491.552 411,491 L411,490 C411,489.448 411.448,489 412,489 C412.552,489 413,489.448 413,490 L413,491 C413,491.552 412.552,492 412,492 L412,492 Z M364,491 C363.448,491 363,490.552 363,490 L363,489 C363,488.448 363.448,488 364,488 C364.552,488 365,488.448 365,489 L365,490 C365,490.552 364.552,491 364,491 L364,491 Z M412,488 C411.448,488 411,487.552 411,487 L411,486 C411,485.448 411.448,485 412,485 C412.552,485 413,485.448 413,486 L413,487 C413,487.552 412.552,488 412,488 L412,488 Z M364,487 C363.448,487 363,486.552 363,486 L363,485 C363,484.448 363.448,484 364,484 C364.552,484 365,484.448 365,485 L365,486 C365,486.552 364.552,487 364,487 L364,487 Z M412,484 C411.448,484 411,483.552 411,483 L411,482 C411,481.448 411.448,481 412,481 C412.552,481 413,481.448 413,482 L413,483 C413,483.552 412.552,484 412,484 L412,484 Z M409,483 L408,483 C407.448,483 407,482.552 407,482 C407,481.448 407.448,481 408,481 L409,481 C409.552,481 410,481.448 410,482 C410,482.552 409.552,483 409,483 L409,483 Z M405,483 L404,483 C403.448,483 403,482.552 403,482 C403,481.448 403.448,481 404,481 L405,481 C405.552,481 406,481.448 406,482 C406,482.552 405.552,483 405,483 L405,483 Z M401,483 L400,483 C399.448,483 399,482.552 399,482 C399,481.448 399.448,481 400,481 L401,481 C401.552,481 402,481.448 402,482 C402,482.552 401.552,483 401,483 L401,483 Z M397,483 L396,483 C395.448,483 395,482.552 395,482 C395,481.448 395.448,481 396,481 L397,481 C397.552,481 398,481.448 398,482 C398,482.552 397.552,483 397,483 L397,483 Z M393,483 L392,483 C391.448,483 391,482.552 391,482 C391,481.448 391.448,481 392,481 L393,481 C393.552,481 394,481.448 394,482 C394,482.552 393.552,483 393,483 L393,483 Z M389,483 L388,483 C387.448,483 387,482.552 387,482 C387,481.448 387.448,481 388,481 L389,481 C389.552,481 390,481.448 390,482 C390,482.552 389.552,483 389,483 L389,483 Z M385,483 L384,483 C383.448,483 383,482.552 383,482 C383,481.448 383.448,481 384,481 L385,481 C385.552,481 386,481.448 386,482 C386,482.552 385.552,483 385,483 L385,483 Z M381,483 L380,483 C379.448,483 379,482.552 379,482 C379,481.448 379.448,481 380,481 L381,481 C381.552,481 382,481.448 382,482 C382,482.552 381.552,483 381,483 L381,483 Z M377,483 L376,483 C375.448,483 375,482.552 375,482 C375,481.448 375.448,481 376,481 L377,481 C377.552,481 378,481.448 378,482 C378,482.552 377.552,483 377,483 L377,483 Z M373,483 L372,483 C371.448,483 371,482.552 371,482 C371,481.448 371.448,481 372,481 L373,481 C373.552,481 374,481.448 374,482 C374,482.552 373.552,483 373,483 L373,483 Z M369,483 L368,483 C367.448,483 367,482.552 367,482 C367,481.448 367.448,481 368,481 L369,481 C369.552,481 370,481.448 370,482 C370,482.552 369.552,483 369,483 L369,483 Z M365,483 L364,483 C363.448,483 363,482.552 363,482 C363,481.448 363.448,481 364,481 L365,481 C365.552,481 366,481.448 366,482 C366,482.552 365.552,483 365,483 L365,483 Z" id="Fill-449" fill="#314E55"></path>
            </g>
        </g>
    </g>
</svg>