<?xml version="1.0" encoding="UTF-8" standalone="no"?>
<svg width="60px" height="60px" viewBox="0 0 60 60" version="1.1" xmlns="http://www.w3.org/2000/svg" xmlns:xlink="http://www.w3.org/1999/xlink" xmlns:sketch="http://www.bohemiancoding.com/sketch/ns">
    <!-- Generator: Sketch 3.3.3 (12081) - http://www.bohemiancoding.com/sketch -->
    <title>Galleryslide</title>
    <desc>Created with Sketch.</desc>
    <defs>
        <path id="path-1" d="M0,0 L2,0 L2,2 L0,2"></path>
        <path id="path-3" d="M0,0 L2,0 L2,2 L0,2"></path>
        <path id="path-5" d="M0,0 L2,0 L2,2 L0,2"></path>
        <path id="path-7" d="M0,0 L2,0 L2,2 L0,2"></path>
    </defs>
    <g id="outlined" stroke="none" stroke-width="1" fill="none" fill-rule="evenodd" sketch:type="MSPage">
        <g id="Interface_sliced" sketch:type="MSLayerGroup" transform="translate(-720.000000, -1920.000000)">
            <g id="Imported-Layers" transform="translate(2.000000, 4.000000)">
                <path d="M721,1926 L775,1926 L775,1966 L721,1966 L721,1926 Z" id="Fill-1614" fill="#EBEBEB" sketch:type="MSShapeGroup"></path>
                <path d="M775,1967 L721,1967 C720.447,1967 720,1966.553 720,1966 L720,1926 C720,1925.447 720.447,1925 721,1925 L775,1925 C775.553,1925 776,1925.447 776,1926 L776,1966 C776,1966.553 775.553,1967 775,1967 L775,1967 Z M722,1965 L774,1965 L774,1927 L722,1927 L722,1965 Z" id="Fill-1616" fill="#314E55" sketch:type="MSShapeGroup"></path>
                <path d="M721,1933 L732,1933 L732,1953 L721,1953 L721,1933 Z" id="Fill-1617" fill="#D26CBA" sketch:type="MSShapeGroup"></path>
                <path d="M732,1954 L721,1954 C720.447,1954 720,1953.553 720,1953 L720,1933 C720,1932.447 720.447,1932 721,1932 L732,1932 C732.553,1932 733,1932.447 733,1933 L733,1953 C733,1953.553 732.553,1954 732,1954 L732,1954 Z M722,1952 L731,1952 L731,1934 L722,1934 L722,1952 Z" id="Fill-1619" fill="#314E55" sketch:type="MSShapeGroup"></path>
                <path d="M749,1962 C747.898,1962 747,1961.102 747,1960 C747,1958.897 747.898,1958 749,1958 C750.102,1958 751,1958.897 751,1960 C751,1961.102 750.102,1962 749,1962" id="Fill-1620" fill="#314E55" sketch:type="MSShapeGroup"></path>
                <g id="Group-1623" transform="translate(754.000000, 1959.000000)">
                    <mask id="mask-2" sketch:name="Clip 1622" fill="white">
                        <use xlink:href="#path-1"></use>
                    </mask>
                    <g id="Clip-1622"></g>
                    <path d="M2,4 L0,4 C-1.105,4 -2,3.104 -2,2 L-2,0 C-2,-1.104 -1.105,-2 0,-2 L2,-2 C3.104,-2 4,-1.104 4,0 L4,2 C4,3.104 3.104,4 2,4" id="Fill-1621" fill="#314E55" sketch:type="MSShapeGroup" mask="url(#mask-2)"></path>
                </g>
                <g id="Group-1626" transform="translate(759.000000, 1959.000000)">
                    <mask id="mask-4" sketch:name="Clip 1625" fill="white">
                        <use xlink:href="#path-3"></use>
                    </mask>
                    <g id="Clip-1625"></g>
                    <path d="M2,4 L0,4 C-1.104,4 -2,3.104 -2,2 L-2,0 C-2,-1.104 -1.104,-2 0,-2 L2,-2 C3.104,-2 4,-1.104 4,0 L4,2 C4,3.104 3.104,4 2,4" id="Fill-1624" fill="#314E55" sketch:type="MSShapeGroup" mask="url(#mask-4)"></path>
                </g>
                <g id="Group-1629" transform="translate(737.000000, 1959.000000)">
                    <mask id="mask-6" sketch:name="Clip 1628" fill="white">
                        <use xlink:href="#path-5"></use>
                    </mask>
                    <g id="Clip-1628"></g>
                    <path d="M2,4 L0,4 C-1.104,4 -2,3.104 -2,2 L-2,0 C-2,-1.104 -1.104,-2 0,-2 L2,-2 C3.104,-2 4,-1.104 4,0 L4,2 C4,3.104 3.104,4 2,4" id="Fill-1627" fill="#314E55" sketch:type="MSShapeGroup" mask="url(#mask-6)"></path>
                </g>
                <g id="Group-1632" transform="translate(742.000000, 1959.000000)">
                    <mask id="mask-8" sketch:name="Clip 1631" fill="white">
                        <use xlink:href="#path-7"></use>
                    </mask>
                    <g id="Clip-1631"></g>
                    <path d="M2,4 L0,4 C-1.105,4 -2,3.104 -2,2 L-2,0 C-2,-1.104 -1.105,-2 0,-2 L2,-2 C3.104,-2 4,-1.104 4,0 L4,2 C4,3.104 3.104,4 2,4" id="Fill-1630" fill="#314E55" sketch:type="MSShapeGroup" mask="url(#mask-8)"></path>
                </g>
                <path d="M770,1933 L775,1933 L775,1953 L770,1953 L770,1933 Z" id="Fill-1633" fill="#D26CBA" sketch:type="MSShapeGroup"></path>
                <path d="M775,1954 L770,1954 C769.447,1954 769,1953.553 769,1953 L769,1933 C769,1932.447 769.447,1932 770,1932 L775,1932 C775.553,1932 776,1932.447 776,1933 L776,1953 C776,1953.553 775.553,1954 775,1954 L775,1954 Z M771,1952 L774,1952 L774,1934 L771,1934 L771,1952 Z" id="Fill-1635" fill="#314E55" sketch:type="MSShapeGroup"></path>
                <path d="M737,1933 L765,1933 L765,1953 L737,1953 L737,1933 Z" id="Fill-1636" fill="#EB86A5" sketch:type="MSShapeGroup"></path>
                <path d="M765,1954 L737,1954 C736.447,1954 736,1953.553 736,1953 L736,1933 C736,1932.447 736.447,1932 737,1932 L765,1932 C765.553,1932 766,1932.447 766,1933 L766,1953 C766,1953.553 765.553,1954 765,1954 L765,1954 Z M738,1952 L764,1952 L764,1934 L738,1934 L738,1952 Z" id="Fill-1638" fill="#314E55" sketch:type="MSShapeGroup"></path>
            </g>
        </g>
    </g>
</svg>