<?xml version="1.0" encoding="UTF-8" standalone="no"?>
<svg width="60px" height="60px" viewBox="0 0 60 60" version="1.1" xmlns="http://www.w3.org/2000/svg" xmlns:xlink="http://www.w3.org/1999/xlink" xmlns:sketch="http://www.bohemiancoding.com/sketch/ns">
    <!-- Generator: Sketch 3.3.3 (12081) - http://www.bohemiancoding.com/sketch -->
    <title>Genericusercircle</title>
    <desc>Created with Sketch.</desc>
    <defs>
        <path id="path-1" d="M11.423,1.427 C6.214,2.176 2.224,6.404 2.224,11.507 C2.224,11.957 2.254,12.4 2.315,12.835 C1.896,14.542 1.668,16.378 1.667,18.292 C1.588,18.291 1.508,18.297 1.428,18.308 C0.514,18.436 -0.112,19.278 0.017,20.191 L0.587,24.246 C0.716,25.165 1.555,25.794 2.462,25.667 C2.595,25.648 2.721,25.614 2.84,25.568 C3.585,27.742 4.655,29.645 5.959,31.145 L5.959,37 L20.201,37 L20.201,31.145 C21.498,29.651 22.564,27.76 23.309,25.598 C23.43,25.646 23.558,25.68 23.693,25.699 C24.608,25.827 25.454,25.193 25.584,24.266 L26.159,20.175 C26.289,19.255 25.658,18.406 24.736,18.276 C24.654,18.265 24.573,18.259 24.492,18.26 C24.489,16.358 24.261,14.532 23.845,12.835 C23.905,12.4 23.936,11.957 23.936,11.507 C23.936,7.831 21.865,4.609 18.76,2.815 C18.961,1.419 18.852,0 17.58,0 C15.746,0 12.846,0.929 11.423,1.427 L11.423,1.427 Z"></path>
    </defs>
    <g id="outlined" stroke="none" stroke-width="1" fill="none" fill-rule="evenodd" sketch:type="MSPage">
        <g id="Interface_sliced" sketch:type="MSLayerGroup" transform="translate(-360.000000, -2280.000000)">
            <g id="Imported-Layers" transform="translate(2.000000, 4.000000)">
                <path d="M407.172,2328.56 C407.061,2328.56 406.948,2328.541 406.837,2328.502 C404.874,2327.805 400.99,2326.479 397.031,2325.43 C396.637,2325.325 396.346,2324.991 396.295,2324.587 L395.847,2321 L380.32,2321 L379.871,2324.587 C379.821,2324.991 379.529,2325.325 379.135,2325.43 C375.167,2326.48 371.292,2327.805 369.335,2328.5 C368.815,2328.682 368.242,2328.412 368.058,2327.893 C367.873,2327.372 368.144,2326.801 368.665,2326.615 C370.543,2325.947 374.166,2324.709 377.97,2323.672 L378.445,2319.876 C378.507,2319.376 378.933,2319 379.437,2319 L396.73,2319 C397.234,2319 397.66,2319.376 397.722,2319.876 L398.197,2323.672 C401.993,2324.708 405.622,2325.948 407.506,2326.617 C408.027,2326.802 408.299,2327.374 408.114,2327.894 C407.969,2328.304 407.583,2328.56 407.172,2328.56" id="Fill-2101" fill="#314E55" sketch:type="MSShapeGroup"></path>
                <path d="M388,2336 C371.458,2336 358,2322.542 358,2306 C358,2289.458 371.458,2276 388,2276 C404.542,2276 418,2289.458 418,2306 C418,2322.542 404.542,2336 388,2336 L388,2336 Z M388,2278 C372.56,2278 360,2290.561 360,2306 C360,2321.439 372.56,2334 388,2334 C403.439,2334 416,2321.439 416,2306 C416,2290.561 403.439,2278 388,2278 L388,2278 Z" id="Fill-2102" fill="#314E55" sketch:type="MSShapeGroup"></path>
                <g id="Group-2105" transform="translate(375.000000, 2283.000000)">
                    <mask id="mask-2" sketch:name="Clip 2104" fill="white">
                        <use xlink:href="#path-1"></use>
                    </mask>
                    <g id="Clip-2104"></g>
                    <path d="M-0.112,0 L26.288,0 L26.288,37 L-0.112,37 L-0.112,0 Z" id="Fill-2103" fill="#D8D8D8" sketch:type="MSShapeGroup" mask="url(#mask-2)"></path>
                </g>
                <path d="M395.201,2321 L380.958,2321 C380.406,2321 379.958,2320.553 379.958,2320 L379.958,2314.511 C378.841,2313.153 377.893,2311.503 377.183,2309.683 C375.886,2309.66 374.778,2308.68 374.596,2307.386 L374.026,2303.329 C373.852,2302.087 374.565,2300.921 375.681,2300.478 C375.733,2298.872 375.941,2297.296 376.299,2295.78 C376.249,2295.36 376.224,2294.932 376.224,2294.507 C376.224,2289.052 380.498,2284.316 386.183,2283.452 C387.786,2282.896 390.661,2282 392.58,2282 C393.417,2282 393.925,2282.384 394.204,2282.706 C394.699,2283.277 394.903,2284.128 394.822,2285.294 C398.036,2287.389 399.935,2290.787 399.935,2294.507 C399.935,2294.932 399.91,2295.36 399.86,2295.78 C400.215,2297.284 400.423,2298.849 400.477,2300.442 C400.937,2300.621 401.34,2300.925 401.643,2301.33 C402.069,2301.9 402.25,2302.604 402.15,2303.313 L401.575,2307.405 C401.391,2308.71 400.271,2309.697 398.963,2309.715 C398.255,2311.523 397.311,2313.161 396.201,2314.511 L396.201,2320 C396.201,2320.553 395.753,2321 395.201,2321 L395.201,2321 Z M381.958,2319 L394.201,2319 L394.201,2314.145 C394.201,2313.903 394.288,2313.671 394.446,2313.488 C395.66,2312.091 396.669,2310.287 397.364,2308.271 C397.453,2308.014 397.644,2307.803 397.892,2307.688 C398.141,2307.575 398.424,2307.568 398.678,2307.668 C398.726,2307.687 398.776,2307.7 398.829,2307.708 C399.297,2307.726 399.546,2307.467 399.594,2307.126 L400.169,2303.035 C400.195,2302.854 400.149,2302.673 400.041,2302.527 C399.934,2302.385 399.776,2302.292 399.597,2302.267 C399.321,2302.262 399.027,2302.163 398.837,2301.975 C398.647,2301.788 398.493,2301.529 398.493,2301.262 C398.489,2299.48 398.281,2297.734 397.873,2296.073 C397.843,2295.95 397.837,2295.823 397.854,2295.698 C397.908,2295.307 397.935,2294.906 397.935,2294.507 C397.935,2291.298 396.187,2288.373 393.26,2286.682 C392.906,2286.477 392.712,2286.077 392.77,2285.673 C392.962,2284.341 392.698,2284.022 392.689,2284.012 C392.687,2284.012 392.656,2284 392.58,2284 C391.367,2284 389.244,2284.5 386.754,2285.371 C386.693,2285.393 386.63,2285.408 386.565,2285.418 C381.81,2286.102 378.224,2290.009 378.224,2294.507 C378.224,2294.906 378.251,2295.307 378.305,2295.698 C378.322,2295.823 378.316,2295.95 378.286,2296.073 C377.876,2297.744 377.668,2299.5 377.667,2301.293 C377.667,2301.56 377.56,2301.815 377.37,2302.004 C377.18,2302.191 376.921,2302.275 376.655,2302.292 C376.201,2302.35 375.955,2302.681 376.007,2303.052 L376.577,2307.107 C376.624,2307.44 376.898,2307.684 377.229,2307.684 C377.375,2307.67 377.428,2307.655 377.48,2307.635 C377.733,2307.539 378.017,2307.547 378.263,2307.662 C378.509,2307.777 378.698,2307.987 378.786,2308.244 C379.481,2310.271 380.493,2312.084 381.713,2313.488 C381.872,2313.671 381.958,2313.903 381.958,2314.145 L381.958,2319 L381.958,2319 Z" id="Fill-2106" fill="#314E55" sketch:type="MSShapeGroup"></path>
            </g>
        </g>
    </g>
</svg>