<?xml version="1.0" encoding="UTF-8" standalone="no"?>
<svg width="60px" height="60px" viewBox="0 0 60 60" version="1.1" xmlns="http://www.w3.org/2000/svg" xmlns:xlink="http://www.w3.org/1999/xlink" xmlns:sketch="http://www.bohemiancoding.com/sketch/ns">
    <!-- Generator: Sketch 3.3.3 (12081) - http://www.bohemiancoding.com/sketch -->
    <title>Horizontally</title>
    <desc>Created with Sketch.</desc>
    <defs></defs>
    <g id="outlined" stroke="none" stroke-width="1" fill="none" fill-rule="evenodd" sketch:type="MSPage">
        <g id="Interface_sliced" sketch:type="MSLayerGroup" transform="translate(0.000000, -720.000000)">
            <g id="Imported-Layers" transform="translate(2.000000, 4.000000)" sketch:type="MSShapeGroup">
                <path d="M23,728 L33,728 L33,762 L23,762 L23,728 Z" id="Fill-690" fill="#81A4E3"></path>
                <path d="M33,763 L23,763 C22.448,763 22,762.552 22,762 L22,728 C22,727.448 22.448,727 23,727 L33,727 C33.552,727 34,727.448 34,728 L34,762 C34,762.552 33.552,763 33,763 L33,763 Z M24,761 L32,761 L32,729 L24,729 L24,761 Z" id="Fill-692" fill="#314E55"></path>
                <path d="M14,719 L16,719 L16,771.09 L14,771.09 L14,719 Z" id="Fill-693" fill="#314E55"></path>
                <path d="M40,719 L42,719 L42,771.09 L40,771.09 L40,719 Z" id="Fill-694" fill="#314E55"></path>
            </g>
        </g>
    </g>
</svg>