<?xml version="1.0" encoding="UTF-8" standalone="no"?>
<svg width="60px" height="60px" viewBox="0 0 60 60" version="1.1" xmlns="http://www.w3.org/2000/svg" xmlns:xlink="http://www.w3.org/1999/xlink" xmlns:sketch="http://www.bohemiancoding.com/sketch/ns">
    <!-- Generator: Sketch 3.3.3 (12081) - http://www.bohemiancoding.com/sketch -->
    <title>Intersection</title>
    <desc>Created with Sketch.</desc>
    <defs></defs>
    <g id="outlined" stroke="none" stroke-width="1" fill="none" fill-rule="evenodd" sketch:type="MSPage">
        <g id="Interface_sliced" sketch:type="MSLayerGroup" transform="translate(-240.000000, -480.000000)">
            <g id="Imported-Layers" transform="translate(2.000000, 4.000000)" sketch:type="MSShapeGroup">
                <path d="M257,495 L294,495 L294,532 L257,532 L257,495 Z" id="Fill-439" fill="#5ECB66"></path>
                <path d="M294,533 L257,533 C256.448,533 256,532.552 256,532 L256,495 C256,494.448 256.448,494 257,494 L294,494 C294.552,494 295,494.448 295,495 L295,532 C295,532.552 294.552,533 294,533 L294,533 Z M258,531 L293,531 L293,496 L258,496 L258,531 Z" id="Fill-441" fill="#314E55"></path>
                <path d="M276,515 L275,515 C274.448,515 274,514.552 274,514 C274,513.448 274.448,513 275,513 L276,513 C276.552,513 277,513.448 277,514 C277,514.552 276.552,515 276,515 L276,515 Z M272,515 L271,515 C270.448,515 270,514.552 270,514 C270,513.448 270.448,513 271,513 L272,513 C272.552,513 273,513.448 273,514 C273,514.552 272.552,515 272,515 L272,515 Z M268,515 L267,515 C266.448,515 266,514.552 266,514 C266,513.448 266.448,513 267,513 L268,513 C268.552,513 269,513.448 269,514 C269,514.552 268.552,515 268,515 L268,515 Z M264,515 L263,515 C262.448,515 262,514.552 262,514 C262,513.448 262.448,513 263,513 L264,513 C264.552,513 265,513.448 265,514 C265,514.552 264.552,515 264,515 L264,515 Z M260,515 L259,515 C258.448,515 258,514.552 258,514 C258,513.448 258.448,513 259,513 L260,513 C260.552,513 261,513.448 261,514 C261,514.552 260.552,515 260,515 L260,515 Z M256,515 L255,515 C254.448,515 254,514.552 254,514 C254,513.448 254.448,513 255,513 L256,513 C256.552,513 257,513.448 257,514 C257,514.552 256.552,515 256,515 L256,515 Z M252,515 L251,515 C250.448,515 250,514.552 250,514 C250,513.448 250.448,513 251,513 L252,513 C252.552,513 253,513.448 253,514 C253,514.552 252.552,515 252,515 L252,515 Z M248,515 L247,515 C246.448,515 246,514.552 246,514 C246,513.448 246.448,513 247,513 L248,513 C248.552,513 249,513.448 249,514 C249,514.552 248.552,515 248,515 L248,515 Z M244,515 C243.448,515 243,514.552 243,514 L243,513 C243,512.448 243.448,512 244,512 C244.552,512 245,512.448 245,513 L245,514 C245,514.552 244.552,515 244,515 L244,515 Z M276,512 C275.448,512 275,511.552 275,511 L275,510 C275,509.448 275.448,509 276,509 C276.552,509 277,509.448 277,510 L277,511 C277,511.552 276.552,512 276,512 L276,512 Z M244,511 C243.448,511 243,510.552 243,510 L243,509 C243,508.448 243.448,508 244,508 C244.552,508 245,508.448 245,509 L245,510 C245,510.552 244.552,511 244,511 L244,511 Z M276,508 C275.448,508 275,507.552 275,507 L275,506 C275,505.448 275.448,505 276,505 C276.552,505 277,505.448 277,506 L277,507 C277,507.552 276.552,508 276,508 L276,508 Z M244,507 C243.448,507 243,506.552 243,506 L243,505 C243,504.448 243.448,504 244,504 C244.552,504 245,504.448 245,505 L245,506 C245,506.552 244.552,507 244,507 L244,507 Z M276,504 C275.448,504 275,503.552 275,503 L275,502 C275,501.448 275.448,501 276,501 C276.552,501 277,501.448 277,502 L277,503 C277,503.552 276.552,504 276,504 L276,504 Z M244,503 C243.448,503 243,502.552 243,502 L243,501 C243,500.448 243.448,500 244,500 C244.552,500 245,500.448 245,501 L245,502 C245,502.552 244.552,503 244,503 L244,503 Z M276,500 C275.448,500 275,499.552 275,499 L275,498 C275,497.448 275.448,497 276,497 C276.552,497 277,497.448 277,498 L277,499 C277,499.552 276.552,500 276,500 L276,500 Z M244,499 C243.448,499 243,498.552 243,498 L243,497 C243,496.448 243.448,496 244,496 C244.552,496 245,496.448 245,497 L245,498 C245,498.552 244.552,499 244,499 L244,499 Z M276,496 C275.448,496 275,495.552 275,495 L275,494 C275,493.448 275.448,493 276,493 C276.552,493 277,493.448 277,494 L277,495 C277,495.552 276.552,496 276,496 L276,496 Z M244,495 C243.448,495 243,494.552 243,494 L243,493 C243,492.448 243.448,492 244,492 C244.552,492 245,492.448 245,493 L245,494 C245,494.552 244.552,495 244,495 L244,495 Z M276,492 C275.448,492 275,491.552 275,491 L275,490 C275,489.448 275.448,489 276,489 C276.552,489 277,489.448 277,490 L277,491 C277,491.552 276.552,492 276,492 L276,492 Z M244,491 C243.448,491 243,490.552 243,490 L243,489 C243,488.448 243.448,488 244,488 C244.552,488 245,488.448 245,489 L245,490 C245,490.552 244.552,491 244,491 L244,491 Z M276,488 C275.448,488 275,487.552 275,487 L275,486 C275,485.448 275.448,485 276,485 C276.552,485 277,485.448 277,486 L277,487 C277,487.552 276.552,488 276,488 L276,488 Z M244,487 C243.448,487 243,486.552 243,486 L243,485 C243,484.448 243.448,484 244,484 C244.552,484 245,484.448 245,485 L245,486 C245,486.552 244.552,487 244,487 L244,487 Z M276,484 C275.448,484 275,483.552 275,483 L275,482 C275,481.448 275.448,481 276,481 C276.552,481 277,481.448 277,482 L277,483 C277,483.552 276.552,484 276,484 L276,484 Z M273,483 L272,483 C271.448,483 271,482.552 271,482 C271,481.448 271.448,481 272,481 L273,481 C273.552,481 274,481.448 274,482 C274,482.552 273.552,483 273,483 L273,483 Z M269,483 L268,483 C267.448,483 267,482.552 267,482 C267,481.448 267.448,481 268,481 L269,481 C269.552,481 270,481.448 270,482 C270,482.552 269.552,483 269,483 L269,483 Z M265,483 L264,483 C263.448,483 263,482.552 263,482 C263,481.448 263.448,481 264,481 L265,481 C265.552,481 266,481.448 266,482 C266,482.552 265.552,483 265,483 L265,483 Z M261,483 L260,483 C259.448,483 259,482.552 259,482 C259,481.448 259.448,481 260,481 L261,481 C261.552,481 262,481.448 262,482 C262,482.552 261.552,483 261,483 L261,483 Z M257,483 L256,483 C255.448,483 255,482.552 255,482 C255,481.448 255.448,481 256,481 L257,481 C257.552,481 258,481.448 258,482 C258,482.552 257.552,483 257,483 L257,483 Z M253,483 L252,483 C251.448,483 251,482.552 251,482 C251,481.448 251.448,481 252,481 L253,481 C253.552,481 254,481.448 254,482 C254,482.552 253.552,483 253,483 L253,483 Z M249,483 L248,483 C247.448,483 247,482.552 247,482 C247,481.448 247.448,481 248,481 L249,481 C249.552,481 250,481.448 250,482 C250,482.552 249.552,483 249,483 L249,483 Z M245,483 L244,483 C243.448,483 243,482.552 243,482 C243,481.448 243.448,481 244,481 L245,481 C245.552,481 246,481.448 246,482 C246,482.552 245.552,483 245,483 L245,483 Z" id="Fill-442" fill="#314E55"></path>
            </g>
        </g>
    </g>
</svg>