<?xml version="1.0" encoding="UTF-8" standalone="no"?>
<svg width="60px" height="60px" viewBox="0 0 60 60" version="1.1" xmlns="http://www.w3.org/2000/svg" xmlns:xlink="http://www.w3.org/1999/xlink" xmlns:sketch="http://www.bohemiancoding.com/sketch/ns">
    <!-- Generator: Sketch 3.3.3 (12081) - http://www.bohemiancoding.com/sketch -->
    <title>Jusitfy</title>
    <desc>Created with Sketch.</desc>
    <defs></defs>
    <g id="outlined" stroke="none" stroke-width="1" fill="none" fill-rule="evenodd" sketch:type="MSPage">
        <g id="Interface_sliced" sketch:type="MSLayerGroup" transform="translate(0.000000, -120.000000)">
            <g id="Imported-Layers" transform="translate(2.000000, 4.000000)" sketch:type="MSShapeGroup">
                <path d="M3,121 L53,121 L53,171 L3,171 L3,121 Z" id="Fill-121" fill="#E9E7D1"></path>
                <path d="M53,172 L3,172 C2.448,172 2,171.552 2,171 L2,121 C2,120.448 2.448,120 3,120 L53,120 C53.552,120 54,120.448 54,121 L54,171 C54,171.552 53.552,172 53,172 L53,172 Z M4,170 L52,170 L52,122 L4,122 L4,170 Z" id="Fill-123" fill="#314E55"></path>
                <path d="M9,145 L47,145 L47,147 L9,147 L9,145 Z" id="Fill-124" fill="#314E55"></path>
                <path d="M9,154 L47,154 L47,156 L9,156 L9,154 Z" id="Fill-125" fill="#314E55"></path>
                <path d="M9,127 L47,127 L47,129 L9,129 L9,127 Z" id="Fill-126" fill="#314E55"></path>
                <path d="M9,163 L47,163 L47,165 L9,165 L9,163 Z" id="Fill-127" fill="#314E55"></path>
                <path d="M9,136 L47,136 L47,138 L9,138 L9,136 Z" id="Fill-128" fill="#314E55"></path>
            </g>
        </g>
    </g>
</svg>