<?xml version="1.0" encoding="UTF-8" standalone="no"?>
<svg width="60px" height="60px" viewBox="0 0 60 60" version="1.1" xmlns="http://www.w3.org/2000/svg" xmlns:xlink="http://www.w3.org/1999/xlink" xmlns:sketch="http://www.bohemiancoding.com/sketch/ns">
    <!-- Generator: Sketch 3.3.3 (12081) - http://www.bohemiancoding.com/sketch -->
    <title>Justifyright</title>
    <desc>Created with Sketch.</desc>
    <defs></defs>
    <g id="outlined" stroke="none" stroke-width="1" fill="none" fill-rule="evenodd" sketch:type="MSPage">
        <g id="Interface_sliced" sketch:type="MSLayerGroup" transform="translate(-600.000000, -120.000000)">
            <g id="Imported-Layers" transform="translate(2.000000, 4.000000)" sketch:type="MSShapeGroup">
                <path d="M603,122 L653,122 L653,172 L603,172 L603,122 Z" id="Fill-161" fill="#E9E7D1"></path>
                <path d="M653,173 L603,173 C602.447,173 602,172.552 602,172 L602,122 C602,121.448 602.447,121 603,121 L653,121 C653.553,121 654,121.448 654,122 L654,172 C654,172.552 653.553,173 653,173 L653,173 Z M604,171 L652,171 L652,123 L604,123 L604,171 Z" id="Fill-163" fill="#314E55"></path>
                <path d="M609,146 L647,146 L647,148 L609,148 L609,146 Z" id="Fill-164" fill="#314E55"></path>
                <path d="M609,155 L647,155 L647,157 L609,157 L609,155 Z" id="Fill-165" fill="#314E55"></path>
                <path d="M609,128 L647,128 L647,130 L609,130 L609,128 Z" id="Fill-166" fill="#314E55"></path>
                <path d="M625,164 L647,164 L647,166 L625,166 L625,164 Z" id="Fill-167" fill="#314E55"></path>
                <path d="M609,137 L647,137 L647,139 L609,139 L609,137 Z" id="Fill-168" fill="#314E55"></path>
            </g>
        </g>
    </g>
</svg>