<?xml version="1.0" encoding="UTF-8" standalone="no"?>
<svg width="60px" height="60px" viewBox="0 0 60 60" version="1.1" xmlns="http://www.w3.org/2000/svg" xmlns:xlink="http://www.w3.org/1999/xlink" xmlns:sketch="http://www.bohemiancoding.com/sketch/ns">
    <!-- Generator: Sketch 3.3.3 (12081) - http://www.bohemiancoding.com/sketch -->
    <title>Library</title>
    <desc>Created with Sketch.</desc>
    <defs>
        <path id="path-1" d="M0,1 L20,1 L19,0 L19,33 L20,32 L0,32 L1,33 L1,0 L0,1 L0,1 Z"></path>
        <path id="path-3" d="M0,0 L20,0 L20,33 L0,33 L0,0 Z"></path>
        <path id="path-5" d="M0,1 L20,1 L19,0 L19,33 L20,32 L0,32 L1,33 L1,0 L0,1 L0,1 Z"></path>
        <path id="path-7" d="M0,0 L20,0 L20,33 L0,33 L0,0 Z"></path>
    </defs>
    <g id="outlined" stroke="none" stroke-width="1" fill="none" fill-rule="evenodd" sketch:type="MSPage">
        <g id="Interface_sliced" sketch:type="MSLayerGroup" transform="translate(-240.000000, -2160.000000)">
            <g id="Imported-Layers" transform="translate(2.000000, 4.000000)">
                <path d="M241,2166 L295,2166 L295,2206 L241,2206 L241,2166 Z" id="Fill-1922" fill="#D8D8D8" sketch:type="MSShapeGroup"></path>
                <path d="M295,2207 L241,2207 C240.448,2207 240,2206.553 240,2206 L240,2166 C240,2165.447 240.448,2165 241,2165 L295,2165 C295.552,2165 296,2165.447 296,2166 L296,2206 C296,2206.553 295.552,2207 295,2207 L295,2207 Z M242,2205 L294,2205 L294,2167 L242,2167 L242,2205 Z" id="Fill-1924" fill="#314E55" sketch:type="MSShapeGroup"></path>
                <g id="Group-1927" transform="translate(246.000000, 2170.000000)">
                    <mask id="mask-2" sketch:name="Clip 1926" fill="white">
                        <use xlink:href="#path-1"></use>
                    </mask>
                    <g id="Clip-1926"></g>
                    <path d="M0,0 L20,0 L20,33 L0,33 L0,0 Z" id="Fill-1925" fill="#5ECB66" sketch:type="MSShapeGroup" mask="url(#mask-2)"></path>
                </g>
                <g id="Group-1930" transform="translate(246.000000, 2170.000000)">
                    <mask id="mask-4" sketch:name="Clip 1929" fill="white">
                        <use xlink:href="#path-3"></use>
                    </mask>
                    <g id="Clip-1929"></g>
                    <path d="M20,35 L0,35 C-1.105,35 -2,34.104 -2,33 L-2,0 C-2,-1.104 -1.105,-2 0,-2 L20,-2 C21.104,-2 22,-1.104 22,0 L22,33 C22,34.104 21.104,35 20,35 L20,35 Z M2,31 L18,31 L18,2 L2,2 L2,31 Z" id="Fill-1928" fill="#314E55" sketch:type="MSShapeGroup" mask="url(#mask-4)"></path>
                </g>
                <path d="M240.901,2176 L248,2176 L248,2178 L240.901,2178 L240.901,2176 Z" id="Fill-1931" fill="#314E55" sketch:type="MSShapeGroup"></path>
                <path d="M264.901,2176 L272,2176 L272,2178 L264.901,2178 L264.901,2176 Z" id="Fill-1932" fill="#314E55" sketch:type="MSShapeGroup"></path>
                <path d="M288.901,2176 L296,2176 L296,2178 L288.901,2178 L288.901,2176 Z" id="Fill-1933" fill="#314E55" sketch:type="MSShapeGroup"></path>
                <path d="M251,2183 L261,2183 L261,2185 L251,2185 L251,2183 Z" id="Fill-1934" fill="#314E55" sketch:type="MSShapeGroup"></path>
                <path d="M251,2187 L261,2187 L261,2189 L251,2189 L251,2187 Z" id="Fill-1935" fill="#314E55" sketch:type="MSShapeGroup"></path>
                <path d="M251,2191 L261,2191 L261,2193 L251,2193 L251,2191 Z" id="Fill-1936" fill="#314E55" sketch:type="MSShapeGroup"></path>
                <path d="M251,2195 L261,2195 L261,2197 L251,2197 L251,2195 Z" id="Fill-1937" fill="#314E55" sketch:type="MSShapeGroup"></path>
                <g id="Group-1940" transform="translate(270.000000, 2170.000000)">
                    <mask id="mask-6" sketch:name="Clip 1939" fill="white">
                        <use xlink:href="#path-5"></use>
                    </mask>
                    <g id="Clip-1939"></g>
                    <path d="M0,0 L20,0 L20,33 L0,33 L0,0 Z" id="Fill-1938" fill="#5ECB66" sketch:type="MSShapeGroup" mask="url(#mask-6)"></path>
                </g>
                <g id="Group-1943" transform="translate(270.000000, 2170.000000)">
                    <mask id="mask-8" sketch:name="Clip 1942" fill="white">
                        <use xlink:href="#path-7"></use>
                    </mask>
                    <g id="Clip-1942"></g>
                    <path d="M20,35 L0,35 C-1.105,35 -2,34.104 -2,33 L-2,0 C-2,-1.104 -1.105,-2 0,-2 L20,-2 C21.104,-2 22,-1.104 22,0 L22,33 C22,34.104 21.104,35 20,35 L20,35 Z M2,31 L18,31 L18,2 L2,2 L2,31 Z" id="Fill-1941" fill="#314E55" sketch:type="MSShapeGroup" mask="url(#mask-8)"></path>
                </g>
                <path d="M275,2183 L285,2183 L285,2185 L275,2185 L275,2183 Z" id="Fill-1944" fill="#314E55" sketch:type="MSShapeGroup"></path>
                <path d="M275,2187 L285,2187 L285,2189 L275,2189 L275,2187 Z" id="Fill-1945" fill="#314E55" sketch:type="MSShapeGroup"></path>
                <path d="M275,2191 L285,2191 L285,2193 L275,2193 L275,2191 Z" id="Fill-1946" fill="#314E55" sketch:type="MSShapeGroup"></path>
                <path d="M275,2195 L285,2195 L285,2197 L275,2197 L275,2195 Z" id="Fill-1947" fill="#314E55" sketch:type="MSShapeGroup"></path>
            </g>
        </g>
    </g>
</svg>