<?xml version="1.0" encoding="UTF-8" standalone="no"?>
<svg width="60px" height="60px" viewBox="0 0 60 60" version="1.1" xmlns="http://www.w3.org/2000/svg" xmlns:xlink="http://www.w3.org/1999/xlink" xmlns:sketch="http://www.bohemiancoding.com/sketch/ns">
    <!-- Generator: Sketch 3.3.3 (12081) - http://www.bohemiancoding.com/sketch -->
    <title>Maleremove</title>
    <desc>Created with Sketch.</desc>
    <defs>
        <path id="path-1" d="M2.118,9.201 L2.118,6.558 C2.118,2.936 5.051,0 8.669,0 L22,0 L22,9.222 C23.139,9.443 24,10.453 24,11.653 L24,12.347 C24,13.563 23.133,14.575 21.974,14.784 C21.606,19.935 17.308,24 12.059,24 C6.817,24 2.523,19.936 2.145,14.802 C0.934,14.641 0,13.598 0,12.347 L0,11.653 C0,10.405 0.913,9.372 2.118,9.201 L2.118,9.201 Z"></path>
    </defs>
    <g id="outlined" stroke="none" stroke-width="1" fill="none" fill-rule="evenodd" sketch:type="MSPage">
        <g id="Interface_sliced" sketch:type="MSLayerGroup" transform="translate(-720.000000, -1560.000000)">
            <g id="Imported-Layers" transform="translate(2.000000, 4.000000)">
                <path d="M748,1615 C732.56,1615 720,1602.439 720,1587 C720,1571.56 732.56,1559 748,1559 C748.553,1559 749,1559.447 749,1560 C749,1560.553 748.553,1561 748,1561 C733.663,1561 722,1572.663 722,1587 C722,1601.337 733.663,1613 748,1613 C762.337,1613 774,1601.337 774,1587 C774,1586.447 774.447,1586 775,1586 C775.553,1586 776,1586.447 776,1587 C776,1602.439 763.44,1615 748,1615" id="Fill-1341" fill="#314E55" sketch:type="MSShapeGroup"></path>
                <g id="Group-1344" transform="translate(736.000000, 1568.000000)">
                    <mask id="mask-2" sketch:name="Clip 1343" fill="white">
                        <use xlink:href="#path-1"></use>
                    </mask>
                    <g id="Clip-1343"></g>
                    <path d="M0,0 L24,0 L24,24 L0,24 L0,0 Z" id="Fill-1342" fill="#73C9C9" sketch:type="MSShapeGroup" mask="url(#mask-2)"></path>
                </g>
                <path d="M748.059,1593 C742.601,1593 737.974,1588.922 737.224,1583.592 C735.914,1583.084 735,1581.806 735,1580.347 L735,1579.653 C735,1578.237 735.866,1576.985 737.117,1576.451 L737.117,1574.559 C737.117,1570.391 740.505,1567 744.669,1567 L758,1567 C758.553,1567 759,1567.447 759,1568 L759,1576.504 C760.195,1577.065 761,1578.282 761,1579.653 L761,1580.347 C761,1581.765 760.152,1583.008 758.9,1583.544 C758.173,1588.899 753.538,1593 748.059,1593 L748.059,1593 Z M744.669,1569 C741.607,1569 739.117,1571.493 739.117,1574.559 L739.117,1577.201 C739.117,1577.699 738.751,1578.121 738.258,1578.191 C737.529,1578.295 737,1578.909 737,1579.653 L737,1580.347 C737,1581.085 737.549,1581.714 738.275,1581.81 C738.745,1581.873 739.107,1582.256 739.142,1582.729 C739.483,1587.366 743.4,1591 748.059,1591 C752.727,1591 756.644,1587.359 756.977,1582.713 C757.01,1582.257 757.348,1581.881 757.797,1581.8 C758.494,1581.674 759,1581.063 759,1580.347 L759,1579.653 C759,1578.947 758.499,1578.338 757.809,1578.203 C757.339,1578.112 757,1577.7 757,1577.222 L757,1569 L744.669,1569 L744.669,1569 Z" id="Fill-1345" fill="#314E55" sketch:type="MSShapeGroup"></path>
                <path d="M730,1608.113 C729.447,1608.113 729,1607.666 729,1607.113 L729,1602 C729,1598.624 731.93,1595.772 735.398,1595.772 L740.342,1595.772 L742.405,1591.56 C742.648,1591.065 743.247,1590.859 743.743,1591.102 C744.239,1591.345 744.444,1591.944 744.202,1592.44 L741.864,1597.212 C741.696,1597.555 741.348,1597.772 740.966,1597.772 L735.398,1597.772 C733.056,1597.772 731,1599.748 731,1602 L731,1607.113 C731,1607.666 730.553,1608.113 730,1608.113 L730,1608.113 Z M766,1608 C765.447,1608 765,1607.553 765,1607 L765,1601.887 C765,1599.618 763.133,1597.772 760.838,1597.772 L754.583,1597.772 C754.201,1597.772 753.852,1597.555 753.685,1597.212 L751.347,1592.44 C751.104,1591.944 751.31,1591.345 751.806,1591.102 C752.3,1590.858 752.9,1591.064 753.144,1591.56 L755.207,1595.772 L760.838,1595.772 C764.235,1595.772 767,1598.516 767,1601.887 L767,1607 C767,1607.553 766.553,1608 766,1608 L766,1608 Z" id="Fill-1346" fill="#314E55" sketch:type="MSShapeGroup"></path>
                <path d="M775,1567 L765,1567 C764.447,1567 764,1566.553 764,1566 C764,1565.447 764.447,1565 765,1565 L775,1565 C775.553,1565 776,1565.447 776,1566 C776,1566.553 775.553,1567 775,1567" id="Fill-1347" fill="#314E55" sketch:type="MSShapeGroup"></path>
            </g>
        </g>
    </g>
</svg>