<?xml version="1.0" encoding="UTF-8" standalone="no"?>
<svg width="60px" height="60px" viewBox="0 0 60 60" version="1.1" xmlns="http://www.w3.org/2000/svg" xmlns:xlink="http://www.w3.org/1999/xlink" xmlns:sketch="http://www.bohemiancoding.com/sketch/ns">
    <!-- Generator: Sketch 3.3.3 (12081) - http://www.bohemiancoding.com/sketch -->
    <title>Malecircled</title>
    <desc>Created with Sketch.</desc>
    <defs>
        <path id="path-1" d="M27,54 C41.912,54 54,41.912 54,27 C54,12.088 41.912,0 27,0 C12.088,0 0,12.088 0,27 C0,41.912 12.088,54 27,54 L27,54 Z"></path>
        <path id="path-3" d="M2.118,9.201 L2.118,6.558 C2.118,2.936 5.051,0 8.669,0 L22,0 L22,9.222 C23.139,9.443 24,10.453 24,11.653 L24,12.347 C24,13.563 23.133,14.575 21.974,14.784 C21.606,19.935 17.308,24 12.059,24 C6.817,24 2.523,19.936 2.145,14.802 C0.934,14.641 0,13.598 0,12.347 L0,11.653 C0,10.405 0.914,9.372 2.118,9.201 L2.118,9.201 Z"></path>
    </defs>
    <g id="outlined" stroke="none" stroke-width="1" fill="none" fill-rule="evenodd" sketch:type="MSPage">
        <g id="Interface_sliced" sketch:type="MSLayerGroup" transform="translate(-240.000000, -1560.000000)">
            <g id="Imported-Layers" transform="translate(2.000000, 4.000000)">
                <g id="Group-1309" transform="translate(241.000000, 1560.000000)">
                    <mask id="mask-2" sketch:name="Clip 1308" fill="white">
                        <use xlink:href="#path-1"></use>
                    </mask>
                    <g id="Clip-1308"></g>
                    <path d="M0,0 L54,0 L54,54 L0,54 L0,0 Z" id="Fill-1307" fill="#EBEBEB" sketch:type="MSShapeGroup" mask="url(#mask-2)"></path>
                </g>
                <path d="M268,1615 C252.56,1615 240,1602.439 240,1587 C240,1571.56 252.56,1559 268,1559 C283.44,1559 296,1571.56 296,1587 C296,1602.439 283.44,1615 268,1615 L268,1615 Z M268,1561 C253.664,1561 242,1572.663 242,1587 C242,1601.337 253.664,1613 268,1613 C282.336,1613 294,1601.337 294,1587 C294,1572.663 282.336,1561 268,1561 L268,1561 Z" id="Fill-1310" fill="#314E55" sketch:type="MSShapeGroup"></path>
                <g id="Group-1313" transform="translate(256.000000, 1568.000000)">
                    <mask id="mask-4" sketch:name="Clip 1312" fill="white">
                        <use xlink:href="#path-3"></use>
                    </mask>
                    <g id="Clip-1312"></g>
                    <path d="M0,0 L24,0 L24,24 L0,24 L0,0 Z" id="Fill-1311" fill="#73C9C9" sketch:type="MSShapeGroup" mask="url(#mask-4)"></path>
                </g>
                <path d="M268.059,1593 C262.6,1593 257.974,1588.922 257.224,1583.592 C255.914,1583.085 255,1581.806 255,1580.347 L255,1579.653 C255,1578.237 255.866,1576.985 257.118,1576.451 L257.118,1574.559 C257.118,1570.391 260.505,1567 264.669,1567 L278,1567 C278.552,1567 279,1567.447 279,1568 L279,1576.504 C280.196,1577.065 281,1578.283 281,1579.653 L281,1580.347 C281,1581.764 280.152,1583.008 278.901,1583.544 C278.173,1588.899 273.539,1593 268.059,1593 L268.059,1593 Z M264.669,1569 C261.608,1569 259.118,1571.493 259.118,1574.559 L259.118,1577.201 C259.118,1577.699 258.751,1578.121 258.258,1578.191 C257.529,1578.295 257,1578.909 257,1579.653 L257,1580.347 C257,1581.085 257.548,1581.714 258.276,1581.81 C258.746,1581.872 259.107,1582.256 259.142,1582.729 C259.483,1587.366 263.4,1591 268.059,1591 C272.727,1591 276.644,1587.359 276.977,1582.713 C277.01,1582.257 277.347,1581.881 277.797,1581.8 C278.494,1581.674 279,1581.063 279,1580.347 L279,1579.653 C279,1578.947 278.499,1578.338 277.809,1578.203 C277.339,1578.112 277,1577.7 277,1577.222 L277,1569 L264.669,1569 L264.669,1569 Z" id="Fill-1314" fill="#314E55" sketch:type="MSShapeGroup"></path>
                <path d="M250,1608.113 C249.448,1608.113 249,1607.666 249,1607.113 L249,1602 C249,1598.624 251.93,1595.772 255.399,1595.772 L260.342,1595.772 L262.406,1591.56 C262.649,1591.066 263.248,1590.859 263.744,1591.102 C264.24,1591.345 264.445,1591.944 264.202,1592.44 L261.864,1597.213 C261.696,1597.556 261.348,1597.772 260.966,1597.772 L255.399,1597.772 C253.056,1597.772 251,1599.748 251,1602 L251,1607.113 C251,1607.666 250.552,1608.113 250,1608.113 L250,1608.113 Z M286,1608 C285.448,1608 285,1607.553 285,1607 L285,1601.887 C285,1599.618 283.133,1597.772 280.838,1597.772 L274.583,1597.772 C274.202,1597.772 273.853,1597.556 273.685,1597.213 L271.347,1592.44 C271.104,1591.944 271.309,1591.345 271.805,1591.102 C272.303,1590.858 272.9,1591.065 273.143,1591.56 L275.207,1595.772 L280.838,1595.772 C284.236,1595.772 287,1598.516 287,1601.887 L287,1607 C287,1607.553 286.552,1608 286,1608 L286,1608 Z" id="Fill-1315" fill="#314E55" sketch:type="MSShapeGroup"></path>
            </g>
        </g>
    </g>
</svg>