<?xml version="1.0" encoding="UTF-8" standalone="no"?>
<svg width="60px" height="60px" viewBox="0 0 60 60" version="1.1" xmlns="http://www.w3.org/2000/svg" xmlns:xlink="http://www.w3.org/1999/xlink" xmlns:sketch="http://www.bohemiancoding.com/sketch/ns">
    <!-- Generator: Sketch 3.3.3 (12081) - http://www.bohemiancoding.com/sketch -->
    <title>Malesearch</title>
    <desc>Created with Sketch.</desc>
    <defs>
        <path id="path-1" d="M2.118,9.201 L2.118,6.558 C2.118,2.936 5.051,0 8.669,0 L22,0 L22,9.222 C23.139,9.443 24,10.453 24,11.653 L24,12.347 C24,13.563 23.133,14.575 21.974,14.784 C21.606,19.935 17.308,24 12.059,24 C6.817,24 2.523,19.936 2.145,14.802 C0.934,14.641 0,13.598 0,12.347 L0,11.653 C0,10.405 0.913,9.372 2.118,9.201 L2.118,9.201 Z"></path>
        <path id="path-3" d="M4.5,9 C6.985,9 9,6.985 9,4.5 C9,2.015 6.985,0 4.5,0 C2.015,0 0,2.015 0,4.5 C0,6.985 2.015,9 4.5,9 L4.5,9 Z"></path>
    </defs>
    <g id="outlined" stroke="none" stroke-width="1" fill="none" fill-rule="evenodd" sketch:type="MSPage">
        <g id="Interface_sliced" sketch:type="MSLayerGroup" transform="translate(-480.000000, -1800.000000)">
            <g id="Imported-Layers" transform="translate(2.000000, 4.000000)">
                <path d="M508,1855 C492.56,1855 480,1842.439 480,1827 C480,1811.56 492.56,1799 508,1799 C508.553,1799 509,1799.447 509,1800 C509,1800.553 508.553,1801 508,1801 C493.663,1801 482,1812.663 482,1827 C482,1841.337 493.663,1853 508,1853 C522.337,1853 534,1841.337 534,1827 C534,1826.447 534.447,1826 535,1826 C535.553,1826 536,1826.447 536,1827 C536,1842.439 523.44,1855 508,1855" id="Fill-1465" fill="#314E55" sketch:type="MSShapeGroup"></path>
                <g id="Group-1468" transform="translate(496.000000, 1808.000000)">
                    <mask id="mask-2" sketch:name="Clip 1467" fill="white">
                        <use xlink:href="#path-1"></use>
                    </mask>
                    <g id="Clip-1467"></g>
                    <path d="M0,0 L24,0 L24,24 L0,24 L0,0 Z" id="Fill-1466" fill="#73C9C9" sketch:type="MSShapeGroup" mask="url(#mask-2)"></path>
                </g>
                <path d="M508.059,1833 C502.601,1833 497.974,1828.922 497.224,1823.592 C495.914,1823.084 495,1821.806 495,1820.347 L495,1819.653 C495,1818.237 495.866,1816.985 497.117,1816.451 L497.117,1814.559 C497.117,1810.391 500.505,1807 504.669,1807 L518,1807 C518.553,1807 519,1807.447 519,1808 L519,1816.504 C520.195,1817.065 521,1818.282 521,1819.653 L521,1820.347 C521,1821.765 520.152,1823.008 518.9,1823.544 C518.173,1828.899 513.538,1833 508.059,1833 L508.059,1833 Z M504.669,1809 C501.607,1809 499.117,1811.493 499.117,1814.559 L499.117,1817.201 C499.117,1817.699 498.751,1818.121 498.258,1818.191 C497.529,1818.295 497,1818.909 497,1819.653 L497,1820.347 C497,1821.085 497.549,1821.714 498.275,1821.81 C498.745,1821.873 499.107,1822.256 499.142,1822.728 C499.483,1827.366 503.4,1831 508.059,1831 C512.727,1831 516.644,1827.359 516.977,1822.713 C517.01,1822.257 517.348,1821.881 517.797,1821.8 C518.494,1821.674 519,1821.063 519,1820.347 L519,1819.653 C519,1818.947 518.499,1818.338 517.809,1818.203 C517.339,1818.112 517,1817.7 517,1817.222 L517,1809 L504.669,1809 L504.669,1809 Z" id="Fill-1469" fill="#314E55" sketch:type="MSShapeGroup"></path>
                <path d="M490,1848.113 C489.447,1848.113 489,1847.666 489,1847.113 L489,1842 C489,1838.624 491.93,1835.773 495.398,1835.773 L500.342,1835.773 L502.405,1831.56 C502.648,1831.065 503.246,1830.859 503.743,1831.102 C504.239,1831.345 504.444,1831.944 504.202,1832.439 L501.864,1837.212 C501.696,1837.555 501.348,1837.772 500.966,1837.772 L495.398,1837.772 C493.056,1837.772 491,1839.748 491,1842 L491,1847.113 C491,1847.666 490.553,1848.113 490,1848.113 L490,1848.113 Z M526,1848 C525.447,1848 525,1847.553 525,1847 L525,1841.887 C525,1839.618 523.133,1837.772 520.838,1837.772 L514.583,1837.772 C514.201,1837.772 513.852,1837.555 513.685,1837.212 L511.347,1832.439 C511.104,1831.944 511.31,1831.345 511.806,1831.102 C512.3,1830.858 512.9,1831.065 513.144,1831.56 L515.207,1835.773 L520.838,1835.773 C524.235,1835.773 527,1838.516 527,1841.887 L527,1847 C527,1847.553 526.553,1848 526,1848 L526,1848 Z" id="Fill-1470" fill="#314E55" sketch:type="MSShapeGroup"></path>
                <g id="Group-1473" transform="translate(523.000000, 1801.000000)">
                    <mask id="mask-4" sketch:name="Clip 1472" fill="white">
                        <use xlink:href="#path-3"></use>
                    </mask>
                    <g id="Clip-1472"></g>
                    <path d="M0,0 L9,0 L9,9 L0,9 L0,0 Z" id="Fill-1471" fill="#73C9C9" sketch:type="MSShapeGroup" mask="url(#mask-4)"></path>
                </g>
                <path d="M527.5,1811 C524.468,1811 522,1808.532 522,1805.5 C522,1802.468 524.468,1800 527.5,1800 C530.532,1800 533,1802.468 533,1805.5 C533,1808.532 530.532,1811 527.5,1811 L527.5,1811 Z M527.5,1802 C525.57,1802 524,1803.57 524,1805.5 C524,1807.43 525.57,1809 527.5,1809 C529.43,1809 531,1807.43 531,1805.5 C531,1803.57 529.43,1802 527.5,1802 L527.5,1802 Z" id="Fill-1474" fill="#314E55" sketch:type="MSShapeGroup"></path>
                <path d="M535.527,1814.941 L529.586,1809 L531,1807.586 L536.941,1813.527 L535.527,1814.941" id="Fill-1475" fill="#314E55" sketch:type="MSShapeGroup"></path>
            </g>
        </g>
    </g>
</svg>