<?xml version="1.0" encoding="UTF-8" standalone="no"?>
<svg width="60px" height="60px" viewBox="0 0 60 60" version="1.1" xmlns="http://www.w3.org/2000/svg" xmlns:xlink="http://www.w3.org/1999/xlink" xmlns:sketch="http://www.bohemiancoding.com/sketch/ns">
    <!-- Generator: Sketch 3.3.3 (12081) - http://www.bohemiancoding.com/sketch -->
    <title>Malelock</title>
    <desc>Created with Sketch.</desc>
    <defs>
        <path id="path-1" d="M2.118,9.201 L2.118,6.558 C2.118,2.936 5.051,0 8.669,0 L22,0 L22,9.222 C23.139,9.443 24,10.453 24,11.653 L24,12.347 C24,13.563 23.133,14.575 21.974,14.784 C21.606,19.935 17.308,24 12.059,24 C6.817,24 2.523,19.936 2.145,14.802 C0.934,14.641 0,13.598 0,12.347 L0,11.653 C0,10.405 0.913,9.372 2.118,9.201 L2.118,9.201 Z"></path>
    </defs>
    <g id="outlined" stroke="none" stroke-width="1" fill="none" fill-rule="evenodd" sketch:type="MSPage">
        <g id="Interface_sliced" sketch:type="MSLayerGroup" transform="translate(-480.000000, -1680.000000)">
            <g id="Imported-Layers" transform="translate(2.000000, 4.000000)">
                <path d="M508,1735 C492.56,1735 480,1722.439 480,1707 C480,1691.56 492.56,1679 508,1679 C508.553,1679 509,1679.447 509,1680 C509,1680.553 508.553,1681 508,1681 C493.663,1681 482,1692.663 482,1707 C482,1721.337 493.663,1733 508,1733 C522.337,1733 534,1721.337 534,1707 C534,1706.447 534.447,1706 535,1706 C535.553,1706 536,1706.447 536,1707 C536,1722.439 523.44,1735 508,1735" id="Fill-1385" fill="#314E55" sketch:type="MSShapeGroup"></path>
                <g id="Group-1388" transform="translate(496.000000, 1688.000000)">
                    <mask id="mask-2" sketch:name="Clip 1387" fill="white">
                        <use xlink:href="#path-1"></use>
                    </mask>
                    <g id="Clip-1387"></g>
                    <path d="M0,0 L24,0 L24,24 L0,24 L0,0 Z" id="Fill-1386" fill="#73C9C9" sketch:type="MSShapeGroup" mask="url(#mask-2)"></path>
                </g>
                <path d="M508.059,1713 C502.601,1713 497.974,1708.922 497.224,1703.592 C495.914,1703.084 495,1701.806 495,1700.347 L495,1699.653 C495,1698.237 495.866,1696.985 497.117,1696.451 L497.117,1694.559 C497.117,1690.391 500.505,1687 504.669,1687 L518,1687 C518.553,1687 519,1687.447 519,1688 L519,1696.504 C520.195,1697.065 521,1698.282 521,1699.653 L521,1700.347 C521,1701.765 520.152,1703.008 518.9,1703.544 C518.173,1708.899 513.538,1713 508.059,1713 L508.059,1713 Z M504.669,1689 C501.607,1689 499.117,1691.493 499.117,1694.559 L499.117,1697.201 C499.117,1697.699 498.751,1698.121 498.258,1698.191 C497.529,1698.295 497,1698.909 497,1699.653 L497,1700.347 C497,1701.085 497.549,1701.714 498.275,1701.81 C498.745,1701.873 499.107,1702.256 499.142,1702.729 C499.483,1707.366 503.4,1711 508.059,1711 C512.727,1711 516.644,1707.359 516.977,1702.713 C517.01,1702.257 517.348,1701.881 517.797,1701.8 C518.494,1701.674 519,1701.063 519,1700.347 L519,1699.653 C519,1698.947 518.499,1698.338 517.809,1698.203 C517.339,1698.112 517,1697.7 517,1697.222 L517,1689 L504.669,1689 L504.669,1689 Z" id="Fill-1389" fill="#314E55" sketch:type="MSShapeGroup"></path>
                <path d="M490,1728.113 C489.447,1728.113 489,1727.666 489,1727.113 L489,1722 C489,1718.624 491.93,1715.772 495.398,1715.772 L500.342,1715.772 L502.405,1711.56 C502.648,1711.064 503.246,1710.858 503.743,1711.102 C504.239,1711.345 504.444,1711.944 504.202,1712.44 L501.864,1717.212 C501.696,1717.555 501.348,1717.772 500.966,1717.772 L495.398,1717.772 C493.056,1717.772 491,1719.748 491,1722 L491,1727.113 C491,1727.666 490.553,1728.113 490,1728.113 L490,1728.113 Z M526,1728 C525.447,1728 525,1727.553 525,1727 L525,1721.887 C525,1719.618 523.133,1717.772 520.838,1717.772 L514.583,1717.772 C514.201,1717.772 513.852,1717.555 513.685,1717.212 L511.347,1712.44 C511.104,1711.944 511.31,1711.345 511.806,1711.102 C512.3,1710.857 512.9,1711.064 513.144,1711.56 L515.207,1715.772 L520.838,1715.772 C524.235,1715.772 527,1718.516 527,1721.887 L527,1727 C527,1727.553 526.553,1728 526,1728 L526,1728 Z" id="Fill-1390" fill="#314E55" sketch:type="MSShapeGroup"></path>
                <path d="M525,1688 L535,1688 L535,1695 L525,1695 L525,1688 Z" id="Fill-1391" fill="#D8D8D8" sketch:type="MSShapeGroup"></path>
                <path d="M535,1696 L525,1696 C524.447,1696 524,1695.553 524,1695 L524,1688 C524,1687.447 524.447,1687 525,1687 L535,1687 C535.553,1687 536,1687.447 536,1688 L536,1695 C536,1695.553 535.553,1696 535,1696 L535,1696 Z M526,1694 L534,1694 L534,1689 L526,1689 L526,1694 Z" id="Fill-1393" fill="#314E55" sketch:type="MSShapeGroup"></path>
                <path d="M533,1689 L527,1689 C526.447,1689 526,1688.553 526,1688 L526,1685 C526,1682.794 527.794,1681 530,1681 C532.206,1681 534,1682.794 534,1685 L534,1688 C534,1688.553 533.553,1689 533,1689 L533,1689 Z M528,1687 L532,1687 L532,1685 C532,1683.897 531.102,1683 530,1683 C528.898,1683 528,1683.897 528,1685 L528,1687 L528,1687 Z" id="Fill-1394" fill="#314E55" sketch:type="MSShapeGroup"></path>
            </g>
        </g>
    </g>
</svg>