<?xml version="1.0" encoding="UTF-8" standalone="no"?>
<svg width="60px" height="60px" viewBox="0 0 60 60" version="1.1" xmlns="http://www.w3.org/2000/svg" xmlns:xlink="http://www.w3.org/1999/xlink" xmlns:sketch="http://www.bohemiancoding.com/sketch/ns">
    <!-- Generator: Sketch 3.3.3 (12081) - http://www.bohemiancoding.com/sketch -->
    <title>Maleadd</title>
    <desc>Created with Sketch.</desc>
    <defs>
        <path id="path-1" d="M2.118,9.201 L2.118,6.558 C2.118,2.936 5.051,0 8.669,0 L22,0 L22,9.222 C23.139,9.443 24,10.453 24,11.653 L24,12.347 C24,13.563 23.133,14.575 21.974,14.784 C21.606,19.935 17.308,24 12.059,24 C6.817,24 2.523,19.936 2.145,14.802 C0.934,14.641 0,13.598 0,12.347 L0,11.653 C0,10.405 0.913,9.372 2.118,9.201 L2.118,9.201 Z"></path>
    </defs>
    <g id="outlined" stroke="none" stroke-width="1" fill="none" fill-rule="evenodd" sketch:type="MSPage">
        <g id="Interface_sliced" sketch:type="MSLayerGroup" transform="translate(-480.000000, -1560.000000)">
            <g id="Imported-Layers" transform="translate(2.000000, 4.000000)">
                <path d="M508,1615 C492.56,1615 480,1602.439 480,1587 C480,1571.56 492.56,1559 508,1559 C508.553,1559 509,1559.447 509,1560 C509,1560.553 508.553,1561 508,1561 C493.663,1561 482,1572.663 482,1587 C482,1601.337 493.663,1613 508,1613 C522.337,1613 534,1601.337 534,1587 C534,1586.447 534.447,1586 535,1586 C535.553,1586 536,1586.447 536,1587 C536,1602.439 523.44,1615 508,1615" id="Fill-1325" fill="#314E55" sketch:type="MSShapeGroup"></path>
                <g id="Group-1328" transform="translate(496.000000, 1568.000000)">
                    <mask id="mask-2" sketch:name="Clip 1327" fill="white">
                        <use xlink:href="#path-1"></use>
                    </mask>
                    <g id="Clip-1327"></g>
                    <path d="M0,0 L24,0 L24,24 L0,24 L0,0 Z" id="Fill-1326" fill="#73C9C9" sketch:type="MSShapeGroup" mask="url(#mask-2)"></path>
                </g>
                <path d="M508.059,1593 C502.601,1593 497.974,1588.922 497.224,1583.592 C495.914,1583.084 495,1581.806 495,1580.347 L495,1579.653 C495,1578.237 495.866,1576.985 497.117,1576.451 L497.117,1574.559 C497.117,1570.391 500.505,1567 504.669,1567 L518,1567 C518.553,1567 519,1567.447 519,1568 L519,1576.504 C520.195,1577.065 521,1578.282 521,1579.653 L521,1580.347 C521,1581.765 520.152,1583.008 518.9,1583.544 C518.173,1588.899 513.538,1593 508.059,1593 L508.059,1593 Z M504.669,1569 C501.607,1569 499.117,1571.493 499.117,1574.559 L499.117,1577.201 C499.117,1577.699 498.751,1578.121 498.258,1578.191 C497.529,1578.295 497,1578.909 497,1579.653 L497,1580.347 C497,1581.085 497.549,1581.714 498.275,1581.81 C498.745,1581.873 499.107,1582.256 499.142,1582.729 C499.483,1587.366 503.4,1591 508.059,1591 C512.727,1591 516.644,1587.359 516.977,1582.713 C517.01,1582.257 517.348,1581.881 517.797,1581.8 C518.494,1581.674 519,1581.063 519,1580.347 L519,1579.653 C519,1578.947 518.499,1578.338 517.809,1578.203 C517.339,1578.112 517,1577.7 517,1577.222 L517,1569 L504.669,1569 L504.669,1569 Z" id="Fill-1329" fill="#314E55" sketch:type="MSShapeGroup"></path>
                <path d="M490,1608.113 C489.447,1608.113 489,1607.666 489,1607.113 L489,1602 C489,1598.624 491.93,1595.772 495.398,1595.772 L500.342,1595.772 L502.405,1591.56 C502.648,1591.065 503.246,1590.859 503.743,1591.102 C504.239,1591.345 504.444,1591.944 504.202,1592.44 L501.864,1597.212 C501.696,1597.555 501.348,1597.772 500.966,1597.772 L495.398,1597.772 C493.056,1597.772 491,1599.748 491,1602 L491,1607.113 C491,1607.666 490.553,1608.113 490,1608.113 L490,1608.113 Z M526,1608 C525.447,1608 525,1607.553 525,1607 L525,1601.887 C525,1599.618 523.133,1597.772 520.838,1597.772 L514.583,1597.772 C514.201,1597.772 513.852,1597.555 513.685,1597.212 L511.347,1592.44 C511.104,1591.944 511.31,1591.345 511.806,1591.102 C512.3,1590.858 512.9,1591.064 513.144,1591.56 L515.207,1595.772 L520.838,1595.772 C524.235,1595.772 527,1598.516 527,1601.887 L527,1607 C527,1607.553 526.553,1608 526,1608 L526,1608 Z" id="Fill-1330" fill="#314E55" sketch:type="MSShapeGroup"></path>
                <path d="M530,1572 C529.447,1572 529,1571.553 529,1571 L529,1561 C529,1560.447 529.447,1560 530,1560 C530.553,1560 531,1560.447 531,1561 L531,1571 C531,1571.553 530.553,1572 530,1572" id="Fill-1331" fill="#314E55" sketch:type="MSShapeGroup"></path>
                <path d="M535,1567 L525,1567 C524.447,1567 524,1566.553 524,1566 C524,1565.447 524.447,1565 525,1565 L535,1565 C535.553,1565 536,1565.447 536,1566 C536,1566.553 535.553,1567 535,1567" id="Fill-1332" fill="#314E55" sketch:type="MSShapeGroup"></path>
            </g>
        </g>
    </g>
</svg>