<?xml version="1.0" encoding="UTF-8" standalone="no"?>
<svg width="60px" height="60px" viewBox="0 0 60 60" version="1.1" xmlns="http://www.w3.org/2000/svg" xmlns:xlink="http://www.w3.org/1999/xlink" xmlns:sketch="http://www.bohemiancoding.com/sketch/ns">
    <!-- Generator: Sketch 3.3.3 (12081) - http://www.bohemiancoding.com/sketch -->
    <title>MaleOK</title>
    <desc>Created with Sketch.</desc>
    <defs>
        <path id="path-1" d="M2.118,9.201 L2.118,6.558 C2.118,2.936 5.051,0 8.669,0 L22,0 L22,9.222 C23.139,9.443 24,10.453 24,11.653 L24,12.347 C24,13.563 23.133,14.575 21.974,14.784 C21.606,19.935 17.308,24 12.059,24 C6.817,24 2.523,19.936 2.145,14.802 C0.934,14.641 0,13.598 0,12.347 L0,11.653 C0,10.405 0.914,9.372 2.118,9.201 L2.118,9.201 Z"></path>
    </defs>
    <g id="outlined" stroke="none" stroke-width="1" fill="none" fill-rule="evenodd" sketch:type="MSPage">
        <g id="Interface_sliced" sketch:type="MSLayerGroup" transform="translate(-240.000000, -1680.000000)">
            <g id="Imported-Layers" transform="translate(2.000000, 4.000000)">
                <path d="M268,1735 C252.56,1735 240,1722.439 240,1707 C240,1691.56 252.56,1679 268,1679 C268.552,1679 269,1679.447 269,1680 C269,1680.553 268.552,1681 268,1681 C253.664,1681 242,1692.663 242,1707 C242,1721.337 253.664,1733 268,1733 C282.336,1733 294,1721.337 294,1707 C294,1706.447 294.448,1706 295,1706 C295.552,1706 296,1706.447 296,1707 C296,1722.439 283.44,1735 268,1735" id="Fill-1371" fill="#314E55" sketch:type="MSShapeGroup"></path>
                <g id="Group-1374" transform="translate(256.000000, 1688.000000)">
                    <mask id="mask-2" sketch:name="Clip 1373" fill="white">
                        <use xlink:href="#path-1"></use>
                    </mask>
                    <g id="Clip-1373"></g>
                    <path d="M0,0 L24,0 L24,24 L0,24 L0,0 Z" id="Fill-1372" fill="#73C9C9" sketch:type="MSShapeGroup" mask="url(#mask-2)"></path>
                </g>
                <path d="M268.059,1713 C262.6,1713 257.974,1708.922 257.224,1703.592 C255.914,1703.085 255,1701.806 255,1700.347 L255,1699.653 C255,1698.237 255.866,1696.985 257.118,1696.451 L257.118,1694.559 C257.118,1690.391 260.505,1687 264.669,1687 L278,1687 C278.552,1687 279,1687.447 279,1688 L279,1696.504 C280.196,1697.065 281,1698.283 281,1699.653 L281,1700.347 C281,1701.764 280.152,1703.008 278.901,1703.544 C278.173,1708.899 273.539,1713 268.059,1713 L268.059,1713 Z M264.669,1689 C261.608,1689 259.118,1691.493 259.118,1694.559 L259.118,1697.201 C259.118,1697.699 258.751,1698.121 258.258,1698.191 C257.529,1698.295 257,1698.909 257,1699.653 L257,1700.347 C257,1701.085 257.548,1701.714 258.276,1701.81 C258.746,1701.872 259.107,1702.256 259.142,1702.729 C259.483,1707.366 263.4,1711 268.059,1711 C272.727,1711 276.644,1707.359 276.977,1702.713 C277.01,1702.257 277.347,1701.881 277.797,1701.8 C278.494,1701.674 279,1701.063 279,1700.347 L279,1699.653 C279,1698.947 278.499,1698.338 277.809,1698.203 C277.339,1698.112 277,1697.7 277,1697.222 L277,1689 L264.669,1689 L264.669,1689 Z" id="Fill-1375" fill="#314E55" sketch:type="MSShapeGroup"></path>
                <path d="M250,1728.113 C249.448,1728.113 249,1727.666 249,1727.113 L249,1722 C249,1718.624 251.93,1715.772 255.399,1715.772 L260.342,1715.772 L262.406,1711.56 C262.649,1711.065 263.248,1710.858 263.744,1711.102 C264.24,1711.345 264.445,1711.944 264.202,1712.44 L261.864,1717.213 C261.696,1717.556 261.348,1717.772 260.966,1717.772 L255.399,1717.772 C253.056,1717.772 251,1719.748 251,1722 L251,1727.113 C251,1727.666 250.552,1728.113 250,1728.113 L250,1728.113 Z M286,1728 C285.448,1728 285,1727.553 285,1727 L285,1721.887 C285,1719.618 283.133,1717.772 280.838,1717.772 L274.583,1717.772 C274.202,1717.772 273.853,1717.556 273.685,1717.213 L271.347,1712.44 C271.104,1711.944 271.309,1711.345 271.805,1711.102 C272.303,1710.857 272.9,1711.064 273.143,1711.56 L275.207,1715.772 L280.838,1715.772 C284.236,1715.772 287,1718.516 287,1721.887 L287,1727 C287,1727.553 286.552,1728 286,1728 L286,1728 Z" id="Fill-1376" fill="#314E55" sketch:type="MSShapeGroup"></path>
                <path d="M289.5,1694 C289.32,1694 289.143,1693.951 288.985,1693.857 L283.985,1690.857 C283.512,1690.573 283.358,1689.959 283.643,1689.485 C283.926,1689.012 284.54,1688.857 285.015,1689.143 L289.088,1691.587 L293.105,1683.553 C293.352,1683.06 293.953,1682.859 294.447,1683.105 C294.941,1683.352 295.142,1683.953 294.894,1684.447 L290.394,1693.447 C290.27,1693.696 290.047,1693.882 289.78,1693.96 C289.688,1693.987 289.594,1694 289.5,1694" id="Fill-1377" fill="#314E55" sketch:type="MSShapeGroup"></path>
            </g>
        </g>
    </g>
</svg>