<?xml version="1.0" encoding="UTF-8" standalone="no"?>
<svg width="60px" height="60px" viewBox="0 0 60 60" version="1.1" xmlns="http://www.w3.org/2000/svg" xmlns:xlink="http://www.w3.org/1999/xlink" xmlns:sketch="http://www.bohemiancoding.com/sketch/ns">
    <!-- Generator: Sketch 3.3.3 (12081) - http://www.bohemiancoding.com/sketch -->
    <title>Maleprofile</title>
    <desc>Created with Sketch.</desc>
    <defs>
        <path id="path-1" d="M2.118,9.201 L2.118,6.558 C2.118,2.936 5.051,0 8.669,0 L22,0 L22,9.222 C23.139,9.443 24,10.453 24,11.653 L24,12.347 C24,13.563 23.133,14.575 21.974,14.784 C21.606,19.935 17.308,24 12.059,24 C6.817,24 2.523,19.936 2.145,14.802 C0.934,14.641 0,13.598 0,12.347 L0,11.653 C0,10.405 0.913,9.372 2.118,9.201 L2.118,9.201 Z"></path>
    </defs>
    <g id="outlined" stroke="none" stroke-width="1" fill="none" fill-rule="evenodd" sketch:type="MSPage">
        <g id="Interface_sliced" sketch:type="MSLayerGroup" transform="translate(-720.000000, -1800.000000)">
            <g id="Imported-Layers" transform="translate(2.000000, 4.000000)">
                <path d="M776,1849 L720,1849 C719.447,1849 719,1848.553 719,1848 L719,1803 C719,1802.447 719.447,1802 720,1802 L776,1802 C776.553,1802 777,1802.447 777,1803 L777,1848 C777,1848.553 776.553,1849 776,1849 L776,1849 Z M721,1847 L775,1847 L775,1804 L721,1804 L721,1847 Z" id="Fill-1487" fill="#314E55" sketch:type="MSShapeGroup"></path>
                <g id="Group-1490" transform="translate(729.000000, 1809.000000)">
                    <mask id="mask-2" sketch:name="Clip 1489" fill="white">
                        <use xlink:href="#path-1"></use>
                    </mask>
                    <g id="Clip-1489"></g>
                    <path d="M0,0 L24,0 L24,24 L0,24 L0,0 Z" id="Fill-1488" fill="#81A4E3" sketch:type="MSShapeGroup" mask="url(#mask-2)"></path>
                </g>
                <path d="M741.059,1834 C735.601,1834 730.974,1829.922 730.224,1824.592 C728.914,1824.084 728,1822.806 728,1821.347 L728,1820.653 C728,1819.237 728.866,1817.985 730.117,1817.451 L730.117,1815.559 C730.117,1811.391 733.505,1808 737.669,1808 L751,1808 C751.553,1808 752,1808.447 752,1809 L752,1817.504 C753.195,1818.065 754,1819.282 754,1820.653 L754,1821.347 C754,1822.765 753.152,1824.008 751.9,1824.544 C751.173,1829.899 746.538,1834 741.059,1834 L741.059,1834 Z M737.669,1810 C734.607,1810 732.117,1812.493 732.117,1815.559 L732.117,1818.201 C732.117,1818.699 731.751,1819.121 731.258,1819.191 C730.529,1819.295 730,1819.909 730,1820.653 L730,1821.347 C730,1822.085 730.549,1822.714 731.275,1822.81 C731.745,1822.873 732.107,1823.256 732.142,1823.729 C732.483,1828.366 736.4,1832 741.059,1832 C745.727,1832 749.644,1828.359 749.977,1823.713 C750.01,1823.257 750.348,1822.881 750.797,1822.8 C751.494,1822.674 752,1822.063 752,1821.347 L752,1820.653 C752,1819.947 751.499,1819.338 750.809,1819.203 C750.339,1819.112 750,1818.7 750,1818.222 L750,1810 L737.669,1810 L737.669,1810 Z" id="Fill-1491" fill="#314E55" sketch:type="MSShapeGroup"></path>
                <path d="M759,1849 C758.447,1849 758,1848.553 758,1848 L758,1842.887 C758,1840.618 756.133,1838.773 753.838,1838.773 L747.583,1838.773 C747.201,1838.773 746.852,1838.555 746.685,1838.212 L744.347,1833.439 C744.104,1832.944 744.31,1832.345 744.806,1832.102 C745.299,1831.857 745.9,1832.064 746.144,1832.56 L748.207,1836.772 L753.838,1836.772 C757.235,1836.772 760,1839.516 760,1842.887 L760,1848 C760,1848.553 759.553,1849 759,1849 L759,1849 Z M723,1848.5 C722.447,1848.5 722,1848.053 722,1847.5 L722,1843 C722,1839.624 724.93,1836.772 728.398,1836.772 L733.342,1836.772 L735.405,1832.56 C735.649,1832.064 736.247,1831.858 736.743,1832.102 C737.239,1832.345 737.444,1832.944 737.202,1833.439 L734.864,1838.212 C734.696,1838.555 734.348,1838.773 733.966,1838.773 L728.398,1838.773 C726.056,1838.773 724,1840.748 724,1843 L724,1847.5 C724,1848.053 723.553,1848.5 723,1848.5 L723,1848.5 Z" id="Fill-1492" fill="#314E55" sketch:type="MSShapeGroup"></path>
                <path d="M756.358,1811 L772,1811 L772,1813 L756.358,1813 L756.358,1811 Z" id="Fill-1493" fill="#314E55" sketch:type="MSShapeGroup"></path>
                <path d="M756.358,1815 L772,1815 L772,1817 L756.358,1817 L756.358,1815 Z" id="Fill-1494" fill="#314E55" sketch:type="MSShapeGroup"></path>
                <path d="M756.358,1819 L768,1819 L768,1821 L756.358,1821 L756.358,1819 Z" id="Fill-1495" fill="#314E55" sketch:type="MSShapeGroup"></path>
            </g>
        </g>
    </g>
</svg>