<?xml version="1.0" encoding="UTF-8" standalone="no"?>
<svg width="60px" height="60px" viewBox="0 0 60 60" version="1.1" xmlns="http://www.w3.org/2000/svg" xmlns:xlink="http://www.w3.org/1999/xlink" xmlns:sketch="http://www.bohemiancoding.com/sketch/ns">
    <!-- Generator: Sketch 3.3.3 (12081) - http://www.bohemiancoding.com/sketch -->
    <title>Maleunlock</title>
    <desc>Created with Sketch.</desc>
    <defs>
        <path id="path-1" d="M2.118,9.201 L2.118,6.558 C2.118,2.936 5.051,0 8.669,0 L22,0 L22,9.222 C23.139,9.443 24,10.453 24,11.653 L24,12.347 C24,13.563 23.133,14.575 21.974,14.784 C21.606,19.935 17.308,24 12.059,24 C6.817,24 2.523,19.936 2.145,14.802 C0.934,14.641 0,13.598 0,12.347 L0,11.653 C0,10.405 0.913,9.372 2.118,9.201 L2.118,9.201 Z"></path>
    </defs>
    <g id="outlined" stroke="none" stroke-width="1" fill="none" fill-rule="evenodd" sketch:type="MSPage">
        <g id="Interface_sliced" sketch:type="MSLayerGroup" transform="translate(-720.000000, -1680.000000)">
            <g id="Imported-Layers" transform="translate(2.000000, 4.000000)">
                <path d="M748,1735 C732.56,1735 720,1722.439 720,1707 C720,1691.56 732.56,1679 748,1679 C748.553,1679 749,1679.447 749,1680 C749,1680.553 748.553,1681 748,1681 C733.663,1681 722,1692.663 722,1707 C722,1721.337 733.663,1733 748,1733 C762.337,1733 774,1721.337 774,1707 C774,1706.447 774.447,1706 775,1706 C775.553,1706 776,1706.447 776,1707 C776,1722.439 763.44,1735 748,1735" id="Fill-1405" fill="#314E55" sketch:type="MSShapeGroup"></path>
                <g id="Group-1408" transform="translate(736.000000, 1688.000000)">
                    <mask id="mask-2" sketch:name="Clip 1407" fill="white">
                        <use xlink:href="#path-1"></use>
                    </mask>
                    <g id="Clip-1407"></g>
                    <path d="M0,0 L24,0 L24,24 L0,24 L0,0 Z" id="Fill-1406" fill="#73C9C9" sketch:type="MSShapeGroup" mask="url(#mask-2)"></path>
                </g>
                <path d="M748.059,1713 C742.601,1713 737.974,1708.922 737.224,1703.592 C735.914,1703.084 735,1701.806 735,1700.347 L735,1699.653 C735,1698.237 735.866,1696.985 737.117,1696.451 L737.117,1694.559 C737.117,1690.391 740.505,1687 744.669,1687 L758,1687 C758.553,1687 759,1687.447 759,1688 L759,1696.504 C760.195,1697.065 761,1698.282 761,1699.653 L761,1700.347 C761,1701.765 760.152,1703.008 758.9,1703.544 C758.173,1708.899 753.538,1713 748.059,1713 L748.059,1713 Z M744.669,1689 C741.607,1689 739.117,1691.493 739.117,1694.559 L739.117,1697.201 C739.117,1697.699 738.751,1698.121 738.258,1698.191 C737.529,1698.295 737,1698.909 737,1699.653 L737,1700.347 C737,1701.085 737.549,1701.714 738.275,1701.81 C738.745,1701.873 739.107,1702.256 739.142,1702.729 C739.483,1707.366 743.4,1711 748.059,1711 C752.727,1711 756.644,1707.359 756.977,1702.713 C757.01,1702.257 757.348,1701.881 757.797,1701.8 C758.494,1701.674 759,1701.063 759,1700.347 L759,1699.653 C759,1698.947 758.499,1698.338 757.809,1698.203 C757.339,1698.112 757,1697.7 757,1697.222 L757,1689 L744.669,1689 L744.669,1689 Z" id="Fill-1409" fill="#314E55" sketch:type="MSShapeGroup"></path>
                <path d="M730,1728.113 C729.447,1728.113 729,1727.666 729,1727.113 L729,1722 C729,1718.624 731.93,1715.772 735.398,1715.772 L740.342,1715.772 L742.405,1711.56 C742.648,1711.064 743.247,1710.858 743.743,1711.102 C744.239,1711.345 744.444,1711.944 744.202,1712.44 L741.864,1717.212 C741.696,1717.555 741.348,1717.772 740.966,1717.772 L735.398,1717.772 C733.056,1717.772 731,1719.748 731,1722 L731,1727.113 C731,1727.666 730.553,1728.113 730,1728.113 L730,1728.113 Z M766,1728 C765.447,1728 765,1727.553 765,1727 L765,1721.887 C765,1719.618 763.133,1717.772 760.838,1717.772 L754.583,1717.772 C754.201,1717.772 753.852,1717.555 753.685,1717.212 L751.347,1712.44 C751.104,1711.944 751.31,1711.345 751.806,1711.102 C752.3,1710.857 752.9,1711.064 753.144,1711.56 L755.207,1715.772 L760.838,1715.772 C764.235,1715.772 767,1718.516 767,1721.887 L767,1727 C767,1727.553 766.553,1728 766,1728 L766,1728 Z" id="Fill-1410" fill="#314E55" sketch:type="MSShapeGroup"></path>
                <path d="M765,1688 L775,1688 L775,1695 L765,1695 L765,1688 Z" id="Fill-1411" fill="#D8D8D8" sketch:type="MSShapeGroup"></path>
                <path d="M775,1696 L765,1696 C764.447,1696 764,1695.553 764,1695 L764,1688 C764,1687.447 764.447,1687 765,1687 L775,1687 C775.553,1687 776,1687.447 776,1688 L776,1695 C776,1695.553 775.553,1696 775,1696 L775,1696 Z M766,1694 L774,1694 L774,1689 L766,1689 L766,1694 Z" id="Fill-1413" fill="#314E55" sketch:type="MSShapeGroup"></path>
                <path d="M767,1689 C766.447,1689 766,1688.553 766,1688 L766,1685 C766,1682.794 767.794,1681 770,1681 C770.553,1681 771,1681.447 771,1682 C771,1682.553 770.553,1683 770,1683 C768.898,1683 768,1683.897 768,1685 L768,1688 C768,1688.553 767.553,1689 767,1689" id="Fill-1414" fill="#314E55" sketch:type="MSShapeGroup"></path>
            </g>
        </g>
    </g>
</svg>