<?xml version="1.0" encoding="UTF-8" standalone="no"?>
<svg width="60px" height="60px" viewBox="0 0 60 60" version="1.1" xmlns="http://www.w3.org/2000/svg" xmlns:xlink="http://www.w3.org/1999/xlink" xmlns:sketch="http://www.bohemiancoding.com/sketch/ns">
    <!-- Generator: Sketch 3.3.3 (12081) - http://www.bohemiancoding.com/sketch -->
    <title>Malelike</title>
    <desc>Created with Sketch.</desc>
    <defs>
        <path id="path-1" d="M2.118,9.201 L2.118,6.558 C2.118,2.936 5.051,0 8.669,0 L22,0 L22,9.222 C23.139,9.443 24,10.453 24,11.653 L24,12.347 C24,13.563 23.133,14.575 21.974,14.784 C21.606,19.935 17.308,24 12.059,24 C6.817,24 2.523,19.936 2.145,14.802 C0.934,14.641 0,13.598 0,12.347 L0,11.653 C0,10.405 0.914,9.372 2.118,9.201 L2.118,9.201 Z"></path>
        <path id="path-3" d="M6.5,1.293 C5.107,0.291 3.495,0.018 2.25,0.737 C0.337,1.841 0.017,4.869 1.536,7.5 C2.747,9.598 4.763,10.81 6.5,10.654 C8.237,10.81 10.252,9.598 11.464,7.5 C12.983,4.869 12.663,1.841 10.75,0.737 C9.505,0.018 7.893,0.291 6.5,1.293 L6.5,1.293 Z"></path>
    </defs>
    <g id="outlined" stroke="none" stroke-width="1" fill="none" fill-rule="evenodd" sketch:type="MSPage">
        <g id="Interface_sliced" sketch:type="MSLayerGroup" transform="translate(-240.000000, -1800.000000)">
            <g id="Imported-Layers" transform="translate(2.000000, 4.000000)">
                <path d="M268,1855 C252.56,1855 240,1842.439 240,1827 C240,1811.56 252.56,1799 268,1799 C268.552,1799 269,1799.447 269,1800 C269,1800.553 268.552,1801 268,1801 C253.664,1801 242,1812.663 242,1827 C242,1841.337 253.664,1853 268,1853 C282.336,1853 294,1841.337 294,1827 C294,1826.447 294.448,1826 295,1826 C295.552,1826 296,1826.447 296,1827 C296,1842.439 283.44,1855 268,1855" id="Fill-1445" fill="#314E55" sketch:type="MSShapeGroup"></path>
                <g id="Group-1448" transform="translate(256.000000, 1808.000000)">
                    <mask id="mask-2" sketch:name="Clip 1447" fill="white">
                        <use xlink:href="#path-1"></use>
                    </mask>
                    <g id="Clip-1447"></g>
                    <path d="M0,0 L24,0 L24,24 L0,24 L0,0 Z" id="Fill-1446" fill="#73C9C9" sketch:type="MSShapeGroup" mask="url(#mask-2)"></path>
                </g>
                <path d="M268.059,1833 C262.6,1833 257.974,1828.922 257.224,1823.592 C255.914,1823.085 255,1821.806 255,1820.347 L255,1819.653 C255,1818.237 255.866,1816.985 257.118,1816.451 L257.118,1814.559 C257.118,1810.391 260.505,1807 264.669,1807 L278,1807 C278.552,1807 279,1807.447 279,1808 L279,1816.504 C280.196,1817.065 281,1818.283 281,1819.653 L281,1820.347 C281,1821.764 280.152,1823.008 278.901,1823.544 C278.173,1828.899 273.539,1833 268.059,1833 L268.059,1833 Z M264.669,1809 C261.608,1809 259.118,1811.493 259.118,1814.559 L259.118,1817.201 C259.118,1817.699 258.751,1818.121 258.258,1818.191 C257.529,1818.295 257,1818.909 257,1819.653 L257,1820.347 C257,1821.085 257.548,1821.714 258.276,1821.81 C258.746,1821.872 259.107,1822.256 259.142,1822.728 C259.483,1827.366 263.4,1831 268.059,1831 C272.727,1831 276.644,1827.359 276.977,1822.713 C277.01,1822.257 277.347,1821.881 277.797,1821.8 C278.494,1821.674 279,1821.063 279,1820.347 L279,1819.653 C279,1818.947 278.499,1818.338 277.809,1818.203 C277.339,1818.112 277,1817.7 277,1817.222 L277,1809 L264.669,1809 L264.669,1809 Z" id="Fill-1449" fill="#314E55" sketch:type="MSShapeGroup"></path>
                <path d="M250,1848.113 C249.448,1848.113 249,1847.666 249,1847.113 L249,1842 C249,1838.624 251.93,1835.773 255.399,1835.773 L260.342,1835.773 L262.406,1831.56 C262.649,1831.065 263.248,1830.859 263.744,1831.102 C264.24,1831.345 264.445,1831.944 264.202,1832.44 L261.864,1837.213 C261.696,1837.556 261.348,1837.772 260.966,1837.772 L255.399,1837.772 C253.056,1837.772 251,1839.748 251,1842 L251,1847.113 C251,1847.666 250.552,1848.113 250,1848.113 L250,1848.113 Z M286,1848 C285.448,1848 285,1847.553 285,1847 L285,1841.887 C285,1839.618 283.133,1837.772 280.838,1837.772 L274.583,1837.772 C274.202,1837.772 273.853,1837.556 273.685,1837.213 L271.347,1832.44 C271.104,1831.944 271.309,1831.345 271.805,1831.102 C272.303,1830.858 272.9,1831.065 273.143,1831.56 L275.207,1835.773 L280.838,1835.773 C284.236,1835.773 287,1838.516 287,1841.887 L287,1847 C287,1847.553 286.552,1848 286,1848 L286,1848 Z" id="Fill-1450" fill="#314E55" sketch:type="MSShapeGroup"></path>
                <g id="Group-1453" transform="translate(282.000000, 1802.000000)">
                    <mask id="mask-4" sketch:name="Clip 1452" fill="white">
                        <use xlink:href="#path-3"></use>
                    </mask>
                    <g id="Clip-1452"></g>
                    <path d="M0.017,0.018 L12.983,0.018 L12.983,10.81 L0.017,10.81 L0.017,0.018 Z" id="Fill-1451" fill="#E65F58" sketch:type="MSShapeGroup" mask="url(#mask-4)"></path>
                </g>
                <path d="M288.803,1813.668 L288.803,1813.668 C288.702,1813.668 288.601,1813.664 288.5,1813.657 C286.366,1813.815 284.02,1812.338 282.67,1810 C281.831,1808.546 281.455,1806.927 281.611,1805.441 C281.781,1803.838 282.54,1802.569 283.75,1801.871 C285.116,1801.081 286.898,1801.179 288.5,1802.103 C290.1,1801.179 291.884,1801.081 293.25,1801.871 C294.46,1802.569 295.219,1803.838 295.389,1805.441 C295.545,1806.927 295.169,1808.546 294.33,1810 C293.044,1812.227 290.875,1813.668 288.803,1813.668 L288.803,1813.668 Z M288.5,1811.654 C288.53,1811.654 288.56,1811.655 288.59,1811.658 C289.975,1811.787 291.628,1810.681 292.598,1809 C293.227,1807.909 293.512,1806.72 293.399,1805.651 C293.299,1804.7 292.891,1803.974 292.25,1803.603 C291.403,1803.113 290.178,1803.319 289.084,1804.104 C288.735,1804.356 288.265,1804.356 287.916,1804.104 C286.822,1803.319 285.595,1803.112 284.75,1803.603 C284.109,1803.974 283.701,1804.7 283.601,1805.651 C283.488,1806.72 283.772,1807.909 284.402,1809 C285.372,1810.681 287.017,1811.785 288.41,1811.658 C288.44,1811.655 288.47,1811.654 288.5,1811.654 L288.5,1811.654 Z" id="Fill-1454" fill="#314E55" sketch:type="MSShapeGroup"></path>
            </g>
        </g>
    </g>
</svg>