<?xml version="1.0" encoding="UTF-8" standalone="no"?>
<svg width="60px" height="60px" viewBox="0 0 60 60" version="1.1" xmlns="http://www.w3.org/2000/svg" xmlns:xlink="http://www.w3.org/1999/xlink" xmlns:sketch="http://www.bohemiancoding.com/sketch/ns">
    <!-- Generator: Sketch 3.3.3 (12081) - http://www.bohemiancoding.com/sketch -->
    <title>Mergediff</title>
    <desc>Created with Sketch.</desc>
    <defs>
        <path id="path-1" d="M33,17 L33,0 L0,0 L0,33 L17,33 L17,17 L33,17 L33,17 Z"></path>
        <path id="path-3" d="M16,0 L33,0 L33,33 L0,33 L0,16 L16,16 L16,0 L16,0 Z"></path>
        <path id="path-5" d="M10.513,0.487 L0.938,10.062 L10.513,0.487 Z"></path>
        <path id="path-7" d="M10.513,0.487 L0.938,10.062 L10.513,0.487 Z"></path>
        <path id="path-9" d="M20.506,0.494 L0.493,20.507 L20.506,0.494 Z"></path>
        <path id="path-11" d="M20.506,0.494 L0.493,20.507 L20.506,0.494 Z"></path>
        <path id="path-13" d="M32.504,0.496 L0.493,32.507 L32.504,0.496 Z"></path>
        <path id="path-15" d="M32.504,0.496 L0.493,32.507 L32.504,0.496 Z"></path>
        <path id="path-17" d="M5,0 L0,5 L5,0 Z"></path>
        <path id="path-19" d="M5,0 L0,5 L5,0 Z"></path>
        <path id="path-21" d="M5,0 L0,5 L5,0 Z"></path>
        <path id="path-23" d="M5,0 L0,5 L5,0 Z"></path>
    </defs>
    <g id="outlined" stroke="none" stroke-width="1" fill="none" fill-rule="evenodd" sketch:type="MSPage">
        <g id="Interface_sliced" sketch:type="MSLayerGroup" transform="translate(-840.000000, -480.000000)">
            <g id="Imported-Layers" transform="translate(2.000000, 4.000000)">
                <g id="Group-493" transform="translate(845.000000, 480.000000)">
                    <mask id="mask-2" sketch:name="Clip 492" fill="white">
                        <use xlink:href="#path-1"></use>
                    </mask>
                    <g id="Clip-492"></g>
                    <path d="M0,0 L33,0 L33,33 L0,33 L0,0 Z" id="Fill-491" fill="#5ECB66" sketch:type="MSShapeGroup" mask="url(#mask-2)"></path>
                </g>
                <path d="M862,514 L845,514 C844.447,514 844,513.552 844,513 L844,480 C844,479.448 844.447,479 845,479 L878,479 C878.553,479 879,479.448 879,480 L879,497 C879,497.552 878.553,498 878,498 L863,498 L863,513 C863,513.552 862.553,514 862,514 L862,514 Z M846,512 L861,512 L861,497 C861,496.448 861.447,496 862,496 L877,496 L877,481 L846,481 L846,512 L846,512 Z" id="Fill-494" fill="#314E55" sketch:type="MSShapeGroup"></path>
                <g id="Group-497" transform="translate(862.000000, 497.000000)">
                    <mask id="mask-4" sketch:name="Clip 496" fill="white">
                        <use xlink:href="#path-3"></use>
                    </mask>
                    <g id="Clip-496"></g>
                    <path d="M0,0 L33,0 L33,33 L0,33 L0,0 Z" id="Fill-495" fill="#73C9C9" sketch:type="MSShapeGroup" mask="url(#mask-4)"></path>
                </g>
                <path d="M895,531 L862,531 C861.447,531 861,530.552 861,530 L861,513 C861,512.448 861.447,512 862,512 L877,512 L877,497 C877,496.448 877.447,496 878,496 L895,496 C895.553,496 896,496.448 896,497 L896,530 C896,530.552 895.553,531 895,531 L895,531 Z M863,529 L894,529 L894,498 L879,498 L879,513 C879,513.552 878.553,514 878,514 L863,514 L863,529 L863,529 Z" id="Fill-498" fill="#314E55" sketch:type="MSShapeGroup"></path>
                <g id="Group-501" transform="translate(844.000000, 480.000000)">
                    <mask id="mask-6" sketch:name="Clip 500" fill="white">
                        <use xlink:href="#path-5"></use>
                    </mask>
                    <g id="Clip-500"></g>
                    <path d="M0.938,0.487 L10.513,0.487 L10.513,10.062 L0.938,10.062 L0.938,0.487 Z" id="Fill-499" fill="#D8D8D8" sketch:type="MSShapeGroup" mask="url(#mask-6)"></path>
                </g>
                <path d="M844.937,491.062 C844.682,491.062 844.426,490.965 844.231,490.77 C843.84,490.379 843.84,489.746 844.231,489.355 L853.806,479.78 C854.196,479.389 854.829,479.389 855.22,479.78 C855.61,480.17 855.61,480.803 855.22,481.194 L845.644,490.77 C845.449,490.965 845.193,491.062 844.937,491.062" id="Fill-502" fill="#314E55" sketch:type="MSShapeGroup"></path>
                <g id="Group-505" transform="translate(884.000000, 520.000000)">
                    <mask id="mask-8" sketch:name="Clip 504" fill="white">
                        <use xlink:href="#path-7"></use>
                    </mask>
                    <g id="Clip-504"></g>
                    <path d="M0.938,0.487 L10.513,0.487 L10.513,10.062 L0.938,10.062 L0.938,0.487 Z" id="Fill-503" fill="#D8D8D8" sketch:type="MSShapeGroup" mask="url(#mask-8)"></path>
                </g>
                <path d="M884.938,531.062 C884.682,531.062 884.426,530.965 884.23,530.77 C883.84,530.379 883.84,529.746 884.23,529.355 L893.806,519.78 C894.196,519.389 894.829,519.389 895.22,519.78 C895.61,520.17 895.61,520.803 895.22,521.194 L885.644,530.77 C885.449,530.965 885.193,531.062 884.938,531.062" id="Fill-506" fill="#314E55" sketch:type="MSShapeGroup"></path>
                <g id="Group-509" transform="translate(845.000000, 480.000000)">
                    <mask id="mask-10" sketch:name="Clip 508" fill="white">
                        <use xlink:href="#path-9"></use>
                    </mask>
                    <g id="Clip-508"></g>
                    <path d="M0.493,0.494 L20.507,0.494 L20.507,20.507 L0.493,20.507 L0.493,0.494 Z" id="Fill-507" fill="#D8D8D8" sketch:type="MSShapeGroup" mask="url(#mask-10)"></path>
                </g>
                <path d="M845.492,501.507 C845.236,501.507 844.981,501.41 844.785,501.214 C844.394,500.824 844.394,500.191 844.785,499.8 L864.799,479.787 C865.19,479.396 865.822,479.396 866.213,479.787 C866.604,480.177 866.604,480.81 866.213,481.201 L846.199,501.214 C846.004,501.41 845.748,501.507 845.492,501.507" id="Fill-510" fill="#314E55" sketch:type="MSShapeGroup"></path>
                <g id="Group-513" transform="translate(874.000000, 509.000000)">
                    <mask id="mask-12" sketch:name="Clip 512" fill="white">
                        <use xlink:href="#path-11"></use>
                    </mask>
                    <g id="Clip-512"></g>
                    <path d="M0.493,0.494 L20.507,0.494 L20.507,20.507 L0.493,20.507 L0.493,0.494 Z" id="Fill-511" fill="#D8D8D8" sketch:type="MSShapeGroup" mask="url(#mask-12)"></path>
                </g>
                <path d="M874.492,530.507 C874.236,530.507 873.98,530.41 873.785,530.214 C873.394,529.824 873.394,529.191 873.785,528.8 L893.799,508.787 C894.189,508.396 894.822,508.396 895.213,508.787 C895.604,509.177 895.604,509.81 895.213,510.201 L875.199,530.214 C875.004,530.41 874.748,530.507 874.492,530.507" id="Fill-514" fill="#314E55" sketch:type="MSShapeGroup"></path>
                <g id="Group-517" transform="translate(845.000000, 480.000000)">
                    <mask id="mask-14" sketch:name="Clip 516" fill="white">
                        <use xlink:href="#path-13"></use>
                    </mask>
                    <g id="Clip-516"></g>
                    <path d="M0.493,0.496 L32.504,0.496 L32.504,32.507 L0.493,32.507 L0.493,0.496 Z" id="Fill-515" fill="#D8D8D8" sketch:type="MSShapeGroup" mask="url(#mask-14)"></path>
                </g>
                <path d="M845.492,513.507 C845.236,513.507 844.981,513.41 844.785,513.214 C844.394,512.824 844.394,512.191 844.785,511.8 L876.797,479.789 C877.187,479.398 877.82,479.398 878.211,479.789 C878.602,480.18 878.602,480.813 878.211,481.203 L846.199,513.214 C846.004,513.41 845.748,513.507 845.492,513.507" id="Fill-518" fill="#314E55" sketch:type="MSShapeGroup"></path>
                <g id="Group-521" transform="translate(862.000000, 497.000000)">
                    <mask id="mask-16" sketch:name="Clip 520" fill="white">
                        <use xlink:href="#path-15"></use>
                    </mask>
                    <g id="Clip-520"></g>
                    <path d="M0.493,0.496 L32.504,0.496 L32.504,32.507 L0.493,32.507 L0.493,0.496 Z" id="Fill-519" fill="#D8D8D8" sketch:type="MSShapeGroup" mask="url(#mask-16)"></path>
                </g>
                <path d="M862.492,530.507 C862.236,530.507 861.98,530.41 861.785,530.214 C861.394,529.824 861.394,529.191 861.785,528.8 L893.797,496.789 C894.187,496.398 894.82,496.398 895.211,496.789 C895.602,497.18 895.602,497.812 895.211,498.203 L863.199,530.214 C863.004,530.41 862.748,530.507 862.492,530.507" id="Fill-522" fill="#314E55" sketch:type="MSShapeGroup"></path>
                <g id="Group-525" transform="translate(857.000000, 508.000000)">
                    <mask id="mask-18" sketch:name="Clip 524" fill="white">
                        <use xlink:href="#path-17"></use>
                    </mask>
                    <g id="Clip-524"></g>
                    <path d="M0,0 L5,0 L5,5 L0,5 L0,0 Z" id="Fill-523" fill="#D8D8D8" sketch:type="MSShapeGroup" mask="url(#mask-18)"></path>
                </g>
                <path d="M857,514 C856.744,514 856.488,513.902 856.293,513.707 C855.902,513.316 855.902,512.684 856.293,512.293 L861.293,507.293 C861.684,506.902 862.316,506.902 862.707,507.293 C863.098,507.684 863.098,508.316 862.707,508.707 L857.707,513.707 C857.512,513.902 857.256,514 857,514" id="Fill-526" fill="#314E55" sketch:type="MSShapeGroup"></path>
                <g id="Group-529" transform="translate(862.000000, 513.000000)">
                    <mask id="mask-20" sketch:name="Clip 528" fill="white">
                        <use xlink:href="#path-19"></use>
                    </mask>
                    <g id="Clip-528"></g>
                    <path d="M0,0 L5,0 L5,5 L0,5 L0,0 Z" id="Fill-527" fill="#D8D8D8" sketch:type="MSShapeGroup" mask="url(#mask-20)"></path>
                </g>
                <path d="M862,519 C861.744,519 861.488,518.902 861.293,518.707 C860.902,518.316 860.902,517.683 861.293,517.293 L866.293,512.293 C866.684,511.902 867.316,511.902 867.707,512.293 C868.098,512.684 868.098,513.316 867.707,513.707 L862.707,518.707 C862.512,518.902 862.256,519 862,519" id="Fill-530" fill="#314E55" sketch:type="MSShapeGroup"></path>
                <g id="Group-533" transform="translate(873.000000, 492.000000)">
                    <mask id="mask-22" sketch:name="Clip 532" fill="white">
                        <use xlink:href="#path-21"></use>
                    </mask>
                    <g id="Clip-532"></g>
                    <path d="M0,0 L5,0 L5,5 L0,5 L0,0 Z" id="Fill-531" fill="#D8D8D8" sketch:type="MSShapeGroup" mask="url(#mask-22)"></path>
                </g>
                <path d="M873,498 C872.744,498 872.488,497.902 872.293,497.707 C871.902,497.316 871.902,496.683 872.293,496.293 L877.293,491.293 C877.684,490.902 878.316,490.902 878.707,491.293 C879.098,491.684 879.098,492.316 878.707,492.707 L873.707,497.707 C873.512,497.902 873.256,498 873,498" id="Fill-534" fill="#314E55" sketch:type="MSShapeGroup"></path>
                <g id="Group-537" transform="translate(878.000000, 497.000000)">
                    <mask id="mask-24" sketch:name="Clip 536" fill="white">
                        <use xlink:href="#path-23"></use>
                    </mask>
                    <g id="Clip-536"></g>
                    <path d="M0,0 L5,0 L5,5 L0,5 L0,0 Z" id="Fill-535" fill="#D8D8D8" sketch:type="MSShapeGroup" mask="url(#mask-24)"></path>
                </g>
                <path d="M878,503 C877.744,503 877.488,502.902 877.293,502.707 C876.902,502.316 876.902,501.684 877.293,501.293 L882.293,496.293 C882.684,495.902 883.316,495.902 883.707,496.293 C884.098,496.683 884.098,497.316 883.707,497.707 L878.707,502.707 C878.512,502.902 878.256,503 878,503" id="Fill-538" fill="#314E55" sketch:type="MSShapeGroup"></path>
            </g>
        </g>
    </g>
</svg>