<?xml version="1.0" encoding="UTF-8" standalone="no"?>
<svg width="60px" height="60px" viewBox="0 0 60 60" version="1.1" xmlns="http://www.w3.org/2000/svg" xmlns:xlink="http://www.w3.org/1999/xlink" xmlns:sketch="http://www.bohemiancoding.com/sketch/ns">
    <!-- Generator: Sketch 3.3.3 (12081) - http://www.bohemiancoding.com/sketch -->
    <title>Merge</title>
    <desc>Created with Sketch.</desc>
    <defs>
        <path id="path-1" d="M16,0 L33,0 L33,33 L0,33 L0,16 L16,16 L16,0 L16,0 Z"></path>
    </defs>
    <g id="outlined" stroke="none" stroke-width="1" fill="none" fill-rule="evenodd" sketch:type="MSPage">
        <g id="Interface_sliced" sketch:type="MSLayerGroup" transform="translate(-720.000000, -480.000000)">
            <g id="Imported-Layers" transform="translate(2.000000, 4.000000)">
                <path d="M724,480 L757,480 L757,513 L724,513 L724,480 Z" id="Fill-484" fill="#5ECB66" sketch:type="MSShapeGroup"></path>
                <path d="M757,514 L724,514 C723.447,514 723,513.552 723,513 L723,480 C723,479.448 723.447,479 724,479 L757,479 C757.553,479 758,479.448 758,480 L758,513 C758,513.552 757.553,514 757,514 L757,514 Z M725,512 L756,512 L756,481 L725,481 L725,512 Z" id="Fill-486" fill="#314E55" sketch:type="MSShapeGroup"></path>
                <g id="Group-489" transform="translate(741.000000, 497.000000)">
                    <mask id="mask-2" sketch:name="Clip 488" fill="white">
                        <use xlink:href="#path-1"></use>
                    </mask>
                    <g id="Clip-488"></g>
                    <path d="M0,0 L33,0 L33,33 L0,33 L0,0 Z" id="Fill-487" fill="#73C9C9" sketch:type="MSShapeGroup" mask="url(#mask-2)"></path>
                </g>
                <path d="M774,531 L741,531 C740.447,531 740,530.552 740,530 L740,513 C740,512.448 740.447,512 741,512 L756,512 L756,497 C756,496.448 756.447,496 757,496 L774,496 C774.553,496 775,496.448 775,497 L775,530 C775,530.552 774.553,531 774,531 L774,531 Z M742,529 L773,529 L773,498 L758,498 L758,513 C758,513.552 757.553,514 757,514 L742,514 L742,529 L742,529 Z" id="Fill-490" fill="#314E55" sketch:type="MSShapeGroup"></path>
            </g>
        </g>
    </g>
</svg>