<?xml version="1.0" encoding="UTF-8" standalone="no"?>
<svg width="60px" height="60px" viewBox="0 0 60 60" version="1.1" xmlns="http://www.w3.org/2000/svg" xmlns:xlink="http://www.w3.org/1999/xlink" xmlns:sketch="http://www.bohemiancoding.com/sketch/ns">
    <!-- Generator: Sketch 3.3.3 (12081) - http://www.bohemiancoding.com/sketch -->
    <title>Minus</title>
    <desc>Created with Sketch.</desc>
    <defs>
        <path id="path-1" d="M26,52 C40.359,52 52,40.359 52,26 C52,11.641 40.359,0 26,0 C11.641,0 0,11.641 0,26 C0,40.359 11.641,52 26,52 L26,52 Z"></path>
    </defs>
    <g id="outlined" stroke="none" stroke-width="1" fill="none" fill-rule="evenodd" sketch:type="MSPage">
        <g id="Interface_sliced" sketch:type="MSLayerGroup" transform="translate(-120.000000, -1080.000000)">
            <g id="Imported-Layers" transform="translate(2.000000, 4.000000)">
                <g id="Group-943" transform="translate(122.000000, 1080.000000)">
                    <mask id="mask-2" sketch:name="Clip 942" fill="white">
                        <use xlink:href="#path-1"></use>
                    </mask>
                    <g id="Clip-942"></g>
                    <path d="M0,0 L52,0 L52,52 L0,52 L0,0 Z" id="Fill-941" fill="#F28544" sketch:type="MSShapeGroup" mask="url(#mask-2)"></path>
                </g>
                <path d="M148,1133 C133.112,1133 121,1120.888 121,1106 C121,1091.112 133.112,1079 148,1079 C162.888,1079 175,1091.112 175,1106 C175,1120.888 162.888,1133 148,1133 L148,1133 Z M148,1081 C134.215,1081 123,1092.215 123,1106 C123,1119.785 134.215,1131 148,1131 C161.785,1131 173,1119.785 173,1106 C173,1092.215 161.785,1081 148,1081 L148,1081 Z" id="Fill-944" fill="#314E55" sketch:type="MSShapeGroup"></path>
                <path d="M161,1107 L135,1107 C134.448,1107 134,1106.552 134,1106 C134,1105.448 134.448,1105 135,1105 L161,1105 C161.552,1105 162,1105.448 162,1106 C162,1106.552 161.552,1107 161,1107" id="Fill-945" fill="#314E55" sketch:type="MSShapeGroup"></path>
            </g>
        </g>
    </g>
</svg>