<?xml version="1.0" encoding="UTF-8" standalone="no"?>
<svg width="60px" height="60px" viewBox="0 0 60 60" version="1.1" xmlns="http://www.w3.org/2000/svg" xmlns:xlink="http://www.w3.org/1999/xlink" xmlns:sketch="http://www.bohemiancoding.com/sketch/ns">
    <!-- Generator: Sketch 3.3.3 (12081) - http://www.bohemiancoding.com/sketch -->
    <title>Optioninterface</title>
    <desc>Created with Sketch.</desc>
    <defs>
        <path id="path-1" d="M0,5 C0,2.237 2.236,0 4.999,0 L12.001,0 C14.759,0 17,2.243 17,5 C17,7.763 14.764,10 12.001,10 L4.999,10 C2.24,10 0,7.757 0,5"></path>
        <path id="path-3" d="M0,6 C0,2.686 2.682,0 5.999,0 L13.001,0 C16.314,0 19,2.693 19,6 C19,9.314 16.318,12 13.001,12 L5.999,12 C2.686,12 0,9.307 0,6 L0,6 Z"></path>
        <path id="path-5" d="M2,4 C3.105,4 4,3.105 4,2 C4,0.895 3.105,0 2,0 C0.895,0 0,0.895 0,2 C0,3.105 0.895,4 2,4 L2,4 Z"></path>
        <path id="path-7" d="M0,5 C0,2.237 2.236,0 4.999,0 L12.001,0 C14.759,0 17,2.243 17,5 C17,7.763 14.764,10 12.001,10 L4.999,10 C2.24,10 0,7.757 0,5"></path>
        <path id="path-9" d="M0,6 C0,2.686 2.682,0 5.999,0 L13.001,0 C16.314,0 19,2.693 19,6 C19,9.314 16.318,12 13.001,12 L5.999,12 C2.686,12 0,9.307 0,6 L0,6 Z"></path>
        <path id="path-11" d="M2,4 C3.105,4 4,3.105 4,2 C4,0.895 3.105,0 2,0 C0.895,0 0,0.895 0,2 C0,3.105 0.895,4 2,4 L2,4 Z"></path>
    </defs>
    <g id="outlined" stroke="none" stroke-width="1" fill="none" fill-rule="evenodd" sketch:type="MSPage">
        <g id="Interface_sliced" sketch:type="MSLayerGroup" transform="translate(-240.000000, -1920.000000)">
            <g id="Imported-Layers" transform="translate(2.000000, 4.000000)">
                <path d="M241,1926 L295,1926 L295,1966 L241,1966 L241,1926 Z" id="Fill-1541" fill="#EBEBEB" sketch:type="MSShapeGroup"></path>
                <path d="M295,1967 L241,1967 C240.448,1967 240,1966.553 240,1966 L240,1926 C240,1925.447 240.448,1925 241,1925 L295,1925 C295.552,1925 296,1925.447 296,1926 L296,1966 C296,1966.553 295.552,1967 295,1967 L295,1967 Z M242,1965 L294,1965 L294,1927 L242,1927 L242,1965 Z" id="Fill-1543" fill="#314E55" sketch:type="MSShapeGroup"></path>
                <g id="Group-1546" transform="translate(250.000000, 1934.000000)">
                    <mask id="mask-2" sketch:name="Clip 1545" fill="white">
                        <use xlink:href="#path-1"></use>
                    </mask>
                    <g id="Clip-1545"></g>
                    <path d="M-1,5 C-1,1.686 1.682,-1 4.999,-1 L12.001,-1 C15.314,-1 18,1.693 18,5 C18,8.314 15.318,11 12.001,11 L4.999,11 C1.686,11 -1,8.307 -1,5" id="Fill-1544" fill="#D8D8D8" sketch:type="MSShapeGroup" mask="url(#mask-2)"></path>
                </g>
                <g id="Group-1549" transform="translate(249.000000, 1933.000000)">
                    <mask id="mask-4" sketch:name="Clip 1548" fill="white">
                        <use xlink:href="#path-3"></use>
                    </mask>
                    <g id="Clip-1548"></g>
                    <path d="M13.001,14 L5.998,14 C1.588,14 -2,10.411 -2,6 C-2,1.589 1.588,-2 5.998,-2 L13.001,-2 C17.412,-2 21,1.589 21,6 C21,10.411 17.412,14 13.001,14 L13.001,14 Z M5.998,2 C3.794,2 2,3.794 2,6 C2,8.206 3.794,10 5.998,10 L13.001,10 C15.206,10 17,8.206 17,6 C17,3.794 15.206,2 13.001,2 L5.998,2 L5.998,2 Z" id="Fill-1547" fill="#314E55" sketch:type="MSShapeGroup" mask="url(#mask-4)"></path>
                </g>
                <path d="M273,1933 L288.039,1933 L288.039,1935 L273,1935 L273,1933 Z" id="Fill-1550" fill="#314E55" sketch:type="MSShapeGroup"></path>
                <path d="M273,1937 L283,1937 L283,1939 L273,1939 L273,1937 Z" id="Fill-1551" fill="#314E55" sketch:type="MSShapeGroup"></path>
                <path d="M273,1947 L280,1947 L280,1949 L273,1949 L273,1947 Z" id="Fill-1552" fill="#314E55" sketch:type="MSShapeGroup"></path>
                <path d="M273,1951 L286.045,1951 L286.045,1953 L273,1953 L273,1951 Z" id="Fill-1553" fill="#314E55" sketch:type="MSShapeGroup"></path>
                <path d="M273,1955 L286.045,1955 L286.045,1957 L273,1957 L273,1955 Z" id="Fill-1554" fill="#314E55" sketch:type="MSShapeGroup"></path>
                <g id="Group-1557" transform="translate(260.000000, 1937.000000)">
                    <mask id="mask-6" sketch:name="Clip 1556" fill="white">
                        <use xlink:href="#path-5"></use>
                    </mask>
                    <g id="Clip-1556"></g>
                    <path d="M0,0 L4,0 L4,4 L0,4 L0,0 Z" id="Fill-1555" fill="#5ECB66" sketch:type="MSShapeGroup" mask="url(#mask-6)"></path>
                </g>
                <path d="M262,1942 C260.346,1942 259,1940.654 259,1939 C259,1937.346 260.346,1936 262,1936 C263.654,1936 265,1937.346 265,1939 C265,1940.654 263.654,1942 262,1942 L262,1942 Z M262,1938 C261.449,1938 261,1938.448 261,1939 C261,1939.552 261.449,1940 262,1940 C262.551,1940 263,1939.552 263,1939 C263,1938.448 262.551,1938 262,1938 L262,1938 Z" id="Fill-1558" fill="#314E55" sketch:type="MSShapeGroup"></path>
                <g id="Group-1561" transform="translate(250.000000, 1948.000000)">
                    <mask id="mask-8" sketch:name="Clip 1560" fill="white">
                        <use xlink:href="#path-7"></use>
                    </mask>
                    <g id="Clip-1560"></g>
                    <path d="M-1,5 C-1,1.686 1.682,-1 4.999,-1 L12.001,-1 C15.314,-1 18,1.693 18,5 C18,8.314 15.318,11 12.001,11 L4.999,11 C1.686,11 -1,8.307 -1,5" id="Fill-1559" fill="#D8D8D8" sketch:type="MSShapeGroup" mask="url(#mask-8)"></path>
                </g>
                <g id="Group-1564" transform="translate(249.000000, 1947.000000)">
                    <mask id="mask-10" sketch:name="Clip 1563" fill="white">
                        <use xlink:href="#path-9"></use>
                    </mask>
                    <g id="Clip-1563"></g>
                    <path d="M13.001,14 L5.998,14 C1.588,14 -2,10.411 -2,6 C-2,1.589 1.588,-2 5.998,-2 L13.001,-2 C17.412,-2 21,1.589 21,6 C21,10.411 17.412,14 13.001,14 L13.001,14 Z M5.998,2 C3.794,2 2,3.794 2,6 C2,8.206 3.794,10 5.998,10 L13.001,10 C15.206,10 17,8.206 17,6 C17,3.794 15.206,2 13.001,2 L5.998,2 L5.998,2 Z" id="Fill-1562" fill="#314E55" sketch:type="MSShapeGroup" mask="url(#mask-10)"></path>
                </g>
                <g id="Group-1567" transform="translate(253.000000, 1951.000000)">
                    <mask id="mask-12" sketch:name="Clip 1566" fill="white">
                        <use xlink:href="#path-11"></use>
                    </mask>
                    <g id="Clip-1566"></g>
                    <path d="M0,0 L4,0 L4,4 L0,4 L0,0 Z" id="Fill-1565" fill="#5ECB66" sketch:type="MSShapeGroup" mask="url(#mask-12)"></path>
                </g>
                <path d="M255,1956 C253.346,1956 252,1954.654 252,1953 C252,1951.346 253.346,1950 255,1950 C256.654,1950 258,1951.346 258,1953 C258,1954.654 256.654,1956 255,1956 L255,1956 Z M255,1952 C254.449,1952 254,1952.448 254,1953 C254,1953.552 254.449,1954 255,1954 C255.551,1954 256,1953.552 256,1953 C256,1952.448 255.551,1952 255,1952 L255,1952 Z" id="Fill-1568" fill="#314E55" sketch:type="MSShapeGroup"></path>
            </g>
        </g>
    </g>
</svg>