<?xml version="1.0" encoding="UTF-8" standalone="no"?>
<svg width="60px" height="60px" viewBox="0 0 60 60" version="1.1" xmlns="http://www.w3.org/2000/svg" xmlns:xlink="http://www.w3.org/1999/xlink" xmlns:sketch="http://www.bohemiancoding.com/sketch/ns">
    <!-- Generator: Sketch 3.3.3 (12081) - http://www.bohemiancoding.com/sketch -->
    <title>Portraits</title>
    <desc>Created with Sketch.</desc>
    <defs></defs>
    <g id="outlined" stroke="none" stroke-width="1" fill="none" fill-rule="evenodd" sketch:type="MSPage">
        <g id="Interface_sliced" sketch:type="MSLayerGroup" transform="translate(-720.000000, -360.000000)">
            <g id="Imported-Layers" transform="translate(2.000000, 4.000000)" sketch:type="MSShapeGroup">
                <path d="M722,385 L735,385 L735,410 L722,410 L722,385 Z" id="Fill-357" fill="#D8D8D8"></path>
                <path d="M735,411 L722,411 C721.447,411 721,410.552 721,410 L721,385 C721,384.448 721.447,384 722,384 L735,384 C735.553,384 736,384.448 736,385 L736,410 C736,410.552 735.553,411 735,411 L735,411 Z M723,409 L734,409 L734,386 L723,386 L723,409 Z" id="Fill-359" fill="#314E55"></path>
                <path d="M748,385 L761,385 L761,410 L748,410 L748,385 Z" id="Fill-360" fill="#D8D8D8"></path>
                <path d="M761,411 L748,411 C747.447,411 747,410.552 747,410 L747,385 C747,384.448 747.447,384 748,384 L761,384 C761.553,384 762,384.448 762,385 L762,410 C762,410.552 761.553,411 761,411 L761,411 Z M749,409 L760,409 L760,386 L749,386 L749,409 Z" id="Fill-362" fill="#314E55"></path>
                <path d="M748,360 L761,360 L761,385 L748,385 L748,360 Z" id="Fill-363" fill="#EBEBEB"></path>
                <path d="M761,386 L748,386 C747.447,386 747,385.552 747,385 L747,360 C747,359.448 747.447,359 748,359 L761,359 C761.553,359 762,359.448 762,360 L762,385 C762,385.552 761.553,386 761,386 L761,386 Z M749,384 L760,384 L760,361 L749,361 L749,384 Z" id="Fill-365" fill="#314E55"></path>
                <path d="M722,360 L735,360 L735,385 L722,385 L722,360 Z" id="Fill-366" fill="#EBEBEB"></path>
                <path d="M735,386 L722,386 C721.447,386 721,385.552 721,385 L721,360 C721,359.448 721.447,359 722,359 L735,359 C735.553,359 736,359.448 736,360 L736,385 C736,385.552 735.553,386 735,386 L735,386 Z M723,384 L734,384 L734,361 L723,361 L723,384 Z" id="Fill-368" fill="#314E55"></path>
                <path d="M735,385 L748,385 L748,410 L735,410 L735,385 Z" id="Fill-369" fill="#EBEBEB"></path>
                <path d="M748,411 L735,411 C734.447,411 734,410.552 734,410 L734,385 C734,384.448 734.447,384 735,384 L748,384 C748.553,384 749,384.448 749,385 L749,410 C749,410.552 748.553,411 748,411 L748,411 Z M736,409 L747,409 L747,386 L736,386 L736,409 Z" id="Fill-371" fill="#314E55"></path>
                <path d="M761,385 L774,385 L774,410 L761,410 L761,385 Z" id="Fill-372" fill="#EBEBEB"></path>
                <path d="M774,411 L761,411 C760.447,411 760,410.552 760,410 L760,385 C760,384.448 760.447,384 761,384 L774,384 C774.553,384 775,384.448 775,385 L775,410 C775,410.552 774.553,411 774,411 L774,411 Z M762,409 L773,409 L773,386 L762,386 L762,409 Z" id="Fill-374" fill="#314E55"></path>
                <path d="M761,360 L774,360 L774,385 L761,385 L761,360 Z" id="Fill-375" fill="#D8D8D8"></path>
                <path d="M774,386 L761,386 C760.447,386 760,385.552 760,385 L760,360 C760,359.448 760.447,359 761,359 L774,359 C774.553,359 775,359.448 775,360 L775,385 C775,385.552 774.553,386 774,386 L774,386 Z M762,384 L773,384 L773,361 L762,361 L762,384 Z" id="Fill-377" fill="#314E55"></path>
                <path d="M735,360 L748,360 L748,385 L735,385 L735,360 Z" id="Fill-378" fill="#D8D8D8"></path>
                <path d="M748,386 L735,386 C734.447,386 734,385.552 734,385 L734,360 C734,359.448 734.447,359 735,359 L748,359 C748.553,359 749,359.448 749,360 L749,385 C749,385.552 748.553,386 748,386 L748,386 Z M736,384 L747,384 L747,361 L736,361 L736,384 Z" id="Fill-380" fill="#314E55"></path>
            </g>
        </g>
    </g>
</svg>