<?xml version="1.0" encoding="UTF-8" standalone="no"?>
<svg width="60px" height="60px" viewBox="0 0 60 60" version="1.1" xmlns="http://www.w3.org/2000/svg" xmlns:xlink="http://www.w3.org/1999/xlink" xmlns:sketch="http://www.bohemiancoding.com/sketch/ns">
    <!-- Generator: Sketch 3.3.3 (12081) - http://www.bohemiancoding.com/sketch -->
    <title>Profile</title>
    <desc>Created with Sketch.</desc>
    <defs>
        <path id="path-1" d="M5.981,0 L5,1.909 L2.665,1.909 C1.467,1.909 0.5,2.825 0.5,3.954 L0.5,6 L15.5,6 L15.5,3.954 C15.5,2.827 14.531,1.909 13.335,1.909 L10.711,1.909 L9.731,0 L5.981,0 Z"></path>
        <path id="path-3" d="M1.248,5.365 C1.449,2.369 3.954,0 7,0 L12.765,0 L12.765,5.368 C13.463,5.468 14,6.073 14,6.788 L14,7.212 C14,7.94 13.46,8.541 12.752,8.634 C12.551,11.631 10.046,14 7,14 C3.947,14 1.449,11.625 1.248,8.634 C0.544,8.539 0,7.932 0,7.212 L0,6.788 C0,6.06 0.539,5.459 1.248,5.365 L1.248,5.365 Z"></path>
    </defs>
    <g id="outlined" stroke="none" stroke-width="1" fill="none" fill-rule="evenodd" sketch:type="MSPage">
        <g id="Interface_sliced" sketch:type="MSLayerGroup" transform="translate(0.000000, -2160.000000)">
            <g id="Imported-Layers" transform="translate(2.000000, 4.000000)">
                <path d="M1,2166 L55,2166 L55,2206 L1,2206 L1,2166 Z" id="Fill-1892" fill="#EBEBEB" sketch:type="MSShapeGroup"></path>
                <path d="M55,2207 L1,2207 C0.448,2207 0,2206.553 0,2206 L0,2166 C0,2165.447 0.448,2165 1,2165 L55,2165 C55.552,2165 56,2165.447 56,2166 L56,2206 C56,2206.553 55.552,2207 55,2207 L55,2207 Z M2,2205 L54,2205 L54,2167 L2,2167 L2,2205 Z" id="Fill-1894" fill="#314E55" sketch:type="MSShapeGroup"></path>
                <g id="Group-1897" transform="translate(20.000000, 2185.000000)">
                    <mask id="mask-2" sketch:name="Clip 1896" fill="white">
                        <use xlink:href="#path-1"></use>
                    </mask>
                    <g id="Clip-1896"></g>
                    <path d="M0.5,0 L15.5,0 L15.5,6 L0.5,6 L0.5,0 Z" id="Fill-1895" fill="#E4AD40" sketch:type="MSShapeGroup" mask="url(#mask-2)"></path>
                </g>
                <path d="M35.5,2192 L20.5,2192 C19.948,2192 19.5,2191.553 19.5,2191 L19.5,2188.954 C19.5,2187.275 20.92,2185.909 22.665,2185.909 L24.39,2185.909 L25.091,2184.543 C25.344,2184.052 25.946,2183.857 26.438,2184.11 C26.929,2184.363 27.123,2184.966 26.871,2185.457 L25.89,2187.366 C25.718,2187.699 25.375,2187.909 25,2187.909 L22.665,2187.909 C22.022,2187.909 21.5,2188.378 21.5,2188.954 L21.5,2190 L34.5,2190 L34.5,2188.954 C34.5,2188.378 33.977,2187.909 33.335,2187.909 L30.711,2187.909 C30.336,2187.909 29.993,2187.699 29.822,2187.366 L28.841,2185.457 C28.589,2184.966 28.783,2184.362 29.274,2184.11 C29.766,2183.857 30.368,2184.052 30.621,2184.543 L31.322,2185.909 L33.335,2185.909 C35.08,2185.909 36.5,2187.275 36.5,2188.954 L36.5,2191 C36.5,2191.553 36.052,2192 35.5,2192" id="Fill-1898" fill="#314E55" sketch:type="MSShapeGroup"></path>
                <g id="Group-1901" transform="translate(21.000000, 2171.000000)">
                    <mask id="mask-4" sketch:name="Clip 1900" fill="white">
                        <use xlink:href="#path-3"></use>
                    </mask>
                    <g id="Clip-1900"></g>
                    <path d="M0,0 L14,0 L14,14 L0,14 L0,0 Z" id="Fill-1899" fill="#E4AD40" sketch:type="MSShapeGroup" mask="url(#mask-4)"></path>
                </g>
                <path d="M28,2186 C24.683,2186 21.875,2183.581 21.331,2180.379 C20.536,2179.972 20,2179.144 20,2178.212 L20,2177.788 C20,2176.854 20.536,2176.026 21.331,2175.619 C21.876,2172.418 24.683,2170 28,2170 L33.765,2170 C34.317,2170 34.765,2170.447 34.765,2171 L34.765,2175.674 C35.506,2176.099 36,2176.898 36,2177.788 L36,2178.212 C36,2179.146 35.464,2179.974 34.669,2180.381 C34.124,2183.582 31.317,2186 28,2186 L28,2186 Z M28,2172 C25.501,2172 23.413,2173.947 23.246,2176.432 C23.214,2176.907 22.852,2177.294 22.379,2177.356 C22.16,2177.386 22,2177.567 22,2177.788 L22,2178.212 C22,2178.425 22.167,2178.614 22.382,2178.643 C22.853,2178.706 23.214,2179.093 23.246,2179.566 C23.413,2182.053 25.501,2184 28,2184 C30.499,2184 32.587,2182.053 32.754,2179.568 C32.786,2179.093 33.148,2178.706 33.621,2178.643 C33.84,2178.614 34,2178.433 34,2178.212 L34,2177.788 C34,2177.577 33.833,2177.388 33.621,2177.356 C33.129,2177.285 32.765,2176.864 32.765,2176.367 L32.765,2172 L28,2172 L28,2172 Z" id="Fill-1902" fill="#314E55" sketch:type="MSShapeGroup"></path>
                <path d="M14,2195 L42,2195 L42,2197 L14,2197 L14,2195 Z" id="Fill-1903" fill="#314E55" sketch:type="MSShapeGroup"></path>
                <path d="M18,2199 L38,2199 L38,2201 L18,2201 L18,2199 Z" id="Fill-1904" fill="#314E55" sketch:type="MSShapeGroup"></path>
            </g>
        </g>
    </g>
</svg>