<?xml version="1.0" encoding="UTF-8" standalone="no"?>
<svg width="60px" height="60px" viewBox="0 0 60 60" version="1.1" xmlns="http://www.w3.org/2000/svg" xmlns:xlink="http://www.w3.org/1999/xlink" xmlns:sketch="http://www.bohemiancoding.com/sketch/ns">
    <!-- Generator: Sketch 3.3.3 (12081) - http://www.bohemiancoding.com/sketch -->
    <title>Read</title>
    <desc>Created with Sketch.</desc>
    <defs>
        <path id="path-1" d="M0,1 L16,1 L15,0 L15,10 L16,9 L0,9 L1,10 L1,0 L0,1 L0,1 Z"></path>
        <path id="path-3" d="M0,0 L16,0 L16,10 L0,10 L0,0 Z"></path>
        <path id="path-5" d="M0,1 L19,1 L18,0 L18,21 L19,20 L0,20 L1,21 L1,0 L0,1 L0,1 Z"></path>
        <path id="path-7" d="M0,0 L19,0 L19,21 L0,21 L0,0 Z"></path>
        <path id="path-9" d="M0,1 L23,1 L22,0 L22,21 L23,20 L0,20 L1,21 L1,0 L0,1 L0,1 Z"></path>
        <path id="path-11" d="M0,0 L23,0 L23,21 L0,21 L0,0 Z"></path>
    </defs>
    <g id="outlined" stroke="none" stroke-width="1" fill="none" fill-rule="evenodd" sketch:type="MSPage">
        <g id="Interface_sliced" sketch:type="MSLayerGroup" transform="translate(-600.000000, -2040.000000)">
            <g id="Imported-Layers" transform="translate(2.000000, 4.000000)">
                <path d="M602,2046 L656,2046 L656,2086 L602,2086 L602,2046 Z" id="Fill-1804" fill="#D8D8D8" sketch:type="MSShapeGroup"></path>
                <path d="M656,2087 L602,2087 C601.447,2087 601,2086.553 601,2086 L601,2046 C601,2045.447 601.447,2045 602,2045 L656,2045 C656.553,2045 657,2045.447 657,2046 L657,2086 C657,2086.553 656.553,2087 656,2087 L656,2087 Z M603,2085 L655,2085 L655,2047 L603,2047 L603,2085 Z" id="Fill-1806" fill="#314E55" sketch:type="MSShapeGroup"></path>
                <g id="Group-1809" transform="translate(606.000000, 2050.000000)">
                    <mask id="mask-2" sketch:name="Clip 1808" fill="white">
                        <use xlink:href="#path-1"></use>
                    </mask>
                    <g id="Clip-1808"></g>
                    <path d="M0,0 L16,0 L16,10 L0,10 L0,0 Z" id="Fill-1807" fill="#E9E7D1" sketch:type="MSShapeGroup" mask="url(#mask-2)"></path>
                </g>
                <g id="Group-1812" transform="translate(606.000000, 2050.000000)">
                    <mask id="mask-4" sketch:name="Clip 1811" fill="white">
                        <use xlink:href="#path-3"></use>
                    </mask>
                    <g id="Clip-1811"></g>
                    <path d="M16,12 L0,12 C-1.104,12 -2,11.104 -2,10 L-2,0 C-2,-1.104 -1.104,-2 0,-2 L16,-2 C17.104,-2 18,-1.104 18,0 L18,10 C18,11.104 17.104,12 16,12 L16,12 Z M2,8 L14,8 L14,2 L2,2 L2,8 Z" id="Fill-1810" fill="#314E55" sketch:type="MSShapeGroup" mask="url(#mask-4)"></path>
                </g>
                <g id="Group-1815" transform="translate(606.000000, 2066.000000)">
                    <mask id="mask-6" sketch:name="Clip 1814" fill="white">
                        <use xlink:href="#path-5"></use>
                    </mask>
                    <g id="Clip-1814"></g>
                    <path d="M0,0 L19,0 L19,21 L0,21 L0,0 Z" id="Fill-1813" fill="#E9E7D1" sketch:type="MSShapeGroup" mask="url(#mask-6)"></path>
                </g>
                <g id="Group-1818" transform="translate(606.000000, 2066.000000)">
                    <mask id="mask-8" sketch:name="Clip 1817" fill="white">
                        <use xlink:href="#path-7"></use>
                    </mask>
                    <g id="Clip-1817"></g>
                    <path d="M19,23 L0,23 C-1.104,23 -2,22.104 -2,21 L-2,0 C-2,-1.105 -1.104,-2 0,-2 L19,-2 C20.104,-2 21,-1.105 21,0 L21,21 C21,22.104 20.104,23 19,23 L19,23 Z M2,19 L17,19 L17,2 L2,2 L2,19 Z" id="Fill-1816" fill="#314E55" sketch:type="MSShapeGroup" mask="url(#mask-8)"></path>
                </g>
                <g id="Group-1821" transform="translate(628.000000, 2066.000000)">
                    <mask id="mask-10" sketch:name="Clip 1820" fill="white">
                        <use xlink:href="#path-9"></use>
                    </mask>
                    <g id="Clip-1820"></g>
                    <path d="M0,0 L23,0 L23,21 L0,21 L0,0 Z" id="Fill-1819" fill="#E9E7D1" sketch:type="MSShapeGroup" mask="url(#mask-10)"></path>
                </g>
                <g id="Group-1824" transform="translate(628.000000, 2066.000000)">
                    <mask id="mask-12" sketch:name="Clip 1823" fill="white">
                        <use xlink:href="#path-11"></use>
                    </mask>
                    <g id="Clip-1823"></g>
                    <path d="M23,23 L0,23 C-1.104,23 -2,22.104 -2,21 L-2,0 C-2,-1.105 -1.104,-2 0,-2 L23,-2 C24.104,-2 25,-1.105 25,0 L25,21 C25,22.104 24.104,23 23,23 L23,23 Z M2,19 L21,19 L21,2 L2,2 L2,19 Z" id="Fill-1822" fill="#314E55" sketch:type="MSShapeGroup" mask="url(#mask-12)"></path>
                </g>
                <path d="M625,2050 L651,2050 L651,2052 L625,2052 L625,2050 Z" id="Fill-1825" fill="#314E55" sketch:type="MSShapeGroup"></path>
                <path d="M606,2062 L632,2062 L632,2064 L606,2064 L606,2062 Z" id="Fill-1826" fill="#314E55" sketch:type="MSShapeGroup"></path>
                <path d="M634,2062 L651,2062 L651,2064 L634,2064 L634,2062 Z" id="Fill-1827" fill="#314E55" sketch:type="MSShapeGroup"></path>
                <path d="M625,2054 L635,2054 L635,2056 L625,2056 L625,2054 Z" id="Fill-1828" fill="#314E55" sketch:type="MSShapeGroup"></path>
                <path d="M641,2058 L651,2058 L651,2060 L641,2060 L641,2058 Z" id="Fill-1829" fill="#314E55" sketch:type="MSShapeGroup"></path>
                <path d="M637,2054 L651,2054 L651,2056 L637,2056 L637,2054 Z" id="Fill-1830" fill="#314E55" sketch:type="MSShapeGroup"></path>
                <path d="M625,2058 L639,2058 L639,2060 L625,2060 L625,2058 Z" id="Fill-1831" fill="#314E55" sketch:type="MSShapeGroup"></path>
            </g>
        </g>
    </g>
</svg>