<?xml version="1.0" encoding="UTF-8" standalone="no"?>
<svg width="60px" height="60px" viewBox="0 0 60 60" version="1.1" xmlns="http://www.w3.org/2000/svg" xmlns:xlink="http://www.w3.org/1999/xlink" xmlns:sketch="http://www.bohemiancoding.com/sketch/ns">
    <!-- Generator: Sketch 3.3.3 (12081) - http://www.bohemiancoding.com/sketch -->
    <title>Removepoint</title>
    <desc>Created with Sketch.</desc>
    <defs>
        <path id="path-1" d="M0.797,31.703 L10.697,0.59 L31.91,21.803 L0.797,31.703"></path>
        <path id="path-3" d="M14.374,23.268 L0.232,9.126 L11.546,0.64 L22.86,11.954 L14.374,23.268"></path>
        <path id="path-5" d="M7.475,2.025 C5.913,0.463 3.38,0.463 1.818,2.025 C0.256,3.587 0.256,6.12 1.818,7.682 C3.38,9.244 5.913,9.244 7.475,7.682 C9.037,6.12 9.037,3.587 7.475,2.025"></path>
    </defs>
    <g id="outlined" stroke="none" stroke-width="1" fill="none" fill-rule="evenodd" sketch:type="MSPage">
        <g id="Interface_sliced" sketch:type="MSLayerGroup" transform="translate(-720.000000, -1200.000000)">
            <g id="Imported-Layers" transform="translate(2.000000, 4.000000)">
                <g id="Group-1068" transform="translate(737.000000, 1207.000000)">
                    <mask id="mask-2" sketch:name="Clip 1067" fill="white">
                        <use xlink:href="#path-1"></use>
                    </mask>
                    <g id="Clip-1067"></g>
                    <path d="M11.404,49.38 L-16.88,21.096 L10.697,-6.481 L38.981,21.803 L11.404,49.38" id="Fill-1066" fill="#5ECB66" sketch:type="MSShapeGroup" mask="url(#mask-2)"></path>
                </g>
                <path d="M737.797,1239.702 C737.536,1239.702 737.28,1239.599 737.09,1239.409 C736.825,1239.145 736.73,1238.755 736.844,1238.399 L746.743,1207.286 C746.85,1206.954 747.121,1206.7 747.46,1206.618 C747.795,1206.534 748.156,1206.634 748.403,1206.882 L769.617,1228.096 C769.864,1228.343 769.964,1228.7 769.882,1229.039 C769.799,1229.378 769.546,1229.649 769.213,1229.756 L738.1,1239.655 C738.001,1239.687 737.898,1239.702 737.797,1239.702 L737.797,1239.702 Z M748.151,1209.458 L739.336,1237.163 L767.041,1228.348 L748.151,1209.458 L748.151,1209.458 Z" id="Fill-1069" fill="#314E55" sketch:type="MSShapeGroup"></path>
                <g id="Group-1072" transform="translate(751.000000, 1202.000000)">
                    <mask id="mask-4" sketch:name="Clip 1071" fill="white">
                        <use xlink:href="#path-3"></use>
                    </mask>
                    <g id="Clip-1071"></g>
                    <path d="M14.374,30.339 L-6.839,9.126 L10.132,-7.845 L31.345,13.368 L14.374,30.339" id="Fill-1070" fill="#EBEBEB" sketch:type="MSShapeGroup" mask="url(#mask-4)"></path>
                </g>
                <path d="M765.374,1226.268 C765.109,1226.268 764.855,1226.163 764.667,1225.975 L750.525,1211.833 C750.32,1211.628 750.215,1211.344 750.235,1211.055 C750.256,1210.766 750.4,1210.5 750.633,1210.326 L761.946,1201.841 C762.343,1201.542 762.901,1201.582 763.253,1201.934 L774.566,1213.247 C774.918,1213.599 774.958,1214.156 774.659,1214.554 L766.174,1225.868 C766,1226.099 765.734,1226.245 765.445,1226.266 C765.421,1226.268 765.397,1226.268 765.374,1226.268 L765.374,1226.268 Z M752.755,1211.234 L765.266,1223.746 L772.539,1214.048 L762.452,1203.961 L752.755,1211.234 L752.755,1211.234 Z" id="Fill-1073" fill="#314E55" sketch:type="MSShapeGroup"></path>
                <path d="M738.504,1239.41 L737.09,1237.996 L749.111,1225.976 L750.525,1227.39 L738.504,1239.41" id="Fill-1074" fill="#314E55" sketch:type="MSShapeGroup"></path>
                <g id="Group-1077" transform="translate(748.000000, 1219.000000)">
                    <mask id="mask-6" sketch:name="Clip 1076" fill="white">
                        <use xlink:href="#path-5"></use>
                    </mask>
                    <g id="Clip-1076"></g>
                    <path d="M4.646,17.581 L-8.081,4.854 L4.646,-7.874 L17.374,4.854 L4.646,17.581" id="Fill-1075" fill="#D8D8D8" sketch:type="MSShapeGroup" mask="url(#mask-6)"></path>
                </g>
                <path d="M752.646,1228.853 C751.31,1228.853 750.055,1228.333 749.111,1227.389 C748.167,1226.444 747.646,1225.189 747.646,1223.854 C747.646,1222.518 748.167,1221.262 749.111,1220.318 C750.055,1219.374 751.31,1218.853 752.646,1218.853 C753.982,1218.853 755.238,1219.374 756.182,1220.318 C757.126,1221.262 757.646,1222.518 757.646,1223.854 C757.646,1225.189 757.126,1226.444 756.182,1227.389 C755.238,1228.333 753.982,1228.853 752.646,1228.853 L752.646,1228.853 Z M752.646,1220.853 C751.845,1220.853 751.092,1221.165 750.525,1221.732 C749.959,1222.299 749.646,1223.052 749.646,1223.854 C749.646,1224.655 749.959,1225.408 750.525,1225.975 C751.658,1227.107 753.635,1227.107 754.768,1225.975 C755.334,1225.408 755.646,1224.655 755.646,1223.854 C755.646,1223.052 755.334,1222.299 754.768,1221.732 C754.201,1221.165 753.448,1220.853 752.646,1220.853 L752.646,1220.853 Z" id="Fill-1078" fill="#314E55" sketch:type="MSShapeGroup"></path>
                <path d="M773.038,1246 L761,1246 C760.447,1246 760,1245.553 760,1245 C760,1244.447 760.447,1244 761,1244 L773.038,1244 C773.591,1244 774.038,1244.447 774.038,1245 C774.038,1245.553 773.591,1246 773.038,1246" id="Fill-1079" fill="#314E55" sketch:type="MSShapeGroup"></path>
                <path d="M724,1243 L732,1243 L732,1251 L724,1251 L724,1243 Z" id="Fill-1080" fill="#F28544" sketch:type="MSShapeGroup"></path>
                <path d="M732,1252 L724,1252 C723.447,1252 723,1251.553 723,1251 L723,1243 C723,1242.447 723.447,1242 724,1242 L732,1242 C732.553,1242 733,1242.447 733,1243 L733,1251 C733,1251.553 732.553,1252 732,1252 L732,1252 Z M725,1250 L731,1250 L731,1244 L725,1244 L725,1250 Z" id="Fill-1082" fill="#314E55" sketch:type="MSShapeGroup"></path>
                <path d="M727,1236 L729,1236 L729,1243 L727,1243 L727,1236 Z" id="Fill-1083" fill="#314E55" sketch:type="MSShapeGroup"></path>
                <path d="M732,1246 L739,1246 L739,1248 L732,1248 L732,1246 Z" id="Fill-1084" fill="#314E55" sketch:type="MSShapeGroup"></path>
            </g>
        </g>
    </g>
</svg>