<?xml version="1.0" encoding="UTF-8" standalone="no"?>
<svg width="60px" height="60px" viewBox="0 0 60 60" version="1.1" xmlns="http://www.w3.org/2000/svg" xmlns:xlink="http://www.w3.org/1999/xlink" xmlns:sketch="http://www.bohemiancoding.com/sketch/ns">
    <!-- Generator: Sketch 3.3.3 (12081) - http://www.bohemiancoding.com/sketch -->
    <title>Right</title>
    <desc>Created with Sketch.</desc>
    <defs></defs>
    <g id="outlined" stroke="none" stroke-width="1" fill="none" fill-rule="evenodd" sketch:type="MSPage">
        <g id="Interface_sliced" sketch:type="MSLayerGroup" transform="translate(-360.000000, -120.000000)">
            <g id="Imported-Layers" transform="translate(2.000000, 4.000000)" sketch:type="MSShapeGroup">
                <path d="M363,121 L413,121 L413,171 L363,171 L363,121 Z" id="Fill-145" fill="#E9E7D1"></path>
                <path d="M413,172 L363,172 C362.448,172 362,171.552 362,171 L362,121 C362,120.448 362.448,120 363,120 L413,120 C413.552,120 414,120.448 414,121 L414,171 C414,171.552 413.552,172 413,172 L413,172 Z M364,170 L412,170 L412,122 L364,122 L364,170 Z" id="Fill-147" fill="#314E55"></path>
                <path d="M369,145 L407,145 L407,147 L369,147 L369,145 Z" id="Fill-148" fill="#314E55"></path>
                <path d="M369,127 L407,127 L407,129 L369,129 L369,127 Z" id="Fill-149" fill="#314E55"></path>
                <path d="M369,163 L407,163 L407,165 L369,165 L369,163 Z" id="Fill-150" fill="#314E55"></path>
                <path d="M385,136 L407,136 L407,138 L385,138 L385,136 Z" id="Fill-151" fill="#314E55"></path>
                <path d="M385,154 L407,154 L407,156 L385,156 L385,154 Z" id="Fill-152" fill="#314E55"></path>
            </g>
        </g>
    </g>
</svg>