<?xml version="1.0" encoding="UTF-8" standalone="no"?>
<svg width="60px" height="60px" viewBox="0 0 60 60" version="1.1" xmlns="http://www.w3.org/2000/svg" xmlns:xlink="http://www.w3.org/1999/xlink" xmlns:sketch="http://www.bohemiancoding.com/sketch/ns">
    <!-- Generator: Sketch 3.3.3 (12081) - http://www.bohemiancoding.com/sketch -->
    <title>Scale</title>
    <desc>Created with Sketch.</desc>
    <defs></defs>
    <g id="outlined" stroke="none" stroke-width="1" fill="none" fill-rule="evenodd" sketch:type="MSPage">
        <g id="Interface_sliced" sketch:type="MSLayerGroup" transform="translate(-240.000000, -600.000000)">
            <g id="Imported-Layers" transform="translate(2.000000, 4.000000)" sketch:type="MSShapeGroup">
                <path d="M243,601 L251,601 L251,609 L243,609 L243,601 Z" id="Fill-568" fill="#E65F58"></path>
                <path d="M251,610 L243,610 C242.448,610 242,609.552 242,609 L242,601 C242,600.448 242.448,600 243,600 L251,600 C251.552,600 252,600.448 252,601 L252,609 C252,609.552 251.552,610 251,610 L251,610 Z M244,608 L250,608 L250,602 L244,602 L244,608 Z" id="Fill-570" fill="#314E55"></path>
                <path d="M243,622 L251,622 L251,630 L243,630 L243,622 Z" id="Fill-571" fill="#E65F58"></path>
                <path d="M251,631 L243,631 C242.448,631 242,630.552 242,630 L242,622 C242,621.448 242.448,621 243,621 L251,621 C251.552,621 252,621.448 252,622 L252,630 C252,630.552 251.552,631 251,631 L251,631 Z M244,629 L250,629 L250,623 L244,623 L244,629 Z" id="Fill-573" fill="#314E55"></path>
                <path d="M243,643 L251,643 L251,651 L243,651 L243,643 Z" id="Fill-574" fill="#E65F58"></path>
                <path d="M251,652 L243,652 C242.448,652 242,651.552 242,651 L242,643 C242,642.448 242.448,642 243,642 L251,642 C251.552,642 252,642.448 252,643 L252,651 C252,651.552 251.552,652 251,652 L251,652 Z M244,650 L250,650 L250,644 L244,644 L244,650 Z" id="Fill-576" fill="#314E55"></path>
                <path d="M264,601 L272,601 L272,609 L264,609 L264,601 Z" id="Fill-577" fill="#E65F58"></path>
                <path d="M272,610 L264,610 C263.448,610 263,609.552 263,609 L263,601 C263,600.448 263.448,600 264,600 L272,600 C272.552,600 273,600.448 273,601 L273,609 C273,609.552 272.552,610 272,610 L272,610 Z M265,608 L271,608 L271,602 L265,602 L265,608 Z" id="Fill-579" fill="#314E55"></path>
                <path d="M264,643 L272,643 L272,651 L264,651 L264,643 Z" id="Fill-580" fill="#E65F58"></path>
                <path d="M272,652 L264,652 C263.448,652 263,651.552 263,651 L263,643 C263,642.448 263.448,642 264,642 L272,642 C272.552,642 273,642.448 273,643 L273,651 C273,651.552 272.552,652 272,652 L272,652 Z M265,650 L271,650 L271,644 L265,644 L265,650 Z" id="Fill-582" fill="#314E55"></path>
                <path d="M285,601 L293,601 L293,609 L285,609 L285,601 Z" id="Fill-583" fill="#E65F58"></path>
                <path d="M293,610 L285,610 C284.448,610 284,609.552 284,609 L284,601 C284,600.448 284.448,600 285,600 L293,600 C293.552,600 294,600.448 294,601 L294,609 C294,609.552 293.552,610 293,610 L293,610 Z M286,608 L292,608 L292,602 L286,602 L286,608 Z" id="Fill-585" fill="#314E55"></path>
                <path d="M285,622 L293,622 L293,630 L285,630 L285,622 Z" id="Fill-586" fill="#E65F58"></path>
                <path d="M293,631 L285,631 C284.448,631 284,630.552 284,630 L284,622 C284,621.448 284.448,621 285,621 L293,621 C293.552,621 294,621.448 294,622 L294,630 C294,630.552 293.552,631 293,631 L293,631 Z M286,629 L292,629 L292,623 L286,623 L286,629 Z" id="Fill-588" fill="#314E55"></path>
                <path d="M285,643 L293,643 L293,651 L285,651 L285,643 Z" id="Fill-589" fill="#E65F58"></path>
                <path d="M293,652 L285,652 C284.448,652 284,651.552 284,651 L284,643 C284,642.448 284.448,642 285,642 L293,642 C293.552,642 294,642.448 294,643 L294,651 C294,651.552 293.552,652 293,652 L293,652 Z M286,650 L292,650 L292,644 L286,644 L286,650 Z" id="Fill-591" fill="#314E55"></path>
                <path d="M246,608 L248,608 L248,623.039 L246,623.039 L246,608 Z" id="Fill-592" fill="#314E55"></path>
                <path d="M288,608 L290,608 L290,623.039 L288,623.039 L288,608 Z" id="Fill-593" fill="#314E55"></path>
                <path d="M246,629 L248,629 L248,644.039 L246,644.039 L246,629 Z" id="Fill-594" fill="#314E55"></path>
                <path d="M288,629 L290,629 L290,644.039 L288,644.039 L288,629 Z" id="Fill-595" fill="#314E55"></path>
                <path d="M250,604 L265,604 L265,606 L250,606 L250,604 Z" id="Fill-596" fill="#314E55"></path>
                <path d="M250,646 L265,646 L265,648 L250,648 L250,646 Z" id="Fill-597" fill="#314E55"></path>
                <path d="M271,604 L286,604 L286,606 L271,606 L271,604 Z" id="Fill-598" fill="#314E55"></path>
                <path d="M271,646 L286,646 L286,648 L271,648 L271,646 Z" id="Fill-599" fill="#314E55"></path>
            </g>
        </g>
    </g>
</svg>