<?xml version="1.0" encoding="UTF-8" standalone="no"?>
<svg width="60px" height="60px" viewBox="0 0 60 60" version="1.1" xmlns="http://www.w3.org/2000/svg" xmlns:xlink="http://www.w3.org/1999/xlink" xmlns:sketch="http://www.bohemiancoding.com/sketch/ns">
    <!-- Generator: Sketch 3.3.3 (12081) - http://www.bohemiancoding.com/sketch -->
    <title>Scroll</title>
    <desc>Created with Sketch.</desc>
    <defs>
        <path id="path-1" d="M5,0 L10,10 L0,10 L5,0 L5,0 Z"></path>
        <path id="path-3" d="M5,10 L10,0 L0,0 L5,10 L5,10 Z"></path>
    </defs>
    <g id="outlined" stroke="none" stroke-width="1" fill="none" fill-rule="evenodd" sketch:type="MSPage">
        <g id="Interface_sliced" sketch:type="MSLayerGroup" transform="translate(0.000000, -1440.000000)">
            <g id="Imported-Layers" transform="translate(2.000000, 4.000000)">
                <path d="M33,1457 L23,1457 C22.448,1457 22,1456.553 22,1456 C22,1455.447 22.448,1455 23,1455 L33,1455 C33.552,1455 34,1455.447 34,1456 C34,1456.553 33.552,1457 33,1457" id="Fill-1169" fill="#314E55" sketch:type="MSShapeGroup"></path>
                <path d="M33,1462 L23,1462 C22.448,1462 22,1461.553 22,1461 C22,1460.447 22.448,1460 23,1460 L33,1460 C33.552,1460 34,1460.447 34,1461 C34,1461.553 33.552,1462 33,1462" id="Fill-1170" fill="#314E55" sketch:type="MSShapeGroup"></path>
                <path d="M33,1467 L23,1467 C22.448,1467 22,1466.553 22,1466 C22,1465.447 22.448,1465 23,1465 L33,1465 C33.552,1465 34,1465.447 34,1466 C34,1466.553 33.552,1467 33,1467" id="Fill-1171" fill="#314E55" sketch:type="MSShapeGroup"></path>
                <path d="M33,1472 L23,1472 C22.448,1472 22,1471.553 22,1471 C22,1470.447 22.448,1470 23,1470 L33,1470 C33.552,1470 34,1470.447 34,1471 C34,1471.553 33.552,1472 33,1472" id="Fill-1172" fill="#314E55" sketch:type="MSShapeGroup"></path>
                <path d="M33,1477 L23,1477 C22.448,1477 22,1476.553 22,1476 C22,1475.447 22.448,1475 23,1475 L33,1475 C33.552,1475 34,1475.447 34,1476 C34,1476.553 33.552,1477 33,1477" id="Fill-1173" fill="#314E55" sketch:type="MSShapeGroup"></path>
                <g id="Group-1176" transform="translate(23.000000, 1441.000000)">
                    <mask id="mask-2" sketch:name="Clip 1175" fill="white">
                        <use xlink:href="#path-1"></use>
                    </mask>
                    <g id="Clip-1175"></g>
                    <path d="M0,0 L10,0 L10,10 L0,10 L0,0 Z" id="Fill-1174" fill="#F28544" sketch:type="MSShapeGroup" mask="url(#mask-2)"></path>
                </g>
                <path d="M33.02,1452 C33.014,1452 33.007,1451.999 33,1452 L23,1452 C22.653,1452 22.331,1451.82 22.149,1451.525 C21.967,1451.23 21.951,1450.862 22.105,1450.553 L27.105,1440.553 C27.444,1439.875 28.556,1439.875 28.894,1440.553 L33.814,1450.393 C33.943,1450.56 34.02,1450.771 34.02,1451 C34.02,1451.553 33.572,1452 33.02,1452 L33.02,1452 Z M24.618,1450 L31.382,1450 L28,1443.236 L24.618,1450 L24.618,1450 Z" id="Fill-1177" fill="#314E55" sketch:type="MSShapeGroup"></path>
                <g id="Group-1180" transform="translate(23.000000, 1481.000000)">
                    <mask id="mask-4" sketch:name="Clip 1179" fill="white">
                        <use xlink:href="#path-3"></use>
                    </mask>
                    <g id="Clip-1179"></g>
                    <path d="M0,0 L10,0 L10,10 L0,10 L0,0 Z" id="Fill-1178" fill="#F28544" sketch:type="MSShapeGroup" mask="url(#mask-4)"></path>
                </g>
                <path d="M28,1492 C27.621,1492 27.275,1491.786 27.105,1491.447 L22.105,1481.447 C21.951,1481.138 21.967,1480.77 22.149,1480.475 C22.331,1480.18 22.653,1480 23,1480 L33,1480 C33.347,1480 33.668,1480.18 33.851,1480.475 C34.033,1480.77 34.049,1481.138 33.895,1481.447 L28.894,1491.447 C28.725,1491.786 28.379,1492 28,1492 L28,1492 Z M24.618,1482 L28,1488.764 L31.382,1482 L24.618,1482 L24.618,1482 Z" id="Fill-1181" fill="#314E55" sketch:type="MSShapeGroup"></path>
            </g>
        </g>
    </g>
</svg>