<?xml version="1.0" encoding="UTF-8" standalone="no"?>
<svg width="60px" height="60px" viewBox="0 0 60 60" version="1.1" xmlns="http://www.w3.org/2000/svg" xmlns:xlink="http://www.w3.org/1999/xlink" xmlns:sketch="http://www.bohemiancoding.com/sketch/ns">
    <!-- Generator: Sketch 3.3.3 (12081) - http://www.bohemiancoding.com/sketch -->
    <title>Scroller</title>
    <desc>Created with Sketch.</desc>
    <defs>
        <path id="path-1" d="M0,16.991 C0,7.607 7.609,0 17,0 C26.389,0 34,7.617 34,16.991 L34,35.009 C34,44.393 26.391,52 17,52 C7.611,52 0,44.383 0,35.009 L0,16.991 L0,16.991 Z"></path>
    </defs>
    <g id="outlined" stroke="none" stroke-width="1" fill="none" fill-rule="evenodd" sketch:type="MSPage">
        <g id="Interface_sliced" sketch:type="MSLayerGroup" transform="translate(-120.000000, -1440.000000)">
            <g id="Imported-Layers" transform="translate(2.000000, 4.000000)">
                <g id="Group-1184" transform="translate(131.000000, 1441.000000)">
                    <mask id="mask-2" sketch:name="Clip 1183" fill="white">
                        <use xlink:href="#path-1"></use>
                    </mask>
                    <g id="Clip-1183"></g>
                    <path d="M0,0 L34,0 L34,52 L0,52 L0,0 Z" id="Fill-1182" fill="#E9E7D1" sketch:type="MSShapeGroup" mask="url(#mask-2)"></path>
                </g>
                <path d="M148,1494 C138.075,1494 130,1485.93 130,1476.01 L130,1457.991 C130,1448.071 138.075,1440 148,1440 C157.925,1440 166,1448.071 166,1457.991 L166,1476.01 C166,1485.93 157.925,1494 148,1494 L148,1494 Z M148,1442 C139.178,1442 132,1449.174 132,1457.991 L132,1476.01 C132,1484.827 139.178,1492 148,1492 C156.822,1492 164,1484.827 164,1476.01 L164,1457.991 C164,1449.174 156.822,1442 148,1442 L148,1442 Z" id="Fill-1185" fill="#314E55" sketch:type="MSShapeGroup"></path>
                <path d="M148,1457.056 C147.448,1457.056 147,1456.608 147,1456.056 L147,1447 C147,1446.447 147.448,1446 148,1446 C148.552,1446 149,1446.447 149,1447 L149,1456.056 C149,1456.608 148.552,1457.056 148,1457.056" id="Fill-1186" fill="#314E55" sketch:type="MSShapeGroup"></path>
            </g>
        </g>
    </g>
</svg>