<?xml version="1.0" encoding="UTF-8" standalone="no"?>
<svg width="60px" height="60px" viewBox="0 0 60 60" version="1.1" xmlns="http://www.w3.org/2000/svg" xmlns:xlink="http://www.w3.org/1999/xlink" xmlns:sketch="http://www.bohemiancoding.com/sketch/ns">
    <!-- Generator: Sketch 3.3.3 (12081) - http://www.bohemiancoding.com/sketch -->
    <title>Searching</title>
    <desc>Created with Sketch.</desc>
    <defs>
        <path id="path-1" d="M19,38 C29.493,38 38,29.493 38,19 C38,8.507 29.493,0 19,0 C8.507,0 0,8.507 0,19 C0,29.493 8.507,38 19,38 L19,38 Z"></path>
        <path id="path-3" d="M15,30 C23.284,30 30,23.284 30,15 C30,6.716 23.284,0 15,0 C6.716,0 0,6.716 0,15 C0,23.284 6.716,30 15,30 L15,30 Z"></path>
    </defs>
    <g id="outlined" stroke="none" stroke-width="1" fill="none" fill-rule="evenodd" sketch:type="MSPage">
        <g id="Interface_sliced" sketch:type="MSLayerGroup" transform="translate(-240.000000, -2280.000000)">
            <g id="Imported-Layers" transform="translate(2.000000, 4.000000)">
                <g id="Group-2091" transform="translate(245.000000, 2283.000000)">
                    <mask id="mask-2" sketch:name="Clip 2090" fill="white">
                        <use xlink:href="#path-1"></use>
                    </mask>
                    <g id="Clip-2090"></g>
                    <path d="M0,0 L38,0 L38,38 L0,38 L0,0 Z" id="Fill-2089" fill="#D8D8D8" sketch:type="MSShapeGroup" mask="url(#mask-2)"></path>
                </g>
                <path d="M264,2322 C252.972,2322 244,2313.028 244,2302 C244,2290.972 252.972,2282 264,2282 C275.028,2282 284,2290.972 284,2302 C284,2313.028 275.028,2322 264,2322 L264,2322 Z M264,2284 C254.075,2284 246,2292.075 246,2302 C246,2311.925 254.075,2320 264,2320 C273.925,2320 282,2311.925 282,2302 C282,2292.075 273.925,2284 264,2284 L264,2284 Z" id="Fill-2092" fill="#314E55" sketch:type="MSShapeGroup"></path>
                <g id="Group-2095" transform="translate(249.000000, 2287.000000)">
                    <mask id="mask-4" sketch:name="Clip 2094" fill="white">
                        <use xlink:href="#path-3"></use>
                    </mask>
                    <g id="Clip-2094"></g>
                    <path d="M0,0 L30,0 L30,30 L0,30 L0,0 Z" id="Fill-2093" fill="#F28544" sketch:type="MSShapeGroup" mask="url(#mask-4)"></path>
                </g>
                <path d="M264,2318 C255.178,2318 248,2310.822 248,2302 C248,2293.178 255.178,2286 264,2286 C272.822,2286 280,2293.178 280,2302 C280,2310.822 272.822,2318 264,2318 L264,2318 Z M264,2288 C256.28,2288 250,2294.28 250,2302 C250,2309.72 256.28,2316 264,2316 C271.72,2316 278,2309.72 278,2302 C278,2294.28 271.72,2288 264,2288 L264,2288 Z" id="Fill-2096" fill="#314E55" sketch:type="MSShapeGroup"></path>
                <path d="M254,2301 L259,2301 L259,2303 L254,2303 L254,2301 Z" id="Fill-2097" fill="#314E55" sketch:type="MSShapeGroup"></path>
                <path d="M261,2301 L267,2301 L267,2303 L261,2303 L261,2301 Z" id="Fill-2098" fill="#314E55" sketch:type="MSShapeGroup"></path>
                <path d="M269,2301 L274,2301 L274,2303 L269,2303 L269,2301 Z" id="Fill-2099" fill="#314E55" sketch:type="MSShapeGroup"></path>
                <path d="M290.51,2329.924 L276.586,2316 L278,2314.586 L291.924,2328.51 L290.51,2329.924" id="Fill-2100" fill="#314E55" sketch:type="MSShapeGroup"></path>
            </g>
        </g>
    </g>
</svg>