<?xml version="1.0" encoding="UTF-8" standalone="no"?>
<svg width="60px" height="60px" viewBox="0 0 60 60" version="1.1" xmlns="http://www.w3.org/2000/svg" xmlns:xlink="http://www.w3.org/1999/xlink" xmlns:sketch="http://www.bohemiancoding.com/sketch/ns">
    <!-- Generator: Sketch 3.3.3 (12081) - http://www.bohemiancoding.com/sketch -->
    <title>Search</title>
    <desc>Created with Sketch.</desc>
    <defs>
        <path id="path-1" d="M2.5,5 C3.881,5 5,3.881 5,2.5 C5,1.119 3.881,0 2.5,0 C1.119,0 0,1.119 0,2.5 C0,3.881 1.119,5 2.5,5 L2.5,5 Z"></path>
        <path id="path-3" d="M0,0 L1.581,1.581 L0,0 Z"></path>
    </defs>
    <g id="outlined" stroke="none" stroke-width="1" fill="none" fill-rule="evenodd" sketch:type="MSPage">
        <g id="Interface_sliced" sketch:type="MSLayerGroup" transform="translate(-120.000000, -2160.000000)">
            <g id="Imported-Layers" transform="translate(2.000000, 4.000000)">
                <path d="M121,2166 L175,2166 L175,2206 L121,2206 L121,2166 Z" id="Fill-1905" fill="#EBEBEB" sketch:type="MSShapeGroup"></path>
                <path d="M175,2207 L121,2207 C120.448,2207 120,2206.553 120,2206 L120,2166 C120,2165.447 120.448,2165 121,2165 L175,2165 C175.552,2165 176,2165.447 176,2166 L176,2206 C176,2206.553 175.552,2207 175,2207 L175,2207 Z M122,2205 L174,2205 L174,2167 L122,2167 L122,2205 Z" id="Fill-1907" fill="#314E55" sketch:type="MSShapeGroup"></path>
                <path d="M160,2179 L175,2179 L175,2193 L160,2193 L160,2179 Z" id="Fill-1908" fill="#5ECB66" sketch:type="MSShapeGroup"></path>
                <path d="M175,2194 L160,2194 C159.448,2194 159,2193.553 159,2193 L159,2179 C159,2178.447 159.448,2178 160,2178 L175,2178 C175.552,2178 176,2178.447 176,2179 L176,2193 C176,2193.553 175.552,2194 175,2194 L175,2194 Z M161,2192 L174,2192 L174,2180 L161,2180 L161,2192 Z" id="Fill-1910" fill="#314E55" sketch:type="MSShapeGroup"></path>
                <path d="M121,2179 L160,2179 L160,2193 L121,2193 L121,2179 Z" id="Fill-1911" fill="#D8D8D8" sketch:type="MSShapeGroup"></path>
                <path d="M160,2194 L121,2194 C120.448,2194 120,2193.553 120,2193 L120,2179 C120,2178.447 120.448,2178 121,2178 L160,2178 C160.552,2178 161,2178.447 161,2179 L161,2193 C161,2193.553 160.552,2194 160,2194 L160,2194 Z M122,2192 L159,2192 L159,2180 L122,2180 L122,2192 Z" id="Fill-1913" fill="#314E55" sketch:type="MSShapeGroup"></path>
                <g id="Group-1916" transform="translate(164.000000, 2182.000000)">
                    <mask id="mask-2" sketch:name="Clip 1915" fill="white">
                        <use xlink:href="#path-1"></use>
                    </mask>
                    <g id="Clip-1915"></g>
                    <path d="M0,0 L5,0 L5,5 L0,5 L0,0 Z" id="Fill-1914" fill="#D8D8D8" sketch:type="MSShapeGroup" mask="url(#mask-2)"></path>
                </g>
                <path d="M166.5,2188 C164.57,2188 163,2186.43 163,2184.5 C163,2182.57 164.57,2181 166.5,2181 C168.43,2181 170,2182.57 170,2184.5 C170,2186.43 168.43,2188 166.5,2188 L166.5,2188 Z M166.5,2183 C165.673,2183 165,2183.673 165,2184.5 C165,2185.327 165.673,2186 166.5,2186 C167.327,2186 168,2185.327 168,2184.5 C168,2183.673 167.327,2183 166.5,2183 L166.5,2183 Z" id="Fill-1917" fill="#314E55" sketch:type="MSShapeGroup"></path>
                <g id="Group-1920" transform="translate(169.000000, 2187.000000)">
                    <mask id="mask-4" sketch:name="Clip 1919" fill="white">
                        <use xlink:href="#path-3"></use>
                    </mask>
                    <g id="Clip-1919"></g>
                    <path d="M0,0 L1.581,0 L1.581,1.581 L0,1.581 L0,0 Z" id="Fill-1918" fill="#D8D8D8" sketch:type="MSShapeGroup" mask="url(#mask-4)"></path>
                </g>
                <path d="M170.581,2189.995 L167.586,2187 L169,2185.586 L171.995,2188.581 L170.581,2189.995" id="Fill-1921" fill="#314E55" sketch:type="MSShapeGroup"></path>
            </g>
        </g>
    </g>
</svg>