<?xml version="1.0" encoding="UTF-8" standalone="no"?>
<svg width="60px" height="60px" viewBox="0 0 60 60" version="1.1" xmlns="http://www.w3.org/2000/svg" xmlns:xlink="http://www.w3.org/1999/xlink" xmlns:sketch="http://www.bohemiancoding.com/sketch/ns">
    <!-- Generator: Sketch 3.3.3 (12081) - http://www.bohemiancoding.com/sketch -->
    <title>Searchglass</title>
    <desc>Created with Sketch.</desc>
    <defs>
        <path id="path-1" d="M19,38 C29.493,38 38,29.493 38,19 C38,8.507 29.493,0 19,0 C8.507,0 0,8.507 0,19 C0,29.493 8.507,38 19,38 L19,38 Z"></path>
    </defs>
    <g id="outlined" stroke="none" stroke-width="1" fill="none" fill-rule="evenodd" sketch:type="MSPage">
        <g id="Interface_sliced" sketch:type="MSLayerGroup" transform="translate(-120.000000, -2280.000000)">
            <g id="Imported-Layers" transform="translate(2.000000, 4.000000)">
                <g id="Group-2085" transform="translate(125.000000, 2283.000000)">
                    <mask id="mask-2" sketch:name="Clip 2084" fill="white">
                        <use xlink:href="#path-1"></use>
                    </mask>
                    <g id="Clip-2084"></g>
                    <path d="M0,0 L38,0 L38,38 L0,38 L0,0 Z" id="Fill-2083" fill="#EB86A5" sketch:type="MSShapeGroup" mask="url(#mask-2)"></path>
                </g>
                <path d="M144,2322 C132.972,2322 124,2313.028 124,2302 C124,2290.972 132.972,2282 144,2282 C155.028,2282 164,2290.972 164,2302 C164,2313.028 155.028,2322 144,2322 L144,2322 Z M144,2284 C134.075,2284 126,2292.075 126,2302 C126,2311.925 134.075,2320 144,2320 C153.925,2320 162,2311.925 162,2302 C162,2292.075 153.925,2284 144,2284 L144,2284 Z" id="Fill-2086" fill="#314E55" sketch:type="MSShapeGroup"></path>
                <path d="M129,2303 C128.448,2303 128,2302.553 128,2302 C128,2293.178 135.178,2286 144,2286 C144.552,2286 145,2286.447 145,2287 C145,2287.553 144.552,2288 144,2288 C136.28,2288 130,2294.28 130,2302 C130,2302.553 129.552,2303 129,2303" id="Fill-2087" fill="#314E55" sketch:type="MSShapeGroup"></path>
                <path d="M170.51,2329.924 L156.586,2316 L158,2314.586 L171.924,2328.51 L170.51,2329.924" id="Fill-2088" fill="#314E55" sketch:type="MSShapeGroup"></path>
            </g>
        </g>
    </g>
</svg>