<?xml version="1.0" encoding="UTF-8" standalone="no"?>
<svg width="60px" height="60px" viewBox="0 0 60 60" version="1.1" xmlns="http://www.w3.org/2000/svg" xmlns:xlink="http://www.w3.org/1999/xlink" xmlns:sketch="http://www.bohemiancoding.com/sketch/ns">
    <!-- Generator: Sketch 3.3.3 (12081) - http://www.bohemiancoding.com/sketch -->
    <title>Settingsstar</title>
    <desc>Created with Sketch.</desc>
    <defs>
        <path id="path-1" d="M5,7.5 L2.061,9.045 L2.622,5.773 L0.245,3.455 L3.53,2.977 L5,0 L6.469,2.977 L9.755,3.455 L7.378,5.773 L7.939,9.045 L5,7.5 L5,7.5 Z"></path>
        <path id="path-3" d="M5,7.5 L2.061,9.045 L2.622,5.773 L0.245,3.455 L3.53,2.977 L5,0 L6.469,2.977 L9.755,3.455 L7.378,5.773 L7.939,9.045 L5,7.5 L5,7.5 Z"></path>
        <path id="path-5" d="M5,7.5 L2.061,9.045 L2.622,5.773 L0.245,3.455 L3.53,2.977 L5,0 L6.469,2.977 L9.755,3.455 L7.378,5.773 L7.939,9.045 L5,7.5 L5,7.5 Z"></path>
    </defs>
    <g id="outlined" stroke="none" stroke-width="1" fill="none" fill-rule="evenodd" sketch:type="MSPage">
        <g id="Interface_sliced" sketch:type="MSLayerGroup" transform="translate(-240.000000, 0.000000)">
            <g id="Imported-Layers" transform="translate(2.000000, 4.000000)">
                <g id="Group-33" transform="translate(244.000000, 5.000000)">
                    <mask id="mask-2" sketch:name="Clip 32" fill="white">
                        <use xlink:href="#path-1"></use>
                    </mask>
                    <g id="Clip-32"></g>
                    <path d="M0.245,0 L9.756,0 L9.756,9.045 L0.245,9.045 L0.245,0 Z" id="Fill-31" fill="#DBCF56" sketch:type="MSShapeGroup" mask="url(#mask-2)"></path>
                </g>
                <path d="M251.939,15.045 C251.78,15.045 251.62,15.007 251.474,14.93 L249,13.63 L246.526,14.93 C246.19,15.107 245.782,15.078 245.473,14.854 C245.165,14.63 245.011,14.251 245.076,13.876 L245.548,11.122 L243.547,9.171 C243.274,8.906 243.176,8.508 243.293,8.146 C243.411,7.784 243.724,7.52 244.101,7.465 L246.866,7.063 L248.103,4.558 C248.272,4.216 248.62,4 249,4 C249.381,4 249.728,4.216 249.897,4.558 L251.133,7.063 L253.899,7.465 C254.276,7.52 254.589,7.784 254.707,8.146 C254.824,8.508 254.726,8.906 254.453,9.171 L252.452,11.122 L252.892,13.683 C252.935,13.795 252.959,13.917 252.959,14.045 C252.959,14.597 252.511,15.045 251.959,15.045 C251.951,15.044 251.944,15.044 251.939,15.045 L251.939,15.045 Z M249,11.5 C249.16,11.5 249.32,11.538 249.465,11.615 L250.611,12.217 L250.392,10.941 C250.336,10.617 250.444,10.286 250.68,10.056 L251.606,9.153 L250.325,8.967 C250,8.92 249.718,8.715 249.572,8.42 L249,7.26 L248.427,8.42 C248.281,8.715 248,8.92 247.674,8.967 L246.394,9.153 L247.32,10.056 C247.556,10.286 247.664,10.617 247.608,10.941 L247.389,12.217 L248.535,11.615 C248.68,11.538 248.84,11.5 249,11.5 L249,11.5 Z" id="Fill-34" fill="#314E55" sketch:type="MSShapeGroup"></path>
                <g id="Group-37" transform="translate(244.000000, 21.000000)">
                    <mask id="mask-4" sketch:name="Clip 36" fill="white">
                        <use xlink:href="#path-3"></use>
                    </mask>
                    <g id="Clip-36"></g>
                    <path d="M0.245,0 L9.756,0 L9.756,9.045 L0.245,9.045 L0.245,0 Z" id="Fill-35" fill="#DBCF56" sketch:type="MSShapeGroup" mask="url(#mask-4)"></path>
                </g>
                <path d="M251.939,31.045 C251.78,31.045 251.62,31.007 251.474,30.93 L249,29.63 L246.526,30.93 C246.19,31.107 245.782,31.078 245.473,30.854 C245.165,30.63 245.011,30.251 245.076,29.876 L245.548,27.122 L243.547,25.171 C243.274,24.906 243.176,24.508 243.293,24.146 C243.411,23.784 243.724,23.52 244.101,23.465 L246.866,23.063 L248.103,20.558 C248.272,20.216 248.62,20 249,20 C249.381,20 249.728,20.216 249.897,20.558 L251.133,23.063 L253.899,23.465 C254.276,23.52 254.589,23.784 254.707,24.146 C254.824,24.508 254.726,24.906 254.453,25.171 L252.452,27.122 L252.892,29.683 C252.935,29.795 252.959,29.917 252.959,30.045 C252.959,30.597 252.511,31.045 251.959,31.045 L251.939,31.045 L251.939,31.045 Z M249,27.5 C249.16,27.5 249.32,27.538 249.465,27.615 L250.611,28.217 L250.392,26.941 C250.336,26.617 250.444,26.286 250.68,26.056 L251.606,25.153 L250.325,24.967 C250,24.92 249.718,24.715 249.572,24.42 L249,23.26 L248.427,24.42 C248.281,24.715 248,24.92 247.674,24.967 L246.394,25.153 L247.32,26.056 C247.556,26.286 247.664,26.617 247.608,26.941 L247.389,28.217 L248.535,27.615 C248.68,27.538 248.84,27.5 249,27.5 L249,27.5 Z" id="Fill-38" fill="#314E55" sketch:type="MSShapeGroup"></path>
                <g id="Group-41" transform="translate(244.000000, 37.000000)">
                    <mask id="mask-6" sketch:name="Clip 40" fill="white">
                        <use xlink:href="#path-5"></use>
                    </mask>
                    <g id="Clip-40"></g>
                    <path d="M0.245,0 L9.756,0 L9.756,9.045 L0.245,9.045 L0.245,0 Z" id="Fill-39" fill="#DBCF56" sketch:type="MSShapeGroup" mask="url(#mask-6)"></path>
                </g>
                <path d="M251.939,47.045 C251.78,47.045 251.62,47.007 251.474,46.93 L249,45.63 L246.526,46.93 C246.19,47.107 245.782,47.078 245.473,46.854 C245.165,46.63 245.011,46.251 245.076,45.876 L245.548,43.122 L243.547,41.171 C243.274,40.906 243.176,40.508 243.293,40.146 C243.411,39.784 243.724,39.52 244.101,39.465 L246.866,39.063 L248.103,36.558 C248.272,36.216 248.62,36 249,36 C249.381,36 249.728,36.216 249.897,36.558 L251.133,39.063 L253.899,39.465 C254.276,39.52 254.589,39.784 254.707,40.146 C254.824,40.508 254.726,40.906 254.453,41.171 L252.452,43.122 L252.892,45.683 C252.935,45.795 252.959,45.917 252.959,46.045 C252.959,46.597 252.511,47.045 251.959,47.045 C251.951,47.044 251.944,47.044 251.939,47.045 L251.939,47.045 Z M249,43.5 C249.16,43.5 249.32,43.538 249.465,43.615 L250.611,44.217 L250.392,42.941 C250.336,42.617 250.444,42.286 250.68,42.056 L251.606,41.153 L250.325,40.967 C250,40.92 249.718,40.715 249.572,40.42 L249,39.26 L248.427,40.42 C248.281,40.715 248,40.92 247.674,40.967 L246.394,41.153 L247.32,42.056 C247.556,42.286 247.664,42.617 247.608,42.941 L247.389,44.217 L248.535,43.615 C248.68,43.538 248.84,43.5 249,43.5 L249,43.5 Z" id="Fill-42" fill="#314E55" sketch:type="MSShapeGroup"></path>
                <path d="M291.201,11 L259,11 C258.448,11 258,10.552 258,10 C258,9.448 258.448,9 259,9 L291.201,9 C291.753,9 292.201,9.448 292.201,10 C292.201,10.552 291.753,11 291.201,11" id="Fill-43" fill="#314E55" sketch:type="MSShapeGroup"></path>
                <path d="M291.201,27 L259,27 C258.448,27 258,26.552 258,26 C258,25.448 258.448,25 259,25 L291.201,25 C291.753,25 292.201,25.448 292.201,26 C292.201,26.552 291.753,27 291.201,27" id="Fill-44" fill="#314E55" sketch:type="MSShapeGroup"></path>
                <path d="M291.201,43 L259,43 C258.448,43 258,42.552 258,42 C258,41.448 258.448,41 259,41 L291.201,41 C291.753,41 292.201,41.448 292.201,42 C292.201,42.552 291.753,43 291.201,43" id="Fill-45" fill="#314E55" sketch:type="MSShapeGroup"></path>
            </g>
        </g>
    </g>
</svg>