<?xml version="1.0" encoding="UTF-8" standalone="no"?>
<svg width="60px" height="60px" viewBox="0 0 60 60" version="1.1" xmlns="http://www.w3.org/2000/svg" xmlns:xlink="http://www.w3.org/1999/xlink" xmlns:sketch="http://www.bohemiancoding.com/sketch/ns">
    <!-- Generator: Sketch 3.3.3 (12081) - http://www.bohemiancoding.com/sketch -->
    <title>Settings</title>
    <desc>Created with Sketch.</desc>
    <defs>
        <path id="path-1" d="M0,3 C0,1.343 1.337,0 2.996,0 L47.003,0 C48.658,0 50,1.347 50,3 C50,4.657 48.663,6 47.003,6 L2.996,6 C1.342,6 0,4.653 0,3 L0,3 Z"></path>
        <path id="path-3" d="M0,3 C0,1.343 1.337,0 2.996,0 L47.003,0 C48.658,0 50,1.347 50,3 C50,4.657 48.663,6 47.003,6 L2.996,6 C1.342,6 0,4.653 0,3 L0,3 Z"></path>
        <path id="path-5" d="M0,3 C0,1.343 1.337,0 2.996,0 L47.003,0 C48.658,0 50,1.347 50,3 C50,4.657 48.663,6 47.003,6 L2.996,6 C1.342,6 0,4.653 0,3 L0,3 Z"></path>
    </defs>
    <g id="outlined" stroke="none" stroke-width="1" fill="none" fill-rule="evenodd" sketch:type="MSPage">
        <g id="Interface_sliced" sketch:type="MSLayerGroup">
            <g id="Imported-Layers" transform="translate(2.000000, 4.000000)">
                <g id="Group-3" transform="translate(3.000000, 7.000000)">
                    <mask id="mask-2" sketch:name="Clip 2" fill="white">
                        <use xlink:href="#path-1"></use>
                    </mask>
                    <g id="Clip-2"></g>
                    <path d="M0,0 L50,0 L50,6 L0,6 L0,0 Z" id="Fill-1" fill="#C59981" sketch:type="MSShapeGroup" mask="url(#mask-2)"></path>
                </g>
                <path d="M50.003,14 L5.997,14 C3.793,14 2,12.206 2,10 C2,7.794 3.793,6 5.997,6 L50.003,6 C52.207,6 54,7.794 54,10 C54,12.206 52.207,14 50.003,14 L50.003,14 Z M5.997,8 C4.895,8 4,8.897 4,10 C4,11.103 4.895,12 5.997,12 L50.003,12 C51.104,12 52,11.103 52,10 C52,8.897 51.104,8 50.003,8 L5.997,8 L5.997,8 Z" id="Fill-4" fill="#314E55" sketch:type="MSShapeGroup"></path>
                <g id="Group-7" transform="translate(3.000000, 23.000000)">
                    <mask id="mask-4" sketch:name="Clip 6" fill="white">
                        <use xlink:href="#path-3"></use>
                    </mask>
                    <g id="Clip-6"></g>
                    <path d="M0,0 L50,0 L50,6 L0,6 L0,0 Z" id="Fill-5" fill="#C59981" sketch:type="MSShapeGroup" mask="url(#mask-4)"></path>
                </g>
                <path d="M50.003,30 L5.997,30 C3.793,30 2,28.206 2,26 C2,23.794 3.793,22 5.997,22 L50.003,22 C52.207,22 54,23.794 54,26 C54,28.206 52.207,30 50.003,30 L50.003,30 Z M5.997,24 C4.895,24 4,24.897 4,26 C4,27.103 4.895,28 5.997,28 L50.003,28 C51.104,28 52,27.103 52,26 C52,24.897 51.104,24 50.003,24 L5.997,24 L5.997,24 Z" id="Fill-8" fill="#314E55" sketch:type="MSShapeGroup"></path>
                <g id="Group-11" transform="translate(3.000000, 39.000000)">
                    <mask id="mask-6" sketch:name="Clip 10" fill="white">
                        <use xlink:href="#path-5"></use>
                    </mask>
                    <g id="Clip-10"></g>
                    <path d="M0,0 L50,0 L50,6 L0,6 L0,0 Z" id="Fill-9" fill="#C59981" sketch:type="MSShapeGroup" mask="url(#mask-6)"></path>
                </g>
                <path d="M50.003,46 L5.997,46 C3.793,46 2,44.206 2,42 C2,39.794 3.793,38 5.997,38 L50.003,38 C52.207,38 54,39.794 54,42 C54,44.206 52.207,46 50.003,46 L50.003,46 Z M5.997,40 C4.895,40 4,40.897 4,42 C4,43.103 4.895,44 5.997,44 L50.003,44 C51.104,44 52,43.103 52,42 C52,40.897 51.104,40 50.003,40 L5.997,40 L5.997,40 Z" id="Fill-12" fill="#314E55" sketch:type="MSShapeGroup"></path>
            </g>
        </g>
    </g>
</svg>