<?xml version="1.0" encoding="UTF-8" standalone="no"?>
<svg width="60px" height="60px" viewBox="0 0 60 60" version="1.1" xmlns="http://www.w3.org/2000/svg" xmlns:xlink="http://www.w3.org/1999/xlink" xmlns:sketch="http://www.bohemiancoding.com/sketch/ns">
    <!-- Generator: Sketch 3.3.3 (12081) - http://www.bohemiancoding.com/sketch -->
    <title>Shapebuilder</title>
    <desc>Created with Sketch.</desc>
    <defs>
        <path id="path-1" d="M2,21 L0,0.5 L17,12 L8.5,13 L2,21 L2,21 Z"></path>
        <path id="path-3" d="M12,24 C18.627,24 24,18.627 24,12 C24,5.373 18.627,0 12,0 C5.373,0 0,5.373 0,12 C0,18.627 5.373,24 12,24 L12,24 Z"></path>
    </defs>
    <g id="outlined" stroke="none" stroke-width="1" fill="none" fill-rule="evenodd" sketch:type="MSPage">
        <g id="Interface_sliced" sketch:type="MSLayerGroup" transform="translate(-360.000000, -1200.000000)">
            <g id="Imported-Layers" transform="translate(2.000000, 4.000000)">
                <g id="Group-1019" transform="translate(395.000000, 1229.000000)">
                    <mask id="mask-2" sketch:name="Clip 1018" fill="white">
                        <use xlink:href="#path-1"></use>
                    </mask>
                    <g id="Clip-1018"></g>
                    <path d="M0,0.5 L17,0.5 L17,21 L0,21 L0,0.5 Z" id="Fill-1017" fill="#E4AD40" sketch:type="MSShapeGroup" mask="url(#mask-2)"></path>
                </g>
                <path d="M397,1251 C396.904,1251 396.807,1250.986 396.711,1250.958 C396.323,1250.841 396.044,1250.501 396.005,1250.097 L394.005,1229.597 C393.967,1229.211 394.156,1228.839 394.489,1228.641 C394.821,1228.443 395.24,1228.455 395.56,1228.672 L412.56,1240.172 C412.906,1240.406 413.07,1240.83 412.972,1241.236 C412.873,1241.643 412.532,1241.944 412.117,1241.993 L404.02,1242.945 L397.776,1250.631 C397.583,1250.868 397.296,1251 397,1251 L397,1251 Z M396.202,1231.521 L397.759,1247.48 L402.724,1241.369 C402.888,1241.167 403.124,1241.037 403.383,1241.007 L409.212,1240.321 L396.202,1231.521 L396.202,1231.521 Z" id="Fill-1020" fill="#314E55" sketch:type="MSShapeGroup"></path>
                <g id="Group-1023" transform="translate(361.000000, 1210.000000)">
                    <mask id="mask-4" sketch:name="Clip 1022" fill="white">
                        <use xlink:href="#path-3"></use>
                    </mask>
                    <g id="Clip-1022"></g>
                    <path d="M0,0 L24,0 L24,24 L0,24 L0,0 Z" id="Fill-1021" fill="#73C9C9" sketch:type="MSShapeGroup" mask="url(#mask-4)"></path>
                </g>
                <path d="M373,1235 C365.831,1235 360,1229.168 360,1222 C360,1214.832 365.831,1209 373,1209 C380.168,1209 386,1214.832 386,1222 C386,1229.168 380.168,1235 373,1235 L373,1235 Z M373,1211 C366.935,1211 362,1215.935 362,1222 C362,1228.065 366.935,1233 373,1233 C379.065,1233 384,1228.065 384,1222 C384,1215.935 379.065,1211 373,1211 L373,1211 Z" id="Fill-1024" fill="#314E55" sketch:type="MSShapeGroup"></path>
                <path d="M367,1224 C365.897,1224 365,1223.103 365,1222 C365,1220.897 365.897,1220 367,1220 C368.103,1220 369,1220.897 369,1222 C369,1223.103 368.103,1224 367,1224" id="Fill-1025" fill="#314E55" sketch:type="MSShapeGroup"></path>
                <path d="M373,1224 C371.897,1224 371,1223.103 371,1222 C371,1220.897 371.897,1220 373,1220 C374.103,1220 375,1220.897 375,1222 C375,1223.103 374.103,1224 373,1224" id="Fill-1026" fill="#314E55" sketch:type="MSShapeGroup"></path>
                <path d="M379,1224 C377.897,1224 377,1223.103 377,1222 C377,1220.897 377.897,1220 379,1220 C380.103,1220 381,1220.897 381,1222 C381,1223.103 380.103,1224 379,1224" id="Fill-1027" fill="#314E55" sketch:type="MSShapeGroup"></path>
                <path d="M395,1239 C389.347,1239 384.079,1236.201 380.908,1231.513 C380.599,1231.055 380.719,1230.434 381.177,1230.124 C381.634,1229.814 382.256,1229.934 382.565,1230.391 C385.363,1234.529 390.012,1237 395,1237 C395.552,1237 396,1237.447 396,1238 C396,1238.553 395.552,1239 395,1239 L395,1239 Z M403.936,1236.274 C403.615,1236.274 403.3,1236.12 403.106,1235.834 C402.798,1235.376 402.918,1234.754 403.376,1234.445 C407.524,1231.647 410,1226.995 410,1222 C410,1213.729 403.271,1207 395,1207 C390.016,1207 385.369,1209.468 382.57,1213.601 C382.261,1214.058 381.639,1214.178 381.182,1213.868 C380.724,1213.559 380.604,1212.936 380.914,1212.479 C384.085,1207.796 389.351,1205 395,1205 C404.374,1205 412,1212.626 412,1222 C412,1227.661 409.194,1232.933 404.495,1236.104 C404.323,1236.219 404.129,1236.274 403.936,1236.274 L403.936,1236.274 Z" id="Fill-1028" fill="#314E55" sketch:type="MSShapeGroup"></path>
            </g>
        </g>
    </g>
</svg>