<?xml version="1.0" encoding="UTF-8" standalone="no"?>
<svg width="60px" height="60px" viewBox="0 0 60 60" version="1.1" xmlns="http://www.w3.org/2000/svg" xmlns:xlink="http://www.w3.org/1999/xlink" xmlns:sketch="http://www.bohemiancoding.com/sketch/ns">
    <!-- Generator: Sketch 3.3.3 (12081) - http://www.bohemiancoding.com/sketch -->
    <title>Sidebars</title>
    <desc>Created with Sketch.</desc>
    <defs></defs>
    <g id="outlined" stroke="none" stroke-width="1" fill="none" fill-rule="evenodd" sketch:type="MSPage">
        <g id="Interface_sliced" sketch:type="MSLayerGroup" transform="translate(-240.000000, -360.000000)">
            <g id="Imported-Layers" transform="translate(2.000000, 4.000000)" sketch:type="MSShapeGroup">
                <path d="M243,386 L260,386 L260,411 L243,411 L243,386 Z" id="Fill-297" fill="#D8D8D8"></path>
                <path d="M260,412 L243,412 C242.448,412 242,411.552 242,411 L242,386 C242,385.448 242.448,385 243,385 L260,385 C260.552,385 261,385.448 261,386 L261,411 C261,411.552 260.552,412 260,412 L260,412 Z M244,410 L259,410 L259,387 L244,387 L244,410 Z" id="Fill-299" fill="#314E55"></path>
                <path d="M277,386 L294,386 L294,411 L277,411 L277,386 Z" id="Fill-300" fill="#EBEBEB"></path>
                <path d="M294,412 L277,412 C276.448,412 276,411.552 276,411 L276,386 C276,385.448 276.448,385 277,385 L294,385 C294.552,385 295,385.448 295,386 L295,411 C295,411.552 294.552,412 294,412 L294,412 Z M278,410 L293,410 L293,387 L278,387 L278,410 Z" id="Fill-302" fill="#314E55"></path>
                <path d="M243,361 L260,361 L260,386 L243,386 L243,361 Z" id="Fill-303" fill="#EBEBEB"></path>
                <path d="M260,387 L243,387 C242.448,387 242,386.552 242,386 L242,361 C242,360.448 242.448,360 243,360 L260,360 C260.552,360 261,360.448 261,361 L261,386 C261,386.552 260.552,387 260,387 L260,387 Z M244,385 L259,385 L259,362 L244,362 L244,385 Z" id="Fill-305" fill="#314E55"></path>
                <path d="M277,361 L294,361 L294,386 L277,386 L277,361 Z" id="Fill-306" fill="#D8D8D8"></path>
                <path d="M294,387 L277,387 C276.448,387 276,386.552 276,386 L276,361 C276,360.448 276.448,360 277,360 L294,360 C294.552,360 295,360.448 295,361 L295,386 C295,386.552 294.552,387 294,387 L294,387 Z M278,385 L293,385 L293,362 L278,362 L278,385 Z" id="Fill-308" fill="#314E55"></path>
                <path d="M260,361 L277,361 L277,411 L260,411 L260,361 Z" id="Fill-309" fill="#D8D8D8"></path>
                <path d="M277,412 L260,412 C259.448,412 259,411.552 259,411 L259,361 C259,360.448 259.448,360 260,360 L277,360 C277.552,360 278,360.448 278,361 L278,411 C278,411.552 277.552,412 277,412 L277,412 Z M261,410 L276,410 L276,362 L261,362 L261,410 Z" id="Fill-311" fill="#314E55"></path>
            </g>
        </g>
    </g>
</svg>