<?xml version="1.0" encoding="UTF-8" standalone="no"?>
<svg width="60px" height="60px" viewBox="0 0 60 60" version="1.1" xmlns="http://www.w3.org/2000/svg" xmlns:xlink="http://www.w3.org/1999/xlink" xmlns:sketch="http://www.bohemiancoding.com/sketch/ns">
    <!-- Generator: Sketch 3.3.3 (12081) - http://www.bohemiancoding.com/sketch -->
    <title>Simplesearch</title>
    <desc>Created with Sketch.</desc>
    <defs>
        <path id="path-1" d="M19,38 C29.493,38 38,29.493 38,19 C38,8.507 29.493,0 19,0 C8.507,0 0,8.507 0,19 C0,29.493 8.507,38 19,38 L19,38 Z"></path>
    </defs>
    <g id="outlined" stroke="none" stroke-width="1" fill="none" fill-rule="evenodd" sketch:type="MSPage">
        <g id="Interface_sliced" sketch:type="MSLayerGroup" transform="translate(0.000000, -2280.000000)">
            <g id="Imported-Layers" transform="translate(2.000000, 4.000000)">
                <g id="Group-2080" transform="translate(5.000000, 2283.000000)">
                    <mask id="mask-2" sketch:name="Clip 2079" fill="white">
                        <use xlink:href="#path-1"></use>
                    </mask>
                    <g id="Clip-2079"></g>
                    <path d="M0,0 L38,0 L38,38 L0,38 L0,0 Z" id="Fill-2078" fill="#73C9C9" sketch:type="MSShapeGroup" mask="url(#mask-2)"></path>
                </g>
                <path d="M24,2322 C12.972,2322 4,2313.028 4,2302 C4,2290.972 12.972,2282 24,2282 C35.028,2282 44,2290.972 44,2302 C44,2313.028 35.028,2322 24,2322 L24,2322 Z M24,2284 C14.075,2284 6,2292.075 6,2302 C6,2311.925 14.075,2320 24,2320 C33.925,2320 42,2311.925 42,2302 C42,2292.075 33.925,2284 24,2284 L24,2284 Z" id="Fill-2081" fill="#314E55" sketch:type="MSShapeGroup"></path>
                <path d="M50.51,2329.924 L36.586,2316 L38,2314.586 L51.924,2328.51 L50.51,2329.924" id="Fill-2082" fill="#314E55" sketch:type="MSShapeGroup"></path>
            </g>
        </g>
    </g>
</svg>