<?xml version="1.0" encoding="UTF-8" standalone="no"?>
<svg width="60px" height="60px" viewBox="0 0 60 60" version="1.1" xmlns="http://www.w3.org/2000/svg" xmlns:xlink="http://www.w3.org/1999/xlink" xmlns:sketch="http://www.bohemiancoding.com/sketch/ns">
    <!-- Generator: Sketch 3.3.3 (12081) - http://www.bohemiancoding.com/sketch -->
    <title>Softwares</title>
    <desc>Created with Sketch.</desc>
    <defs>
        <path id="path-1" d="M22,20 L32,20 L32,0 L0,0 L0,12 L22,12 L22,20 L22,20 Z"></path>
        <path id="path-3" d="M0,0 L2,0 L2,2 L0,2"></path>
        <path id="path-5" d="M0,0 L2,0 L2,2 L0,2"></path>
        <path id="path-7" d="M0,0 L2,0 L2,2 L0,2"></path>
        <path id="path-9" d="M0,0 L2,0 L2,2 L0,2"></path>
        <path id="path-11" d="M0,0 L2,0 L2,2 L0,2"></path>
        <path id="path-13" d="M0,0 L2,0 L2,2 L0,2"></path>
    </defs>
    <g id="outlined" stroke="none" stroke-width="1" fill="none" fill-rule="evenodd" sketch:type="MSPage">
        <g id="Interface_sliced" sketch:type="MSLayerGroup" transform="translate(-240.000000, -2040.000000)">
            <g id="Imported-Layers" transform="translate(2.000000, 4.000000)">
                <path d="M242,2046 L296,2046 L296,2086 L242,2086 L242,2046 Z" id="Fill-1711" fill="#EBEBEB" sketch:type="MSShapeGroup"></path>
                <path d="M296,2087 L242,2087 C241.448,2087 241,2086.553 241,2086 L241,2046 C241,2045.447 241.448,2045 242,2045 L296,2045 C296.552,2045 297,2045.447 297,2046 L297,2086 C297,2086.553 296.552,2087 296,2087 L296,2087 Z M243,2085 L295,2085 L295,2047 L243,2047 L243,2085 Z" id="Fill-1713" fill="#314E55" sketch:type="MSShapeGroup"></path>
                <g id="Group-1716" transform="translate(258.000000, 2050.000000)">
                    <mask id="mask-2" sketch:name="Clip 1715" fill="white">
                        <use xlink:href="#path-1"></use>
                    </mask>
                    <g id="Clip-1715"></g>
                    <path d="M0,0 L32,0 L32,20 L0,20 L0,0 Z" id="Fill-1714" fill="#73C9C9" sketch:type="MSShapeGroup" mask="url(#mask-2)"></path>
                </g>
                <path d="M290,2071 L280,2071 C279.448,2071 279,2070.553 279,2070 L279,2063 L258,2063 C257.448,2063 257,2062.553 257,2062 L257,2050 C257,2049.447 257.448,2049 258,2049 L290,2049 C290.552,2049 291,2049.447 291,2050 L291,2070 C291,2070.553 290.552,2071 290,2071 L290,2071 Z M281,2069 L289,2069 L289,2051 L259,2051 L259,2061 L280,2061 C280.552,2061 281,2061.447 281,2062 L281,2069 L281,2069 Z" id="Fill-1717" fill="#314E55" sketch:type="MSShapeGroup"></path>
                <path d="M248,2062 L280,2062 L280,2082 L248,2082 L248,2062 Z" id="Fill-1718" fill="#D26CBA" sketch:type="MSShapeGroup"></path>
                <path d="M280,2083 L248,2083 C247.448,2083 247,2082.553 247,2082 L247,2062 C247,2061.447 247.448,2061 248,2061 L280,2061 C280.552,2061 281,2061.447 281,2062 L281,2082 C281,2082.553 280.552,2083 280,2083 L280,2083 Z M249,2081 L279,2081 L279,2063 L249,2063 L249,2081 Z" id="Fill-1720" fill="#314E55" sketch:type="MSShapeGroup"></path>
                <g id="Group-1723" transform="translate(260.000000, 2052.000000)">
                    <mask id="mask-4" sketch:name="Clip 1722" fill="white">
                        <use xlink:href="#path-3"></use>
                    </mask>
                    <g id="Clip-1722"></g>
                    <path d="M2,4 L0,4 C-1.104,4 -2,3.104 -2,2 L-2,0 C-2,-1.104 -1.104,-2 0,-2 L2,-2 C3.104,-2 4,-1.104 4,0 L4,2 C4,3.104 3.104,4 2,4" id="Fill-1721" fill="#314E55" sketch:type="MSShapeGroup" mask="url(#mask-4)"></path>
                </g>
                <g id="Group-1726" transform="translate(250.000000, 2064.000000)">
                    <mask id="mask-6" sketch:name="Clip 1725" fill="white">
                        <use xlink:href="#path-5"></use>
                    </mask>
                    <g id="Clip-1725"></g>
                    <path d="M2,4 L0,4 C-1.104,4 -2,3.104 -2,2 L-2,0 C-2,-1.104 -1.104,-2 0,-2 L2,-2 C3.104,-2 4,-1.104 4,0 L4,2 C4,3.104 3.104,4 2,4" id="Fill-1724" fill="#314E55" sketch:type="MSShapeGroup" mask="url(#mask-6)"></path>
                </g>
                <g id="Group-1729" transform="translate(263.000000, 2052.000000)">
                    <mask id="mask-8" sketch:name="Clip 1728" fill="white">
                        <use xlink:href="#path-7"></use>
                    </mask>
                    <g id="Clip-1728"></g>
                    <path d="M2,4 L0,4 C-1.104,4 -2,3.104 -2,2 L-2,0 C-2,-1.104 -1.104,-2 0,-2 L2,-2 C3.104,-2 4,-1.104 4,0 L4,2 C4,3.104 3.104,4 2,4" id="Fill-1727" fill="#314E55" sketch:type="MSShapeGroup" mask="url(#mask-8)"></path>
                </g>
                <g id="Group-1732" transform="translate(253.000000, 2064.000000)">
                    <mask id="mask-10" sketch:name="Clip 1731" fill="white">
                        <use xlink:href="#path-9"></use>
                    </mask>
                    <g id="Clip-1731"></g>
                    <path d="M2,4 L0,4 C-1.104,4 -2,3.104 -2,2 L-2,0 C-2,-1.104 -1.104,-2 0,-2 L2,-2 C3.104,-2 4,-1.104 4,0 L4,2 C4,3.104 3.104,4 2,4" id="Fill-1730" fill="#314E55" sketch:type="MSShapeGroup" mask="url(#mask-10)"></path>
                </g>
                <g id="Group-1735" transform="translate(266.000000, 2052.000000)">
                    <mask id="mask-12" sketch:name="Clip 1734" fill="white">
                        <use xlink:href="#path-11"></use>
                    </mask>
                    <g id="Clip-1734"></g>
                    <path d="M2,4 L0,4 C-1.104,4 -2,3.104 -2,2 L-2,0 C-2,-1.104 -1.104,-2 0,-2 L2,-2 C3.104,-2 4,-1.104 4,0 L4,2 C4,3.104 3.104,4 2,4" id="Fill-1733" fill="#314E55" sketch:type="MSShapeGroup" mask="url(#mask-12)"></path>
                </g>
                <g id="Group-1738" transform="translate(256.000000, 2064.000000)">
                    <mask id="mask-14" sketch:name="Clip 1737" fill="white">
                        <use xlink:href="#path-13"></use>
                    </mask>
                    <g id="Clip-1737"></g>
                    <path d="M2,4 L0,4 C-1.104,4 -2,3.104 -2,2 L-2,0 C-2,-1.104 -1.104,-2 0,-2 L2,-2 C3.104,-2 4,-1.104 4,0 L4,2 C4,3.104 3.104,4 2,4" id="Fill-1736" fill="#314E55" sketch:type="MSShapeGroup" mask="url(#mask-14)"></path>
                </g>
            </g>
        </g>
    </g>
</svg>