<?xml version="1.0" encoding="UTF-8" standalone="no"?>
<svg width="60px" height="60px" viewBox="0 0 60 60" version="1.1" xmlns="http://www.w3.org/2000/svg" xmlns:xlink="http://www.w3.org/1999/xlink" xmlns:sketch="http://www.bohemiancoding.com/sketch/ns">
    <!-- Generator: Sketch 3.3.3 (12081) - http://www.bohemiancoding.com/sketch -->
    <title>Soundsplaylist</title>
    <desc>Created with Sketch.</desc>
    <defs>
        <path id="path-1" d="M10,20 C15.523,20 20,15.523 20,10 C20,4.477 15.523,0 10,0 C4.477,0 0,4.477 0,10 C0,15.523 4.477,20 10,20 L10,20 Z"></path>
        <path d="M2.227,3.835 L5.542,6.52 L2.227,3.835 Z M0.296,12.275 L4.453,11.315 L0.296,12.275 Z M5.671,19.019 L7.541,15.184 L5.671,19.019 Z M14.329,19.019 L12.459,15.184 L14.329,19.019 Z M19.704,12.275 L15.547,11.315 L19.704,12.275 Z M17.773,3.835 L14.458,6.52 L17.773,3.835 Z M10,0.099 L10,4.366 L10,0.099 Z" id="path-3"></path>
        <path id="path-5" d="M0,1 L18,1 L17,0 L17,5 L18,4 L0,4 L1,5 L1,0 L0,1 L0,1 Z"></path>
        <path id="path-7" d="M0,0 L18,0 L18,5 L0,5 L0,0 Z"></path>
    </defs>
    <g id="outlined" stroke="none" stroke-width="1" fill="none" fill-rule="evenodd" sketch:type="MSPage">
        <g id="Interface_sliced" sketch:type="MSLayerGroup" transform="translate(0.000000, -1920.000000)">
            <g id="Imported-Layers" transform="translate(2.000000, 4.000000)">
                <path d="M1,1926 L55,1926 L55,1966 L1,1966 L1,1926 Z" id="Fill-1505" fill="#EBEBEB" sketch:type="MSShapeGroup"></path>
                <path d="M55,1967 L1,1967 C0.448,1967 0,1966.553 0,1966 L0,1926 C0,1925.447 0.448,1925 1,1925 L55,1925 C55.552,1925 56,1925.447 56,1926 L56,1966 C56,1966.553 55.552,1967 55,1967 L55,1967 Z M2,1965 L54,1965 L54,1927 L2,1927 L2,1965 Z" id="Fill-1507" fill="#314E55" sketch:type="MSShapeGroup"></path>
                <g id="Group-1510" transform="translate(30.000000, 1936.000000)">
                    <mask id="mask-2" sketch:name="Clip 1509" fill="white">
                        <use xlink:href="#path-1"></use>
                    </mask>
                    <g id="Clip-1509"></g>
                    <path d="M0,0 L20,0 L20,20 L0,20 L0,0 Z" id="Fill-1508" fill="#EB86A5" sketch:type="MSShapeGroup" mask="url(#mask-2)"></path>
                </g>
                <path d="M40,1957 C33.935,1957 29,1952.065 29,1946 C29,1939.935 33.935,1935 40,1935 C46.065,1935 51,1939.935 51,1946 C51,1952.065 46.065,1957 40,1957 L40,1957 Z M40,1937 C35.038,1937 31,1941.037 31,1946 C31,1950.963 35.038,1955 40,1955 C44.962,1955 49,1950.963 49,1946 C49,1941.037 44.962,1937 40,1937 L40,1937 Z" id="Fill-1511" fill="#314E55" sketch:type="MSShapeGroup"></path>
                <g id="Group-1514" transform="translate(30.000000, 1936.000000)">
                    <mask id="mask-4" sketch:name="Clip 1513" fill="white">
                        <use xlink:href="#path-3"></use>
                    </mask>
                    <g id="Clip-1513"></g>
                    <path d="M0.296,0.099 L19.705,0.099 L19.705,19.019 L0.296,19.019 L0.296,0.099 Z" id="Fill-1512" fill="#D8D8D8" sketch:type="MSShapeGroup" mask="url(#mask-4)"></path>
                </g>
                <path d="M44.33,1956.019 C43.959,1956.019 43.603,1955.813 43.43,1955.458 L41.56,1951.623 C41.317,1951.127 41.524,1950.528 42.02,1950.286 C42.516,1950.042 43.116,1950.249 43.357,1950.746 L45.228,1954.581 C45.47,1955.077 45.264,1955.676 44.768,1955.918 C44.626,1955.987 44.477,1956.019 44.33,1956.019 L44.33,1956.019 Z M35.67,1956.019 C35.523,1956.019 35.373,1955.987 35.232,1955.918 C34.736,1955.676 34.53,1955.077 34.772,1954.581 L36.643,1950.746 C36.885,1950.249 37.482,1950.041 37.98,1950.286 C38.476,1950.528 38.683,1951.127 38.44,1951.623 L36.57,1955.458 C36.396,1955.813 36.04,1956.019 35.67,1956.019 L35.67,1956.019 Z M49.706,1949.275 C49.631,1949.275 49.555,1949.268 49.479,1949.25 L45.322,1948.29 C44.784,1948.166 44.449,1947.629 44.573,1947.091 C44.697,1946.552 45.236,1946.218 45.772,1946.341 L49.93,1947.301 C50.468,1947.425 50.803,1947.962 50.679,1948.5 C50.572,1948.963 50.161,1949.275 49.706,1949.275 L49.706,1949.275 Z M30.294,1949.275 C29.839,1949.275 29.428,1948.963 29.321,1948.5 C29.197,1947.962 29.532,1947.425 30.07,1947.301 L34.227,1946.341 C34.762,1946.215 35.303,1946.552 35.427,1947.091 C35.551,1947.629 35.216,1948.166 34.678,1948.29 L30.52,1949.25 C30.445,1949.268 30.369,1949.275 30.294,1949.275 L30.294,1949.275 Z M44.458,1943.521 C44.167,1943.521 43.878,1943.394 43.681,1943.149 C43.333,1942.721 43.399,1942.091 43.828,1941.743 L47.144,1939.058 C47.572,1938.711 48.202,1938.775 48.551,1939.206 C48.898,1939.635 48.832,1940.265 48.403,1940.612 L45.087,1943.298 C44.902,1943.447 44.679,1943.521 44.458,1943.521 L44.458,1943.521 Z M35.542,1943.521 C35.321,1943.521 35.098,1943.447 34.913,1943.298 L31.597,1940.612 C31.168,1940.265 31.102,1939.635 31.449,1939.206 C31.797,1938.776 32.427,1938.712 32.856,1939.058 L36.172,1941.743 C36.601,1942.091 36.667,1942.721 36.319,1943.149 C36.122,1943.394 35.833,1943.521 35.542,1943.521 L35.542,1943.521 Z M40,1941.366 C39.448,1941.366 39,1940.919 39,1940.366 L39,1936.1 C39,1935.547 39.448,1935.1 40,1935.1 C40.552,1935.1 41,1935.547 41,1936.1 L41,1940.366 C41,1940.919 40.552,1941.366 40,1941.366 L40,1941.366 Z" id="Fill-1515" fill="#314E55" sketch:type="MSShapeGroup"></path>
                <path d="M5,1938 L23.031,1938 L23.031,1940 L5,1940 L5,1938 Z" id="Fill-1516" fill="#314E55" sketch:type="MSShapeGroup"></path>
                <g id="Group-1519" transform="translate(5.000000, 1931.000000)">
                    <mask id="mask-6" sketch:name="Clip 1518" fill="white">
                        <use xlink:href="#path-5"></use>
                    </mask>
                    <g id="Clip-1518"></g>
                    <path d="M0,0 L18,0 L18,5 L0,5 L0,0 Z" id="Fill-1517" fill="#F28544" sketch:type="MSShapeGroup" mask="url(#mask-6)"></path>
                </g>
                <g id="Group-1522" transform="translate(5.000000, 1931.000000)">
                    <mask id="mask-8" sketch:name="Clip 1521" fill="white">
                        <use xlink:href="#path-7"></use>
                    </mask>
                    <g id="Clip-1521"></g>
                    <path d="M18,7 L0,7 C-1.105,7 -2,6.104 -2,5 L-2,0 C-2,-1.105 -1.105,-2 0,-2 L18,-2 C19.104,-2 20,-1.105 20,0 L20,5 C20,6.104 19.104,7 18,7 L18,7 Z M2,3 L16,3 L16,2 L2,2 L2,3 Z" id="Fill-1520" fill="#314E55" sketch:type="MSShapeGroup" mask="url(#mask-8)"></path>
                </g>
                <path d="M5,1942 L23.031,1942 L23.031,1944 L5,1944 L5,1942 Z" id="Fill-1523" fill="#314E55" sketch:type="MSShapeGroup"></path>
                <path d="M5,1946 L23.031,1946 L23.031,1948 L5,1948 L5,1946 Z" id="Fill-1524" fill="#314E55" sketch:type="MSShapeGroup"></path>
                <path d="M5,1950 L23.031,1950 L23.031,1952 L5,1952 L5,1950 Z" id="Fill-1525" fill="#314E55" sketch:type="MSShapeGroup"></path>
                <path d="M5,1954 L23.031,1954 L23.031,1956 L5,1956 L5,1954 Z" id="Fill-1526" fill="#314E55" sketch:type="MSShapeGroup"></path>
                <path d="M5,1958 L23.031,1958 L23.031,1960 L5,1960 L5,1958 Z" id="Fill-1527" fill="#314E55" sketch:type="MSShapeGroup"></path>
            </g>
        </g>
    </g>
</svg>