<?xml version="1.0" encoding="UTF-8" standalone="no"?>
<svg width="60px" height="60px" viewBox="0 0 60 60" version="1.1" xmlns="http://www.w3.org/2000/svg" xmlns:xlink="http://www.w3.org/1999/xlink" xmlns:sketch="http://www.bohemiancoding.com/sketch/ns">
    <!-- Generator: Sketch 3.3.3 (12081) - http://www.bohemiancoding.com/sketch -->
    <title>Striketext</title>
    <desc>Created with Sketch.</desc>
    <defs></defs>
    <g id="outlined" stroke="none" stroke-width="1" fill="none" fill-rule="evenodd" sketch:type="MSPage">
        <g id="Interface_sliced" sketch:type="MSLayerGroup" transform="translate(-240.000000, -1320.000000)" fill="#314E55">
            <g id="Imported-Layers" transform="translate(2.000000, 4.000000)" sketch:type="MSShapeGroup">
                <path d="M268,1324 L270,1324 L270,1370.046 L268,1370.046 L268,1324 Z" id="Fill-1111"></path>
                <path d="M290,1334 C289.617,1334 289.252,1333.779 289.086,1333.406 L285.35,1325 L252.65,1325 L248.914,1333.406 C248.69,1333.91 248.099,1334.138 247.594,1333.914 C247.089,1333.689 246.862,1333.099 247.086,1332.594 L251.086,1323.594 C251.247,1323.232 251.605,1323 252,1323 L286,1323 C286.395,1323 286.753,1323.232 286.914,1323.594 L290.914,1332.594 C291.138,1333.099 290.911,1333.689 290.406,1333.914 C290.274,1333.973 290.136,1334 290,1334" id="Fill-1112"></path>
                <path d="M264,1368 L274,1368 L274,1370 L264,1370 L264,1368 Z" id="Fill-1113"></path>
                <path d="M253,1348 L285,1348 L285,1350 L253,1350 L253,1348 Z" id="Fill-1114"></path>
            </g>
        </g>
    </g>
</svg>