<?xml version="1.0" encoding="UTF-8" standalone="no"?>
<svg width="60px" height="60px" viewBox="0 0 60 60" version="1.1" xmlns="http://www.w3.org/2000/svg" xmlns:xlink="http://www.w3.org/1999/xlink" xmlns:sketch="http://www.bohemiancoding.com/sketch/ns">
    <!-- Generator: Sketch 3.3.3 (12081) - http://www.bohemiancoding.com/sketch -->
    <title>Subscribe</title>
    <desc>Created with Sketch.</desc>
    <defs>
        <path id="path-1" d="M0,0 L2,0 L2,2 L0,2"></path>
    </defs>
    <g id="outlined" stroke="none" stroke-width="1" fill="none" fill-rule="evenodd" sketch:type="MSPage">
        <g id="Interface_sliced" sketch:type="MSLayerGroup" transform="translate(-840.000000, -1920.000000)">
            <g id="Imported-Layers" transform="translate(2.000000, 4.000000)">
                <path d="M841,1926 L895,1926 L895,1966 L841,1966 L841,1926 Z" id="Fill-1639" fill="#EBEBEB" sketch:type="MSShapeGroup"></path>
                <path d="M895,1967 L841,1967 C840.447,1967 840,1966.553 840,1966 L840,1926 C840,1925.447 840.447,1925 841,1925 L895,1925 C895.553,1925 896,1925.447 896,1926 L896,1966 C896,1966.553 895.553,1967 895,1967 L895,1967 Z M842,1965 L894,1965 L894,1927 L842,1927 L842,1965 Z" id="Fill-1641" fill="#314E55" sketch:type="MSShapeGroup"></path>
                <path d="M851,1934 L885,1934 L885,1959 L851,1959 L851,1934 Z" id="Fill-1642" fill="#81A4E3" sketch:type="MSShapeGroup"></path>
                <path d="M885,1960 L851,1960 C850.447,1960 850,1959.553 850,1959 L850,1934 C850,1933.447 850.447,1933 851,1933 L885,1933 C885.553,1933 886,1933.447 886,1934 L886,1959 C886,1959.553 885.553,1960 885,1960 L885,1960 Z M852,1958 L884,1958 L884,1935 L852,1935 L852,1958 Z" id="Fill-1644" fill="#314E55" sketch:type="MSShapeGroup"></path>
                <path d="M861,1951 L875,1951 L875,1955 L861,1955 L861,1951 Z" id="Fill-1645" fill="#D8D8D8" sketch:type="MSShapeGroup"></path>
                <path d="M875,1956 L861,1956 C860.447,1956 860,1955.553 860,1955 L860,1951 C860,1950.447 860.447,1950 861,1950 L875,1950 C875.553,1950 876,1950.447 876,1951 L876,1955 C876,1955.553 875.553,1956 875,1956 L875,1956 Z M862,1954 L874,1954 L874,1952 L862,1952 L862,1954 Z" id="Fill-1647" fill="#314E55" sketch:type="MSShapeGroup"></path>
                <path d="M855,1942 L881,1942 L881,1947 L855,1947 L855,1942 Z" id="Fill-1648" fill="#D8D8D8" sketch:type="MSShapeGroup"></path>
                <path d="M881,1948 L855,1948 C854.447,1948 854,1947.553 854,1947 L854,1942 C854,1941.447 854.447,1941 855,1941 L881,1941 C881.553,1941 882,1941.447 882,1942 L882,1947 C882,1947.553 881.553,1948 881,1948 L881,1948 Z M856,1946 L880,1946 L880,1943 L856,1943 L856,1946 Z" id="Fill-1650" fill="#314E55" sketch:type="MSShapeGroup"></path>
                <g id="Group-1653" transform="translate(881.000000, 1936.000000)">
                    <mask id="mask-2" sketch:name="Clip 1652" fill="white">
                        <use xlink:href="#path-1"></use>
                    </mask>
                    <g id="Clip-1652"></g>
                    <path d="M2,4 L0,4 C-1.104,4 -2,3.104 -2,2 L-2,0 C-2,-1.104 -1.104,-2 0,-2 L2,-2 C3.104,-2 4,-1.104 4,0 L4,2 C4,3.104 3.104,4 2,4" id="Fill-1651" fill="#314E55" sketch:type="MSShapeGroup" mask="url(#mask-2)"></path>
                </g>
            </g>
        </g>
    </g>
</svg>