<?xml version="1.0" encoding="UTF-8" standalone="no"?>
<svg width="60px" height="60px" viewBox="0 0 60 60" version="1.1" xmlns="http://www.w3.org/2000/svg" xmlns:xlink="http://www.w3.org/1999/xlink" xmlns:sketch="http://www.bohemiancoding.com/sketch/ns">
    <!-- Generator: Sketch 3.3.3 (12081) - http://www.bohemiancoding.com/sketch -->
    <title>Switchers</title>
    <desc>Created with Sketch.</desc>
    <defs>
        <path id="path-1" d="M0.998,0.024 L31.002,0.024 C36.524,0.024 41,4.5 41,10.024 C41,15.547 36.519,20.024 31.002,20.024 L0.998,20.024 L0.998,0.024 Z"></path>
        <path id="path-3" d="M10,20.024 C15.523,20.024 20,15.547 20,10.024 C20,4.501 15.523,0.024 10,0.024 C4.477,0.024 0,4.501 0,10.024 C0,15.547 4.477,20.024 10,20.024 L10,20.024 Z"></path>
        <path id="path-5" d="M5,10.024 C7.761,10.024 10,7.786 10,5.024 C10,2.263 7.761,0.024 5,0.024 C2.239,0.024 0,2.263 0,5.024 C0,7.786 2.239,10.024 5,10.024 L5,10.024 Z"></path>
        <path id="path-7" d="M40.002,0.024 L9.998,0.024 C4.476,0.024 0,4.5 0,10.024 C0,15.547 4.481,20.024 9.998,20.024 L40.002,20.024 L40.002,0.024 Z"></path>
        <path id="path-9" d="M10,20.024 C4.477,20.024 0,15.547 0,10.024 C0,4.501 4.477,0.024 10,0.024 C15.523,0.024 20,4.501 20,10.024 C20,15.547 15.523,20.024 10,20.024 L10,20.024 Z"></path>
        <path id="path-11" d="M5,10.024 C2.239,10.024 0,7.786 0,5.024 C0,2.263 2.239,0.024 5,0.024 C7.761,0.024 10,2.263 10,5.024 C10,7.786 7.761,10.024 5,10.024 L5,10.024 Z"></path>
    </defs>
    <g id="outlined" stroke="none" stroke-width="1" fill="none" fill-rule="evenodd" sketch:type="MSPage">
        <g id="Interface_sliced" sketch:type="MSLayerGroup" transform="translate(-600.000000, -840.000000)">
            <g id="Imported-Layers" transform="translate(2.000000, 4.000000)">
                <g id="Group-806" transform="translate(611.000000, 844.000000)">
                    <mask id="mask-2" sketch:name="Clip 805" fill="white">
                        <use xlink:href="#path-1"></use>
                    </mask>
                    <g id="Clip-805"></g>
                    <path d="M0.998,0.024 L41,0.024 L41,20.024 L0.998,20.024 L0.998,0.024 Z" id="Fill-804" fill="#EBEBEB" sketch:type="MSShapeGroup" mask="url(#mask-2)"></path>
                </g>
                <path d="M642.002,865.024 L611.998,865.024 C611.445,865.024 610.998,864.576 610.998,864.024 C610.998,863.472 611.445,863.024 611.998,863.024 L642.002,863.024 C646.964,863.024 651,858.986 651,854.024 C651,849.062 646.964,845.024 642.002,845.024 L611.998,845.024 C611.445,845.024 610.998,844.576 610.998,844.024 C610.998,843.472 611.445,843.024 611.998,843.024 L642.002,843.024 C648.066,843.024 653,847.958 653,854.024 C653,860.089 648.066,865.024 642.002,865.024" id="Fill-807" fill="#314E55" sketch:type="MSShapeGroup"></path>
                <g id="Group-810" transform="translate(602.000000, 844.000000)">
                    <mask id="mask-4" sketch:name="Clip 809" fill="white">
                        <use xlink:href="#path-3"></use>
                    </mask>
                    <g id="Clip-809"></g>
                    <path d="M0,0.024 L20,0.024 L20,20.024 L0,20.024 L0,0.024 Z" id="Fill-808" fill="#D8D8D8" sketch:type="MSShapeGroup" mask="url(#mask-4)"></path>
                </g>
                <path d="M612,865.024 C605.935,865.024 601,860.089 601,854.024 C601,847.958 605.935,843.024 612,843.024 C618.065,843.024 623,847.958 623,854.024 C623,860.089 618.065,865.024 612,865.024 L612,865.024 Z M612,845.024 C607.037,845.024 603,849.062 603,854.024 C603,858.986 607.037,863.024 612,863.024 C616.963,863.024 621,858.986 621,854.024 C621,849.062 616.963,845.024 612,845.024 L612,845.024 Z" id="Fill-811" fill="#314E55" sketch:type="MSShapeGroup"></path>
                <g id="Group-814" transform="translate(607.000000, 849.000000)">
                    <mask id="mask-6" sketch:name="Clip 813" fill="white">
                        <use xlink:href="#path-5"></use>
                    </mask>
                    <g id="Clip-813"></g>
                    <path d="M0,0.024 L10,0.024 L10,10.024 L0,10.024 L0,0.024 Z" id="Fill-812" fill="#5ECB66" sketch:type="MSShapeGroup" mask="url(#mask-6)"></path>
                </g>
                <path d="M612,860.024 C608.691,860.024 606,857.333 606,854.024 C606,850.715 608.691,848.024 612,848.024 C615.309,848.024 618,850.715 618,854.024 C618,857.333 615.309,860.024 612,860.024 L612,860.024 Z M612,850.024 C609.794,850.024 608,851.818 608,854.024 C608,856.229 609.794,858.024 612,858.024 C614.206,858.024 616,856.229 616,854.024 C616,851.818 614.206,850.024 612,850.024 L612,850.024 Z" id="Fill-815" fill="#314E55" sketch:type="MSShapeGroup"></path>
                <g id="Group-818" transform="translate(602.000000, 869.000000)">
                    <mask id="mask-8" sketch:name="Clip 817" fill="white">
                        <use xlink:href="#path-7"></use>
                    </mask>
                    <g id="Clip-817"></g>
                    <path d="M0,0.024 L40.002,0.024 L40.002,20.024 L0,20.024 L0,0.024 Z" id="Fill-816" fill="#EBEBEB" sketch:type="MSShapeGroup" mask="url(#mask-8)"></path>
                </g>
                <path d="M642.002,890.024 L611.998,890.024 C605.934,890.024 601,885.089 601,879.024 C601,872.958 605.934,868.024 611.998,868.024 L642.002,868.024 C642.555,868.024 643.002,868.472 643.002,869.024 C643.002,869.576 642.555,870.024 642.002,870.024 L611.998,870.024 C607.036,870.024 603,874.062 603,879.024 C603,883.986 607.036,888.024 611.998,888.024 L642.002,888.024 C642.555,888.024 643.002,888.472 643.002,889.024 C643.002,889.576 642.555,890.024 642.002,890.024" id="Fill-819" fill="#314E55" sketch:type="MSShapeGroup"></path>
                <g id="Group-822" transform="translate(632.000000, 869.000000)">
                    <mask id="mask-10" sketch:name="Clip 821" fill="white">
                        <use xlink:href="#path-9"></use>
                    </mask>
                    <g id="Clip-821"></g>
                    <path d="M0,0.024 L20,0.024 L20,20.024 L0,20.024 L0,0.024 Z" id="Fill-820" fill="#D8D8D8" sketch:type="MSShapeGroup" mask="url(#mask-10)"></path>
                </g>
                <path d="M642,890.024 C635.935,890.024 631,885.089 631,879.024 C631,872.958 635.935,868.024 642,868.024 C648.065,868.024 653,872.958 653,879.024 C653,885.089 648.065,890.024 642,890.024 L642,890.024 Z M642,870.024 C637.037,870.024 633,874.062 633,879.024 C633,883.986 637.037,888.024 642,888.024 C646.963,888.024 651,883.986 651,879.024 C651,874.062 646.963,870.024 642,870.024 L642,870.024 Z" id="Fill-823" fill="#314E55" sketch:type="MSShapeGroup"></path>
                <g id="Group-826" transform="translate(637.000000, 874.000000)">
                    <mask id="mask-12" sketch:name="Clip 825" fill="white">
                        <use xlink:href="#path-11"></use>
                    </mask>
                    <g id="Clip-825"></g>
                    <path d="M0,0.024 L10,0.024 L10,10.024 L0,10.024 L0,0.024 Z" id="Fill-824" fill="#E65F58" sketch:type="MSShapeGroup" mask="url(#mask-12)"></path>
                </g>
                <path d="M642,885.024 C638.691,885.024 636,882.333 636,879.024 C636,875.715 638.691,873.024 642,873.024 C645.309,873.024 648,875.715 648,879.024 C648,882.333 645.309,885.024 642,885.024 L642,885.024 Z M642,875.024 C639.794,875.024 638,876.818 638,879.024 C638,881.229 639.794,883.024 642,883.024 C644.206,883.024 646,881.229 646,879.024 C646,876.818 644.206,875.024 642,875.024 L642,875.024 Z" id="Fill-827" fill="#314E55" sketch:type="MSShapeGroup"></path>
            </g>
        </g>
    </g>
</svg>