<?xml version="1.0" encoding="UTF-8" standalone="no"?>
<svg width="60px" height="60px" viewBox="0 0 60 60" version="1.1" xmlns="http://www.w3.org/2000/svg" xmlns:xlink="http://www.w3.org/1999/xlink" xmlns:sketch="http://www.bohemiancoding.com/sketch/ns">
    <!-- Generator: Sketch 3.3.3 (12081) - http://www.bohemiancoding.com/sketch -->
    <title>Switcher3D</title>
    <desc>Created with Sketch.</desc>
    <defs>
        <path id="path-1" d="M2,0 L24,0 L26,15 L0,15 L2,0 L2,0 Z"></path>
    </defs>
    <g id="outlined" stroke="none" stroke-width="1" fill="none" fill-rule="evenodd" sketch:type="MSPage">
        <g id="Interface_sliced" sketch:type="MSLayerGroup" transform="translate(-720.000000, -1440.000000)">
            <g id="Imported-Layers" transform="translate(2.000000, 4.000000)">
                <path d="M726,1439 L770,1439 L770,1493 L726,1493 L726,1439 Z" id="Fill-1243" fill="#D8D8D8" sketch:type="MSShapeGroup"></path>
                <path d="M770,1494 L726,1494 C725.447,1494 725,1493.553 725,1493 L725,1439 C725,1438.447 725.447,1438 726,1438 L770,1438 C770.553,1438 771,1438.447 771,1439 L771,1493 C771,1493.553 770.553,1494 770,1494 L770,1494 Z M727,1492 L769,1492 L769,1440 L727,1440 L727,1492 Z" id="Fill-1245" fill="#314E55" sketch:type="MSShapeGroup"></path>
                <path d="M737,1449 L759,1449 L759,1466 L737,1466 L737,1449 Z" id="Fill-1246" fill="#DBCF56" sketch:type="MSShapeGroup"></path>
                <path d="M759,1467 L737,1467 C736.447,1467 736,1466.553 736,1466 L736,1449 C736,1448.447 736.447,1448 737,1448 L759,1448 C759.553,1448 760,1448.447 760,1449 L760,1466 C760,1466.553 759.553,1467 759,1467 L759,1467 Z M738,1465 L758,1465 L758,1450 L738,1450 L738,1465 Z" id="Fill-1248" fill="#314E55" sketch:type="MSShapeGroup"></path>
                <g id="Group-1251" transform="translate(735.000000, 1466.000000)">
                    <mask id="mask-2" sketch:name="Clip 1250" fill="white">
                        <use xlink:href="#path-1"></use>
                    </mask>
                    <g id="Clip-1250"></g>
                    <path d="M0,0 L26,0 L26,15 L0,15 L0,0 Z" id="Fill-1249" fill="#5ECB66" sketch:type="MSShapeGroup" mask="url(#mask-2)"></path>
                </g>
                <path d="M761.019,1482 C761.015,1482.001 761.008,1482.001 761,1482 L735,1482 C734.712,1482 734.437,1481.876 734.248,1481.659 C734.058,1481.441 733.971,1481.153 734.009,1480.868 L736.009,1465.868 C736.075,1465.371 736.499,1465 737,1465 L759,1465 C759.501,1465 759.925,1465.371 759.991,1465.868 L761.965,1480.673 C762.001,1480.775 762.019,1480.886 762.019,1481 C762.019,1481.553 761.572,1482 761.019,1482 L761.019,1482 Z M736.143,1480 L759.857,1480 L758.124,1467 L737.876,1467 L736.143,1480 L736.143,1480 Z" id="Fill-1252" fill="#314E55" sketch:type="MSShapeGroup"></path>
                <path d="M735,1481 L761,1481 L761,1484 L735,1484 L735,1481 Z" id="Fill-1253" fill="#5ECB66" sketch:type="MSShapeGroup"></path>
                <path d="M761,1485 L735,1485 C734.447,1485 734,1484.553 734,1484 L734,1481 C734,1480.447 734.447,1480 735,1480 L761,1480 C761.553,1480 762,1480.447 762,1481 L762,1484 C762,1484.553 761.553,1485 761,1485 L761,1485 Z M736,1483 L760,1483 L760,1482 L736,1482 L736,1483 Z" id="Fill-1255" fill="#314E55" sketch:type="MSShapeGroup"></path>
            </g>
        </g>
    </g>
</svg>