<?xml version="1.0" encoding="UTF-8" standalone="no"?>
<svg width="60px" height="60px" viewBox="0 0 60 60" version="1.1" xmlns="http://www.w3.org/2000/svg" xmlns:xlink="http://www.w3.org/1999/xlink" xmlns:sketch="http://www.bohemiancoding.com/sketch/ns">
    <!-- Generator: Sketch 3.3.3 (12081) - http://www.bohemiancoding.com/sketch -->
    <title>Targetselect</title>
    <desc>Created with Sketch.</desc>
    <defs></defs>
    <g id="outlined" stroke="none" stroke-width="1" fill="none" fill-rule="evenodd" sketch:type="MSPage">
        <g id="Interface_sliced" sketch:type="MSLayerGroup" transform="translate(-120.000000, -600.000000)">
            <g id="Imported-Layers" transform="translate(2.000000, 4.000000)" sketch:type="MSShapeGroup">
                <path d="M143.692,649.484 C143.622,649.484 143.55,649.477 143.478,649.461 C134.497,647.506 127.448,640.435 125.521,631.447 C125.406,630.907 125.75,630.375 126.29,630.259 C126.83,630.146 127.361,630.488 127.477,631.028 C129.24,639.25 135.687,645.718 143.904,647.507 C144.444,647.625 144.786,648.157 144.668,648.697 C144.566,649.165 144.152,649.484 143.692,649.484 L143.692,649.484 Z M153.374,649.47 C152.915,649.47 152.501,649.152 152.398,648.686 C152.279,648.146 152.62,647.613 153.159,647.494 C161.465,645.659 167.912,639.084 169.581,630.744 C169.69,630.203 170.212,629.853 170.758,629.96 C171.3,630.068 171.651,630.595 171.542,631.137 C169.717,640.253 162.67,647.44 153.59,649.447 C153.518,649.463 153.445,649.47 153.374,649.47 L153.374,649.47 Z M126.484,622.84 C126.415,622.84 126.346,622.833 126.277,622.819 C125.736,622.705 125.391,622.175 125.504,621.634 C127.43,612.492 134.587,605.367 143.738,603.482 C144.275,603.369 144.808,603.719 144.919,604.26 C145.03,604.801 144.682,605.33 144.141,605.441 C135.77,607.165 129.223,613.683 127.461,622.046 C127.362,622.518 126.947,622.84 126.484,622.84 L126.484,622.84 Z M170.512,622.819 C170.049,622.819 169.634,622.497 169.534,622.026 C167.774,613.711 161.264,607.208 152.948,605.46 C152.407,605.346 152.061,604.816 152.175,604.276 C152.289,603.735 152.818,603.39 153.359,603.503 C162.45,605.414 169.567,612.522 171.491,621.612 C171.605,622.152 171.26,622.683 170.72,622.797 C170.65,622.812 170.58,622.819 170.512,622.819 L170.512,622.819 Z" id="Fill-555" fill="#314E55"></path>
                <path d="M144,600 L153,600 L153,609 L144,609 L144,600 Z" id="Fill-556" fill="#E65F58"></path>
                <path d="M153,610 L144,610 C143.448,610 143,609.552 143,609 L143,600 C143,599.448 143.448,599 144,599 L153,599 C153.552,599 154,599.448 154,600 L154,609 C154,609.552 153.552,610 153,610 L153,610 Z M145,608 L152,608 L152,601 L145,601 L145,608 Z" id="Fill-558" fill="#314E55"></path>
                <path d="M166,622 L175,622 L175,631 L166,631 L166,622 Z" id="Fill-559" fill="#E65F58"></path>
                <path d="M175,632 L166,632 C165.448,632 165,631.552 165,631 L165,622 C165,621.448 165.448,621 166,621 L175,621 C175.552,621 176,621.448 176,622 L176,631 C176,631.552 175.552,632 175,632 L175,632 Z M167,630 L174,630 L174,623 L167,623 L167,630 Z" id="Fill-561" fill="#314E55"></path>
                <path d="M121,622 L130,622 L130,631 L121,631 L121,622 Z" id="Fill-562" fill="#E65F58"></path>
                <path d="M130,632 L121,632 C120.448,632 120,631.552 120,631 L120,622 C120,621.448 120.448,621 121,621 L130,621 C130.552,621 131,621.448 131,622 L131,631 C131,631.552 130.552,632 130,632 L130,632 Z M122,630 L129,630 L129,623 L122,623 L122,630 Z" id="Fill-564" fill="#314E55"></path>
                <path d="M144,644 L153,644 L153,653 L144,653 L144,644 Z" id="Fill-565" fill="#E65F58"></path>
                <path d="M153,654 L144,654 C143.448,654 143,653.552 143,653 L143,644 C143,643.448 143.448,643 144,643 L153,643 C153.552,643 154,643.448 154,644 L154,653 C154,653.552 153.552,654 153,654 L153,654 Z M145,652 L152,652 L152,645 L145,645 L145,652 Z" id="Fill-567" fill="#314E55"></path>
            </g>
        </g>
    </g>
</svg>