<?xml version="1.0" encoding="UTF-8" standalone="no"?>
<svg width="60px" height="60px" viewBox="0 0 60 60" version="1.1" xmlns="http://www.w3.org/2000/svg" xmlns:xlink="http://www.w3.org/1999/xlink" xmlns:sketch="http://www.bohemiancoding.com/sketch/ns">
    <!-- Generator: Sketch 3.3.3 (12081) - http://www.bohemiancoding.com/sketch -->
    <title>Thumbslist</title>
    <desc>Created with Sketch.</desc>
    <defs></defs>
    <g id="outlined" stroke="none" stroke-width="1" fill="none" fill-rule="evenodd" sketch:type="MSPage">
        <g id="Interface_sliced" sketch:type="MSLayerGroup" transform="translate(-600.000000, 0.000000)">
            <g id="Imported-Layers" transform="translate(2.000000, 4.000000)" sketch:type="MSShapeGroup">
                <path d="M603,2 L613,2 L613,12 L603,12 L603,2 Z" id="Fill-70" fill="#EB86A5"></path>
                <path d="M613,13 L603,13 C602.447,13 602,12.552 602,12 L602,2 C602,1.448 602.447,1 603,1 L613,1 C613.553,1 614,1.448 614,2 L614,12 C614,12.552 613.553,13 613,13 L613,13 Z M604,11 L612,11 L612,3 L604,3 L604,11 Z" id="Fill-72" fill="#314E55"></path>
                <path d="M623,2 L633,2 L633,12 L623,12 L623,2 Z" id="Fill-73" fill="#EB86A5"></path>
                <path d="M633,13 L623,13 C622.447,13 622,12.552 622,12 L622,2 C622,1.448 622.447,1 623,1 L633,1 C633.553,1 634,1.448 634,2 L634,12 C634,12.552 633.553,13 633,13 L633,13 Z M624,11 L632,11 L632,3 L624,3 L624,11 Z" id="Fill-75" fill="#314E55"></path>
                <path d="M643,2 L653,2 L653,12 L643,12 L643,2 Z" id="Fill-76" fill="#EB86A5"></path>
                <path d="M653,13 L643,13 C642.447,13 642,12.552 642,12 L642,2 C642,1.448 642.447,1 643,1 L653,1 C653.553,1 654,1.448 654,2 L654,12 C654,12.552 653.553,13 653,13 L653,13 Z M644,11 L652,11 L652,3 L644,3 L644,11 Z" id="Fill-78" fill="#314E55"></path>
                <path d="M603,22 L613,22 L613,32 L603,32 L603,22 Z" id="Fill-79" fill="#EB86A5"></path>
                <path d="M613,33 L603,33 C602.447,33 602,32.552 602,32 L602,22 C602,21.448 602.447,21 603,21 L613,21 C613.553,21 614,21.448 614,22 L614,32 C614,32.552 613.553,33 613,33 L613,33 Z M604,31 L612,31 L612,23 L604,23 L604,31 Z" id="Fill-81" fill="#314E55"></path>
                <path d="M623,22 L633,22 L633,32 L623,32 L623,22 Z" id="Fill-82" fill="#EB86A5"></path>
                <path d="M633,33 L623,33 C622.447,33 622,32.552 622,32 L622,22 C622,21.448 622.447,21 623,21 L633,21 C633.553,21 634,21.448 634,22 L634,32 C634,32.552 633.553,33 633,33 L633,33 Z M624,31 L632,31 L632,23 L624,23 L624,31 Z" id="Fill-84" fill="#314E55"></path>
                <path d="M643,22 L653,22 L653,32 L643,32 L643,22 Z" id="Fill-85" fill="#EB86A5"></path>
                <path d="M653,33 L643,33 C642.447,33 642,32.552 642,32 L642,22 C642,21.448 642.447,21 643,21 L653,21 C653.553,21 654,21.448 654,22 L654,32 C654,32.552 653.553,33 653,33 L653,33 Z M644,31 L652,31 L652,23 L644,23 L644,31 Z" id="Fill-87" fill="#314E55"></path>
                <path d="M603,42 L613,42 L613,52 L603,52 L603,42 Z" id="Fill-88" fill="#EB86A5"></path>
                <path d="M613,53 L603,53 C602.447,53 602,52.552 602,52 L602,42 C602,41.448 602.447,41 603,41 L613,41 C613.553,41 614,41.448 614,42 L614,52 C614,52.552 613.553,53 613,53 L613,53 Z M604,51 L612,51 L612,43 L604,43 L604,51 Z" id="Fill-90" fill="#314E55"></path>
                <path d="M623,42 L633,42 L633,52 L623,52 L623,42 Z" id="Fill-91" fill="#EB86A5"></path>
                <path d="M633,53 L623,53 C622.447,53 622,52.552 622,52 L622,42 C622,41.448 622.447,41 623,41 L633,41 C633.553,41 634,41.448 634,42 L634,52 C634,52.552 633.553,53 633,53 L633,53 Z M624,51 L632,51 L632,43 L624,43 L624,51 Z" id="Fill-93" fill="#314E55"></path>
                <path d="M643,42 L653,42 L653,52 L643,52 L643,42 Z" id="Fill-94" fill="#EB86A5"></path>
                <path d="M653,53 L643,53 C642.447,53 642,52.552 642,52 L642,42 C642,41.448 642.447,41 643,41 L653,41 C653.553,41 654,41.448 654,42 L654,52 C654,52.552 653.553,53 653,53 L653,53 Z M644,51 L652,51 L652,43 L644,43 L644,51 Z" id="Fill-96" fill="#314E55"></path>
            </g>
        </g>
    </g>
</svg>