<?xml version="1.0" encoding="UTF-8" standalone="no"?>
<svg width="60px" height="60px" viewBox="0 0 60 60" version="1.1" xmlns="http://www.w3.org/2000/svg" xmlns:xlink="http://www.w3.org/1999/xlink" xmlns:sketch="http://www.bohemiancoding.com/sketch/ns">
    <!-- Generator: Sketch 3.3.3 (12081) - http://www.bohemiancoding.com/sketch -->
    <title>TWinterface</title>
    <desc>Created with Sketch.</desc>
    <defs></defs>
    <g id="outlined" stroke="none" stroke-width="1" fill="none" fill-rule="evenodd" sketch:type="MSPage">
        <g id="Interface_sliced" sketch:type="MSLayerGroup" transform="translate(-720.000000, -2160.000000)">
            <g id="Imported-Layers" transform="translate(2.000000, 4.000000)" sketch:type="MSShapeGroup">
                <path d="M721,2166 L775,2166 L775,2206 L721,2206 L721,2166 Z" id="Fill-2016" fill="#EBEBEB"></path>
                <path d="M775,2207 L721,2207 C720.447,2207 720,2206.553 720,2206 L720,2166 C720,2165.447 720.447,2165 721,2165 L775,2165 C775.553,2165 776,2165.447 776,2166 L776,2206 C776,2206.553 775.553,2207 775,2207 L775,2207 Z M722,2205 L774,2205 L774,2167 L722,2167 L722,2205 Z" id="Fill-2018" fill="#314E55"></path>
                <path d="M721,2166 L775,2166 L775,2180 L721,2180 L721,2166 Z" id="Fill-2019" fill="#73C9C9"></path>
                <path d="M775,2181 L740,2181 C739.447,2181 739,2180.553 739,2180 L739,2175 L728,2175 L728,2180 C728,2180.553 727.553,2181 727,2181 L721,2181 C720.447,2181 720,2180.553 720,2180 L720,2166 C720,2165.447 720.447,2165 721,2165 L775,2165 C775.553,2165 776,2165.447 776,2166 L776,2180 C776,2180.553 775.553,2181 775,2181 L775,2181 Z M741,2179 L774,2179 L774,2167 L722,2167 L722,2179 L726,2179 L726,2174 C726,2173.447 726.447,2173 727,2173 L740,2173 C740.553,2173 741,2173.447 741,2174 L741,2179 L741,2179 Z" id="Fill-2021" fill="#314E55"></path>
                <path d="M727,2174 L740,2174 L740,2186 L727,2186 L727,2174 Z" id="Fill-2022" fill="#D8D8D8"></path>
                <path d="M740,2187 L727,2187 C726.447,2187 726,2186.553 726,2186 L726,2174 C726,2173.447 726.447,2173 727,2173 L740,2173 C740.553,2173 741,2173.447 741,2174 L741,2186 C741,2186.553 740.553,2187 740,2187 L740,2187 Z M728,2185 L739,2185 L739,2175 L728,2175 L728,2185 Z" id="Fill-2024" fill="#314E55"></path>
                <path d="M726,2189 L739,2189 L739,2191 L726,2191 L726,2189 Z" id="Fill-2025" fill="#314E55"></path>
                <path d="M726,2193 L739,2193 L739,2195 L726,2195 L726,2193 Z" id="Fill-2026" fill="#314E55"></path>
                <path d="M726,2197 L737,2197 L737,2199 L726,2199 L726,2197 Z" id="Fill-2027" fill="#314E55"></path>
                <path d="M746,2180 L764,2180 L764,2206 L746,2206 L746,2180 Z" id="Fill-2028" fill="#D8D8D8"></path>
                <path d="M764,2207 L746,2207 C745.447,2207 745,2206.553 745,2206 L745,2180 C745,2179.447 745.447,2179 746,2179 L764,2179 C764.553,2179 765,2179.447 765,2180 L765,2206 C765,2206.553 764.553,2207 764,2207 L764,2207 Z M747,2205 L763,2205 L763,2181 L747,2181 L747,2205 Z" id="Fill-2030" fill="#314E55"></path>
                <path d="M749,2183 L761,2183 L761,2185 L749,2185 L749,2183 Z" id="Fill-2031" fill="#314E55"></path>
                <path d="M749,2186 L761,2186 L761,2188 L749,2188 L749,2186 Z" id="Fill-2032" fill="#314E55"></path>
                <path d="M749,2193 L761,2193 L761,2195 L749,2195 L749,2193 Z" id="Fill-2033" fill="#314E55"></path>
                <path d="M749,2196 L758,2196 L758,2198 L749,2198 L749,2196 Z" id="Fill-2034" fill="#314E55"></path>
                <path d="M749,2201 L758,2201 L758,2203 L749,2203 L749,2201 Z" id="Fill-2035" fill="#314E55"></path>
            </g>
        </g>
    </g>
</svg>