<?xml version="1.0" encoding="UTF-8" standalone="no"?>
<svg width="60px" height="60px" viewBox="0 0 60 60" version="1.1" xmlns="http://www.w3.org/2000/svg" xmlns:xlink="http://www.w3.org/1999/xlink" xmlns:sketch="http://www.bohemiancoding.com/sketch/ns">
    <!-- Generator: Sketch 3.3.3 (12081) - http://www.bohemiancoding.com/sketch -->
    <title>Userdot</title>
    <desc>Created with Sketch.</desc>
    <defs>
        <path id="path-1" d="M9.953,1.119 C5.87,1.706 2.743,5.019 2.743,9.019 C2.743,9.372 2.767,9.719 2.814,10.06 C2.486,11.398 2.307,12.837 2.306,14.337 C2.245,14.337 2.182,14.341 2.119,14.35 C1.403,14.45 0.912,15.104 1.011,15.811 L1.462,19.018 C1.561,19.724 2.218,20.217 2.93,20.117 C3.034,20.102 3.133,20.076 3.226,20.04 C3.81,21.744 4.649,23.235 5.67,24.411 L5.67,29 L16.833,29 L16.833,24.411 C17.85,23.24 18.685,21.758 19.269,20.064 C19.364,20.101 19.464,20.127 19.57,20.142 C20.287,20.243 20.951,19.746 21.051,19.034 L21.505,15.798 C21.606,15.085 21.11,14.426 20.387,14.324 C20.323,14.316 20.26,14.311 20.197,14.312 C20.194,12.821 20.015,11.39 19.689,10.06 C19.736,9.719 19.76,9.372 19.76,9.019 C19.76,6.138 18.138,3.613 15.704,2.206 C15.861,1.112 15.776,0 14.779,0 C13.341,0 11.068,0.728 9.953,1.119 L9.953,1.119 Z"></path>
    </defs>
    <g id="outlined" stroke="none" stroke-width="1" fill="none" fill-rule="evenodd" sketch:type="MSPage">
        <g id="Interface_sliced" sketch:type="MSLayerGroup" transform="translate(-600.000000, -2280.000000)">
            <g id="Imported-Layers" transform="translate(2.000000, 4.000000)">
                <path d="M642.297,2326.779 C642.185,2326.779 642.073,2326.761 641.962,2326.722 C641.309,2326.489 640.495,2326.068 639.554,2325.582 C638.013,2324.784 636.095,2323.792 634.196,2323.289 C633.896,2323.209 633.649,2322.995 633.529,2322.708 L632.396,2320 L621.76,2320 L620.779,2322.667 C620.667,2322.974 620.412,2323.205 620.097,2323.289 C618.199,2323.792 616.282,2324.784 614.741,2325.581 C613.801,2326.068 612.988,2326.488 612.335,2326.721 C611.816,2326.902 611.242,2326.633 611.058,2326.113 C610.873,2325.593 611.144,2325.02 611.665,2324.836 C612.19,2324.649 612.946,2324.258 613.822,2323.805 C615.319,2323.03 617.152,2322.082 619.078,2321.5 L620.124,2318.655 C620.269,2318.262 620.644,2318 621.063,2318 L633.062,2318 C633.466,2318 633.829,2318.242 633.985,2318.614 L635.188,2321.491 C637.125,2322.073 638.969,2323.027 640.473,2323.806 C641.35,2324.259 642.106,2324.65 642.632,2324.837 C643.152,2325.021 643.424,2325.594 643.239,2326.114 C643.094,2326.523 642.708,2326.779 642.297,2326.779" id="Fill-2112" fill="#314E55" sketch:type="MSShapeGroup"></path>
                <path d="M627,2332 C626.604,2332 626.208,2331.991 625.815,2331.974 C625.263,2331.949 624.835,2331.482 624.859,2330.931 C624.884,2330.38 625.358,2329.929 625.902,2329.976 C628.505,2330.086 631.138,2329.787 633.631,2329.072 C634.17,2328.921 634.716,2329.227 634.868,2329.757 C635.021,2330.288 634.714,2330.842 634.184,2330.994 C631.859,2331.662 629.442,2332 627,2332 L627,2332 Z M620.921,2331.255 C620.841,2331.255 620.759,2331.245 620.678,2331.225 C618.322,2330.637 616.06,2329.719 613.956,2328.495 C613.479,2328.218 613.315,2327.606 613.594,2327.129 C613.871,2326.649 614.485,2326.489 614.96,2326.766 C616.903,2327.894 618.989,2328.742 621.162,2329.285 C621.698,2329.419 622.023,2329.961 621.891,2330.497 C621.776,2330.951 621.369,2331.255 620.921,2331.255 L620.921,2331.255 Z M638.543,2329.182 C638.182,2329.182 637.834,2328.986 637.655,2328.644 C637.4,2328.154 637.59,2327.55 638.08,2327.295 C640.067,2326.259 641.9,2324.949 643.527,2323.401 C643.93,2323.021 644.56,2323.037 644.941,2323.437 C645.322,2323.837 645.306,2324.47 644.906,2324.85 C643.143,2326.527 641.157,2327.946 639.004,2329.068 C638.856,2329.145 638.698,2329.182 638.543,2329.182 L638.543,2329.182 Z M610.414,2325.706 C610.178,2325.706 609.941,2325.623 609.751,2325.454 C607.932,2323.841 606.348,2321.983 605.045,2319.933 C604.748,2319.467 604.886,2318.849 605.352,2318.553 C605.817,2318.257 606.437,2318.394 606.732,2318.86 C607.935,2320.753 609.397,2322.468 611.077,2323.958 C611.491,2324.324 611.528,2324.956 611.162,2325.369 C610.965,2325.593 610.689,2325.706 610.414,2325.706 L610.414,2325.706 Z M647.476,2321.347 C647.277,2321.347 647.077,2321.288 646.902,2321.165 C646.45,2320.848 646.341,2320.224 646.658,2319.773 C647.949,2317.933 648.973,2315.928 649.701,2313.81 C649.881,2313.288 650.448,2313.008 650.972,2313.189 C651.494,2313.369 651.771,2313.937 651.592,2314.46 C650.803,2316.755 649.693,2318.929 648.295,2320.921 C648.101,2321.198 647.79,2321.347 647.476,2321.347 L647.476,2321.347 Z M603.646,2315.938 C603.243,2315.938 602.864,2315.694 602.712,2315.296 C601.844,2313.03 601.3,2310.65 601.095,2308.224 C601.048,2307.674 601.456,2307.189 602.007,2307.144 C602.553,2307.082 603.041,2307.505 603.087,2308.056 C603.276,2310.295 603.779,2312.49 604.579,2314.581 C604.777,2315.097 604.519,2315.675 604.003,2315.872 C603.886,2315.917 603.765,2315.938 603.646,2315.938 L603.646,2315.938 Z M651.788,2310.276 C651.745,2310.276 651.701,2310.273 651.657,2310.268 C651.109,2310.196 650.724,2309.694 650.796,2309.146 C650.932,2308.112 651,2307.054 651,2306 C651,2304.811 650.912,2303.615 650.739,2302.448 C650.658,2301.902 651.035,2301.394 651.582,2301.312 C652.129,2301.238 652.638,2301.608 652.718,2302.155 C652.905,2303.419 653,2304.713 653,2306 C653,2307.141 652.926,2308.286 652.778,2309.406 C652.713,2309.91 652.283,2310.276 651.788,2310.276 L651.788,2310.276 Z M602.16,2304.151 C602.123,2304.151 602.084,2304.149 602.046,2304.144 C601.497,2304.082 601.104,2303.587 601.166,2303.038 C601.441,2300.618 602.054,2298.256 602.986,2296.016 C603.198,2295.505 603.789,2295.264 604.293,2295.477 C604.804,2295.688 605.045,2296.273 604.832,2296.783 C603.973,2298.851 603.407,2301.031 603.152,2303.265 C603.095,2303.774 602.662,2304.151 602.16,2304.151 L602.16,2304.151 Z M650.505,2298.464 C650.097,2298.464 649.713,2298.212 649.565,2297.806 C648.801,2295.7 647.742,2293.712 646.419,2291.896 C646.094,2291.449 646.192,2290.823 646.639,2290.498 C647.085,2290.174 647.709,2290.271 648.036,2290.718 C649.47,2292.687 650.616,2294.842 651.444,2297.122 C651.634,2297.642 651.365,2298.215 650.847,2298.404 C650.733,2298.444 650.618,2298.464 650.505,2298.464 L650.505,2298.464 Z M606.278,2293.007 C606.086,2293.007 605.891,2292.951 605.719,2292.835 C605.262,2292.525 605.142,2291.903 605.451,2291.446 C606.813,2289.435 608.448,2287.623 610.312,2286.061 C610.736,2285.706 611.366,2285.764 611.721,2286.185 C612.075,2286.609 612.019,2287.24 611.597,2287.595 C609.875,2289.036 608.365,2290.71 607.107,2292.567 C606.914,2292.852 606.599,2293.007 606.278,2293.007 L606.278,2293.007 Z M643.904,2288.581 C643.662,2288.581 643.42,2288.494 643.227,2288.317 C641.57,2286.796 639.716,2285.518 637.715,2284.519 C637.221,2284.272 637.019,2283.672 637.267,2283.178 C637.513,2282.686 638.112,2282.481 638.607,2282.729 C640.776,2283.811 642.786,2285.196 644.581,2286.845 C644.987,2287.218 645.015,2287.851 644.641,2288.258 C644.443,2288.473 644.174,2288.581 643.904,2288.581 L643.904,2288.581 Z M615.08,2285.019 C614.726,2285.019 614.382,2284.831 614.2,2284.497 C613.937,2284.012 614.116,2283.405 614.602,2283.141 C616.739,2281.979 619.026,2281.125 621.401,2280.604 C621.939,2280.486 622.474,2280.827 622.592,2281.367 C622.71,2281.906 622.369,2282.439 621.829,2282.557 C619.639,2283.038 617.528,2283.825 615.557,2284.898 C615.405,2284.98 615.241,2285.019 615.08,2285.019 L615.08,2285.019 Z M633.495,2282.852 C633.409,2282.852 633.322,2282.841 633.235,2282.817 C631.213,2282.275 629.115,2282 627,2282 L626.592,2282.004 C626.07,2282.029 625.583,2281.576 625.571,2281.024 C625.56,2280.473 625.999,2280.016 626.551,2280.004 L627,2280 C629.29,2280 631.562,2280.298 633.753,2280.886 C634.287,2281.029 634.604,2281.577 634.46,2282.11 C634.34,2282.557 633.937,2282.852 633.495,2282.852 L633.495,2282.852 Z" id="Fill-2113" fill="#314E55" sketch:type="MSShapeGroup"></path>
                <g id="Group-2116" transform="translate(616.000000, 2290.000000)">
                    <mask id="mask-2" sketch:name="Clip 2115" fill="white">
                        <use xlink:href="#path-1"></use>
                    </mask>
                    <g id="Clip-2115"></g>
                    <path d="M0.912,0 L21.606,0 L21.606,29 L0.912,29 L0.912,0 Z" id="Fill-2114" fill="#D8D8D8" sketch:type="MSShapeGroup" mask="url(#mask-2)"></path>
                </g>
                <path d="M632.833,2320 L621.67,2320 C621.117,2320 620.67,2319.553 620.67,2319 L620.67,2314.774 C619.828,2313.739 619.109,2312.493 618.562,2311.122 C617.502,2311.036 616.62,2310.22 616.472,2309.157 L616.021,2305.95 C615.878,2304.931 616.434,2303.972 617.322,2303.555 C617.371,2302.342 617.531,2301.151 617.8,2300.005 C617.762,2299.683 617.743,2299.352 617.743,2299.019 C617.743,2294.644 621.162,2290.845 625.713,2290.144 C626.985,2289.702 629.249,2289 630.778,2289 C631.517,2289 631.967,2289.342 632.215,2289.628 C632.624,2290.099 632.804,2290.776 632.76,2291.686 C635.277,2293.374 636.761,2296.07 636.761,2299.019 C636.761,2299.347 636.742,2299.677 636.704,2300.004 C636.971,2301.144 637.131,2302.324 637.181,2303.527 C638.078,2303.945 638.64,2304.911 638.496,2305.936 L638.041,2309.173 C637.89,2310.244 636.999,2311.066 635.932,2311.148 C635.386,2312.508 634.67,2313.744 633.833,2314.774 L633.833,2319 C633.833,2319.553 633.386,2320 632.833,2320 L632.833,2320 Z M622.67,2318 L631.833,2318 L631.833,2314.41 C631.833,2314.169 631.92,2313.937 632.078,2313.754 C633.013,2312.679 633.789,2311.29 634.324,2309.737 C634.413,2309.48 634.602,2309.27 634.851,2309.155 C635.098,2309.043 635.38,2309.032 635.635,2309.133 L635.755,2309.155 C635.908,2309.155 636.039,2309.043 636.06,2308.894 L636.516,2305.658 C636.539,2305.49 636.422,2305.339 636.248,2305.314 C635.697,2305.314 635.198,2304.865 635.197,2304.313 C635.194,2302.935 635.033,2301.584 634.718,2300.298 C634.688,2300.175 634.682,2300.048 634.699,2299.923 C634.74,2299.624 634.761,2299.32 634.761,2299.019 C634.761,2296.583 633.431,2294.359 631.203,2293.071 C630.85,2292.867 630.656,2292.468 630.714,2292.063 C630.805,2291.437 630.759,2291.13 630.724,2291.002 C629.758,2291.022 628.158,2291.406 626.284,2292.062 C626.223,2292.084 626.159,2292.099 626.096,2292.109 C622.474,2292.63 619.743,2295.6 619.743,2299.019 C619.743,2299.326 619.764,2299.63 619.805,2299.921 C619.822,2300.046 619.816,2300.175 619.786,2300.298 C619.469,2301.59 619.308,2302.949 619.307,2304.338 C619.307,2304.89 618.858,2305.337 618.307,2305.337 C618.092,2305.363 617.979,2305.51 618.001,2305.673 L618.452,2308.879 C618.473,2309.022 618.599,2309.13 618.747,2309.13 C618.999,2309.031 619.341,2309.029 619.589,2309.144 C619.836,2309.259 620.083,2309.458 620.172,2309.716 C620.708,2311.28 621.487,2312.677 622.425,2313.754 C622.583,2313.935 622.67,2314.169 622.67,2314.41 L622.67,2318 L622.67,2318 Z" id="Fill-2117" fill="#314E55" sketch:type="MSShapeGroup"></path>
            </g>
        </g>
    </g>
</svg>