<?xml version="1.0" encoding="UTF-8" standalone="no"?>
<svg width="60px" height="60px" viewBox="0 0 60 60" version="1.1" xmlns="http://www.w3.org/2000/svg" xmlns:xlink="http://www.w3.org/1999/xlink" xmlns:sketch="http://www.bohemiancoding.com/sketch/ns">
    <!-- Generator: Sketch 3.3.3 (12081) - http://www.bohemiancoding.com/sketch -->
    <title>Verticalgallery</title>
    <desc>Created with Sketch.</desc>
    <defs>
        <path id="path-1" d="M0,1 L13,1 L12,0 L12,10 L13,9 L0,9 L1,10 L1,0 L0,1 L0,1 Z"></path>
        <path id="path-3" d="M0,0 L13,0 L13,10 L0,10 L0,0 Z"></path>
        <path id="path-5" d="M0,1 L13,1 L12,0 L12,10 L13,9 L0,9 L1,10 L1,0 L0,1 L0,1 Z"></path>
        <path id="path-7" d="M0,0 L13,0 L13,10 L0,10 L0,0 Z"></path>
        <path id="path-9" d="M0,1 L13,1 L12,0 L12,10 L13,9 L0,9 L1,10 L1,0 L0,1 L0,1 Z"></path>
        <path id="path-11" d="M0,0 L13,0 L13,10 L0,10 L0,0 Z"></path>
        <path id="path-13" d="M0,1 L13,1 L12,0 L12,10 L13,9 L0,9 L1,10 L1,0 L0,1 L0,1 Z"></path>
        <path id="path-15" d="M0,0 L13,0 L13,10 L0,10 L0,0 Z"></path>
        <path id="path-17" d="M0,1 L13,1 L12,0 L12,10 L13,9 L0,9 L1,10 L1,0 L0,1 L0,1 Z"></path>
        <path id="path-19" d="M0,0 L13,0 L13,10 L0,10 L0,0 Z"></path>
        <path id="path-21" d="M0,1 L13,1 L12,0 L12,10 L13,9 L0,9 L1,10 L1,0 L0,1 L0,1 Z"></path>
        <path id="path-23" d="M0,0 L13,0 L13,10 L0,10 L0,0 Z"></path>
    </defs>
    <g id="outlined" stroke="none" stroke-width="1" fill="none" fill-rule="evenodd" sketch:type="MSPage">
        <g id="Interface_sliced" sketch:type="MSLayerGroup" transform="translate(-720.000000, -2040.000000)">
            <g id="Imported-Layers" transform="translate(2.000000, 4.000000)">
                <path d="M722,2046 L776,2046 L776,2086 L722,2086 L722,2046 Z" id="Fill-1832" fill="#D8D8D8" sketch:type="MSShapeGroup"></path>
                <path d="M776,2087 L722,2087 C721.447,2087 721,2086.553 721,2086 L721,2046 C721,2045.447 721.447,2045 722,2045 L776,2045 C776.553,2045 777,2045.447 777,2046 L777,2086 C777,2086.553 776.553,2087 776,2087 L776,2087 Z M723,2085 L775,2085 L775,2047 L723,2047 L723,2085 Z" id="Fill-1834" fill="#314E55" sketch:type="MSShapeGroup"></path>
                <path d="M722,2046 L732,2046 L732,2086 L722,2086 L722,2046 Z" id="Fill-1835" fill="#C59981" sketch:type="MSShapeGroup"></path>
                <path d="M732,2087 L722,2087 C721.447,2087 721,2086.553 721,2086 L721,2046 C721,2045.447 721.447,2045 722,2045 L732,2045 C732.553,2045 733,2045.447 733,2046 L733,2086 C733,2086.553 732.553,2087 732,2087 L732,2087 Z M723,2085 L731,2085 L731,2047 L723,2047 L723,2085 Z" id="Fill-1837" fill="#314E55" sketch:type="MSShapeGroup"></path>
                <g id="Group-1840" transform="translate(740.000000, 2049.000000)">
                    <mask id="mask-2" sketch:name="Clip 1839" fill="white">
                        <use xlink:href="#path-1"></use>
                    </mask>
                    <g id="Clip-1839"></g>
                    <path d="M0,0 L13,0 L13,10 L0,10 L0,0 Z" id="Fill-1838" fill="#81A4E3" sketch:type="MSShapeGroup" mask="url(#mask-2)"></path>
                </g>
                <g id="Group-1843" transform="translate(740.000000, 2049.000000)">
                    <mask id="mask-4" sketch:name="Clip 1842" fill="white">
                        <use xlink:href="#path-3"></use>
                    </mask>
                    <g id="Clip-1842"></g>
                    <path d="M13,12 L0,12 C-1.104,12 -2,11.104 -2,10 L-2,0 C-2,-1.104 -1.104,-2 0,-2 L13,-2 C14.104,-2 15,-1.104 15,0 L15,10 C15,11.104 14.104,12 13,12 L13,12 Z M2,8 L11,8 L11,2 L2,2 L2,8 Z" id="Fill-1841" fill="#314E55" sketch:type="MSShapeGroup" mask="url(#mask-4)"></path>
                </g>
                <g id="Group-1846" transform="translate(740.000000, 2061.000000)">
                    <mask id="mask-6" sketch:name="Clip 1845" fill="white">
                        <use xlink:href="#path-5"></use>
                    </mask>
                    <g id="Clip-1845"></g>
                    <path d="M0,0 L13,0 L13,10 L0,10 L0,0 Z" id="Fill-1844" fill="#81A4E3" sketch:type="MSShapeGroup" mask="url(#mask-6)"></path>
                </g>
                <g id="Group-1849" transform="translate(740.000000, 2061.000000)">
                    <mask id="mask-8" sketch:name="Clip 1848" fill="white">
                        <use xlink:href="#path-7"></use>
                    </mask>
                    <g id="Clip-1848"></g>
                    <path d="M13,12 L0,12 C-1.104,12 -2,11.104 -2,10 L-2,0 C-2,-1.104 -1.104,-2 0,-2 L13,-2 C14.104,-2 15,-1.104 15,0 L15,10 C15,11.104 14.104,12 13,12 L13,12 Z M2,8 L11,8 L11,2 L2,2 L2,8 Z" id="Fill-1847" fill="#314E55" sketch:type="MSShapeGroup" mask="url(#mask-8)"></path>
                </g>
                <g id="Group-1852" transform="translate(755.000000, 2049.000000)">
                    <mask id="mask-10" sketch:name="Clip 1851" fill="white">
                        <use xlink:href="#path-9"></use>
                    </mask>
                    <g id="Clip-1851"></g>
                    <path d="M0,0 L13,0 L13,10 L0,10 L0,0 Z" id="Fill-1850" fill="#81A4E3" sketch:type="MSShapeGroup" mask="url(#mask-10)"></path>
                </g>
                <g id="Group-1855" transform="translate(755.000000, 2049.000000)">
                    <mask id="mask-12" sketch:name="Clip 1854" fill="white">
                        <use xlink:href="#path-11"></use>
                    </mask>
                    <g id="Clip-1854"></g>
                    <path d="M13,12 L0,12 C-1.104,12 -2,11.104 -2,10 L-2,0 C-2,-1.104 -1.104,-2 0,-2 L13,-2 C14.104,-2 15,-1.104 15,0 L15,10 C15,11.104 14.104,12 13,12 L13,12 Z M2,8 L11,8 L11,2 L2,2 L2,8 Z" id="Fill-1853" fill="#314E55" sketch:type="MSShapeGroup" mask="url(#mask-12)"></path>
                </g>
                <g id="Group-1858" transform="translate(755.000000, 2061.000000)">
                    <mask id="mask-14" sketch:name="Clip 1857" fill="white">
                        <use xlink:href="#path-13"></use>
                    </mask>
                    <g id="Clip-1857"></g>
                    <path d="M0,0 L13,0 L13,10 L0,10 L0,0 Z" id="Fill-1856" fill="#81A4E3" sketch:type="MSShapeGroup" mask="url(#mask-14)"></path>
                </g>
                <g id="Group-1861" transform="translate(755.000000, 2061.000000)">
                    <mask id="mask-16" sketch:name="Clip 1860" fill="white">
                        <use xlink:href="#path-15"></use>
                    </mask>
                    <g id="Clip-1860"></g>
                    <path d="M13,12 L0,12 C-1.104,12 -2,11.104 -2,10 L-2,0 C-2,-1.104 -1.104,-2 0,-2 L13,-2 C14.104,-2 15,-1.104 15,0 L15,10 C15,11.104 14.104,12 13,12 L13,12 Z M2,8 L11,8 L11,2 L2,2 L2,8 Z" id="Fill-1859" fill="#314E55" sketch:type="MSShapeGroup" mask="url(#mask-16)"></path>
                </g>
                <g id="Group-1864" transform="translate(740.000000, 2073.000000)">
                    <mask id="mask-18" sketch:name="Clip 1863" fill="white">
                        <use xlink:href="#path-17"></use>
                    </mask>
                    <g id="Clip-1863"></g>
                    <path d="M0,0 L13,0 L13,10 L0,10 L0,0 Z" id="Fill-1862" fill="#81A4E3" sketch:type="MSShapeGroup" mask="url(#mask-18)"></path>
                </g>
                <g id="Group-1867" transform="translate(740.000000, 2073.000000)">
                    <mask id="mask-20" sketch:name="Clip 1866" fill="white">
                        <use xlink:href="#path-19"></use>
                    </mask>
                    <g id="Clip-1866"></g>
                    <path d="M13,12 L0,12 C-1.104,12 -2,11.104 -2,10 L-2,0 C-2,-1.104 -1.104,-2 0,-2 L13,-2 C14.104,-2 15,-1.104 15,0 L15,10 C15,11.104 14.104,12 13,12 L13,12 Z M2,8 L11,8 L11,2 L2,2 L2,8 Z" id="Fill-1865" fill="#314E55" sketch:type="MSShapeGroup" mask="url(#mask-20)"></path>
                </g>
                <g id="Group-1870" transform="translate(755.000000, 2073.000000)">
                    <mask id="mask-22" sketch:name="Clip 1869" fill="white">
                        <use xlink:href="#path-21"></use>
                    </mask>
                    <g id="Clip-1869"></g>
                    <path d="M0,0 L13,0 L13,10 L0,10 L0,0 Z" id="Fill-1868" fill="#81A4E3" sketch:type="MSShapeGroup" mask="url(#mask-22)"></path>
                </g>
                <g id="Group-1873" transform="translate(755.000000, 2073.000000)">
                    <mask id="mask-24" sketch:name="Clip 1872" fill="white">
                        <use xlink:href="#path-23"></use>
                    </mask>
                    <g id="Clip-1872"></g>
                    <path d="M13,12 L0,12 C-1.104,12 -2,11.104 -2,10 L-2,0 C-2,-1.104 -1.104,-2 0,-2 L13,-2 C14.104,-2 15,-1.104 15,0 L15,10 C15,11.104 14.104,12 13,12 L13,12 Z M2,8 L11,8 L11,2 L2,2 L2,8 Z" id="Fill-1871" fill="#314E55" sketch:type="MSShapeGroup" mask="url(#mask-24)"></path>
                </g>
            </g>
        </g>
    </g>
</svg>