<?xml version="1.0" encoding="UTF-8" standalone="no"?>
<svg width="60px" height="60px" viewBox="0 0 60 60" version="1.1" xmlns="http://www.w3.org/2000/svg" xmlns:xlink="http://www.w3.org/1999/xlink" xmlns:sketch="http://www.bohemiancoding.com/sketch/ns">
    <!-- Generator: Sketch 3.3.3 (12081) - http://www.bohemiancoding.com/sketch -->
    <title>Warp</title>
    <desc>Created with Sketch.</desc>
    <defs></defs>
    <g id="outlined" stroke="none" stroke-width="1" fill="none" fill-rule="evenodd" sketch:type="MSPage">
        <g id="Interface_sliced" sketch:type="MSLayerGroup" transform="translate(-240.000000, -1200.000000)">
            <g id="Imported-Layers" transform="translate(2.000000, 4.000000)" sketch:type="MSShapeGroup">
                <path d="M244,1201 L293,1201 L293,1250 L244,1250 L244,1201 Z" id="Fill-1010" fill="#81A4E3"></path>
                <path d="M293,1251 L244,1251 C243.448,1251 243,1250.553 243,1250 L243,1201 C243,1200.448 243.448,1200 244,1200 L293,1200 C293.552,1200 294,1200.448 294,1201 L294,1250 C294,1250.553 293.552,1251 293,1251 L293,1251 Z M245,1249 L292,1249 L292,1202 L245,1202 L245,1249 Z" id="Fill-1012" fill="#314E55"></path>
                <path d="M244.001,1216.5 C243.693,1216.5 243.39,1216.358 243.193,1216.091 C242.867,1215.646 242.963,1215.02 243.409,1214.693 C243.726,1214.461 251.256,1209 258.5,1209 C262.261,1209 267.024,1210.226 271.629,1211.412 C275.801,1212.485 279.742,1213.5 282.5,1213.5 C288.369,1213.5 292.845,1213.011 292.89,1213.006 C293.443,1212.942 293.933,1213.341 293.994,1213.89 C294.055,1214.438 293.659,1214.933 293.11,1214.994 C293.065,1214.999 288.486,1215.5 282.5,1215.5 C279.489,1215.5 275.429,1214.455 271.131,1213.348 C266.645,1212.194 262.008,1211 258.5,1211 C251.904,1211 244.664,1216.253 244.591,1216.307 C244.413,1216.437 244.206,1216.5 244.001,1216.5" id="Fill-1013" fill="#314E55"></path>
                <path d="M265,1236.5 C256.475,1236.5 244.752,1233.594 244.257,1233.47 C243.722,1233.336 243.396,1232.793 243.53,1232.258 C243.664,1231.721 244.202,1231.395 244.743,1231.53 C244.861,1231.56 256.724,1234.5 265,1234.5 C269.336,1234.5 271.553,1233.139 273.695,1231.823 C275.555,1230.681 277.478,1229.5 280.5,1229.5 C286.581,1229.5 293.023,1231.461 293.294,1231.544 C293.822,1231.707 294.118,1232.266 293.956,1232.794 C293.794,1233.321 293.234,1233.622 292.706,1233.456 C292.643,1233.437 286.273,1231.5 280.5,1231.5 C278.043,1231.5 276.514,1232.439 274.742,1233.527 C272.473,1234.921 269.902,1236.5 265,1236.5" id="Fill-1014" fill="#314E55"></path>
                <path d="M260,1251 C259.832,1251 259.662,1250.957 259.505,1250.868 C259.026,1250.596 258.858,1249.984 259.131,1249.505 C259.15,1249.472 261.034,1246.108 261.505,1241.4 C261.998,1236.47 260.428,1229.545 257.084,1221.901 C253.427,1213.542 260.332,1201.04 260.627,1200.511 C260.898,1200.03 261.507,1199.859 261.988,1200.127 C262.47,1200.397 262.642,1201.006 262.373,1201.488 C262.305,1201.609 255.658,1213.652 258.916,1221.099 C262.396,1229.052 264.021,1236.333 263.495,1241.6 C262.98,1246.752 260.954,1250.346 260.868,1250.496 C260.684,1250.819 260.347,1251 260,1251" id="Fill-1015" fill="#314E55"></path>
                <path d="M281.001,1251 C280.634,1251 280.281,1250.798 280.105,1250.447 C280.018,1250.271 277.959,1246.074 279.024,1241.283 C279.95,1237.116 279.576,1228.885 277.058,1221.836 C274.484,1214.629 277.886,1201.312 278.032,1200.749 C278.171,1200.215 278.715,1199.894 279.251,1200.032 C279.785,1200.17 280.106,1200.716 279.968,1201.251 C279.934,1201.383 276.575,1214.536 278.942,1221.164 C281.585,1228.565 281.963,1237.277 280.976,1241.717 C280.064,1245.823 281.876,1249.516 281.894,1249.553 C282.142,1250.047 281.941,1250.647 281.447,1250.895 C281.304,1250.966 281.151,1251 281.001,1251" id="Fill-1016" fill="#314E55"></path>
            </g>
        </g>
    </g>
</svg>