<?xml version="1.0" encoding="UTF-8" standalone="no"?>
<svg width="60px" height="60px" viewBox="0 0 60 60" version="1.1" xmlns="http://www.w3.org/2000/svg" xmlns:xlink="http://www.w3.org/1999/xlink" xmlns:sketch="http://www.bohemiancoding.com/sketch/ns">
    <!-- Generator: Sketch 3.3.3 (12081) - http://www.bohemiancoding.com/sketch -->
    <title>Zoom</title>
    <desc>Created with Sketch.</desc>
    <defs></defs>
    <g id="outlined" stroke="none" stroke-width="1" fill="none" fill-rule="evenodd" sketch:type="MSPage">
        <g id="Interface_sliced" sketch:type="MSLayerGroup" transform="translate(-360.000000, -960.000000)" fill="#314E55">
            <g id="Imported-Layers" transform="translate(2.000000, 4.000000)" sketch:type="MSShapeGroup">
                <path d="M362,980 C361.448,980 361,979.552 361,979 L361,960 C361,959.448 361.448,959 362,959 L381,959 C381.552,959 382,959.448 382,960 C382,960.552 381.552,961 381,961 L363,961 L363,979 C363,979.552 362.552,980 362,980" id="Fill-890"></path>
                <path d="M414,980 C413.448,980 413,979.552 413,979 L413,961 L395,961 C394.448,961 394,960.552 394,960 C394,959.448 394.448,959 395,959 L414,959 C414.552,959 415,959.448 415,960 L415,979 C415,979.552 414.552,980 414,980" id="Fill-891"></path>
                <path d="M381,1013 L362,1013 C361.448,1013 361,1012.552 361,1012 L361,993 C361,992.448 361.448,992 362,992 C362.552,992 363,992.448 363,993 L363,1011 L381,1011 C381.552,1011 382,1011.448 382,1012 C382,1012.552 381.552,1013 381,1013" id="Fill-892"></path>
                <path d="M414,1013 L395,1013 C394.448,1013 394,1012.552 394,1012 C394,1011.448 394.448,1011 395,1011 L413,1011 L413,993 C413,992.448 413.448,992 414,992 C414.552,992 415,992.448 415,993 L415,1012 C415,1012.552 414.552,1013 414,1013" id="Fill-893"></path>
                <path d="M387,976 L389,976 L389,998 L387,998 L387,976 Z" id="Fill-894"></path>
                <path d="M377,986 L399,986 L399,988 L377,988 L377,986 Z" id="Fill-895"></path>
            </g>
        </g>
    </g>
</svg>