<?xml version="1.0" encoding="UTF-8" standalone="no"?>
<svg width="60px" height="60px" viewBox="0 0 60 60" version="1.1" xmlns="http://www.w3.org/2000/svg" xmlns:xlink="http://www.w3.org/1999/xlink" xmlns:sketch="http://www.bohemiancoding.com/sketch/ns">
    <!-- Generator: Sketch 3.3.3 (12081) - http://www.bohemiancoding.com/sketch -->
    <title>Zoomin</title>
    <desc>Created with Sketch.</desc>
    <defs>
        <path id="path-1" d="M5.5,11 C8.538,11 11,8.538 11,5.5 C11,2.462 8.538,0 5.5,0 C2.462,0 0,2.462 0,5.5 C0,8.538 2.462,11 5.5,11 L5.5,11 Z"></path>
    </defs>
    <g id="outlined" stroke="none" stroke-width="1" fill="none" fill-rule="evenodd" sketch:type="MSPage">
        <g id="Interface_sliced" sketch:type="MSLayerGroup" transform="translate(-600.000000, -960.000000)">
            <g id="Imported-Layers" transform="translate(2.000000, 4.000000)">
                <path d="M605,976 C604.447,976 604,975.552 604,975 L604,963 C604,962.448 604.447,962 605,962 L617,962 C617.553,962 618,962.448 618,963 C618,963.552 617.553,964 617,964 L606,964 L606,975 C606,975.552 605.553,976 605,976" id="Fill-908" fill="#314E55" sketch:type="MSShapeGroup"></path>
                <path d="M617,1010 L605,1010 C604.447,1010 604,1009.552 604,1009 L604,997 C604,996.448 604.447,996 605,996 C605.553,996 606,996.448 606,997 L606,1008 L617,1008 C617.553,1008 618,1008.448 618,1009 C618,1009.552 617.553,1010 617,1010" id="Fill-909" fill="#314E55" sketch:type="MSShapeGroup"></path>
                <path d="M651,976 C650.447,976 650,975.552 650,975 L650,964 L639,964 C638.447,964 638,963.552 638,963 C638,962.448 638.447,962 639,962 L651,962 C651.553,962 652,962.448 652,963 L652,975 C652,975.552 651.553,976 651,976" id="Fill-910" fill="#314E55" sketch:type="MSShapeGroup"></path>
                <path d="M651,1010 L639,1010 C638.447,1010 638,1009.552 638,1009 C638,1008.448 638.447,1008 639,1008 L650,1008 L650,997 C650,996.448 650.447,996 651,996 C651.553,996 652,996.448 652,997 L652,1009 C652,1009.552 651.553,1010 651,1010" id="Fill-911" fill="#314E55" sketch:type="MSShapeGroup"></path>
                <path d="M621.508,980.508 C621.252,980.508 620.996,980.411 620.801,980.215 L605.293,964.707 C604.902,964.316 604.902,963.684 605.293,963.293 C605.684,962.902 606.316,962.902 606.707,963.293 L622.215,978.801 C622.606,979.192 622.606,979.825 622.215,980.215 C622.019,980.411 621.764,980.508 621.508,980.508" id="Fill-912" fill="#314E55" sketch:type="MSShapeGroup"></path>
                <path d="M649.508,1008.508 C649.252,1008.508 648.996,1008.411 648.801,1008.215 L633.293,992.707 C632.902,992.316 632.902,991.683 633.293,991.293 C633.684,990.902 634.316,990.902 634.707,991.293 L650.215,1006.801 C650.606,1007.192 650.606,1007.825 650.215,1008.215 C650.019,1008.411 649.764,1008.508 649.508,1008.508" id="Fill-913" fill="#314E55" sketch:type="MSShapeGroup"></path>
                <path d="M634.492,980.508 C634.236,980.508 633.98,980.411 633.785,980.215 C633.394,979.825 633.394,979.192 633.785,978.801 L649.293,963.293 C649.684,962.902 650.316,962.902 650.707,963.293 C651.098,963.684 651.098,964.316 650.707,964.707 L635.199,980.215 C635.004,980.411 634.748,980.508 634.492,980.508" id="Fill-914" fill="#314E55" sketch:type="MSShapeGroup"></path>
                <path d="M606.492,1008.508 C606.236,1008.508 605.981,1008.411 605.785,1008.215 C605.394,1007.825 605.394,1007.192 605.785,1006.801 L621.293,991.293 C621.684,990.902 622.316,990.902 622.707,991.293 C623.098,991.683 623.098,992.316 622.707,992.707 L607.199,1008.215 C607.004,1008.411 606.748,1008.508 606.492,1008.508" id="Fill-915" fill="#314E55" sketch:type="MSShapeGroup"></path>
                <g id="Group-918" transform="translate(622.000000, 980.000000)">
                    <mask id="mask-2" sketch:name="Clip 917" fill="white">
                        <use xlink:href="#path-1"></use>
                    </mask>
                    <g id="Clip-917"></g>
                    <path d="M0,0 L11,0 L11,11 L0,11 L0,0 Z" id="Fill-916" fill="#5ECB66" sketch:type="MSShapeGroup" mask="url(#mask-2)"></path>
                </g>
                <path d="M627.5,992 C623.916,992 621,989.084 621,985.5 C621,981.916 623.916,979 627.5,979 C631.084,979 634,981.916 634,985.5 C634,989.084 631.084,992 627.5,992 L627.5,992 Z M627.5,981 C625.019,981 623,983.019 623,985.5 C623,987.981 625.019,990 627.5,990 C629.981,990 632,987.981 632,985.5 C632,983.019 629.981,981 627.5,981 L627.5,981 Z" id="Fill-919" fill="#314E55" sketch:type="MSShapeGroup"></path>
            </g>
        </g>
    </g>
</svg>